<?xml version="1.0" encoding="utf-8"?>
<!-- Generator: Adobe Illustrator 24.0.3, SVG Export Plug-In . SVG Version: 6.00 Build 0)  -->
<svg version="1.1" id="form_logo.svg" xmlns="http://www.w3.org/2000/svg" xmlns:xlink="http://www.w3.org/1999/xlink" x="0px"
	 y="0px" viewBox="0 0 126 28" style="enable-background:new 0 0 126 28;" xml:space="preserve">
<style type="text/css">
	.st0{fill:#595649;}
	.st1{fill:#989797;}
</style>
<g>
	<g>
		<path class="st0" d="M45.2,8.6c0,1.3-0.2,2.6-0.3,3.8c-0.4,2.6-1.4,4.6-2.8,5.8c-0.1,0.1-0.2,0.1-0.2,0c-0.1-0.1,0-0.4,0.4-0.8
			c0.8-1.8,1.3-4.7,1.4-8.6l-0.2,0.1h-7l-1,0.1c-0.1,0-0.2,0-0.2,0L35,8.2c0-0.1,0-0.1,0.2-0.1l1.2,0.1h3.3c0.4-1,0.6-1.9,0.8-2.8
			c0-0.1,0.1-0.2,0.1-0.1l1.4,0.3c0.3,0.1,0.4,0.2,0.4,0.3c0,0.1-0.1,0.2-0.3,0.2c-0.1,0-0.2,0.1-0.3,0.2c-0.4,0.7-1,1.3-1.6,1.9
			h0.9c0.1,0,0.2,0,0.3-0.1l0.8-0.9c0.1-0.1,0.2-0.1,0.3,0c0.5,0.3,0.9,0.7,1.2,1.2l0,0V7.1V3.5c0-0.1,0-0.1,0.1-0.1
			c0.4,0.1,0.9,0.3,1.4,0.6c1.9-0.5,3.3-1.1,4.2-1.6c0.1-0.1,0.1-0.1,0.2,0c0.5,0.2,0.9,0.5,1.4,0.9C51,3.4,51.1,3.5,51,3.6
			c-0.1,0.1-0.2,0.1-0.3,0.1h-0.4c-1.2,0.3-2.9,0.5-5.1,0.7v0.2v2.4v1.1h3c0.1,0,0.2-0.1,0.3-0.1L49.3,7c0.1-0.1,0.2-0.1,0.3,0
			c0.6,0.4,1.1,0.8,1.4,1.3c0.1,0.1,0.1,0.2,0.1,0.2c0,0.1-0.1,0.1-0.3,0.1h-1.9v8.9c0,0.3-0.1,0.4-0.4,0.5c-0.3,0.1-0.6,0.1-0.9,0
			c-0.2-0.1-0.3-0.3-0.3-0.5V8.6H45.2z M39.9,17.5c0,0.3-0.1,0.5-0.4,0.6c-0.3,0.1-0.7,0.1-1,0c-0.2-0.1-0.3-0.2-0.3-0.4v-3.5
			c-0.9,1.6-1.9,2.6-3,3.1c-0.1,0-0.2,0-0.2,0c0-0.1,0-0.1,0.1-0.2c1.1-1.1,2-2.9,2.6-5.2h-1l-1,0.1c-0.1,0-0.2,0-0.2,0l-0.2-0.6
			c0-0.1,0-0.1,0.2-0.1l1.2,0.1h1.6V9.6V9.4c0-0.1,0-0.1,0.1-0.1L40,9.5c0.3,0.1,0.4,0.2,0.4,0.3l-0.5,0.6v0.9h0.7
			c0.1,0,0.2,0,0.2-0.1l0.8-0.9c0.1-0.1,0.2-0.1,0.2,0c0.5,0.3,0.9,0.7,1.2,1.1c0.1,0.1,0.1,0.2,0.1,0.2c0,0.1-0.1,0.1-0.3,0.1h-2.9
			v0.7h0.1c1.1,0.2,1.9,0.8,2.4,1.6c0.1,0.3,0.2,0.6,0.1,0.9c-0.1,0.3-0.2,0.5-0.5,0.5c-0.3,0.1-0.5,0-0.7-0.1
			c-0.2-0.1-0.3-0.4-0.4-0.7c-0.2-0.7-0.5-1.4-1.1-1.9V17.5z M38.2,2C38.2,2,38.2,2,38.2,2c0.7,0,1.2,0.1,1.7,0.2
			c0.2,0.1,0.3,0.1,0.3,0.2c0,0.1-0.1,0.2-0.3,0.3c-0.1,0-0.2,0.1-0.2,0.2v1.5h0.6c0.1,0,0.2,0,0.3-0.1l0.8-0.9
			c0.1-0.1,0.2-0.1,0.3,0c0.5,0.3,0.9,0.7,1.2,1.2C43,4.6,43,4.7,43,4.8c0,0.1-0.1,0.1-0.3,0.1h-6l-1,0.1c-0.1,0-0.2,0-0.2,0
			l-0.2-0.6c0-0.1,0-0.1,0.2-0.1l1.2,0.1h1.5V2z M36.5,5.2c0,0,0.1-0.1,0.1,0c1,0.2,1.6,0.8,1.9,1.6c0.1,0.3,0,0.6-0.1,0.9
			C38.3,7.9,38.1,8,37.9,8c-0.6,0-0.9-0.3-0.8-1c0-0.7-0.1-1.2-0.5-1.7C36.5,5.3,36.5,5.3,36.5,5.2z"/>
		<path class="st0" d="M55.9,8.9h-0.6L54.2,9c-0.1,0-0.1,0-0.1,0l-0.1-0.6c0-0.1,0-0.1,0.2-0.1l1.2,0.1h0.6V4.2h-0.5l-1.1,0.1
			c-0.1,0-0.1,0-0.1,0L54,3.7c0-0.1,0-0.1,0.2-0.1l1.2,0.1h2.7c0.1,0,0.2,0,0.2-0.1l0.6-0.8c0.1-0.1,0.2-0.1,0.3,0
			c0.3,0.3,0.6,0.6,0.8,1c0.1,0.1,0.1,0.2,0.1,0.3c0,0.1-0.1,0.1-0.3,0.1h-2.4v4.2H58c0.1,0,0.3-0.3,0.8-0.9c0.1-0.1,0.2-0.1,0.3,0
			c0.3,0.2,0.6,0.6,0.8,0.9C60,8.5,60,8.6,60,8.7c0,0.1-0.1,0.1-0.2,0.1h-2.3v4c0.8-0.2,1.5-0.4,2.3-0.7c0.1-0.1,0.2,0,0.2,0
			c0,0.1,0,0.1-0.1,0.2c-0.6,0.5-1.4,1-2.4,1.4l-2,0.9c-0.3,0.1-0.4,0.2-0.4,0.3c-0.1,0.2-0.1,0.3-0.2,0.3c-0.1,0-0.2-0.1-0.3-0.3
			c-0.2-0.4-0.4-0.9-0.6-1.5c0-0.1,0-0.2,0.2-0.2l1.7-0.2V8.9z M63.8,13.6h-3.1l-1,0.1c-0.1,0-0.2,0-0.2,0l-0.2-0.6
			c0-0.1,0-0.1,0.2-0.1l1.2,0.1h3.1v-2.9h-1.7v0.4c0,0.3-0.1,0.5-0.2,0.6c-0.2,0.2-0.4,0.2-0.8,0.2c-0.2,0-0.4,0-0.5-0.1
			c-0.1-0.1-0.1-0.2-0.1-0.4V2.9V2.8h0.1c0.4,0.1,1,0.3,1.5,0.6h4.1c0.1,0,0.3,0,0.3-0.1l0.5-0.5c0.1-0.1,0.2-0.2,0.3-0.1
			c0.6,0.2,1.1,0.5,1.4,0.7c0.3,0.3,0.3,0.5-0.2,0.6c-0.1,0-0.1,0.1-0.1,0.2v6.3c0,0.2-0.1,0.4-0.3,0.5c-0.2,0.1-0.4,0.2-0.7,0.2
			c-0.2,0-0.4,0-0.5-0.1C67,11,67,10.9,67,10.7v-0.5h-1.6v2.9h1.2c0.1,0,0.2-0.1,0.3-0.1l0.8-1c0.1-0.1,0.2-0.1,0.3,0
			c0.5,0.3,1,0.7,1.4,1.3c0.1,0.1,0.1,0.2,0.1,0.2c0,0.1-0.1,0.1-0.3,0.1h-3.8v3.2H67c0.1,0,0.2-0.1,0.3-0.1l0.8-1
			c0.1-0.1,0.2-0.1,0.3,0c0.5,0.3,1,0.7,1.4,1.3c0.1,0.1,0.1,0.2,0.1,0.2c0,0.1-0.1,0.1-0.3,0.1H58.9l-1,0.1c-0.1,0-0.2,0-0.2,0
			l-0.2-0.6c0-0.1,0-0.1,0.2-0.1l1.2,0.1h4.9V13.6z M63.8,3.8h-1.7v2.9h1.7V3.8z M63.8,7.1h-1.7v2.7h1.7V7.1z M65.4,6.7H67V3.8
			c0-0.1-0.1-0.1-0.2-0.1h-1.4V6.7z M65.4,9.8H67V7.1h-1.6V9.8z"/>
		<path class="st0" d="M77.8,11c0,0.3-0.1,0.5-0.4,0.6c-0.3,0.1-0.7,0.1-1,0c-0.2-0.1-0.3-0.2-0.3-0.4V8c-1,1.4-2,2.3-3,2.8
			c-0.1,0-0.2,0-0.2,0c0-0.1,0-0.1,0.1-0.2c1.2-1.1,2.1-2.8,2.8-5.1h-1.2l-1,0.1c-0.1,0-0.2,0-0.2,0L73.4,5c0-0.1,0-0.1,0.2-0.1
			l1.2,0.1h1.5V2.5V2.4c0-0.1,0-0.1,0.1-0.1l1.6,0.2c0.3,0.1,0.4,0.2,0.4,0.3l-0.5,0.6v1.7h0.5c0.1,0,0.2,0,0.2-0.1l0.8-0.9
			c0.1-0.1,0.1-0.1,0.2,0c0.5,0.3,0.9,0.7,1.2,1.1c0.1,0.1,0.1,0.2,0.1,0.2c0,0.1-0.1,0.1-0.3,0.1h-2.7v0.9l0.3,0
			c1,0.2,1.7,0.6,2.2,1.3c0.1,0.3,0.2,0.6,0.2,0.9c-0.1,0.3-0.2,0.5-0.5,0.6c-0.5,0.2-0.9,0-1.1-0.7c-0.2-0.7-0.6-1.3-1.1-1.6V11z
			 M75.5,12.9c0.1,0,0.1,0,0.1,0.1c0.1,0.8,0.1,1.5,0,2.2c-0.2,0.7-0.5,1.3-0.9,1.7c-0.2,0.2-0.5,0.3-0.8,0.3
			c-0.3,0-0.5-0.1-0.7-0.3c-0.1-0.1-0.1-0.2-0.1-0.3c-0.1-0.5,0.1-0.8,0.6-1c0.8-0.5,1.4-1.4,1.7-2.6C75.4,13,75.4,12.9,75.5,12.9z
			 M77.1,12.2c0-0.1,0-0.1,0.1-0.1c0.5,0,0.9,0.1,1.4,0.2c0.3,0.1,0.4,0.2,0.4,0.3l-0.4,0.5v2.5c0,0.1,0,0.2,0.1,0.3
			c0.1,0.1,0.2,0.2,0.4,0.2l0.2,0c2.4,0.1,4,0.1,4.8-0.1c0.2-0.2,0.4-0.7,0.6-1.6c0-0.1,0.1-0.1,0.2-0.1c0.1,0,0.1,0.1,0.2,0.2
			l0.1,1c0,0.3,0.2,0.5,0.4,0.6c0.3,0.1,0.5,0.3,0.5,0.6c0,0.3-0.2,0.6-0.6,0.7c-0.5,0.2-1,0.3-1.6,0.3l-2.6,0.1
			c-1.5,0-2.5-0.1-3.1-0.3c-0.4-0.2-0.7-0.4-0.9-0.7c-0.1-0.3-0.2-0.5-0.2-0.8v-3.3L77.1,12.2z M79.8,11.9c0-0.1,0.1-0.1,0.1-0.1
			c1.5,0.3,2.6,0.9,3,1.8c0.1,0.3,0.2,0.6,0.1,0.9c-0.1,0.3-0.2,0.5-0.5,0.6c-0.6,0.2-1-0.1-1.2-0.8c-0.3-1.1-0.8-1.8-1.5-2.2
			C79.8,12,79.8,12,79.8,11.9z M82.8,11.1c0,0.3-0.1,0.5-0.2,0.6c-0.2,0.2-0.4,0.2-0.8,0.2c-0.2,0-0.4,0-0.5-0.1
			c-0.1-0.1-0.1-0.2-0.1-0.4V3V2.9h0.1c0.5,0.1,0.9,0.3,1.5,0.6h2.4c0.1,0,0.3,0,0.3-0.1L86,2.9c0.1-0.1,0.2-0.2,0.3-0.1
			C87,3,87.4,3.3,87.7,3.5C88.1,3.8,88,4,87.6,4.2c-0.1,0-0.1,0.1-0.1,0.2v7c0,0.2-0.1,0.4-0.3,0.5C87,11.9,86.7,12,86.4,12
			c-0.2,0-0.4,0-0.5-0.1c-0.1-0.1-0.1-0.2-0.1-0.3v-0.8h-3V11.1z M85.9,5.8V4c0-0.1-0.1-0.1-0.2,0h-2.9v1.8H85.9z M85.9,8.1V6.2h-3
			v1.9H85.9z M85.9,10.3V8.5h-3v1.7H85.9z M85,12.8c0-0.1,0.1-0.1,0.2,0h0c1.7,0.7,2.7,1.7,3.1,2.9c0.1,0.3,0.1,0.6,0,1
			c-0.1,0.3-0.3,0.5-0.6,0.5c-0.6,0.1-1-0.2-1-1c-0.2-1.4-0.7-2.5-1.6-3.2C85.1,12.9,85,12.9,85,12.8z"/>
		<path class="st0" d="M99.3,3.9V2.1c0,0,0,0,0.1,0c0.6,0,1.2,0.1,1.7,0.2c0.2,0.1,0.3,0.2,0.3,0.3c0,0.2-0.1,0.3-0.3,0.3
			C101,2.9,101,2.9,101,3v0.8h3.4c0.1,0,0.2-0.1,0.3-0.1l0.9-1.1c0.1-0.1,0.2-0.1,0.3,0c0.6,0.4,1.1,0.8,1.4,1.3
			c0.1,0.1,0.1,0.2,0.1,0.2c0,0.1-0.1,0.1-0.3,0.1H94.5v2.6c0,1.9-0.1,3.7-0.3,5.3c-0.4,2.6-1.2,4.5-2.4,5.7c-0.1,0.1-0.2,0.1-0.2,0
			c0-0.1,0-0.3,0.2-0.8c0.7-2.1,1-5.5,1-10.2V3.3c0-0.1,0-0.1,0.1-0.1c0.5,0.2,1,0.4,1.6,0.7H99.3z M98.6,15.6l1.2,0.9
			c0.2,0.2,0.2,0.3,0.2,0.4c-0.1,0.1-0.2,0.1-0.4,0.1c-0.1,0-0.2,0-0.4,0.1c-1.5,0.7-3.3,1.1-5.2,1.1c-0.1,0-0.2-0.1-0.2-0.1
			c0-0.1,0.1-0.2,0.3-0.2c1.9-0.5,3.3-1.3,4.3-2.3C98.5,15.6,98.5,15.6,98.6,15.6z M103.5,10.9c0.1,0,0.1,0,0.2-0.1l0.4-0.4l0.2,0
			c0.5,0.2,1,0.4,1.4,0.8c0.3,0.2,0.3,0.4-0.1,0.6c-0.1,0-0.2,0.1-0.2,0.3v3.2c0,0.2-0.1,0.3-0.3,0.4c-0.2,0.1-0.5,0.2-0.8,0.2
			c-0.2,0-0.4-0.1-0.5-0.2c-0.1-0.1-0.1-0.3-0.1-0.5V15h-6.4v0.1c0,0.3-0.1,0.5-0.3,0.6c-0.2,0.1-0.5,0.2-0.8,0.2
			c-0.2,0-0.4,0-0.5-0.1c-0.1-0.1-0.1-0.2-0.1-0.4v-5c0-0.1,0-0.1,0.1-0.1c0.7,0.2,1.2,0.4,1.7,0.6h2.3V9.7h-3.6l-1,0.1
			c-0.1,0-0.2,0-0.2,0l-0.2-0.6c0-0.1,0-0.1,0.2-0.1l1.2,0.1h8.1c0.1,0,0.2-0.1,0.3-0.1l0.9-1.1c0.1-0.1,0.2-0.1,0.3,0
			c0.6,0.4,1.1,0.8,1.4,1.3c0.1,0.1,0.1,0.2,0.1,0.2c0,0.1-0.1,0.1-0.3,0.1h-5.5v1.3H103.5z M98.8,8.1L98.8,8.1
			c0,0.3-0.1,0.5-0.3,0.6c-0.3,0.1-0.6,0.1-1,0c-0.2-0.1-0.3-0.2-0.3-0.4V6.6h-0.7l-1,0.1c-0.1,0-0.2,0-0.2,0l-0.2-0.6
			c0-0.1,0-0.1,0.2-0.1l1.2,0.1h0.7V4.8c0-0.1,0-0.1,0.1-0.1l1.5,0.2c0.3,0.1,0.4,0.1,0.4,0.3l-0.4,0.5v0.5h3.3V4.8
			c0-0.1,0-0.1,0.1-0.1l1.5,0.2c0.3,0.1,0.4,0.1,0.4,0.3l-0.4,0.5v0.5h0.3c0.1,0,0.2,0,0.3-0.1l0.8-0.9c0.1-0.1,0.1-0.1,0.2,0
			c0.5,0.3,0.9,0.7,1.2,1.1c0.1,0.1,0.1,0.2,0.1,0.2c0,0.1-0.1,0.1-0.3,0.1h-2.5v1.6c0,0.2-0.1,0.4-0.3,0.5c-0.3,0.1-0.6,0.1-1,0
			c-0.2-0.1-0.3-0.2-0.3-0.4V8.1H98.8z M99.7,11.4h-2.3v1.3h2.3V11.4z M99.7,13.2h-2.3v1.4h2.3V13.2z M102.1,6.6h-3.3v1.1h3.3V6.6z
			 M101.4,12.7h2.4v-1.3c0-0.1-0.1-0.1-0.2-0.1h-2.2V12.7z M101.4,14.6h2.4v-1.4h-2.4V14.6z M101.5,15.9c0-0.1,0.1-0.1,0.1-0.1
			c1.1,0,2.2,0.1,3.1,0.4c1,0.2,1.6,0.6,1.8,1.2c0.1,0.2,0,0.4-0.1,0.6c-0.2,0.2-0.4,0.3-0.6,0.3c-0.2,0-0.5-0.2-0.8-0.4
			c-0.9-0.7-2.1-1.4-3.4-1.9C101.5,16,101.5,16,101.5,15.9z"/>
		<path class="st0" d="M117.4,6h-3.2L114,6.3c-0.8,1.2-1.7,2-2.7,2.5c-0.1,0.1-0.2,0-0.2,0c0-0.1,0-0.1,0-0.2
			c1.2-1.2,2.1-3.1,2.5-5.7c0-0.1,0.1-0.1,0.2-0.1c0.6,0.1,1.2,0.4,1.8,0.7c0.2,0.1,0.2,0.2,0.2,0.3c0,0.2-0.2,0.2-0.4,0.2
			c-0.1,0-0.2,0.1-0.3,0.3l-0.7,1.2h2.9V2.2c0,0,0,0,0.1,0c0.6,0,1.2,0.1,1.7,0.2c0.2,0.1,0.3,0.2,0.3,0.3c0,0.2-0.1,0.3-0.3,0.3
			C119.1,3,119,3,119,3.1v2.4h2.1c0.1,0,0.2,0,0.3-0.1l0.9-1.1c0.1-0.1,0.2-0.1,0.3,0c0.6,0.4,1.1,0.8,1.5,1.4
			c0.1,0.1,0.1,0.2,0.1,0.2c0,0.1-0.1,0.1-0.3,0.1H119v3.3h3.9c0.1,0,0.2,0,0.3-0.1l0.9-1.1c0.1-0.1,0.2-0.1,0.3,0
			c0.6,0.4,1.1,0.8,1.5,1.4c0.1,0.1,0.1,0.2,0.1,0.2c0,0.1-0.1,0.1-0.3,0.1h-13.8l-1,0.1c-0.1,0-0.2,0-0.2,0l-0.2-0.6
			c0-0.1,0-0.1,0.2-0.1l1.2,0.1h5.5V6z M114.4,17.5c0,0.3-0.1,0.5-0.3,0.6c-0.2,0.1-0.5,0.2-0.8,0.2c-0.2,0-0.4,0-0.5-0.1
			c-0.1-0.1-0.1-0.2-0.1-0.4v-6.2c0-0.1,0-0.1,0.1-0.1c0.7,0.2,1.2,0.4,1.7,0.6h6.6c0.1,0,0.3,0,0.3-0.1l0.5-0.5
			c0.1-0.1,0.2-0.2,0.4-0.1c0.6,0.2,1.1,0.5,1.5,0.7c0.4,0.3,0.3,0.5-0.2,0.7c-0.1,0-0.1,0.1-0.1,0.2v4.7c0,0.2-0.1,0.4-0.3,0.5
			c-0.2,0.1-0.4,0.2-0.8,0.2c-0.2,0-0.4-0.1-0.5-0.2c-0.1-0.1-0.1-0.2-0.1-0.3V17h-7.4V17.5z M121.8,16.6v-4c0-0.1-0.1-0.1-0.2,0
			h-7.2v4.1H121.8z"/>
	</g>
	<g>
		<path class="st0" d="M40.2,26.6h-0.8l-2.9-4.5c-0.1-0.1-0.1-0.2-0.2-0.3h0c0,0.1,0,0.4,0,0.8v4.1h-0.6V21h0.8l2.8,4.5
			c0.1,0.2,0.2,0.4,0.2,0.4h0c0-0.2,0-0.5,0-0.8v-4h0.6V26.6z"/>
		<path class="st0" d="M44.8,24.8H42c0,0.5,0.1,0.8,0.4,1.1c0.2,0.2,0.5,0.4,1,0.4c0.5,0,0.9-0.2,1.2-0.5v0.6
			c-0.3,0.3-0.8,0.4-1.4,0.4c-0.6,0-1-0.2-1.3-0.5c-0.3-0.4-0.5-0.9-0.5-1.5c0-0.6,0.2-1.1,0.5-1.5c0.3-0.4,0.8-0.6,1.3-0.6
			c0.5,0,0.9,0.2,1.2,0.5c0.3,0.3,0.4,0.8,0.4,1.4V24.8z M44.2,24.2c0-0.4-0.1-0.7-0.3-0.9c-0.2-0.2-0.4-0.3-0.7-0.3
			c-0.3,0-0.5,0.1-0.8,0.3c-0.2,0.2-0.4,0.5-0.4,0.9H44.2z"/>
		<path class="st0" d="M45.5,24.7c0-0.7,0.2-1.2,0.5-1.6c0.4-0.4,0.9-0.6,1.5-0.6c0.6,0,1,0.2,1.4,0.6c0.3,0.4,0.5,0.9,0.5,1.5
			c0,0.6-0.2,1.1-0.5,1.5c-0.4,0.4-0.8,0.6-1.4,0.6c-0.6,0-1-0.2-1.4-0.6C45.7,25.8,45.5,25.3,45.5,24.7z M46.2,24.7
			c0,0.5,0.1,0.8,0.4,1.1c0.2,0.3,0.6,0.4,1,0.4c0.4,0,0.7-0.1,1-0.4c0.2-0.3,0.3-0.7,0.3-1.2c0-0.5-0.1-0.9-0.3-1.2
			c-0.2-0.3-0.6-0.4-1-0.4c-0.4,0-0.7,0.1-1,0.4S46.2,24.2,46.2,24.7z"/>
		<path class="st0" d="M56.6,21l-2.1,5.6h-0.7l-2-5.6h0.7l1.6,4.5c0,0.1,0.1,0.3,0.1,0.5h0c0-0.2,0.1-0.3,0.1-0.5l1.6-4.5H56.6z"/>
		<path class="st0" d="M57.2,21.2c0-0.1,0-0.2,0.1-0.3c0.1-0.1,0.2-0.1,0.3-0.1c0.1,0,0.2,0,0.3,0.1C58,21,58,21.1,58,21.2
			c0,0.1,0,0.2-0.1,0.3c-0.1,0.1-0.2,0.1-0.3,0.1s-0.2,0-0.3-0.1C57.2,21.4,57.2,21.3,57.2,21.2z M57.3,26.6v-4h0.6v4H57.3z"/>
		<path class="st0" d="M58.9,25.8c0.3,0.3,0.7,0.4,1.1,0.4c0.6,0,0.9-0.2,0.9-0.6c0-0.2-0.1-0.3-0.2-0.4c-0.1-0.1-0.4-0.2-0.7-0.4
			c-0.4-0.2-0.7-0.3-0.9-0.5C59,24.2,59,23.9,59,23.7c0-0.3,0.1-0.6,0.4-0.8c0.3-0.2,0.7-0.3,1.1-0.3c0.3,0,0.6,0.1,0.9,0.2v0.6
			c-0.3-0.2-0.6-0.3-1-0.3c-0.2,0-0.4,0.1-0.6,0.2c-0.1,0.1-0.2,0.2-0.2,0.4c0,0.2,0.1,0.3,0.2,0.4c0.1,0.1,0.3,0.2,0.7,0.4
			c0.5,0.2,0.8,0.3,0.9,0.5c0.2,0.2,0.2,0.4,0.2,0.7c0,0.4-0.1,0.6-0.4,0.8c-0.3,0.2-0.7,0.3-1.1,0.3c-0.4,0-0.8-0.1-1.1-0.2V25.8z"
			/>
		<path class="st0" d="M62.5,21.2c0-0.1,0-0.2,0.1-0.3c0.1-0.1,0.2-0.1,0.3-0.1c0.1,0,0.2,0,0.3,0.1c0.1,0.1,0.1,0.2,0.1,0.3
			c0,0.1,0,0.2-0.1,0.3c-0.1,0.1-0.2,0.1-0.3,0.1c-0.1,0-0.2,0-0.3-0.1C62.5,21.4,62.5,21.3,62.5,21.2z M62.6,26.6v-4h0.6v4H62.6z"
			/>
		<path class="st0" d="M64.2,24.7c0-0.7,0.2-1.2,0.5-1.6c0.4-0.4,0.9-0.6,1.5-0.6c0.6,0,1,0.2,1.4,0.6c0.3,0.4,0.5,0.9,0.5,1.5
			c0,0.6-0.2,1.1-0.5,1.5c-0.4,0.4-0.8,0.6-1.4,0.6c-0.6,0-1-0.2-1.4-0.6C64.4,25.8,64.2,25.3,64.2,24.7z M64.8,24.7
			c0,0.5,0.1,0.8,0.4,1.1c0.2,0.3,0.6,0.4,1,0.4c0.4,0,0.7-0.1,1-0.4c0.2-0.3,0.3-0.7,0.3-1.2c0-0.5-0.1-0.9-0.3-1.2
			c-0.2-0.3-0.6-0.4-1-0.4c-0.4,0-0.7,0.1-1,0.4C65,23.8,64.8,24.2,64.8,24.7z"/>
		<path class="st0" d="M72.5,26.6h-0.6v-2.3c0-0.9-0.3-1.3-0.9-1.3c-0.3,0-0.6,0.1-0.8,0.4c-0.2,0.2-0.3,0.6-0.3,0.9v2.3h-0.6v-4
			h0.6v0.7h0c0.3-0.5,0.7-0.8,1.3-0.8c0.4,0,0.8,0.1,1,0.4c0.2,0.3,0.3,0.7,0.3,1.2V26.6z"/>
		<path class="st0" d="M79.9,26.6h-0.7L78.6,25h-2.4l-0.6,1.6H75l2.2-5.6h0.6L79.9,26.6z M78.4,24.5l-0.9-2.4c0-0.1-0.1-0.2-0.1-0.4
			h0c0,0.2-0.1,0.3-0.1,0.4l-0.9,2.4H78.4z"/>
		<path class="st0" d="M84,26.6h-0.6v-0.7h0c-0.3,0.5-0.8,0.8-1.4,0.8c-0.5,0-0.9-0.2-1.2-0.5c-0.3-0.4-0.4-0.8-0.4-1.5
			c0-0.7,0.2-1.2,0.5-1.6c0.3-0.4,0.8-0.6,1.3-0.6c0.5,0,1,0.2,1.2,0.7h0v-2.5H84V26.6z M83.4,24.2c0-0.3-0.1-0.6-0.3-0.8
			c-0.2-0.2-0.5-0.3-0.8-0.3c-0.4,0-0.7,0.1-0.9,0.4c-0.2,0.3-0.3,0.7-0.3,1.2c0,0.5,0.1,0.8,0.3,1.1c0.2,0.3,0.5,0.4,0.9,0.4
			c0.4,0,0.6-0.1,0.9-0.4c0.2-0.3,0.3-0.6,0.3-1V24.2z"/>
		<path class="st0" d="M88.4,22.6l-1.6,4h-0.6l-1.5-4h0.7l1,2.9c0.1,0.2,0.1,0.4,0.1,0.5h0c0-0.2,0.1-0.4,0.1-0.5l1.1-3H88.4z"/>
		<path class="st0" d="M92.3,24.8h-2.8c0,0.5,0.1,0.8,0.4,1.1c0.2,0.2,0.5,0.4,1,0.4c0.5,0,0.9-0.2,1.2-0.5v0.6
			c-0.3,0.3-0.8,0.4-1.4,0.4c-0.6,0-1-0.2-1.3-0.5c-0.3-0.4-0.5-0.9-0.5-1.5c0-0.6,0.2-1.1,0.5-1.5c0.3-0.4,0.8-0.6,1.3-0.6
			c0.5,0,0.9,0.2,1.2,0.5c0.3,0.3,0.4,0.8,0.4,1.4V24.8z M91.7,24.2c0-0.4-0.1-0.7-0.3-0.9c-0.2-0.2-0.4-0.3-0.7-0.3
			c-0.3,0-0.5,0.1-0.8,0.3c-0.2,0.2-0.4,0.5-0.4,0.9H91.7z"/>
		<path class="st0" d="M95.3,23.2c-0.1-0.1-0.3-0.1-0.5-0.1c-0.3,0-0.5,0.1-0.7,0.4c-0.2,0.3-0.3,0.6-0.3,1.1v2h-0.6v-4h0.6v0.8h0
			c0.1-0.3,0.2-0.5,0.4-0.7c0.2-0.2,0.4-0.2,0.6-0.2c0.2,0,0.3,0,0.4,0.1V23.2z"/>
		<path class="st0" d="M98.1,26.6c-0.1,0.1-0.3,0.1-0.6,0.1c-0.7,0-1-0.4-1-1.2v-2.4h-0.7v-0.5h0.7v-1l0.6-0.2v1.2h1v0.5h-1v2.3
			c0,0.3,0,0.5,0.1,0.6c0.1,0.1,0.2,0.2,0.5,0.2c0.2,0,0.3,0,0.4-0.1V26.6z"/>
		<path class="st0" d="M98.9,21.2c0-0.1,0-0.2,0.1-0.3c0.1-0.1,0.2-0.1,0.3-0.1c0.1,0,0.2,0,0.3,0.1c0.1,0.1,0.1,0.2,0.1,0.3
			c0,0.1,0,0.2-0.1,0.3c-0.1,0.1-0.2,0.1-0.3,0.1s-0.2,0-0.3-0.1C98.9,21.4,98.9,21.3,98.9,21.2z M98.9,26.6v-4h0.6v4H98.9z"/>
		<path class="st0" d="M100.6,25.8c0.4,0.3,0.7,0.4,1.2,0.4c0.6,0,0.9-0.2,0.9-0.6c0-0.2-0.1-0.3-0.2-0.4c-0.1-0.1-0.4-0.2-0.7-0.4
			c-0.4-0.2-0.7-0.3-0.9-0.5c-0.1-0.2-0.2-0.4-0.2-0.6c0-0.3,0.1-0.6,0.4-0.8c0.3-0.2,0.7-0.3,1.1-0.3c0.3,0,0.6,0.1,0.9,0.2v0.6
			c-0.3-0.2-0.6-0.3-1-0.3c-0.2,0-0.4,0.1-0.6,0.2c-0.1,0.1-0.2,0.2-0.2,0.4c0,0.2,0.1,0.3,0.2,0.4c0.1,0.1,0.3,0.2,0.7,0.4
			c0.5,0.2,0.8,0.3,0.9,0.5c0.2,0.2,0.2,0.4,0.2,0.7c0,0.4-0.1,0.6-0.4,0.8c-0.3,0.2-0.7,0.3-1.1,0.3c-0.4,0-0.8-0.1-1.1-0.2V25.8z"
			/>
		<path class="st0" d="M107.4,24.8h-2.8c0,0.5,0.1,0.8,0.4,1.1c0.2,0.2,0.5,0.4,1,0.4c0.4,0,0.9-0.2,1.2-0.5v0.6
			c-0.3,0.3-0.8,0.4-1.4,0.4c-0.6,0-1-0.2-1.3-0.5c-0.3-0.4-0.5-0.9-0.5-1.5c0-0.6,0.2-1.1,0.5-1.5c0.3-0.4,0.8-0.6,1.3-0.6
			c0.5,0,0.9,0.2,1.2,0.5c0.3,0.3,0.4,0.8,0.4,1.4V24.8z M106.8,24.2c0-0.4-0.1-0.7-0.3-0.9c-0.2-0.2-0.4-0.3-0.7-0.3
			c-0.3,0-0.5,0.1-0.8,0.3c-0.2,0.2-0.4,0.5-0.4,0.9H106.8z"/>
		<path class="st0" d="M114,26.6h-0.6v-2.3c0-0.5-0.1-0.8-0.2-1c-0.1-0.2-0.4-0.3-0.7-0.3c-0.3,0-0.5,0.1-0.7,0.4
			c-0.2,0.3-0.3,0.6-0.3,0.9v2.3h-0.6v-2.4c0-0.8-0.3-1.2-0.9-1.2c-0.3,0-0.5,0.1-0.7,0.4c-0.2,0.2-0.3,0.6-0.3,0.9v2.3h-0.6v-4h0.6
			v0.6h0c0.3-0.5,0.7-0.7,1.2-0.7c0.3,0,0.5,0.1,0.7,0.2c0.2,0.2,0.4,0.4,0.4,0.6c0.3-0.6,0.7-0.8,1.3-0.8c0.9,0,1.3,0.5,1.3,1.6
			V26.6z"/>
		<path class="st0" d="M118.5,24.8h-2.8c0,0.5,0.1,0.8,0.4,1.1c0.2,0.2,0.5,0.4,1,0.4c0.4,0,0.9-0.2,1.2-0.5v0.6
			c-0.3,0.3-0.8,0.4-1.4,0.4c-0.6,0-1-0.2-1.3-0.5c-0.3-0.4-0.5-0.9-0.5-1.5c0-0.6,0.2-1.1,0.5-1.5c0.3-0.4,0.8-0.6,1.3-0.6
			c0.5,0,0.9,0.2,1.2,0.5c0.3,0.3,0.4,0.8,0.4,1.4V24.8z M117.8,24.2c0-0.4-0.1-0.7-0.3-0.9c-0.2-0.2-0.4-0.3-0.7-0.3
			c-0.3,0-0.5,0.1-0.8,0.3c-0.2,0.2-0.4,0.5-0.4,0.9H117.8z"/>
		<path class="st0" d="M122.7,26.6h-0.6v-2.3c0-0.9-0.3-1.3-0.9-1.3c-0.3,0-0.6,0.1-0.8,0.4c-0.2,0.2-0.3,0.6-0.3,0.9v2.3h-0.6v-4
			h0.6v0.7h0c0.3-0.5,0.7-0.8,1.3-0.8c0.4,0,0.8,0.1,1,0.4c0.2,0.3,0.3,0.7,0.3,1.2V26.6z"/>
		<path class="st0" d="M125.8,26.6c-0.1,0.1-0.3,0.1-0.6,0.1c-0.7,0-1-0.4-1-1.2v-2.4h-0.7v-0.5h0.7v-1l0.6-0.2v1.2h1v0.5h-1v2.3
			c0,0.3,0,0.5,0.1,0.6c0.1,0.1,0.2,0.2,0.5,0.2c0.2,0,0.3,0,0.4-0.1V26.6z"/>
	</g>
</g>
<g>
	<path class="st1" d="M11.3,3c0,0,2.1,5.1,4.4,11.5c2.3,6.4,3.9,11.6,3.9,11.6s-2.1-5-4.4-11.4C12.9,8.3,11.3,3,11.3,3z"/>
	<path class="st1" d="M14.3,2.6c1.9-0.9,4-0.6,6,1c1.9,1.5,3.4,4.1,4.2,7.1c0.8,3.1,0.8,6.3-0.1,9.1c-0.8,2.8-2.3,4.8-4.3,5.7l0,0
		c1.7-0.8,3.1-3.3,3.8-5.8c0.7-2.5,0.7-6,0-8.7C22.4,5.2,17.8,0.9,14.3,2.6L14.3,2.6z"/>
	<path class="st1" d="M5.5,7.7"/>
	<path class="st1" d="M9.7,3.7c-1.2,0.2-3,2.4-3.5,5c-0.5,2.6-0.2,5.6,0.9,8.6c1,3,2.7,5.5,4.6,7.1c1.9,1.6,4,2.1,5.7,1.5l0,0
		c-1.6,0.6-3.7-0.4-5.5-1.9c-1.7-1.5-3.5-4.3-4.4-6.9C5.7,11.5,6.5,4.9,9.7,3.7L9.7,3.7z"/>
	<path class="st1" d="M18.9,25.7C12.1,27.7,5,24.1,3.1,17.5C1.1,11,4.9,3.9,11.7,1.9c2.3-0.7,4.1-0.6,5.7-0.2
		c2.2,0.8,3.2,2.5,2.4,4.7c-1.2,3.1-5.7,5.9-10.1,6.2C7,12.7,4.9,11.8,4,10.4c0.8,1.7,3.2,2.9,6.4,2.7c4.8-0.4,9.8-3.4,11.1-6.9
		c1-2.6-0.4-4.6-3.3-5.4C16,0,13,0.1,9.9,1C2.5,3.3-1.7,11,0.5,18.3c2.2,7.3,10,11.3,17.3,9c4.9-1.5,8.4-5.4,9.6-10
		C26.2,21.2,23.1,24.4,18.9,25.7z"/>
	<path class="st1" d="M19,25.6c-6.8,2.1-13.9-1.6-15.9-8.2c-2-6.6,1.9-13.7,8.6-15.8c2.3-0.7,4.2-0.6,5.8-0.2
		c2.2,0.8,3.2,2.5,2.4,4.7c-1.2,3.1-5.7,6-10.1,6.3c-2.8,0.2-4.8-0.6-5.7-2c0.8,1.7,3.2,2.8,6.4,2.5c4.9-0.4,9.8-3.5,11.1-7
		c1-2.6-0.4-4.7-3.3-5.4c-2.2-0.8-5.3-0.7-8.4,0.2C2.5,3.1-1.7,10.9,0.5,18.2c2.2,7.3,10,11.4,17.4,9.1c4.9-1.5,8.3-5.4,9.5-10
		C26.1,21.2,23.2,24.3,19,25.6z"/>
	<path class="st1" d="M25.2,6.5c-0.3,1.9-1.4,4-3.2,5.9c-2.3,2.9-7,5.3-11.6,5.7c-3.5,0.3-6-0.6-7.1-2.2c1,2,4,3.2,8,2.8
		c6.1-0.5,12.4-4.3,14-8.4C25.8,8.9,25.8,7.6,25.2,6.5z"/>
	<path class="st1" d="M26.5,10.8c-0.3,2-1.3,4.1-3.1,6.1c-2.3,3-6.9,5.5-11.4,5.9c-3.4,0.3-5.9-0.6-7-2.3c1,2.1,3.9,3.3,7.8,2.9
		c5.9-0.5,12.1-4.4,13.7-8.6C27.2,13.3,27.1,11.9,26.5,10.8z"/>
</g>
</svg>
