<?xml version="1.0" encoding="utf-8"?>
<!-- Generator: Adobe Illustrator 24.0.3, SVG Export Plug-In . SVG Version: 6.00 Build 0)  -->
<svg version="1.1" id="title_bg.svg" xmlns="http://www.w3.org/2000/svg" xmlns:xlink="http://www.w3.org/1999/xlink" x="0px"
	 y="0px" viewBox="0 0 1611.8 282" style="enable-background:new 0 0 1611.8 282;" xml:space="preserve">
<style type="text/css">
	.st0{enable-background:new    ;}
	.st1{fill:none;stroke:#FFFFFF;stroke-miterlimit:10;}
</style>
<g class="st0">
	<g>
		<path class="st1" d="M111.4,272H3c-0.3,0-0.5-0.2-0.5-0.5v-11.2c0-0.3,0.2-0.5,0.5-0.5c31.8-2.4,34.7-5.6,34.7-38.3v-160
			c0-34.9-3.2-36.3-32.3-38.3c-0.3,0-0.5-0.2-0.5-0.5V11.5c0-0.3,0.2-0.5,0.5-0.5h98.8c30.3,0,52.3,5.5,67.5,16.9
			c17.1,12.7,26.2,32.4,26.2,56.8c0,23.7-8.5,44-24.6,58.8c-13.6,12.5-32.8,20.9-53.8,23.7c-6.1,0.4-13.7,0.4-18.1,0l-29.1-7.5v62.2
			c0,34.1,3.9,35.5,39.1,37.9c0.3,0,0.5,0.2,0.5,0.5v11.2C111.9,271.8,111.7,272,111.4,272z M3.5,271h107.4v-10.2
			c-18.4-1.2-27.7-2.4-33.1-7.5c-5.5-5.1-6.5-14.2-6.5-31.4v-62.8c0-0.2,0.1-0.3,0.2-0.4c0.1-0.1,0.3-0.1,0.4-0.1l29.6,7.6
			c4.3,0.4,11.8,0.4,17.8,0c57.2-7.7,77.5-47.1,77.5-81.5c0-24.1-8.9-43.4-25.8-56C156,17.5,134.1,12,104.1,12H5.9v10.2
			c29.1,2,32.8,3.8,32.8,39.3v160c0,33-3.3,36.8-35.2,39.3V271z M101,151.2c-12.4,0-23.3-2.5-29.4-4.8c-0.2-0.1-0.3-0.3-0.3-0.5v-98
			c0-11.2,1.2-16.2,4.6-19.2c3-3,11.7-4.9,22.7-4.9c17.4,0,32.2,5.1,42.8,14.7c12,10.9,18.1,26.8,18.1,47.4
			c0,23.1-6.5,40.5-19.4,51.8C130.1,146.4,116.3,151.2,101,151.2z M72.3,145.4c6.1,2.3,16.7,4.6,28.7,4.6c15,0,28.7-4.7,38.4-13.2
			c12.7-11.1,19.1-28.3,19.1-51.1c0-38.3-22.4-61.1-59.9-61.1c-10.6,0-19.2,1.8-22,4.7c-3.1,2.8-4.3,7.6-4.3,18.4
			C72.3,47.8,72.3,145.4,72.3,145.4z"/>
	</g>
	<g>
		<path class="st1" d="M461,275.2c-4.7,0-9.2,0-14-0.4c-30.9-1.6-47.4-10.9-65.2-36.6c-11-15.4-22.4-34.3-32.4-50.9
			c-2.7-4.6-5.4-9-8-13.1c-6.6-10.9-13.1-15.8-34-15.8h-12.3v63.1c0,34.3,4,36,35.1,38.3c0.3,0,0.5,0.2,0.5,0.5v11.2
			c0,0.3-0.2,0.5-0.5,0.5H225c-0.3,0-0.5-0.2-0.5-0.5v-11.2c0-0.3,0.2-0.5,0.5-0.5c31.9-2.3,35.9-4,35.9-38.3V60.7
			c0-33.5-2.9-34.7-33.9-37.5c-0.3,0-0.5-0.2-0.5-0.5V11.5c0-0.3,0.2-0.5,0.5-0.5h99.2c30.5,0,49.7,4.1,64.3,13.7
			c17.2,11.2,26.6,29.9,26.6,52.8c0,30.9-17,54-50.6,68.6c6.9,13.3,23.3,39.4,35.3,57.5c14.8,21.3,22.6,31.4,32.3,41.5
			c11.4,12.7,20.9,16.6,28.6,18.7c0.2,0.1,0.4,0.3,0.4,0.6l-1.6,10.4C461.4,275,461.2,275.2,461,275.2z M294.6,157.4h12.8
			c17.3,0,26.4,2.3,34.8,16.2c2.6,4.2,5.2,8.6,8,13.1c10,16.6,21.4,35.4,32.4,50.8c17.6,25.4,33.9,34.6,64.4,36.2
			c4.6,0.4,9,0.4,13.5,0.4l1.5-9.5c-7.8-2.2-17.2-6.2-28.6-18.8c-9.7-10.1-17.6-20.3-32.4-41.6c-12.2-18.3-28.9-44.9-35.6-58.1
			c-0.1-0.1-0.1-0.3,0-0.4c0-0.1,0.1-0.2,0.3-0.3c33.5-14.5,50.5-37.3,50.5-67.9c0-22.5-9.3-41-26.2-52C375.6,16,356.5,12,326.3,12
			h-98.7v10.2c31,2.8,34.4,4.4,34.4,38.5v160.8c0,34.4-4.1,36.9-36.4,39.3V271h104.2v-10.2c-31.6-2.4-35.6-4.9-35.6-39.3v-63.6
			C294.1,157.6,294.3,157.4,294.6,157.4z M313.8,145.2h-19.2c-0.3,0-0.5-0.2-0.5-0.5V46.3c0-10.2,1.4-15.7,4.6-18
			c3.6-2.7,11-4.1,21.9-4.1c37.1,0,59.3,22.3,59.3,59.7c0,22.5-7.1,38.3-22.2,50C347.8,141.8,334.7,145.2,313.8,145.2z M295.1,144.2
			h18.7c20.6,0,33.6-3.3,43.3-11.1c14.9-11.4,21.8-27.1,21.8-49.2c0-19.9-6-35.2-17.8-45.4C351,29.8,337,25.2,320.6,25.2
			c-13.3,0-18.9,2.1-21.3,3.9c-2.9,2.1-4.2,7.4-4.2,17.2V144.2z"/>
	</g>
	<g>
		<path class="st1" d="M603,278c-35.4,0-68.3-13.5-92.5-37.9c-24.5-24.8-38-58.8-38-95.7c0-36.7,12.7-71,35.8-96.7
			c25-27.8,59.3-42.6,99.1-42.6h0.4c34,0,66,13,90.1,36.5c25.3,24.7,39.2,59.1,39.2,96.8c0,41.4-13.7,76.8-39.5,102.4
			C673.2,264.7,639.6,278,603,278z M607.4,6c-39.5,0-73.5,14.6-98.3,42.2c-22.9,25.5-35.6,59.6-35.6,96.1c0,36.7,13.4,70.5,37.7,95
			c24,24.3,56.6,37.6,91.8,37.6c36.4,0,69.8-13.2,93.9-37.1c25.6-25.4,39.2-60.5,39.2-101.6c0-37.4-13.8-71.5-38.9-96
			c-23.9-23.4-55.7-36.3-89.4-36.3L607.4,6L607.4,6z M611.4,263.6c-56.8,0-98.1-54.9-98.1-130.5c0-35.1,9-64.4,26.1-85
			C554.8,29.6,576,19.4,599,19.4h0.4c26.8,0,51,11.8,68.2,33.1c18.7,23.2,28.7,56.6,28.7,96.6c0,35.9-8.9,65.7-25.7,86.1
			C655.5,253.4,634.5,263.6,611.4,263.6z M599,20.4c-22.8,0-43.7,10.1-58.9,28.4c-16.9,20.3-25.8,49.5-25.8,84.3
			c0,75,40.8,129.5,97.1,129.5c22.8,0,43.6-10,58.5-28c16.6-20.2,25.4-49.8,25.4-85.5c0-39.7-9.8-72.9-28.4-95.9
			c-17-21.1-41-32.8-67.5-32.8C599.4,20.4,599,20.4,599,20.4z"/>
	</g>
	<g>
		<path class="st1" d="M762.6,338c-0.2,0-0.4-0.1-0.5-0.3l-5.2-11.2c-0.1-0.2,0-0.5,0.2-0.7c21.1-10.5,33.9-28.1,38.1-52
			c3.7-19.5,4.4-43.5,4.4-75.9V61.5c0-33-2.6-35.9-35.1-38.3c-0.3,0-0.5-0.2-0.5-0.5V11.5c0-0.3,0.2-0.5,0.5-0.5h103.6
			c0.3,0,0.5,0.2,0.5,0.5v11.2c0,0.3-0.2,0.5-0.5,0.5c-31,2.4-33.5,5.3-33.5,38.3v149.6c0,52.9-9,80-34.6,103.6
			C787.8,325.8,774.2,334.3,762.6,338C762.7,338,762.6,338,762.6,338z M758,326.5l4.8,10.4c11.4-3.7,24.7-12.1,36.6-23
			c25.3-23.4,34.2-50.3,34.2-102.8V61.5c0-33.4,2.9-36.8,34-39.3V12H765.1v10.2c32.6,2.4,35.6,5.9,35.6,39.3v136.4
			c0,32.5-0.7,56.5-4.4,76.1C792,298.1,779.2,315.8,758,326.5z"/>
	</g>
	<g>
		<path class="st1" d="M1082.9,272H890.2c-0.3,0-0.5-0.2-0.5-0.5v-11.2c0-0.3,0.2-0.5,0.5-0.5c36.2-2.8,39.1-5.6,39.1-37.9V62.7
			c0-35.4-2.9-36.7-33.9-39.5c-0.3,0-0.5-0.2-0.5-0.5V11.5c0-0.3,0.2-0.5,0.5-0.5h178.4c0.3,0,0.5,0.2,0.5,0.5c0,7.1,1,23.2,2,38.8
			c0.4,6.4,0.8,12.9,1.2,18.8c0,0.3-0.2,0.5-0.4,0.5l-11.6,2c-0.3,0-0.5-0.1-0.6-0.4c-3.6-16.6-7.5-25.4-12.7-34.2
			c-5.5-8.3-16.4-11-44.8-11H977c-12.1,0-12.7,0.6-12.7,12.3v90.3h37.1c35.8,0,37.5-2.9,42.7-29.6c0-0.2,0.3-0.4,0.5-0.4h11.6
			c0.3,0,0.5,0.2,0.5,0.5v76.8c0,0.3-0.2,0.5-0.5,0.5h-11.6c-0.2,0-0.4-0.2-0.5-0.4c-5.2-28.8-8-30.8-42.3-30.8h-37.5v75.1
			c0,18.8,2.4,26.9,9.4,32c7.5,4.7,21.9,5.1,41.3,5.1c30,0,41.2-3,50-13.4c7.4-8.8,14.7-22.7,19.5-37.4c0.1-0.2,0.3-0.4,0.5-0.3
			l12,1.6c0.1,0,0.3,0.1,0.3,0.2c0.1,0.1,0.1,0.2,0.1,0.4c-2.4,13.2-10.4,50.8-14,63.2C1083.4,271.8,1083.2,272,1082.9,272z
			 M890.7,271h191.9c3.6-12.6,11.3-48.8,13.8-62.3l-11.1-1.5c-4.8,14.7-12.1,28.6-19.6,37.4c-9,10.7-20.4,13.8-50.8,13.8
			c-19.6,0-34.1-0.4-41.9-5.3c-7.4-5.3-9.8-13.6-9.8-32.8v-75.6c0-0.3,0.2-0.5,0.5-0.5h38c34.6,0,38,2.3,43.2,31.2h10.7V99.6H1045
			c-5.2,26.6-7.4,30-43.6,30h-37.6c-0.3,0-0.5-0.2-0.5-0.5V38.3c0-12.3,1-13.3,13.7-13.3h30.4c28.8,0,39.8,2.8,45.6,11.4
			c5.2,8.9,9.2,17.7,12.8,34.1l10.7-1.8c-0.3-5.8-0.7-12.1-1.1-18.3c-1-15.2-2-31-2-38.4H895.9v10.2c31,2.8,34.4,4.5,34.4,40.5
			v159.2c0,32.7-3.3,36-39.6,38.9L890.7,271L890.7,271z"/>
	</g>
	<g>
		<path class="st1" d="M1266.5,278c-45.7,0-83.5-14.7-109.3-42.5c-22.2-23.9-34.4-56-34.4-90.4c0-41,15.1-76.2,43.7-101.7
			C1194.3,18.6,1233.6,5,1277.3,5c25.1,0,46.6,5.2,60.9,8.6c4,1,7.5,1.8,10,2.2c0.2,0,0.4,0.2,0.4,0.4c0.5,3.9,1.1,7.5,1.6,11.1
			c2.5,17.5,4.4,31.4,6.4,49.3c0,0.3-0.1,0.5-0.4,0.5l-12,2.8c-0.3,0.1-0.5-0.1-0.6-0.4c-10.2-41.5-33.2-59.2-77.1-59.2
			c-31.1,0-57.3,12.3-75.9,35.6c-16.8,21.1-26,49.9-26,81.1c0,35.9,10.5,68.1,29.5,90.7c18.8,22.4,45.4,34.8,74.8,34.8
			c42.4,0,63.4-24.7,81.9-61.7c0.1-0.2,0.4-0.3,0.6-0.2l11.6,4.4c0.2,0.1,0.4,0.4,0.3,0.6c-6.2,20.3-15.9,48.5-22.8,61.3
			c-0.1,0.1-0.2,0.2-0.3,0.2C1324.1,271.2,1293,278,1266.5,278z M1277.3,6c-43.4,0-82.5,13.6-110.1,38.2
			c-28.4,25.3-43.4,60.2-43.4,100.9c0,34.2,12.1,66,34.1,89.7c25.6,27.6,63.2,42.2,108.6,42.2c26.3,0,57.1-6.7,73.3-10.7
			c7.4-13.6,17.5-44.1,22.5-60.5l-10.7-4.1c-11,21.9-21.3,36-33.3,45.8c-13.4,10.8-29.6,16.1-49.3,16.1c-29.7,0-56.6-12.5-75.6-35.1
			c-19.2-22.8-29.7-55.3-29.7-91.4c0-31.4,9.3-60.4,26.3-81.7c18.7-23.5,45.2-36,76.6-36c44.3,0,67.6,17.8,78,59.5l11.1-2.6
			c-2-17.7-3.9-31.5-6.4-48.9c-0.5-3.4-1-7-1.5-10.7c-2.5-0.5-5.9-1.3-9.7-2.2C1323.7,11.1,1302.3,6,1277.3,6z"/>
	</g>
	<g>
		<path class="st1" d="M1553.7,272h-114.8c-0.3,0-0.5-0.2-0.5-0.5v-11.2c0-0.3,0.2-0.5,0.5-0.5c35.5-2.3,39.1-5.8,39.1-37.5V26
			h-24.3c-33.2,0-40.9,3.2-46,12.1c-4.8,6.8-8,17.9-12.8,35.5c-0.1,0.2-0.3,0.4-0.5,0.4h-11.6c-0.1,0-0.3-0.1-0.4-0.2
			s-0.1-0.2-0.1-0.4c1.9-23,4-49.5,4.8-72c0-0.3,0.2-0.5,0.5-0.5h8c0.2,0,0.3,0.1,0.4,0.2c5.4,8.9,10.2,9.8,21.6,9.8h158
			c10.8,0,13.9-2.5,20-9.8c0.1-0.1,0.2-0.2,0.4-0.2h8.4c0.3,0,0.5,0.2,0.5,0.5c0,22,2.8,56.8,4,70.8c0,0.3-0.2,0.5-0.4,0.5
			l-11.6,1.2c-0.3,0-0.5-0.1-0.5-0.4c-4.4-19.1-7.9-29.1-12.7-35.4c-7.1-10.6-15.9-12.2-42.8-12.2H1513v196.3
			c0,16.1,0.9,24.6,6.2,29.6c5.5,5.2,15.9,6.7,34.5,7.9c0.3,0,0.5,0.2,0.5,0.5v11.2C1554.2,271.8,1554,272,1553.7,272z M1439.4,271
			h113.8v-10.2c-37.3-2.4-41.2-6.1-41.2-38.5V25.5c0-0.3,0.2-0.5,0.5-0.5h28.4c30.3,0,37.2,3,43.6,12.6c4.8,6.4,8.4,16.3,12.8,35.3
			l10.7-1.1c-1.2-14.2-3.9-48-4-69.8h-7.7c-6.2,7.4-9.5,10-20.6,10h-158c-11.4,0-16.7-0.9-22.3-10h-7.2c-0.8,22.2-2.9,48.3-4.7,71
			h10.7c4.8-17.5,8-28.6,12.8-35.4c5.3-9.3,13.1-12.6,46.8-12.6h24.8c0.3,0,0.5,0.2,0.5,0.5v196.8c0,32.4-3.7,36.1-39.6,38.5V271
			H1439.4L1439.4,271z"/>
	</g>
</g>
</svg>
