<?xml version="1.0" encoding="utf-8"?>
<!-- Generator: Adobe Illustrator 24.0.3, SVG Export Plug-In . SVG Version: 6.00 Build 0)  -->
<svg version="1.1" id="title_bg.svg" xmlns="http://www.w3.org/2000/svg" xmlns:xlink="http://www.w3.org/1999/xlink" x="0px"
	 y="0px" viewBox="0 0 1643 282" style="enable-background:new 0 0 1643 282;" xml:space="preserve">
<style type="text/css">
	.st0{enable-background:new    ;}
	.st1{fill:none;stroke:#FFFFFF;stroke-miterlimit:10;}
</style>
<g class="st0">
	<g>
		<path class="st1" d="M281.7,272.9H174.5c-0.3,0-0.5-0.2-0.5-0.5v-11.2c0-0.3,0.2-0.5,0.5-0.5c33.5-2.4,37.1-3.8,37.1-37.5v-79.5
			H76.2v79.5c0,32.3,2.7,35.1,35.5,37.5c0.3,0,0.5,0.2,0.5,0.5v11.2c0,0.3-0.2,0.5-0.5,0.5H6.5c-0.3,0-0.5-0.2-0.5-0.5v-11.2
			c0-0.3,0.2-0.5,0.5-0.5c31.3-2.3,34.7-3.7,34.7-37.5V61.6c0-33.5-3-34.7-35.5-37.5c-0.3,0-0.5-0.2-0.5-0.5V12.4
			c0-0.3,0.2-0.5,0.5-0.5h103.6c0.3,0,0.5,0.2,0.5,0.5v11.2c0,0.3-0.2,0.5-0.5,0.5c-15.6,1.4-23.5,2.6-27.9,7.4
			c-4.5,4.9-5.3,13.6-5.3,30.1v64.3h135.4V61.6c0-33.3-3.4-34.8-33.9-37.5c-0.3,0-0.5-0.2-0.5-0.5V12.4c0-0.3,0.2-0.5,0.5-0.5H282
			c0.3,0,0.5,0.2,0.5,0.5v11.2c0,0.3-0.2,0.5-0.5,0.5c-16.8,1.4-25.3,2.6-30,7.5c-4.7,4.8-5.6,13.5-5.6,30v161.6
			c0,33.8,3.5,35.2,35.1,37.5c0.3,0,0.5,0.2,0.5,0.5v11.2C282.2,272.7,282,272.9,281.7,272.9z M175,271.9h106.2v-10.2
			c-31.6-2.4-35.6-4.1-35.6-38.5V61.6c0-33.9,4.1-35.7,36-38.5V12.9H178.2v10.2c30.5,2.7,34.4,4.6,34.4,38.5v64.8
			c0,0.3-0.2,0.5-0.5,0.5H75.7c-0.3,0-0.5-0.2-0.5-0.5V61.6c0-33.9,3.8-35.7,33.6-38.5V12.9H6.2v10.2c32.4,2.8,36,4.4,36,38.5v161.6
			c0,34.3-4,36.1-35.2,38.5v10.2h104.2v-10.2c-15.3-1.1-25-2.2-30.2-7.6c-5-5.1-5.8-14-5.8-30.9v-80c0-0.3,0.2-0.5,0.5-0.5h136.4
			c0.3,0,0.5,0.2,0.5,0.5v80c0,34.3-4.3,36.1-37.6,38.5V271.9z"/>
	</g>
	<g>
		<path class="st1" d="M418.1,272.9h-106c-0.3,0-0.5-0.2-0.5-0.5v-11.2c0-0.3,0.2-0.5,0.5-0.5c17.4-1.3,25.4-2.6,30-7.4
			c4.7-5,5.6-13.9,5.6-30.9v-160c0-17-0.8-25.9-5.6-30.9c-4.6-4.8-12.6-6.1-30-7.4c-0.3,0-0.5-0.2-0.5-0.5V12.4
			c0-0.3,0.2-0.5,0.5-0.5h106c0.3,0,0.5,0.2,0.5,0.5v11.2c0,0.3-0.2,0.5-0.5,0.5c-17.4,1.3-25.4,2.6-30,7.4
			c-4.7,5-5.6,13.9-5.6,30.9v160c0,34.5,3.5,36,35.5,38.3c0.3,0,0.5,0.2,0.5,0.5v11.2C418.6,272.7,418.3,272.9,418.1,272.9z
			 M312.6,271.9h105v-10.2c-31.9-2.3-36-4.2-36-39.3v-160c0-33.7,2.7-36.8,36-39.3V12.9h-105v10.2c33.3,2.5,36,5.5,36,39.3v160
			c0,33.7-2.7,36.8-36,39.3V271.9z"/>
	</g>
	<g>
		<path class="st1" d="M519.7,278.9c-15.7,0-28.2-2.9-39.3-6c-8.5-3.1-15.1-5.9-19.7-8.4c-0.1-0.1-0.2-0.1-0.2-0.3
			c-3.1-8.3-8.2-41.3-10.8-62.1c0-0.3,0.1-0.5,0.4-0.5l11.6-2.8c0.3-0.1,0.5,0.1,0.6,0.4c15.2,58.1,50.6,64.4,65.1,64.4
			c29.3,0,47.5-18.2,47.5-47.5s-21.4-43-51.7-59.2l-2.3-1.2c-25.5-13.5-63.9-33.9-63.9-78c0-19.4,7.8-37.3,22-50.4
			c15-14,36-21.4,60.7-21.4c18.8,0,36.1,4.7,50.5,9.2c0.2,0.1,0.3,0.2,0.3,0.4c1.5,13.3,3.3,27.8,6.1,49.7l0.7,5.5
			c0,0.3-0.1,0.5-0.4,0.6l-11.6,2.4c-0.3,0.1-0.5-0.1-0.6-0.4c-7.2-25.6-17.7-52.8-51.9-52.8C502.5,20.5,489,42.3,489,64
			c0,30.2,20.9,43.4,50.5,58.8l1.4,0.7c30.3,15.5,68.1,34.9,68.1,79.3c0,20.8-8.7,40-24.6,53.9C568,271,545.1,278.9,519.7,278.9z
			 M461.3,263.6c4.5,2.5,11,5.3,19.4,8.3c11.1,3.1,23.5,6,39,6c25.2,0,47.9-7.8,64-21.9c15.7-13.7,24.3-32.6,24.3-53.2
			c0-43.8-35.9-62.2-67.5-78.4l-1.4-0.7c-29-15.1-51.1-29-51.1-59.7c0-22.1,13.9-44.5,44.9-44.5c34.7,0,45.5,27.3,52.8,53.1
			l10.7-2.2l-0.6-5.1c-2.8-21.7-4.6-36.1-6.1-49.4c-14.3-4.5-31.4-9.1-49.9-9.1c-24.4,0-45.2,7.3-60.2,21.1
			c-14,12.8-21.7,30.5-21.7,49.6c0,43.5,38.1,63.7,63.4,77.1l2.3,1.2c30.6,16.3,52.3,30.2,52.3,60c0,29.9-18.6,48.5-48.5,48.5
			c-18.3,0-33.9-7.9-46.2-23.4c-11.4-14.3-17.2-31.8-19.7-41.3l-10.7,2.6C453.1,222.4,458.2,255.3,461.3,263.6z"/>
	</g>
	<g>
		<path class="st1" d="M800.8,272.9H686.1c-0.3,0-0.5-0.2-0.5-0.5v-11.2c0-0.3,0.2-0.5,0.5-0.5c35.5-2.3,39.1-5.8,39.1-37.5V26.9
			h-24.3c-33.2,0-40.9,3.2-46,12.1c-4.8,6.8-8,17.9-12.8,35.5c-0.1,0.2-0.3,0.4-0.5,0.4H630c-0.1,0-0.3-0.1-0.4-0.2
			c-0.1-0.1-0.1-0.2-0.1-0.4c1.9-23,4-49.5,4.8-72c0-0.3,0.2-0.5,0.5-0.5h8c0.2,0,0.3,0.1,0.4,0.2c5.4,8.9,10.2,9.8,21.6,9.8h158
			c10.8,0,13.9-2.5,20-9.8c0.1-0.1,0.2-0.2,0.4-0.2h8.4c0.3,0,0.5,0.2,0.5,0.5c0,22,2.8,56.8,4,70.8c0,0.3-0.2,0.5-0.4,0.5
			l-11.6,1.2c-0.3,0-0.5-0.1-0.5-0.4c-4.4-19.1-7.9-29.1-12.7-35.4c-7.1-10.6-15.9-12.2-42.8-12.2h-27.9v196.3
			c0,16.1,0.9,24.6,6.2,29.6c5.5,5.2,15.9,6.7,34.5,7.9c0.3,0,0.5,0.2,0.5,0.5v11.2C801.3,272.7,801.1,272.9,800.8,272.9z
			 M686.6,271.9h113.8v-10.2c-37.3-2.4-41.2-6.1-41.2-38.5V26.4c0-0.3,0.2-0.5,0.5-0.5H788c30.3,0,37.2,3,43.6,12.6
			c4.8,6.4,8.4,16.3,12.8,35.3l10.7-1.1c-1.2-14.2-3.9-48-4-69.8h-7.7c-6.2,7.4-9.5,10-20.6,10h-158c-11.4,0-16.7-0.9-22.3-10h-7.2
			c-0.8,22.2-2.9,48.3-4.7,71h10.7c4.8-17.5,8-28.6,12.8-35.4c5.3-9.3,13.1-12.6,46.8-12.6h24.8c0.3,0,0.5,0.2,0.5,0.5v196.8
			c0,32.4-3.7,36.1-39.6,38.5V271.9z"/>
	</g>
	<g>
		<path class="st1" d="M1010,278.9c-35.4,0-68.3-13.5-92.5-37.9c-24.5-24.8-38-58.8-38-95.7c0-36.7,12.7-71,35.8-96.7
			c25-27.8,59.3-42.6,99.1-42.6h0.4c34,0,66,13,90.1,36.5c25.3,24.7,39.2,59.1,39.2,96.8c0,41.4-13.7,76.8-39.5,102.4
			C1080.3,265.6,1046.7,278.9,1010,278.9z M1014.4,6.9c-39.5,0-73.5,14.6-98.3,42.2c-22.9,25.5-35.6,59.6-35.6,96.1
			c0,36.7,13.4,70.5,37.7,95c24,24.3,56.6,37.6,91.8,37.6c36.4,0,69.8-13.2,93.9-37.1c25.6-25.4,39.2-60.5,39.2-101.6
			c0-37.4-13.8-71.5-38.9-96c-23.9-23.4-55.7-36.3-89.4-36.3h-0.4L1014.4,6.9L1014.4,6.9z M1018.4,264.5
			c-56.8,0-98.1-54.9-98.1-130.5c0-35.1,9-64.4,26.1-85c15.4-18.5,36.6-28.7,59.6-28.7h0.4c26.8,0,51,11.8,68.2,33.1
			c18.7,23.2,28.7,56.6,28.7,96.6c0,35.9-8.9,65.7-25.7,86.1C1062.6,254.4,1041.6,264.5,1018.4,264.5z M1006,21.3
			c-22.8,0-43.7,10.1-58.9,28.4C930.3,70,921.3,99.2,921.3,134c0,75,40.8,129.5,97.1,129.5c22.8,0,43.6-10,58.5-28
			c16.6-20.2,25.4-49.8,25.4-85.5c0-39.7-9.8-72.9-28.4-95.9c-17-21.1-41-32.8-67.5-32.8H1006z"/>
	</g>
	<g>
		<path class="st1" d="M1408.4,276.1c-4.7,0-9.2,0-14-0.4c-30.9-1.6-47.4-10.9-65.2-36.6c-11-15.4-22.4-34.3-32.4-50.9
			c-2.8-4.6-5.4-9-8-13.1c-6.6-10.9-13.1-15.8-34-15.8h-12.3v63.1c0,34.3,4,36,35.1,38.3c0.3,0,0.5,0.2,0.5,0.5v11.2
			c0,0.3-0.2,0.5-0.5,0.5h-105.2c-0.3,0-0.5-0.2-0.5-0.5v-11.2c0-0.3,0.2-0.5,0.5-0.5c31.9-2.3,35.9-4,35.9-38.3V61.6
			c0-33.5-2.9-34.7-33.9-37.5c-0.3,0-0.5-0.2-0.5-0.5V12.4c0-0.3,0.2-0.5,0.5-0.5h99.2c30.5,0,49.7,4.1,64.3,13.7
			c17.2,11.2,26.6,29.9,26.6,52.8c0,30.9-17,54-50.6,68.6c6.9,13.3,23.3,39.4,35.3,57.5c14.8,21.3,22.6,31.4,32.3,41.5
			c11.4,12.7,20.9,16.6,28.6,18.7c0.2,0.1,0.4,0.3,0.4,0.6l-1.6,10.4C1408.9,275.9,1408.7,276.1,1408.4,276.1z M1242,158.3h12.8
			c17.3,0,26.4,2.3,34.8,16.2c2.6,4.2,5.2,8.6,8,13.1c10,16.6,21.4,35.4,32.4,50.8c17.6,25.4,33.9,34.6,64.4,36.2
			c4.6,0.4,9,0.4,13.5,0.4l1.5-9.5c-7.8-2.2-17.2-6.2-28.6-18.8c-9.7-10.1-17.6-20.3-32.4-41.6c-12.2-18.3-28.9-44.9-35.6-58.1
			c-0.1-0.1-0.1-0.3,0-0.4c0-0.1,0.1-0.2,0.3-0.3c33.5-14.5,50.5-37.3,50.5-67.9c0-22.5-9.3-41-26.2-52
			c-14.4-9.5-33.5-13.5-63.7-13.5H1175v10.2c31,2.8,34.4,4.4,34.4,38.5v160.8c0,34.4-4.1,36.9-36.4,39.3v10.2h104.2v-10.2
			c-31.6-2.4-35.6-4.9-35.6-39.3v-63.6C1241.5,158.5,1241.7,158.3,1242,158.3z M1261.2,146.1H1242c-0.3,0-0.5-0.2-0.5-0.5V47.2
			c0-10.2,1.4-15.7,4.6-18c3.6-2.7,11-4.1,21.9-4.1c37.1,0,59.3,22.3,59.3,59.7c0,22.5-7.1,38.3-22.2,50
			C1295.2,142.7,1282.1,146.1,1261.2,146.1z M1242.5,145.1h18.7c20.6,0,33.6-3.3,43.3-11.1c14.9-11.4,21.8-27.1,21.8-49.2
			c0-19.9-6-35.2-17.8-45.4c-10.1-8.7-24.1-13.3-40.5-13.3c-13.3,0-18.9,2.1-21.3,3.9c-2.9,2.1-4.2,7.4-4.2,17.2V145.1z"/>
	</g>
	<g>
		<path class="st1" d="M1571.6,272.9h-113.2c-0.3,0-0.5-0.2-0.5-0.5v-11.2c0-0.3,0.2-0.5,0.5-0.5c35.8-2.4,38.7-5.3,38.7-38.3v-53.2
			c0-7.8-1.6-11.4-8.3-23.4c-2.5-4.4-4.9-8.7-7.4-13.2c-11.6-20.7-24.8-44.1-42.9-74.8c-15.8-26.9-20.1-31.4-44-33.8
			c-0.3,0-0.5-0.2-0.5-0.5V12.4c0-0.3,0.2-0.5,0.5-0.5h95.6c0.3,0,0.5,0.2,0.5,0.5v11.2c0,0.3-0.2,0.5-0.4,0.5
			c-15,1.9-21.8,4.1-23.6,7.7c-1.4,2.9,0.2,6.7,4,13.2c12.6,24,26.7,48.3,40.3,71.9c4.4,7.5,8.7,14.9,12.8,22.2
			c22.8-40.7,38.6-70.7,47.1-89.2c4.3-9.4,6.1-14.7,4.2-18.2c-2.4-4.3-11-5.9-27-7.5c-0.3,0-0.4-0.2-0.4-0.5V12.4
			c0-0.3,0.2-0.5,0.5-0.5h88.4c0.3,0,0.5,0.2,0.5,0.5v11.2c0,0.3-0.2,0.5-0.4,0.5c-27.4,3.2-31.8,7.3-47.2,31.4
			c-19.3,31.4-32.6,54.3-50.8,87.6c-5.3,10.5-6.3,14.7-6.3,25v54.4c0,33.1,3,35.9,39.5,38.3c0.3,0,0.5,0.2,0.5,0.5v11.2
			C1572.1,272.7,1571.9,272.9,1571.6,272.9z M1458.9,271.9h112.2v-10.2c-36.6-2.4-40-5.8-40-39.3V168c0-10.3,1.1-14.8,6.5-25.4
			c18.2-33.3,31.5-56.2,50.8-87.6c15.5-24.3,20.1-28.6,47.5-31.8V12.9h-87.4v10.2c16,1.7,24.7,3.4,27.3,8c2.2,3.8,0.4,9.2-4.1,19.1
			c-8.6,18.7-24.6,49-47.6,90c-0.1,0.2-0.3,0.3-0.4,0.3l0,0c-0.2,0-0.3-0.1-0.4-0.3c-4.3-7.5-8.7-15.2-13.3-22.9
			c-13.6-23.5-27.7-47.9-40.4-71.9c-3.3-5.8-5.7-10.5-4-14.1c2-3.9,8.7-6.2,23.9-8.2V12.9h-94.6v10.2c24,2.5,28.4,7.1,44.3,34.2
			c18.1,30.7,31.3,54.1,43,74.8c2.5,4.5,5,8.9,7.4,13.2c6.9,12.1,8.5,15.8,8.5,23.8v53.2c0,17.2-1,26.4-6.4,31.6
			c-5.6,5.4-16.2,6.5-32.8,7.7V271.9z"/>
	</g>
</g>
</svg>
