<?xml version="1.0" encoding="utf-8"?>
<!-- Generator: Adobe Illustrator 24.0.3, SVG Export Plug-In . SVG Version: 6.00 Build 0)  -->
<svg version="1.1" id="service.svg" xmlns="http://www.w3.org/2000/svg" xmlns:xlink="http://www.w3.org/1999/xlink" x="0px"
	 y="0px" viewBox="0 0 623.6 623.6" style="enable-background:new 0 0 623.6 623.6;" xml:space="preserve">
<style type="text/css">
	.st0{fill:#FFFFFF;}
	.st1{enable-background:new    ;}
	.st2{fill:#5E6165;}
</style>
<g>
	<circle id="橢圓_4_拷貝_4" class="st0" cx="78.4" cy="311.7" r="58.2"/>
	<g class="st1">
		<path class="st2" d="M47.5,334.1c-0.7-0.4-1.5-0.9-2.5-1.4c-1.3,0.7-3.1,1.2-5.7,1.6c-0.1-0.3-0.4-0.9-0.7-1.2
			c2-0.3,3.5-0.7,4.7-1.2c-1-0.4-2-0.8-3-1c0.3-0.4,0.7-0.8,1-1.3l-2.1,0.1l-0.1-1.3c0.9,0,2-0.1,3.2-0.1c0.3-0.5,0.6-1,0.8-1.5
			h-3.2v-3.4h3.7v-0.7h-3.2v-2.2H39v-1.4h1.4v-2h3.2v-1.3h1.5v1.3h3.4v2h1.4v1.4h-1.4v2.2h-3.4v0.7h3.8v3.4h-4.2
			c-0.2,0.5-0.5,0.9-0.8,1.4l2.8-0.1l0,0v-0.8h1.5v0.8h0.9v1.2l-1,0.1c-0.2,0.8-0.6,1.7-1.6,2.5c0.9,0.4,1.7,0.9,2.3,1.2L47.5,334.1
			z M41.3,325.7h2.2v-1h-2.2V325.7z M41.9,318.3v0.9h1.6v-0.9H41.9z M43.5,321.4v-1h-1.6v1H43.5z M43,329.6
			c-0.2,0.3-0.3,0.5-0.5,0.7c0.8,0.2,1.6,0.5,2.3,0.9c0.9-0.6,1.3-1.2,1.6-1.8L43,329.6z M45,318.3v0.9h1.7v-0.9H45z M46.7,321.4v-1
			H45v1H46.7z M45,324.6v1h2.2v-1H45z M56,321.2c-0.3,3-0.9,5.6-1.8,7.7c0.8,1.7,1.9,3.1,3.3,4c-0.4,0.3-0.9,0.9-1.1,1.3
			c-1.3-0.9-2.3-2.1-3.1-3.6c-0.9,1.6-2.1,2.9-3.6,3.9c-0.1-0.3-0.7-1.1-1-1.4c1.7-1.1,2.9-2.5,3.8-4.3c-0.6-1.4-1-3.1-1.4-4.8
			c-0.3,0.7-0.6,1.3-1,1.9c-0.2-0.3-0.9-0.9-1.2-1.2c1.4-2.1,2.1-5.5,2.5-8.9L53,316c-0.2,1.2-0.3,2.4-0.6,3.5h4.9v1.7H56L56,321.2z
			 M52.1,321.2c0.3,2,0.7,3.9,1.2,5.5c0.5-1.6,0.8-3.5,1-5.5H52.1z"/>
		<path class="st2" d="M65.7,316.4c-0.5,1.4-1.2,2.9-2,4.2v13.8h-1.9v-10.8c-0.5,0.8-1.1,1.4-1.7,2c-0.2-0.4-0.7-1.5-1.1-1.9
			c1.9-1.9,3.7-4.9,4.8-7.8L65.7,316.4z M77.6,331.8v1.8H65v-1.8h7.1c0.7-2.7,1.5-6.8,1.8-9.8l2,0.3c-0.6,3.1-1.3,6.9-2.1,9.5H77.6z
			 M76.9,321.1H65.8v-1.8h11.1C76.9,319.3,76.9,321.1,76.9,321.1z M68.3,331c-0.2-2.1-0.7-5.7-1.3-8.5l1.7-0.4
			c0.6,2.7,1.3,6.3,1.5,8.4L68.3,331z M70.7,319.2c-0.1-0.9-0.5-2.2-0.9-3.2l1.8-0.4c0.4,1,0.8,2.3,1,3.1L70.7,319.2z"/>
		<path class="st2" d="M92.2,318.8c0,0.1,0,0.3,0,0.5c1.1,1.1,3.3,1.8,6,2c-0.4,0.4-0.8,1.1-1,1.5c-2.3-0.3-4.2-1.1-5.5-2.2
			c-0.7,0.9-2.3,1.8-5.8,2.3c-0.2-0.4-0.6-1.1-1-1.4h-5.2V320h5.9v1.3c4.4-0.6,4.9-1.7,4.9-2.6v-0.2h-1.7c-0.4,0.7-1,1.4-1.5,1.9
			c-0.3-0.3-1-0.8-1.4-1c1.1-0.9,1.9-2.3,2.3-3.7l1.7,0.4c-0.1,0.3-0.2,0.7-0.4,1h6.4l0.3-0.1l1.3,0.4c-0.5,1.1-1.2,2.3-1.8,3
			l-1.5-0.5c0.3-0.4,0.6-0.9,0.9-1.4h-2.9C92.2,318.5,92.2,318.8,92.2,318.8z M92.1,331.1c2.1,0.7,4.4,1.5,5.7,2.2l-1.7,1
			c-1.2-0.7-3.4-1.6-5.5-2.3l1.2-1h-6.1l1.7,0.8c-1.6,1-4.2,2-6.2,2.5c-0.3-0.4-1-1.1-1.4-1.4c2.1-0.4,4.5-1.1,5.9-1.9h-3.3v-8.2
			h13.3v8.2L92.1,331.1L92.1,331.1z M85.1,318.3h-5v-1.4h5V318.3z M84.2,325.3h9.6v-1.2h-9.6V325.3z M84.2,327.6h9.6v-1.1h-9.6
			V327.6z M84.2,329.9h9.6v-1.2h-9.6V329.9z"/>
		<path class="st2" d="M107.3,320.6H100v-1.5h3.5c-0.3-0.8-0.9-1.9-1.4-2.8l1.4-0.8c0.5,0.9,1.1,1.9,1.4,2.7l-1.3,0.8h3.8
			L107.3,320.6L107.3,320.6z M100.8,323.3v-1.5h5.8v1.5H100.8z M100.8,324.5h5.8v1.5h-5.8V324.5z M106.6,333.2h-4.3v0.9h-1.5v-6.9
			h5.8V333.2z M102.3,328.8v2.9h2.8v-2.9H102.3z M116.5,316.8c-0.1,7.5-0.2,15.1,0.8,15.4c0.1,0,0.3-1.3,0.3-2.6
			c0.3,0.5,0.8,1.2,1,1.4c-0.2,2.9-1.1,3.5-2.1,3.1c-2-0.7-1.9-7.5-1.9-15.5h-3v5.7h2.4v1.8h-2.4v8.3h-1.8v-8.3h-2.5v-1.8h2.5v-5.7
			h-2.3v-1.8H116.5z"/>
	</g>
	<g>
		<path class="st2" d="M82.4,308.9H75c-0.3,0-0.6,0.3-0.6,0.6c0,0.3,0.3,0.6,0.6,0.6h7.4c0.3,0,0.6-0.3,0.6-0.6
			C83,309.1,82.7,308.9,82.4,308.9L82.4,308.9z"/>
		<path class="st2" d="M93.3,280.4h-2.7v-1c0-0.3-0.3-0.6-0.6-0.6c-0.3,0-0.6,0.3-0.6,0.6v1H73.1c-0.3,0-0.6,0.3-0.6,0.6
			c0,0.3,0.3,0.6,0.6,0.6H93v11.8H80.4c-0.3,0-0.7,0.2-0.8,0.5l-1.4,2.6l-1.4-2.6c-0.2-0.3-0.5-0.5-0.8-0.5H63.4v-11.8h7.1
			c0.3,0,0.6-0.3,0.6-0.6c0-0.3-0.3-0.6-0.6-0.6h-2.6v-5.6c0-1,0.8-1.8,1.8-1.8H72v1.8c0,0.8,0.6,1.4,1.4,1.4h10.5
			c0.8,0,1.4-0.6,1.4-1.4V273h2.3c1,0,1.8,0.8,1.8,1.8v2.1c0,0.3,0.3,0.6,0.6,0.6c0.3,0,0.6-0.3,0.6-0.6v-2.1c0-1.7-1.3-3-3-3H69.8
			c-1.7,0-3,1.3-3,3v5.6h-3.6c-0.5,0-0.9,0.4-0.9,0.9v12.3c0,0.5,0.4,0.9,0.9,0.9h3.6v7.9c0,0.3,0.3,0.6,0.6,0.6
			c0.3,0,0.6-0.3,0.6-0.6v-7.9h7.9l1.7,3.2c0.1,0.3,0.4,0.4,0.7,0.4c0.3,0,0.5-0.2,0.7-0.4l1.7-3.2h8.9v11.8H68V305
			c0-0.3-0.3-0.6-0.6-0.6c-0.3,0-0.6,0.3-0.6,0.6v4.6c0,1.7,1.3,3,3,3h17.9c1.7,0,3-1.3,3-3v-2.7l0,0l0,0v-12.4h2.7
			c0.5,0,0.9-0.4,0.9-0.9v-12.3C94.2,280.8,93.8,280.4,93.3,280.4L93.3,280.4z M84.2,273.1v1.8c0,0.1-0.1,0.2-0.2,0.2H73.4
			c-0.1,0-0.2-0.1-0.2-0.2v-1.8H84.2z M87.6,311.5H69.8c-1,0-1.8-0.8-1.8-1.8v-2.2h21.5v2.2C89.4,310.7,88.6,311.5,87.6,311.5
			L87.6,311.5z"/>
		<path class="st2" d="M66.3,284.5v5.4c0,0.6,0.5,1.1,1.1,1.1h5.4c0.6,0,1.1-0.5,1.1-1.1v-5.4c0-0.6-0.5-1.1-1.1-1.1h-5.4
			C66.8,283.5,66.3,283.9,66.3,284.5L66.3,284.5z M67.5,284.7h5.2v5.2h-5.2V284.7z"/>
		<path class="st2" d="M75.9,286.1h12.8c0.3,0,0.6-0.3,0.6-0.6c0-0.3-0.3-0.6-0.6-0.6H75.9c-0.3,0-0.6,0.3-0.6,0.6
			S75.6,286.1,75.9,286.1L75.9,286.1z"/>
		<path class="st2" d="M75.9,289.8h12.8c0.3,0,0.6-0.3,0.6-0.6c0-0.3-0.3-0.6-0.6-0.6H75.9c-0.3,0-0.6,0.3-0.6,0.6
			S75.6,289.8,75.9,289.8L75.9,289.8z"/>
	</g>
</g>
</svg>
