<?xml version="1.0" encoding="utf-8"?>
<!-- Generator: Adobe Illustrator 24.0.3, SVG Export Plug-In . SVG Version: 6.00 Build 0)  -->
<svg version="1.1" id="service.svg" xmlns="http://www.w3.org/2000/svg" xmlns:xlink="http://www.w3.org/1999/xlink" x="0px"
	 y="0px" viewBox="0 0 623.6 623.6" style="enable-background:new 0 0 623.6 623.6;" xml:space="preserve">
<style type="text/css">
	.st0{fill:#FFFFFF;}
	.st1{enable-background:new    ;}
	.st2{fill:#5E6165;}
</style>
<g>
	<circle id="橢圓_4" class="st0" cx="312.6" cy="77.7" r="58.3"/>
	<g class="st1">
		<path class="st2" d="M289.9,91.2v1.4h-13v0.7H275v-6.1c-0.5,0.6-1.1,1.1-1.6,1.6c-0.3-0.4-0.9-1.1-1.3-1.4c1.8-1.4,3.4-3.7,4.4-6
			l1.8,0.6c-0.2,0.5-0.5,1.1-0.8,1.6h4.2c-0.2-0.5-0.5-1.2-0.8-1.7l1.7-0.5c0.4,0.7,0.8,1.5,1.1,2.2h5.7V85h-5.9v1.2h4.9v1.3h-4.9
			v1.2h5V90h-5v1.3h6.4L289.9,91.2L289.9,91.2z M275,93.9h13.8v6.3h-2v-0.9h-9.9v0.9H275V93.9z M276.8,95.5v2.3h9.9v-2.3H276.8z
			 M281.6,85h-4.8v1.2h4.8V85z M281.6,87.5h-4.8v1.2h4.8V87.5z M276.9,91.2h4.8v-1.3h-4.8V91.2z"/>
		<path class="st2" d="M298.8,86.3c-0.5,0.9-1.1,1.9-1.7,2.8v11.2h-1.8v-9c-0.5,0.6-1.1,1.1-1.6,1.6c-0.2-0.4-0.7-1.3-1-1.7
			c1.7-1.3,3.4-3.4,4.5-5.4L298.8,86.3z M298.4,82.1c-1.1,1.7-2.9,3.7-4.6,4.9c-0.2-0.4-0.7-1-1-1.4c1.4-1.1,3.1-2.8,3.9-4.1
			L298.4,82.1z M309.6,92.4c-0.8,1.9-2.1,3.5-3.6,4.6c1.5,0.7,3.2,1.2,5.1,1.6c-0.4,0.4-0.9,1.2-1.1,1.6c-2.1-0.4-4-1.1-5.6-2.1
			c-1.7,1-3.7,1.7-5.8,2.1c-0.2-0.4-0.6-1.2-0.9-1.6c1.8-0.3,3.5-0.8,5-1.6c-0.7-0.5-1.3-1.1-1.9-1.7c-0.5,0.5-1,0.9-1.4,1.2
			c-0.3-0.4-0.9-1.1-1.3-1.4c0.6-0.3,1.1-0.8,1.6-1.2c-0.4-0.5-0.7-1-1-1.6l1.5-0.5c0.2,0.4,0.4,0.7,0.6,1c0.6-0.7,1.2-1.5,1.7-2.3
			c-2.6,0.2-3.1,0.2-3.6,0.4c-0.1-0.3-0.3-1.3-0.5-1.7c0.6-0.1,1.3-0.4,2.3-1c0.4-0.2,1.2-0.7,2.2-1.4c-2.6,0.1-3.2,0.2-3.5,0.3
			c-0.1-0.4-0.4-1.3-0.6-1.8c0.4-0.1,0.8-0.3,1.4-0.7c0.5-0.4,2.3-1.7,3.4-3.1l1.9,0.8c-1.1,1.1-2.4,2.2-3.6,3l3.2-0.1
			c0.9-0.6,1.7-1.3,2.5-2.1l1.7,1c-2.2,1.9-4.6,3.4-6.9,4.7l5.4-0.3c-0.4-0.5-0.8-1-1.1-1.4l1.5-0.8c1.1,1.3,2.5,3.2,3.2,4.4
			l-1.6,0.9c-0.2-0.4-0.6-1-1-1.6l-4.2,0.3c-0.2,0.5-0.5,1-0.9,1.5h4.5l0.3-0.1L309.6,92.4z M302.6,93.4c-0.2,0.3-0.4,0.5-0.6,0.8
			c0.7,0.7,1.5,1.4,2.4,1.9c1.1-0.7,2.1-1.6,2.8-2.7C307.2,93.4,302.6,93.4,302.6,93.4z"/>
		<path class="st2" d="M320.4,98c0,0.9-0.2,1.5-0.7,1.8c-0.6,0.3-1.4,0.4-2.8,0.3c0-0.5-0.3-1.3-0.5-1.8c0.8,0,1.6,0,1.9,0
			c0.2,0,0.3-0.1,0.3-0.4v-4.6h-2.8c-0.2,2.4-0.6,4.9-1.5,6.8c-0.3-0.3-1.1-0.7-1.5-0.9c1.3-2.8,1.4-6.9,1.4-9.8v-7.3h6.1V98H320.4z
			 M318.7,91.6v-3h-2.6v0.9c0,0.7,0,1.4,0,2.1H318.7z M316.1,84v2.9h2.6V84H316.1z M331.4,89.5c-0.5,2.7-1.4,5-2.6,6.8
			c0.9,1,2,1.9,3.2,2.4c-0.4,0.3-0.9,1-1.2,1.5c-1.2-0.6-2.2-1.5-3.1-2.5c-0.9,1-1.8,1.8-2.9,2.4c-0.2-0.4-0.7-1-1.1-1.4v1.4h-1.8
			V82.3h8.9v3.9c0,0.9-0.2,1.4-0.9,1.6c-0.7,0.3-1.8,0.3-3.3,0.3c-0.1-0.5-0.4-1.2-0.6-1.6c1.1,0,2.3,0,2.5,0c0.3,0,0.4-0.1,0.4-0.3
			v-2.1h-5.3v5.1h6.3l0.3-0.1L331.4,89.5z M323.7,98.7c1.1-0.5,2-1.4,2.9-2.4c-1.1-1.5-1.9-3.4-2.5-5.4h-0.4V98.7z M325.7,90.9
			c0.5,1.4,1.1,2.7,1.9,3.9c0.7-1.2,1.3-2.5,1.7-3.9H325.7z"/>
		<path class="st2" d="M350.5,85.2c-0.5,1.3-1.3,2.4-2.3,3.3c1.2,0.7,2.6,1.2,4.1,1.5c-0.4,0.4-0.9,1.1-1.2,1.6
			c-1.6-0.4-3.1-1.1-4.4-2c-1.2,0.8-2.7,1.4-4.3,1.9c-0.1-0.2-0.3-0.5-0.5-0.8c-0.3,1.2-0.7,2.4-1.1,3.3l-1.3-0.7
			c0.3-0.8,0.6-1.9,0.9-3.1h-1.6V98c0,0.9-0.1,1.4-0.8,1.7c-0.6,0.3-1.4,0.3-2.7,0.3c-0.1-0.5-0.3-1.3-0.6-1.8c0.8,0,1.6,0,1.9,0
			c0.2,0,0.3-0.1,0.3-0.3v-5.5c-0.8,1.7-1.7,3.4-2.8,4.4c-0.2-0.5-0.6-1.3-1-1.8c1.2-1.1,2.4-3,3.1-4.9h-2.8v-1.6h5.2
			c-1.1-0.8-2.9-1.8-4.4-2.4l1.2-1.2c0.6,0.2,1.2,0.5,1.8,0.8c0.6-0.5,1.2-1.1,1.8-1.7h-5.4v-1.6h6.7l0.3-0.1l1.2,0.8
			c-0.8,1.2-2,2.5-3.2,3.4c0.7,0.4,1.2,0.8,1.6,1.1l-0.9,1h1.3l0.3-0.1l1.1,0.4c-0.1,0.3-0.1,0.5-0.2,0.8c1.2-0.3,2.2-0.8,3.1-1.3
			c-0.7-0.7-1.3-1.4-1.8-2.1c-0.4,0.4-0.8,0.8-1.2,1.2c-0.4-0.3-1.1-0.8-1.6-1.1c1.6-1.2,3.1-3,3.9-4.9L346,82
			c-0.2,0.5-0.5,1.1-0.8,1.6h6.4v1.6H350.5L350.5,85.2z M351.5,92.8c0,0,0,0.5-0.1,0.8c-0.3,3.6-0.7,5.2-1.3,5.8
			c-0.4,0.4-0.8,0.5-1.4,0.6c-0.5,0-1.3,0-2.3,0c0-0.5-0.2-1.3-0.5-1.7c0.8,0.1,1.5,0.1,1.9,0.1c0.3,0,0.5,0,0.7-0.2
			c0.3-0.3,0.6-1.3,0.9-3.7h-3c-0.7,2.5-2.1,4.5-5.3,5.8c-0.2-0.4-0.7-1.1-1.1-1.5c2.6-1,3.9-2.5,4.5-4.3h-2.9v-1.6h3.3
			c0.1-0.6,0.2-1.3,0.2-1.9h1.9c-0.1,0.7-0.1,1.3-0.2,1.9h4.7L351.5,92.8L351.5,92.8z M344.6,85.2c0.5,0.8,1.2,1.6,2.1,2.2
			c0.7-0.6,1.3-1.4,1.7-2.2H344.6z"/>
	</g>
	<g>
		<path class="st2" d="M321.4,69.9c-0.3,0-0.6,0.3-0.6,0.6s0.3,0.6,0.6,0.6c0.3,0,0.6-0.3,0.6-0.6S321.8,69.9,321.4,69.9z"/>
		<path class="st2" d="M323,67.9l-3-1l-1.1-2.2c1-1,1.6-2.3,1.9-3.7l0.1-0.8h1.1c1,0,1.9-0.8,1.9-1.9v-4c0-5.2-4.2-9.5-9.5-9.5
			c-5.2,0-9.5,4.2-9.5,9.5v4c0,0.8,0.5,1.5,1.3,1.8v0.7c0,1,0.8,1.9,1.9,1.9h0.6c0.3,0.6,0.6,1.1,1.1,1.6c0.1,0.1,0.2,0.2,0.3,0.3
			l-1.1,2.2l-3,1c-3.5,1.2-6,4.8-6,8.7c0,0.3,0.3,0.6,0.6,0.6h27.7c0.3,0,0.6-0.3,0.6-0.6C329,72.7,326.5,69,323,67.9z M322.7,58.4
			c0,0.3-0.3,0.6-0.6,0.6h-1c0.2-1.2,0.3-2.6,0.3-3.9V55h1.3L322.7,58.4L322.7,58.4z M306.9,59c-0.3,0-0.6-0.3-0.6-0.6v-3.3h1.3
			c0,0.1,0,0.1,0,0.2l0,0l0,0c0,1.3,0.1,2.6,0.3,3.8L306.9,59L306.9,59z M308.2,61.5c-0.3,0-0.6-0.3-0.6-0.6v-0.6h0.5l0.1,0.8
			c0,0.2,0.1,0.3,0.1,0.5h-0.1V61.5z M307.6,53.8h-1.2c0.3-4.2,3.8-7.6,8.2-7.6c4.3,0,7.8,3.3,8.2,7.6h-1.2c0-3.5-2.9-6.3-6.4-6.3
			h-1.1C310.4,47.5,307.6,50.3,307.6,53.8z M313.9,48.7h1.1c2.8,0,5.1,2.3,5.1,5.1c0,0.2,0,0.4,0,0.5l0,0l-0.8-0.1
			c-2.1-0.3-4.2-1.3-5.7-2.8c-0.1-0.1-0.3-0.2-0.4-0.2c-1.7,0-3.3,0.8-4.4,2.1C309.1,50.8,311.3,48.7,313.9,48.7z M309.6,61.5
			c-0.3-1-0.7-4.1-0.8-6.1l0.8-1.1c0.8-1,2-1.7,3.3-1.8c1.7,1.6,3.9,2.7,6.2,3l0.9,0.1c-0.1,1.3-0.2,2.6-0.4,3.9l0,0
			c-0.1,0.4-0.1,0.6-0.2,1.3c-0.3,2-1.8,3.8-3.8,4.3c-0.8,0.2-1.7,0.2-2.5,0c-1.2-0.3-2.4-1.2-3.1-2.4h1.3c0.3,0.7,1,1.3,1.8,1.3
			h1.3c1,0,1.9-0.8,1.9-1.9c0-1-0.8-1.9-1.9-1.9h-1.3c-0.8,0-1.5,0.5-1.8,1.3C311.3,61.5,309.6,61.5,309.6,61.5z M313.2,66.4
			c0.4,0.1,0.9,0.1,1.3,0.1c0.3,0,0.7,0,1-0.1l-1.1,1.2L313.2,66.4z M313.6,68.6l-2,2.1c-0.6-1.1-1-2.2-1.4-3.3l0.8-1.5L313.6,68.6z
			 M318,65.7l0.9,1.7c-0.4,1.1-0.9,2.2-1.4,3.3l-2.1-2.1L318,65.7z M312.6,62.2c0-0.3,0.3-0.6,0.6-0.6h1.3c0.3,0,0.6,0.3,0.6,0.6
			s-0.3,0.6-0.6,0.6h-1.3C312.9,62.8,312.6,62.5,312.6,62.2z M301.3,76c0.2-3.1,2.3-6,5.1-6.9l2.7-0.9c0.5,1.3,1.1,2.7,1.8,3.9l0,0
			l0,0c0.5,0.9,1.1,1.8,1.7,2.6l0.8,1.2h-12.1V76z M314.5,75.4l-0.9-1.4l0,0c-0.5-0.7-1-1.4-1.4-2.1l2.2-2.4l2.4,2.4
			c-0.4,0.7-0.9,1.4-1.4,2.1C315.4,74,315.4,74,314.5,75.4z M315.6,76l0.8-1.2c0.6-0.8,1.2-1.7,1.7-2.7l0,0l0,0
			c0.7-1.2,1.3-2.5,1.8-3.9l2.7,0.9c2.8,0.9,4.9,3.8,5.1,6.9C327.7,76,315.6,76,315.6,76z"/>
		<path class="st2" d="M324,71.2c-0.3-0.2-0.7-0.2-0.9,0.1c-0.2,0.3-0.2,0.7,0.1,0.9c0.6,0.5,1.1,1.1,1.4,1.7
			c0.2,0.3,0.5,0.4,0.8,0.3c0.3-0.2,0.4-0.5,0.3-0.8C325.4,72.6,324.8,71.8,324,71.2z"/>
	</g>
</g>
</svg>
