<?xml version="1.0" encoding="utf-8"?>
<!-- Generator: Adobe Illustrator 24.0.3, SVG Export Plug-In . SVG Version: 6.00 Build 0)  -->
<svg version="1.1" id="service.svg" xmlns="http://www.w3.org/2000/svg" xmlns:xlink="http://www.w3.org/1999/xlink" x="0px"
	 y="0px" viewBox="0 0 623.6 623.6" style="enable-background:new 0 0 623.6 623.6;" xml:space="preserve">
<style type="text/css">
	.st0{fill:#FFFFFF;}
	.st1{enable-background:new    ;}
	.st2{fill:#5E6165;}
</style>
<g>
	<circle id="橢圓_4_拷貝_5-2" class="st0" cx="478.2" cy="477.5" r="58.2"/>
	<g class="st1">
		<path class="st2" d="M456.3,497.4v1.9h-18.2v-1.9h8v-7.7h-6.7v-1.9h6.7v-6.3h2v6.3h6.8v1.9h-6.8v7.7H456.3z"/>
		<path class="st2" d="M464.5,492.3l0.4,1.7c-2.1,1-4.4,2.1-6.2,2.9l-0.8-1.9c0.7-0.3,1.7-0.6,2.7-1.1V488h-2.2v-1.8h2.3v-4.5h1.8
			v4.5h2.1v1.8h-2.1v5.1L464.5,492.3z M473.8,498c1.1,0,1.3-0.5,1.5-2.7c0.4,0.3,1.2,0.6,1.7,0.7c-0.3,2.8-0.8,3.7-3,3.7h-4.7
			c-2.5,0-3.2-0.6-3.2-3.1v-5.9l-1.4,0.6l-0.7-1.7l2.1-0.9v-5.4h1.8v4.6l2.3-1v-5.6h1.8v4.8l2.7-1.2l1.4,0.5l-0.1,0.3
			c-0.2,2.8-0.5,6.5-1,8.9l-1.5-0.4c0.3-1.7,0.5-4.6,0.6-7.1l-2.2,0.9v7.3h-1.8v-6.5l-2.3,1v6.7c0,1.1,0.2,1.4,1.5,1.4h4.5
			L473.8,498L473.8,498z"/>
		<path class="st2" d="M486.1,486.4h-7.4v-1.5h3.4c-0.3-0.8-0.9-1.9-1.4-2.7l1.4-0.8c0.5,0.9,1.1,1.9,1.4,2.7l-1.4,0.8h3.9v1.5
			H486.1z M479.5,489v-1.5h5.8v1.5H479.5z M479.5,490.2h5.8v1.5h-5.8V490.2z M485.3,498.9H481v0.9h-1.5v-6.9h5.8V498.9z M481,494.5
			v2.9h2.7v-2.9H481z M497.3,493h-4.6v7.1h-1.9V493h-4.7v-1.8h4.7v-7h-4v-1.8h10.1v1.8h-4.2v7h4.6V493z M488.7,485.3
			c0.5,1.6,0.9,3.5,1,4.9l-1.6,0.4c-0.1-1.3-0.5-3.3-0.9-4.9L488.7,485.3z M493.6,490.1c0.5-1.3,1-3.5,1.2-5l1.8,0.4
			c-0.5,1.7-1.1,3.7-1.6,5L493.6,490.1z"/>
		<path class="st2" d="M505.1,482.1c-0.5,1.5-1.3,3-2.1,4.4v13.6h-1.8v-10.8c-0.6,0.8-1.1,1.4-1.7,2c-0.2-0.4-0.7-1.5-1-1.9
			c1.9-1.9,3.7-4.9,4.8-7.8L505.1,482.1z M512,487.6v3.8h4.4v8.6h-1.9v-0.8h-6.8v0.9h-1.9v-8.7h4.3v-3.8h-5.3v-1.9h5.3v-4.3h2v4.3
			h5.6v1.8H512V487.6z M514.5,493.2h-6.8v4.2h6.8V493.2z"/>
	</g>
	<g>
		<path class="st2" d="M474.8,471.3c-0.2,0-0.3,0.1-0.4,0.2s-0.2,0.3-0.2,0.4s0.1,0.3,0.2,0.4s0.3,0.2,0.4,0.2
			c0.2,0,0.3-0.1,0.4-0.2s0.2-0.3,0.2-0.4s-0.1-0.3-0.2-0.4S475,471.3,474.8,471.3z"/>
		<path class="st2" d="M493.5,451.6c-0.9-0.9-2.3-0.9-3.2,0l-2.9,2.9v-9.3c0-1.2-1-2.1-2.1-2.1h-21c-1.2,0-2.1,1-2.1,2.1V473
			c0,1.2,1,2.1,2.1,2.1h21c1.2,0,2.1-1,2.1-2.1v-12.1l6.1-6.1C494.4,453.9,494.4,452.5,493.5,451.6z M480.1,444.3h5.2
			c0.5,0,0.9,0.4,0.9,0.9v10.5l-1.3,1.3v-10.8c0-0.3-0.3-0.6-0.6-0.6h-4.2V444.3z M470.7,444.3h8.1v2.5c0,0.4-0.3,0.7-0.7,0.7h-6.7
			c-0.4,0-0.7-0.3-0.7-0.7L470.7,444.3L470.7,444.3z M486.2,472.9c0,0.5-0.4,0.9-0.9,0.9h-21c-0.5,0-0.9-0.4-0.9-0.9v-27.8
			c0-0.5,0.4-0.9,0.9-0.9h5.2v1.3h-4.2c-0.3,0-0.6,0.3-0.6,0.6v25.8c0,0.3,0.3,0.6,0.6,0.6h7c0.3,0,0.6-0.3,0.6-0.6
			c0-0.3-0.3-0.6-0.6-0.6h-6.4v-24.5h3.6l0,0c0,1.1,0.9,2,2,2h6.7c1.1,0,2-0.9,2-2l0,0h3.6v11.4l-0.7,0.7c-0.1,0.1-0.1,0.1-0.1,0.2
			l-1.9,4.2c-0.1,0.2-0.1,0.5,0.1,0.7c0.1,0.1,0.3,0.2,0.4,0.2s0.2,0,0.3-0.1l1.9-0.8v8h-6.4c-0.3,0-0.6,0.3-0.6,0.6
			c0,0.3,0.3,0.6,0.6,0.6h7c0.3,0,0.6-0.3,0.6-0.6v-9.2l1.1-0.5c0.1,0,0.1-0.1,0.2-0.1v10.8L486.2,472.9L486.2,472.9z M484.7,461.5
			l-1.9,0.8l0.8-1.9L484.7,461.5z M490.3,456.3l-4.6,4.6l-1.5-1.5l5.6-5.6l1.5,1.5L490.3,456.3z M492.6,453.9l-0.4,0.4l-1.5-1.5
			l0.4-0.4c0.4-0.4,1.1-0.4,1.5,0C493,452.9,493,453.5,492.6,453.9z"/>
		<path class="st2" d="M472.3,450.6h-4c-0.3,0-0.6,0.3-0.6,0.6v4c0,0.3,0.3,0.6,0.6,0.6h4c0.3,0,0.6-0.3,0.6-0.6v-4
			C472.9,450.8,472.7,450.6,472.3,450.6z M471.7,454.6h-2.8v-2.8h2.8V454.6z"/>
		<path class="st2" d="M472.3,457.4h-4c-0.3,0-0.6,0.3-0.6,0.6v4c0,0.3,0.3,0.6,0.6,0.6h4c0.3,0,0.6-0.3,0.6-0.6v-4
			C472.9,457.7,472.7,457.4,472.3,457.4z M471.7,461.4h-2.8v-2.7h2.8V461.4z"/>
		<path class="st2" d="M472.3,464.3h-4c-0.3,0-0.6,0.3-0.6,0.6v4c0,0.3,0.3,0.6,0.6,0.6h4c0.3,0,0.6-0.3,0.6-0.6v-4
			C472.9,464.6,472.7,464.3,472.3,464.3z M471.7,468.3h-2.8v-2.8h2.8V468.3z"/>
		<path class="st2" d="M476.8,455c0.1,0.1,0.3,0.2,0.4,0.2s0.3-0.1,0.4-0.2l2.8-2.8c0.2-0.2,0.2-0.6,0-0.9c-0.2-0.2-0.6-0.2-0.9,0
			l-2.4,2.4l-0.9-0.9c-0.2-0.2-0.6-0.2-0.9,0c-0.2,0.2-0.2,0.6,0,0.9L476.8,455z"/>
		<path class="st2" d="M476.8,461.9c0.1,0.1,0.3,0.2,0.4,0.2s0.3-0.1,0.4-0.2l2.8-2.8c0.2-0.2,0.2-0.6,0-0.9c-0.2-0.2-0.6-0.2-0.9,0
			l-2.4,2.4l-0.9-0.9c-0.2-0.2-0.6-0.2-0.9,0c-0.2,0.2-0.2,0.6,0,0.9L476.8,461.9z"/>
		<path class="st2" d="M477.9,467.8l1,1c0.1,0.1,0.3,0.2,0.4,0.2c0.2,0,0.3-0.1,0.4-0.2c0.2-0.2,0.2-0.6,0-0.9l-1-1l1-1
			c0.2-0.2,0.2-0.6,0-0.9s-0.6-0.2-0.9,0l-1,1l-1-1c-0.2-0.2-0.6-0.2-0.9,0c-0.2,0.2-0.2,0.6,0,0.9l1,1l-1,1c-0.2,0.2-0.2,0.6,0,0.9
			c0.1,0.1,0.3,0.2,0.4,0.2s0.3-0.1,0.4-0.2L477.9,467.8z"/>
	</g>
</g>
</svg>
