<?xml version="1.0" encoding="utf-8"?>
<!-- Generator: Adobe Illustrator 24.0.3, SVG Export Plug-In . SVG Version: 6.00 Build 0)  -->
<svg version="1.1" id="service.svg" xmlns="http://www.w3.org/2000/svg" xmlns:xlink="http://www.w3.org/1999/xlink" x="0px"
	 y="0px" viewBox="0 0 623.6 623.6" style="enable-background:new 0 0 623.6 623.6;" xml:space="preserve">
<style type="text/css">
	.st0{enable-background:new    ;}
	.st1{fill:#5E6165;}
</style>
<g id="群組_52">
	<g class="st0">
		<path class="st1" d="M311.5,152.8c1,0,1.8,0.8,1.8,1.8s-0.8,1.8-1.8,1.8s-1.8-0.8-1.8-1.8S310.4,152.8,311.5,152.8z"/>
		<path class="st1" d="M311.5,163c1,0,1.8,0.8,1.8,1.8s-0.8,1.8-1.8,1.8s-1.8-0.8-1.8-1.8S310.4,163,311.5,163z"/>
		<path class="st1" d="M311.5,173.2c1,0,1.8,0.8,1.8,1.8s-0.8,1.8-1.8,1.8s-1.8-0.8-1.8-1.8S310.4,173.2,311.5,173.2z"/>
	</g>
	<g class="st0">
		<path class="st1" d="M311.5,445.5c1,0,1.8,0.8,1.8,1.8s-0.8,1.8-1.8,1.8s-1.8-0.8-1.8-1.8S310.4,445.5,311.5,445.5z"/>
		<path class="st1" d="M311.5,455.7c1,0,1.8,0.8,1.8,1.8s-0.8,1.8-1.8,1.8s-1.8-0.8-1.8-1.8S310.4,455.7,311.5,455.7z"/>
		<path class="st1" d="M311.5,465.9c1,0,1.8,0.8,1.8,1.8s-0.8,1.8-1.8,1.8s-1.8-0.8-1.8-1.8S310.4,465.9,311.5,465.9z"/>
	</g>
</g>
<g id="群組_52_1_">
	<g class="st0">
		<path class="st1" d="M469.9,311.1c0,1-0.8,1.8-1.8,1.8s-1.8-0.8-1.8-1.8s0.8-1.8,1.8-1.8C469.1,309.3,469.9,310,469.9,311.1z"/>
		<path class="st1" d="M459.7,311.1c0,1-0.8,1.8-1.8,1.8s-1.8-0.8-1.8-1.8s0.8-1.8,1.8-1.8C458.9,309.3,459.7,310,459.7,311.1z"/>
		<path class="st1" d="M449.5,311.1c0,1-0.8,1.8-1.8,1.8s-1.8-0.8-1.8-1.8s0.8-1.8,1.8-1.8C448.7,309.3,449.5,310,449.5,311.1z"/>
	</g>
	<g class="st0">
		<path class="st1" d="M177.2,311.1c0,1-0.8,1.8-1.8,1.8s-1.8-0.8-1.8-1.8s0.8-1.8,1.8-1.8S177.2,310,177.2,311.1z"/>
		<path class="st1" d="M167,311.1c0,1-0.8,1.8-1.8,1.8s-1.8-0.8-1.8-1.8s0.8-1.8,1.8-1.8C166.2,309.3,167,310,167,311.1z"/>
		<path class="st1" d="M156.8,311.1c0,1-0.8,1.8-1.8,1.8s-1.8-0.8-1.8-1.8s0.8-1.8,1.8-1.8S156.8,310,156.8,311.1z"/>
	</g>
</g>
<g id="群組_52_3_">
	<g class="st0">
		<path class="st1" d="M423.5,199.2c0.7,0.7,0.7,1.8,0,2.5s-1.8,0.7-2.5,0s-0.7-1.8,0-2.5S422.7,198.4,423.5,199.2z"/>
		<path class="st1" d="M416.3,206.4c0.7,0.7,0.7,1.8,0,2.5s-1.8,0.7-2.5,0s-0.7-1.8,0-2.5C414.4,205.7,415.5,205.6,416.3,206.4z"/>
		<path class="st1" d="M409.1,213.6c0.7,0.7,0.7,1.8,0,2.5s-1.8,0.7-2.5,0s-0.7-1.8,0-2.5C407.2,212.9,408.3,212.8,409.1,213.6z"/>
	</g>
	<g class="st0">
		<path class="st1" d="M216.5,406.1c0.7,0.7,0.7,1.8,0,2.5s-1.8,0.7-2.5,0s-0.7-1.8,0-2.5S215.8,405.4,216.5,406.1z"/>
		<path class="st1" d="M209.3,413.3c0.7,0.7,0.7,1.8,0,2.5s-1.8,0.7-2.5,0s-0.7-1.8,0-2.5C207.5,412.6,208.5,412.6,209.3,413.3z"/>
		<path class="st1" d="M202.1,420.6c0.7,0.7,0.7,1.8,0,2.5s-1.8,0.7-2.5,0s-0.7-1.8,0-2.5S201.3,419.8,202.1,420.6z"/>
	</g>
</g>
<g id="群組_52_2_">
	<g class="st0">
		<path class="st1" d="M423.5,423.1c-0.7,0.7-1.8,0.7-2.5,0s-0.7-1.8,0-2.5s1.8-0.7,2.5,0S424.3,422.3,423.5,423.1z"/>
		<path class="st1" d="M416.3,415.9c-0.7,0.7-1.8,0.7-2.5,0s-0.7-1.8,0-2.5s1.8-0.7,2.5,0S417.1,415.1,416.3,415.9z"/>
		<path class="st1" d="M409.1,408.7c-0.7,0.7-1.8,0.7-2.5,0s-0.7-1.8,0-2.5s1.8-0.7,2.5,0C409.8,406.8,409.9,407.9,409.1,408.7z"/>
	</g>
	<g class="st0">
		<path class="st1" d="M216.5,216.1c-0.7,0.7-1.8,0.7-2.5,0s-0.7-1.8,0-2.5s1.8-0.7,2.5,0S217.3,215.4,216.5,216.1z"/>
		<path class="st1" d="M209.3,208.9c-0.7,0.7-1.8,0.7-2.5,0s-0.7-1.8,0-2.5s1.8-0.7,2.5,0C210,207.1,210.1,208.1,209.3,208.9z"/>
		<path class="st1" d="M202.1,201.7c-0.7,0.7-1.8,0.7-2.5,0s-0.7-1.8,0-2.5s1.8-0.7,2.5,0S202.9,200.9,202.1,201.7z"/>
	</g>
</g>
<g>
	<path class="st1" d="M294.9,230.9c0,0,15.8,37.6,33.1,84.8c17.3,47.2,29.4,85.7,29.4,85.7s-15.7-37.2-33-84.4
		C307.2,269.8,294.9,230.9,294.9,230.9z"/>
	<path class="st1" d="M317.4,227.9c14.5-6.6,30.5-4.3,44.8,7s25.4,30,31.3,52.7s5.7,46.6-0.4,67.3s-17.6,35.5-32,42.1l0,0
		c13-6,23.3-24.2,28.8-42.9c5.5-18.6,5-44.2-0.3-64.7C378.7,247.3,344.3,215.5,317.4,227.9L317.4,227.9z"/>
	<path class="st1" d="M251.5,265.2"/>
	<path class="st1" d="M283.2,235.6c-9.2,1.6-22.4,17.8-26,36.8c-3.7,18.9-1.4,41.5,6.4,63.4c7.8,22,20.2,40.7,34.8,52.9
		c14.7,12.1,29.9,15.8,42.9,10.9l0,0c-11.7,4.4-27.8-2.9-41.1-13.8c-13.2-10.9-26-31.5-33-51.2C252.6,293.7,259,244.6,283.2,235.6
		L283.2,235.6z"/>
	<path class="st1" d="M352.1,398.2C301.3,413.5,248,386.6,232.9,338C218,289.5,247,237.7,297.8,222.4c17.6-5.3,31.1-4.7,43.2-1.8
		c16.4,5.7,24.1,18.5,18.1,34.5c-8.7,23-42.7,43.6-76,46c-20.7,1.5-36.1-5.6-42.8-15.8c6.4,12.7,23.9,21.5,48.1,19.7
		c36.5-2.6,73.8-25.4,83.4-50.8c7.2-19.1-3.3-34.3-24.5-39.6c-16.5-5.7-39.4-5.4-62.9,1.7c-55.6,16.8-87.2,73.9-70.7,127.6
		c16.6,53.7,75.1,83.6,130.7,66.8c36.9-11.1,63.2-40.1,71.9-73.9C406.9,365,383.7,388.7,352.1,398.2z"/>
	<path class="st1" d="M352.7,398.2c-51.1,15.5-104.6-11.7-119.6-60.8C218,288.3,247.2,236,298.2,220.5c17.7-5.4,31.3-4.7,43.4-1.8
		c16.4,5.7,24.2,18.7,18.2,34.8c-8.7,23.3-42.9,44.1-76.3,46.5c-20.8,1.5-36.4-4.5-43.1-14.8c6.4,12.8,24.2,20.5,48.5,18.7
		c36.6-2.7,74.1-25.7,83.8-51.4c7.2-19.3-3.4-34.7-24.6-40c-16.6-5.8-39.6-5.4-63.2,1.7c-55.8,17-87.6,74.7-71,129
		s75.4,84.5,131.2,67.6c37.1-11.3,62.6-39.9,71.4-74C406.8,365.3,384.5,388.6,352.7,398.2z"/>
	<path class="st1" d="M399.4,256.6c-2,14.2-10.4,29.9-23.9,43.9c-17.7,21.7-53.1,39.4-87.6,42.4c-26.1,2.2-45.5-4.5-53.7-16.5
		c7.7,15,29.8,23.7,60.2,21.1c45.8-3.9,93.1-31.8,105.7-62.3C404.6,274.2,404,264.4,399.4,256.6z"/>
	<path class="st1" d="M409.5,288.6c-1.9,14.7-10.1,30.6-23.3,45.1c-17.3,22.2-51.8,40.4-85.5,43.4c-25.4,2.3-44.3-4.6-52.4-16.9
		c7.6,15.4,29.1,24.3,58.8,21.6c44.7-4,90.8-32.6,103.1-63.9C414.6,306.7,414,296.7,409.5,288.6z"/>
</g>
</svg>
