<?xml version="1.0" encoding="utf-8"?>
<!-- Generator: Adobe Illustrator 24.0.3, SVG Export Plug-In . SVG Version: 6.00 Build 0)  -->
<svg version="1.1" id="service.svg" xmlns="http://www.w3.org/2000/svg" xmlns:xlink="http://www.w3.org/1999/xlink" x="0px"
	 y="0px" viewBox="0 0 623.6 623.6" style="enable-background:new 0 0 623.6 623.6;" xml:space="preserve">
<style type="text/css">
	.st0{fill:#FFFFFF;}
	.st1{enable-background:new    ;}
	.st2{fill:#5E6165;}
</style>
<g>
	<circle id="橢圓_4_拷貝_5" class="st0" cx="312.6" cy="545.9" r="58.3"/>
	<g class="st1">
		<path class="st2" d="M275.6,557.2c0,3.3-0.3,7.9-2.1,11c-0.3-0.3-1.1-0.8-1.6-1c1.7-2.9,1.9-7,1.9-10.1v-5.9h7.6
			c-0.1-0.4-0.3-0.9-0.4-1.3l1.9-0.4c0.2,0.5,0.5,1.2,0.6,1.7h7v1.6h-14.9V557.2z M285.3,565.1c1.9,0.7,3.9,1.5,5.2,2l-0.9,1.3
			c-1.3-0.6-3.4-1.5-5.3-2.2l0.7-1.1h-4.4l1.3,1.1c-1.7,0.8-4,1.6-5.6,2.2c-0.2-0.4-0.7-1-1-1.3c1.5-0.5,3.8-1.4,5.1-2H277v-5.8
			h12.3v5.8H285.3z M290.6,557.5v1.1h-14.5v-1.1H290.6z M278.9,557v-1.7h-2.5v-1.1h2.5v-1h1.8v1h4.6v-1h1.9v1h2.5v1.1h-2.5v1.7
			H278.9z M278.7,561.6h3.5v-1.2h-3.5V561.6z M278.7,563.9h3.5v-1.2h-3.5V563.9z M280.7,555.2v0.8h4.6v-0.8H280.7z M287.5,560.4H284
			v1.2h3.5V560.4z M287.5,562.7H284v1.2h3.5V562.7z"/>
		<path class="st2" d="M310.7,557v1.8h-17.8V557h8.4v-2.8h-4.7c-0.6,1-1.2,1.8-1.8,2.5c-0.4-0.3-1.3-0.8-1.7-1
			c1.5-1.4,2.8-3.7,3.5-5.9l1.9,0.4c-0.3,0.7-0.6,1.5-0.9,2.2h3.8v-2.8h2v2.8h6v1.7h-6v2.8L310.7,557L310.7,557z M295.3,560.5h13.2
			v7.9h-2v-1h-9.3v1.1h-1.9C295.3,568.5,295.3,560.5,295.3,560.5z M297.3,562.3v3.4h9.3v-3.4H297.3z"/>
		<path class="st2" d="M323.7,550.3c-0.1,0.2-0.3,0.4-0.5,0.7c2.6,2.9,5.5,4.4,8.6,5.6c-0.5,0.4-1,1.1-1.2,1.6c-3-1.4-5.7-3-8.4-6
			c-2.2,2.5-5.2,4.6-8.2,6c-0.3-0.5-0.8-1.2-1.3-1.6c3.7-1.4,7.4-4.1,9.4-7.1L323.7,550.3z M323.3,566h7.5v1.7h-17.2V566h2.4v-7.3
			h1.9v7.3h3.4v-10.8h2v4.5h5.7v1.7h-5.7L323.3,566L323.3,566z"/>
		<path class="st2" d="M343.7,552.8h1.2v1.2h-1.2v2.1h-3.9v0.8h4.1v1.1h-4.1v0.8h4.9v1.3h-11.4v-1.3h4.7V558h-3.8v-1.1h3.8v-0.8
			h-3.7V555h3.7v-0.9h-4.8v-1.2h4.8v-0.8h-3.6v-1.2h3.6v-1.2h1.7v1.2h3.9L343.7,552.8L343.7,552.8z M333.2,566.3
			c2.8-0.1,7.3-0.3,11.6-0.5l-0.1,1.4c-4.1,0.2-8.5,0.4-11.4,0.5L333.2,566.3z M343.7,560.7v4.5h-9.2v-4.5H343.7z M336,562.5h2.3
			v-0.8H336V562.5z M336,564.3h2.3v-0.9H336V564.3z M339.8,552.8h2.2V552h-2.2V552.8z M342,554h-2.2v0.9h2.2V554z M342.1,561.7h-2.2
			v0.8h2.2V561.7z M342.1,563.5h-2.2v0.9h2.2V563.5z M347.2,563.3h-1.7v-11.2h1.7V563.3z M351.1,550.1v16c0,1.1-0.2,1.6-0.9,1.9
			c-0.6,0.3-1.7,0.3-3.3,0.3c-0.1-0.5-0.3-1.3-0.6-1.9c1.1,0,2.2,0,2.5,0s0.4-0.1,0.4-0.4v-16L351.1,550.1L351.1,550.1z"/>
	</g>
	<g>
		<path class="st2" d="M327.1,523.2h-4.5l2.7-3c0.2-0.2,0.2-0.4,0.2-0.6s-0.1-0.4-0.3-0.6l-1.2-1c-0.3-0.3-0.9-0.3-1.2,0.1l-4.7,5.2
			H310c-0.2,0-0.4,0.2-0.4,0.4s0.2,0.4,0.4,0.4h7.4l-1.9,2.1c-0.2,0.2-0.2,0.4-0.2,0.6v0.1l-0.7,1.8c-0.1,0.3,0,0.6,0.2,0.7
			c0.1,0.1,0.3,0.2,0.5,0.2c0.1,0,0.2,0,0.3-0.1l1.7-0.8l0,0l0,0c0.2,0,0.4-0.1,0.6-0.3l3.8-4.3h5.3c0.1,0,0.1,0.1,0.1,0.1v16.4
			c0,0.1-0.1,0.1-0.1,0.1h-3c-0.2,0-0.4,0.2-0.4,0.4s0.2,0.4,0.4,0.4h3.1c0.5,0,1-0.4,1-1v-16.4
			C328.1,523.6,327.7,523.2,327.1,523.2z M323.5,518.5l1.2,1l-0.5,0.6l-1.2-1L323.5,518.5z M315.7,528.4l0.3-0.8l0.5,0.4
			L315.7,528.4z M316.2,526.7l6.2-6.9l0.3,0.2l-6.2,6.9L316.2,526.7z M317.4,527.7l-0.3-0.2l6.2-6.9l0.3,0.2L317.4,527.7z"/>
		<path class="st2" d="M322.2,540.7h-19.1c-1.7,0-3.1-1.4-3.1-3.1v-0.2c0-1.7,1.4-3.1,3.1-3.1h0.9c0.5,0,1-0.4,1-1v-9.2h3.3
			c0.2,0,0.4-0.2,0.4-0.4s-0.2-0.4-0.4-0.4H305v-1.5c0-0.2-0.2-0.4-0.4-0.4c-0.2,0-0.4,0.2-0.4,0.4v11.5c0,0.1-0.1,0.1-0.1,0.1h-0.9
			c-1.3,0-2.4,0.6-3.1,1.5v-15.1c0-1.7,1.4-3.1,3.1-3.1h0.9c0.1,0,0.1,0.1,0.1,0.1v3c0,0.2,0.2,0.4,0.4,0.4c0.2,0,0.4-0.2,0.4-0.4
			v-3c0-0.5-0.4-1-1-1h-0.9c-2.2,0-4,1.8-4,4v17.7c0,2.2,1.8,4,4,4h19.1c0.2,0,0.4-0.2,0.4-0.4C322.6,540.8,322.4,540.7,322.2,540.7
			z"/>
		<path class="st2" d="M321.8,527.6c-1.7,0-3.2,1.4-3.3,3.1h-2c-0.2,0-0.4,0.2-0.4,0.4v4.9c0,0.2,0.2,0.4,0.4,0.4h4.9
			c0.2,0,0.4-0.2,0.4-0.4v-1.8c1.8,0,3.2-1.5,3.2-3.3C325.1,529.1,323.6,527.6,321.8,527.6z M321,535.6h-4v-4h1.6
			c0.3,1.2,1.2,2.2,2.4,2.5V535.6z M321,533.2c-0.7-0.3-1.3-0.9-1.5-1.6h1.5V533.2z M321.9,533.3v-2.2c0-0.2-0.2-0.4-0.4-0.4h-2
			c0.1-1.2,1.1-2.2,2.4-2.2s2.4,1.1,2.4,2.4C324.2,532.2,323.2,533.3,321.9,533.3z"/>
		<path class="st2" d="M323.4,534.5c-0.2,0-0.4,0.2-0.4,0.4s0.2,0.4,0.4,0.4h0.9c0.2,0,0.4-0.2,0.4-0.4s-0.2-0.4-0.4-0.4H323.4z"/>
		<path class="st2" d="M324.7,536c0-0.2-0.2-0.4-0.4-0.4h-0.9c-0.2,0-0.4,0.2-0.4,0.4s0.2,0.4,0.4,0.4h0.9
			C324.5,536.4,324.7,536.2,324.7,536z"/>
		<path class="st2" d="M306.9,527.5h0.7c0.2,0,0.4-0.2,0.4-0.4s-0.2-0.4-0.4-0.4h-0.7c-0.2,0-0.4,0.2-0.4,0.4
			S306.6,527.5,306.9,527.5z"/>
		<path class="st2" d="M306.9,528.7h3.3c0.2,0,0.4-0.2,0.4-0.4s-0.2-0.4-0.4-0.4h-3.3c-0.2,0-0.4,0.2-0.4,0.4
			S306.6,528.7,306.9,528.7z"/>
		<path class="st2" d="M309.5,527.5h0.7c0.2,0,0.4-0.2,0.4-0.4s-0.2-0.4-0.4-0.4h-0.7c-0.2,0-0.4,0.2-0.4,0.4
			S309.2,527.5,309.5,527.5z"/>
		<path class="st2" d="M312.8,526.6h-0.7c-0.2,0-0.4,0.2-0.4,0.4s0.2,0.4,0.4,0.4h0.7c0.2,0,0.4-0.2,0.4-0.4
			C313.2,526.8,313,526.6,312.8,526.6z"/>
		<path class="st2" d="M306.9,529.9h3.3c0.2,0,0.4-0.2,0.4-0.4s-0.2-0.4-0.4-0.4h-3.3c-0.2,0-0.4,0.2-0.4,0.4
			S306.6,529.9,306.9,529.9z"/>
		<path class="st2" d="M306.5,530.7c0,0.2,0.2,0.4,0.4,0.4h5.2c0.2,0,0.4-0.2,0.4-0.4s-0.2-0.4-0.4-0.4h-5.2
			C306.6,530.3,306.5,530.5,306.5,530.7z"/>
		<path class="st2" d="M313.2,532c0-0.2-0.2-0.4-0.4-0.4h-5.9c-0.2,0-0.4,0.2-0.4,0.4s0.2,0.4,0.4,0.4h5.9
			C313,532.4,313.2,532.2,313.2,532z"/>
		<path class="st2" d="M308.5,533.9c0-0.2-0.2-0.4-0.4-0.4h-1.2c-0.2,0-0.4,0.2-0.4,0.4v1.2c0,0.2,0.2,0.4,0.4,0.4h1.2
			c0.2,0,0.4-0.2,0.4-0.4V533.9z M307.6,534.7h-0.3v-0.3h0.3V534.7z"/>
		<path class="st2" d="M311.3,533.9c0-0.2-0.2-0.4-0.4-0.4h-1.2c-0.2,0-0.4,0.2-0.4,0.4v1.2c0,0.2,0.2,0.4,0.4,0.4h1.2
			c0.2,0,0.4-0.2,0.4-0.4V533.9z M310.4,534.7h-0.3v-0.3h0.3V534.7z"/>
		<path class="st2" d="M314.1,533.9c0-0.2-0.2-0.4-0.4-0.4h-1.2c-0.2,0-0.4,0.2-0.4,0.4v1.2c0,0.2,0.2,0.4,0.4,0.4h1.2
			c0.2,0,0.4-0.2,0.4-0.4V533.9z M313.2,534.7h-0.3v-0.3h0.3V534.7z"/>
		<path class="st2" d="M308.1,536.5h-1.2c-0.2,0-0.4,0.2-0.4,0.4v1.2c0,0.2,0.2,0.4,0.4,0.4h1.2c0.2,0,0.4-0.2,0.4-0.4v-1.2
			C308.5,536.7,308.3,536.5,308.1,536.5z M307.6,537.7h-0.3v-0.3h0.3V537.7z"/>
		<path class="st2" d="M310.9,536.5h-1.2c-0.2,0-0.4,0.2-0.4,0.4v1.2c0,0.2,0.2,0.4,0.4,0.4h1.2c0.2,0,0.4-0.2,0.4-0.4v-1.2
			C311.3,536.7,311.1,536.5,310.9,536.5z M310.4,537.7h-0.3v-0.3h0.3V537.7z"/>
		<path class="st2" d="M312.5,538.5h1.2c0.2,0,0.4-0.2,0.4-0.4v-1.2c0-0.2-0.2-0.4-0.4-0.4h-1.2c-0.2,0-0.4,0.2-0.4,0.4v1.2
			C312.1,538.3,312.3,538.5,312.5,538.5z M312.9,537.4h0.3v0.3h-0.3V537.4z"/>
	</g>
</g>
</svg>
