<?xml version="1.0" encoding="utf-8"?>
<!-- Generator: Adobe Illustrator 24.0.3, SVG Export Plug-In . SVG Version: 6.00 Build 0)  -->
<svg version="1.1" id="service.svg" xmlns="http://www.w3.org/2000/svg" xmlns:xlink="http://www.w3.org/1999/xlink" x="0px"
	 y="0px" viewBox="0 0 623.6 623.6" style="enable-background:new 0 0 623.6 623.6;" xml:space="preserve">
<style type="text/css">
	.st0{fill-rule:evenodd;clip-rule:evenodd;fill:#FFFFFF;}
	.st1{enable-background:new    ;}
	.st2{fill:#5E6165;}
</style>
<g>
	<path id="橢圓_4_拷貝_6" class="st0" d="M147.2,419.1c32.2,0,58.2,26.1,58.2,58.2c0,32.2-26.1,58.2-58.2,58.3
		c-32.2,0-58.2-26.1-58.2-58.2l0,0C89,445.2,115.1,419.1,147.2,419.1L147.2,419.1z"/>
	<g class="st1">
		<path class="st2" d="M117.2,489.3v2.5h6.5v7c0,1-0.2,1.6-1,1.9s-1.9,0.3-3.5,0.3c-0.1-0.5-0.4-1.3-0.7-1.9c1.2,0,2.4,0,2.8,0
			c0.3,0,0.4-0.1,0.4-0.4v-5.1h-4.6v9.5h-2v-9.5h-4.3v7.3H109v-9.1h6.2v-2.5h-8.1v-1.9h8.4c-0.3-0.8-0.8-1.7-1.2-2.5l1.9-0.5
			c0.5,0.9,1.3,2.2,1.5,3h7.6v1.9L117.2,489.3L117.2,489.3z"/>
		<path class="st2" d="M133.8,496.7c-2,1-4.2,2.1-5.9,2.9l-0.7-1.9c0.7-0.3,1.7-0.7,2.6-1.1v-6.1h-2.2v-1.7h2.2v-4.1h1.8v4.1h2.1
			v1.8h-2.1v5.3c0.6-0.3,1.2-0.6,1.9-0.9L133.8,496.7z M137.8,494.3c-0.2,0.4-0.5,0.8-0.8,1.2h8.5c0,0,0,0.5,0,0.7
			c-0.3,4.1-0.6,5.7-1.2,6.3c-0.3,0.4-0.7,0.5-1.2,0.6c-0.5,0-1.2,0.1-2,0c0-0.4-0.2-1.1-0.4-1.5c0.7,0.1,1.3,0.1,1.6,0.1
			s0.5,0,0.6-0.2c0.3-0.3,0.6-1.5,0.8-4.4h-1.2c-0.8,2.4-2.4,4.9-4.1,6.2c-0.3-0.3-0.9-0.8-1.4-1.1c1.6-1.1,3-3.1,3.9-5.1h-1.6
			c-1.1,2-3,4.2-4.8,5.3c-0.3-0.4-0.8-0.9-1.3-1.1c1.6-0.9,3.3-2.5,4.4-4.2h-1.7c-0.8,0.9-1.6,1.6-2.5,2.2c-0.3-0.3-0.9-0.9-1.3-1.2
			c1.5-0.9,2.9-2.2,3.9-3.7h-2.6v-1.6H146v1.6L137.8,494.3L137.8,494.3z M144.6,491.8h-9.4v-6.7h9.4V491.8z M142.8,486.4h-5.9v1.3
			h5.9V486.4z M142.8,489h-5.9v1.3h5.9V489z"/>
		<path class="st2" d="M160.8,484.9c1,3.1,3.1,6,5.8,7.4c-0.4,0.4-1.1,1.2-1.4,1.7c-0.7-0.4-1.3-0.9-1.9-1.5c0,0.1,0,0.3,0,0.3
			c-0.3,6.2-0.5,8.5-1.2,9.3c-0.4,0.6-0.9,0.7-1.7,0.8c-0.7,0.1-1.9,0.1-3.2,0c0-0.6-0.3-1.4-0.6-1.9c1.2,0.1,2.4,0.1,2.9,0.1
			c0.4,0,0.6-0.1,0.9-0.3c0.5-0.5,0.7-2.4,0.9-7.1h-4.7c-0.5,3.9-1.9,7.5-7.1,9.4c-0.2-0.5-0.8-1.3-1.2-1.7c4.7-1.6,5.8-4.5,6.2-7.8
			h-3.8v-1.4c-0.5,0.6-1.1,1.1-1.7,1.6c-0.3-0.4-1.1-1.1-1.6-1.4c2.3-1.6,4.2-4.4,5.2-7.4l2,0.5c-0.8,2.4-2,4.6-3.5,6.4h11.7
			c-1.5-1.6-2.7-3.5-3.5-5.4H156v-1.8h4.8V484.9z"/>
		<path class="st2" d="M174.7,496.7c-0.3-0.7-1-1.8-1.6-2.8v9.3h-1.8v-8.8c-0.7,2.1-1.6,4-2.5,5.2c-0.2-0.5-0.7-1.3-1-1.7
			c1.3-1.6,2.6-4.6,3.2-7.3h-2.7v-1.8h2.9v-4.3h1.8v4.3h2.9v1.8H173v0.9c0.7,0.9,2.4,3.1,2.8,3.7L174.7,496.7z M186.6,493.2h-2.8v10
			H182v-10h-3.2c0,3.1-0.4,7.3-2.2,10c-0.3-0.3-1.1-0.8-1.6-1c1.9-2.7,2-6.5,2-9.4v-6.1c2.5-0.5,5.3-1.2,7-2l1.6,1.5
			c-1.9,0.8-4.4,1.4-6.8,1.9v3.3h7.9L186.6,493.2L186.6,493.2z"/>
	</g>
	<g>
		<path class="st2" d="M133.8,471.1c0.2,0,0.4-0.1,0.5-0.2s0.2-0.3,0.2-0.5s-0.1-0.4-0.2-0.5s-0.3-0.2-0.5-0.2s-0.4,0.1-0.5,0.2
			s-0.2,0.3-0.2,0.5s0.1,0.4,0.2,0.5C133.5,471,133.7,471.1,133.8,471.1z"/>
		<path class="st2" d="M156.5,457c-0.2,0-0.4,0.1-0.5,0.2s-0.2,0.3-0.2,0.5s0.1,0.4,0.2,0.5s0.3,0.2,0.5,0.2s0.4-0.1,0.5-0.2
			s0.2-0.3,0.2-0.5s-0.1-0.4-0.2-0.5C156.8,457.1,156.6,457,156.5,457z"/>
		<path class="st2" d="M149.9,445.4c-6.8,0-12.3,5.5-12.3,12.3s5.5,12.3,12.3,12.3s12.3-5.5,12.3-12.3S156.7,445.4,149.9,445.4z
			 M149.9,446.9c3.3,0,6.3,1.5,8.3,3.9l-0.8,0.8c-0.3-0.1-0.6-0.2-0.9-0.2c-1.2,0-2.2,1-2.2,2.2c0,0.3,0.1,0.5,0.2,0.8l-4.2,3.8
			c-0.2-0.1-0.5-0.1-0.7-0.1c-0.5,0-1,0.2-1.4,0.5l-3.4-2.3c0-0.1,0-0.2,0-0.3c0-1.2-1-2.2-2.2-2.2s-2.2,1-2.2,2.2
			c0,0.2,0,0.4,0.1,0.6l-1.4,1C139.2,451.6,144,446.9,149.9,446.9z M157.2,453.5c0,0.4-0.3,0.7-0.7,0.7s-0.7-0.3-0.7-0.7
			c0-0.4,0.3-0.7,0.7-0.7S157.2,453.1,157.2,453.5z M141.9,465c-1.4-1.6-2.4-3.6-2.7-5.8l2.2-1.5c0.2,0.1,0.3,0.2,0.5,0.3V465z
			 M142.6,456.6c-0.4,0-0.7-0.3-0.7-0.7c0-0.4,0.3-0.7,0.7-0.7s0.7,0.3,0.7,0.7C143.3,456.3,143,456.6,142.6,456.6z M148.8,468.5
			c-2.1-0.2-3.9-1-5.5-2.2v-8.4c0.3-0.1,0.6-0.3,0.8-0.5l3.3,2.2c0,0.1,0,0.3,0,0.5c0,0.9,0.6,1.7,1.4,2V468.5L148.8,468.5z
			 M149.5,460.8c-0.4,0-0.7-0.3-0.7-0.7s0.3-0.7,0.7-0.7s0.7,0.3,0.7,0.7S149.9,460.8,149.5,460.8z M160.7,457.7c0,3.2-1.4,6-3.6,8
			v-5c0-0.4-0.3-0.7-0.7-0.7s-0.7,0.3-0.7,0.7v6.1c-1.6,1-3.5,1.6-5.5,1.7v-6.4c0.8-0.3,1.4-1.1,1.4-2c0-0.4-0.1-0.8-0.3-1.1l4-3.6
			c0.3,0.2,0.7,0.3,1.1,0.3c1.2,0,2.2-1,2.2-2.2c0-0.3-0.1-0.7-0.2-0.9l0.6-0.6C160.1,453.6,160.7,455.6,160.7,457.7z"/>
		<path class="st2" d="M165.8,445.2c0.3-0.3,0.3-0.7,0-1s-0.7-0.3-1,0L162,447c-0.2-0.2-0.4-0.5-0.7-0.7c-3-3-7.1-4.7-11.4-4.7
			s-8.4,1.7-11.4,4.7s-4.7,7.1-4.7,11.4c0,1.1,0.1,2.1,0.3,3.2l-4.8,3.3c-0.3,0.2-0.4,0.7-0.2,1c0.1,0.2,0.4,0.3,0.6,0.3
			c0.1,0,0.3,0,0.4-0.1l4.3-3c0.5,1.5,1.1,3,2,4.3l-1.2,1.2c-0.3,0.3-0.3,0.7,0,1c0.1,0.1,0.3,0.2,0.5,0.2s0.4-0.1,0.5-0.2l1.1-1.1
			c0.4,0.4,0.7,0.8,1.1,1.2s0.8,0.8,1.2,1.1l-6.4,6.4c-0.6,0.6-1.7,0.6-2.4,0c-0.7-0.7-0.7-1.7,0-2.4l1.4-1.4c0.3-0.3,0.3-0.7,0-1
			s-0.7-0.3-1,0l-1.4,1.4c-1.2,1.2-1.2,3.2,0,4.4c0.6,0.6,1.4,0.9,2.2,0.9s1.6-0.3,2.2-0.9l6.6-6.6c2.6,1.8,5.7,2.7,9,2.7
			c4.3,0,8.4-1.7,11.4-4.7s4.7-7.1,4.7-11.4c0-3.5-1.1-6.8-3.1-9.6L165.8,445.2z M164.6,457.7c0,8.1-6.6,14.7-14.7,14.7
			s-14.7-6.6-14.7-14.7s6.6-14.7,14.7-14.7S164.6,449.6,164.6,457.7z"/>
	</g>
</g>
</svg>
