<?xml version="1.0" encoding="utf-8"?>
<!-- Generator: Adobe Illustrator 24.0.3, SVG Export Plug-In . SVG Version: 6.00 Build 0)  -->
<svg version="1.1" id="service.svg" xmlns="http://www.w3.org/2000/svg" xmlns:xlink="http://www.w3.org/1999/xlink" x="0px"
	 y="0px" viewBox="0 0 623.6 623.6" style="enable-background:new 0 0 623.6 623.6;" xml:space="preserve">
<style type="text/css">
	.st0{fill:#FFFFFF;}
	.st1{enable-background:new    ;}
	.st2{fill:#5E6165;}
</style>
<g>
	<ellipse id="橢圓_4_拷貝_3" class="st0" cx="546.8" cy="311.9" rx="58.2" ry="58.2"/>
	<g class="st1">
		<path class="st2" d="M514.2,320.9c-0.6,1-1.4,2.1-2.2,3.1v10.7h-1.9v-8.5c-0.7,0.7-1.4,1.3-2,1.8c-0.2-0.4-0.9-1.2-1.3-1.6
			c2.1-1.5,4.3-3.8,5.6-6.1L514.2,320.9z M513.4,316.7c-1.4,1.8-3.5,3.8-5.4,5.2c-0.2-0.4-0.7-1.2-1.1-1.5c1.7-1.1,3.6-2.9,4.6-4.4
			L513.4,316.7z M525.6,324.5h-2.9v7.8c0,1.1-0.2,1.6-1,1.9s-2,0.3-3.9,0.3c-0.1-0.6-0.3-1.3-0.6-1.9c1.3,0,2.7,0,3,0
			c0.4,0,0.5-0.1,0.5-0.4v-7.8h-6.4v-1.7h11.3L525.6,324.5L525.6,324.5z M525.1,318.9h-9.9v-1.8h9.9V318.9z"/>
		<path class="st2" d="M534.9,332.3c-2.5,0.6-5.1,1.2-7.1,1.6l-0.4-1.7c0.9-0.1,2-0.3,3.2-0.6V326h-3v-1.6h3v-1.9h-1.7v-0.7
			c-0.3,0.3-0.5,0.5-0.8,0.8c-0.1-0.4-0.6-1.4-0.9-1.9c1.5-1.2,3-3,3.9-4.9l1.6,0.6c-0.1,0.2-0.2,0.5-0.4,0.7c1.2,1,2.5,2.1,3.2,2.9
			l-1.1,1.4c-0.7-0.8-1.9-1.9-3-2.9c-0.5,0.9-1.1,1.7-1.7,2.4h4.2v1.6h-1.7v1.9h2.4v1.6h-2.4v5.3l2.6-0.4L534.9,332.3z M529.1,327.1
			c0.3,1.2,0.7,2.6,0.8,3.6l-1.4,0.4c-0.1-1-0.5-2.5-0.8-3.7L529.1,327.1z M532.7,330.4c0.3-1,0.7-2.5,0.9-3.6l1.5,0.4
			c-0.4,1.2-0.8,2.6-1.2,3.5L532.7,330.4z M545.3,332.5c0,0.9-0.2,1.5-0.9,1.8c-0.6,0.3-1.7,0.3-3.2,0.3c-0.1-0.5-0.3-1.3-0.5-1.8
			c1,0.1,2.1,0.1,2.4,0s0.4-0.1,0.4-0.4v-3.1c-1.9,0.5-3.8,1-5.4,1.4l-0.5-1.4c-0.1,1.9-0.4,4-1.3,5.5c-0.3-0.3-1.1-0.9-1.5-1.1
			c1-1.8,1.1-4.2,1.1-6.2v-5.9h3.8v-5.7h1.8v5.7h3.8L545.3,332.5L545.3,332.5z M537.2,321.1c-0.3-1-1.1-2.6-1.9-3.8l1.5-0.7
			c0.8,1.1,1.7,2.7,2,3.7L537.2,321.1z M537.6,327.5c0,0.5,0,1,0,1.5c1.5-0.3,3.7-0.8,5.9-1.3v-4.5h-5.9V327.5z M538.6,324.4
			c1.5,0.3,3.4,0.9,4.5,1.5l-0.8,1.3c-1-0.6-2.9-1.3-4.4-1.6L538.6,324.4z M545.9,317.1c-0.7,1.3-1.4,2.8-2.1,3.8l-1.6-0.6
			c0.7-1,1.5-2.7,1.9-3.8L545.9,317.1z"/>
		<path class="st2" d="M558.3,328.2c1.7,1.7,4.8,3.4,8.3,4.1c-0.4,0.4-0.9,1.2-1.2,1.7c-2.9-0.7-5.4-2.2-7.1-3.7v4.4h-2v-4.5
			c-1.9,1.8-4.5,3.2-7.2,3.9c-0.2-0.5-0.8-1.2-1.2-1.6c3.3-0.7,6.6-2.4,8.4-4.5v-1.6h-4.5v3.7h-2v-5.4h6.5v-1.3h-7.9v-1.7h7.9v-1.2
			h1.6c-0.3-0.3-0.9-0.8-1.3-1c1.1-0.9,2-2.3,2.5-3.8l1.7,0.4c-0.1,0.4-0.3,0.7-0.4,1.1h5.8v1.5h-4c0.7,0.5,1.4,1.1,1.8,1.6
			l-1.3,1.1c-0.4-0.6-1.3-1.4-2.1-2l0.9-0.7h-2c-0.4,0.7-0.9,1.3-1.4,1.8h0.1v1.2h7.6v1.6h-7.6v1.3h6.5v3.6c0,0.9-0.2,1.2-0.8,1.5
			c-0.6,0.2-1.5,0.3-2.6,0.3c-0.1-0.5-0.4-1.1-0.7-1.5c0.8,0,1.6,0,1.8,0s0.3-0.1,0.3-0.3v-2h-4.5v2H558.3z M551.3,318.8
			c-0.7,1-1.4,1.9-2.1,2.6c-0.3-0.3-0.9-1-1.3-1.2c1.2-1.1,2.3-2.7,3-4.4l1.7,0.5c-0.1,0.3-0.3,0.7-0.5,1h4.9v1.5h-3.4
			c0.6,0.5,1.3,1.2,1.6,1.6l-1.2,1.1c-0.4-0.6-1.3-1.4-2-2.1l0.8-0.6H551.3z"/>
		<path class="st2" d="M578.6,319.1h1.2v1.2h-1.2v2.1h-3.9v0.8h4.1v1.1h-4.1v0.8h4.9v1.3h-11.4v-1.3h4.7v-0.8h-3.8v-1.1h3.8v-0.8
			h-3.7v-1.1h3.7v-0.9h-4.8v-1.2h4.8v-0.8h-3.6v-1.1h3.6v-1.2h1.7v1.2h3.9L578.6,319.1L578.6,319.1z M568.2,332.6
			c2.8-0.1,7.3-0.3,11.6-0.5l-0.1,1.4c-4.1,0.2-8.5,0.4-11.4,0.5L568.2,332.6z M578.7,327v4.5h-9.2V327H578.7z M571,328.8h2.3V328
			H571V328.8z M571,330.6h2.3v-0.9H571V330.6z M574.8,319.1h2.2v-0.8h-2.2V319.1z M577,320.3h-2.2v0.9h2.2V320.3z M577.1,328h-2.2
			v0.8h2.2V328z M577.1,329.8h-2.2v0.9h2.2V329.8z M582.2,329.6h-1.7v-11.2h1.7V329.6z M586.1,316.3v16c0,1.1-0.2,1.6-0.9,1.9
			c-0.6,0.3-1.7,0.3-3.3,0.3c-0.1-0.5-0.3-1.3-0.6-1.9c1.1,0,2.2,0,2.5,0s0.4-0.1,0.4-0.4v-16h1.9L586.1,316.3L586.1,316.3z"/>
	</g>
	<g>
		<path class="st2" d="M544,308.5c-5.7-1-10.2-5.5-11.2-11.2c-0.1-0.3-0.4-0.6-0.7-0.5s-0.6,0.4-0.5,0.7c1.1,6.2,6,11.2,12.3,12.3
			h0.1c0.3,0,0.6-0.2,0.6-0.5C544.6,308.9,544.3,308.6,544,308.5z"/>
		<path class="st2" d="M560.9,296.8c-0.4-0.1-0.7,0.2-0.7,0.5c-1,5.7-5.5,10.2-11.2,11.2c-0.4,0.1-0.6,0.4-0.5,0.7
			c0.1,0.3,0.3,0.5,0.6,0.5h0.1c6.2-1.1,11.2-6,12.3-12.3C561.5,297.2,561.2,296.9,560.9,296.8z"/>
		<path class="st2" d="M532,292.9L532,292.9c0.4,0,0.7-0.2,0.7-0.5c1-5.7,5.5-10.2,11.2-11.2c0.4-0.1,0.6-0.4,0.5-0.7
			c-0.1-0.4-0.4-0.6-0.7-0.5c-6.2,1.1-11.2,6-12.3,12.3C531.5,292.5,531.7,292.9,532,292.9z"/>
		<path class="st2" d="M566.3,279.4l-2.6-0.9l2-2c0.2-0.2,0.2-0.7,0-0.9c-0.2-0.2-0.7-0.2-0.9,0l-2,2l-0.9-2.6
			c-0.1-0.2-0.2-0.4-0.5-0.4c-0.2,0-0.4,0-0.6,0.2l-3,3c-0.8,0.8-1.2,1.8-1.2,2.9c0,0.9,0.3,1.7,0.8,2.4l-0.7,0.6
			c-2.1-1.9-4.7-3.3-7.6-3.8c-0.3-0.1-0.7,0.2-0.7,0.5c-0.1,0.3,0.2,0.7,0.5,0.7c2.6,0.5,5,1.7,6.9,3.4l-7,7
			c-0.7-0.5-1.5-0.8-2.4-0.8c-2.2,0-4.1,1.8-4.1,4.1s1.8,4.1,4.1,4.1c2.2,0,4.1-1.8,4.1-4.1c0-0.9-0.3-1.7-0.8-2.4l7-7
			c1.7,1.9,2.9,4.3,3.4,6.9c0.1,0.3,0.4,0.6,0.7,0.5s0.6-0.4,0.5-0.7c-0.5-2.9-1.9-5.5-3.8-7.6l0.7-0.7c0.7,0.5,1.5,0.8,2.4,0.8
			c1.1,0,2.1-0.4,2.9-1.2l3-3c0.2-0.2,0.2-0.4,0.2-0.6C566.7,279.7,566.5,279.5,566.3,279.4z M546.5,297.6c-1.5,0-2.8-1.2-2.8-2.8
			c0-1.5,1.2-2.8,2.8-2.8c0.5,0,1,0.1,1.5,0.4l-1.9,1.9c-0.2,0.2-0.2,0.7,0,0.9c0.2,0.2,0.7,0.2,0.9,0l1.9-1.9
			c0.3,0.4,0.4,0.9,0.4,1.5C549.2,296.4,548,297.6,546.5,297.6z M558.7,278.7l2.3-2.3l0.8,2.3l-3.4,3.4
			C557.7,281,557.8,279.6,558.7,278.7z M562.7,282.6c-0.9,0.9-2.4,1.1-3.4,0.4l3.4-3.4l2.3,0.8L562.7,282.6z"/>
		<path class="st2" d="M565.5,294.2h-10.7c-0.1-1.1-0.4-2.1-0.8-3c-0.2-0.3-0.5-0.4-0.9-0.3c-0.3,0.2-0.4,0.5-0.3,0.9
			c0.4,0.8,0.6,1.6,0.7,2.5h-1.7c-0.4,0-0.7,0.3-0.7,0.7s0.3,0.7,0.7,0.7h1.7c-0.3,3.4-3,6.1-6.4,6.4v-1.7c0-0.4-0.3-0.7-0.7-0.7
			s-0.7,0.3-0.7,0.7v1.7c-3.4-0.3-6.1-3-6.4-6.4h1.6c0.4,0,0.7-0.3,0.7-0.7s-0.3-0.7-0.7-0.7h-1.6c0.3-3.4,3-6,6.4-6.3v1.6
			c0,0.4,0.3,0.7,0.7,0.7s0.7-0.3,0.7-0.7V288c0.9,0.1,1.8,0.3,2.6,0.7c0.3,0.2,0.7,0,0.9-0.3s0-0.7-0.3-0.9c-1-0.5-2.1-0.8-3.2-0.9
			v-10.7c0-0.4-0.3-0.7-0.7-0.7s-0.7,0.3-0.7,0.7v10.7c-4.1,0.3-7.3,3.6-7.6,7.6h-3c0.2-3.1,1.6-6,4-8c0.3-0.2,0.3-0.6,0.1-0.9
			s-0.6-0.3-0.9-0.1c-2.7,2.3-4.3,5.5-4.5,9h-6.4c-0.4,0-0.7,0.3-0.7,0.7s0.3,0.7,0.7,0.7h6.4c0.2,3.5,1.8,6.8,4.5,9
			c0.1,0.1,0.3,0.1,0.4,0.1c0.2,0,0.4-0.1,0.5-0.2c0.2-0.3,0.2-0.7-0.1-0.9c-2.4-2-3.9-4.9-4-8h3c0.3,4.1,3.6,7.3,7.6,7.7V314
			c0,0.4,0.3,0.7,0.7,0.7s0.7-0.3,0.7-0.7v-10.7c4.1-0.3,7.4-3.6,7.7-7.7h10.7c0.4,0,0.7-0.3,0.7-0.7S565.8,294.2,565.5,294.2z"/>
	</g>
</g>
</svg>
