<?xml version="1.0" encoding="utf-8"?>
<!-- Generator: Adobe Illustrator 24.0.3, SVG Export Plug-In . SVG Version: 6.00 Build 0)  -->
<svg version="1.1" id="service.svg" xmlns="http://www.w3.org/2000/svg" xmlns:xlink="http://www.w3.org/1999/xlink" x="0px"
	 y="0px" viewBox="0 0 623.6 623.6" style="enable-background:new 0 0 623.6 623.6;" xml:space="preserve">
<style type="text/css">
	.st0{fill:#FFFFFF;}
	.st1{enable-background:new    ;}
	.st2{fill:#5E6165;}
</style>
<g>
	
		<ellipse id="橢圓_4_拷貝_2" transform="matrix(0.7071 -0.7071 0.7071 0.7071 36.6955 381.0163)" class="st0" cx="478.3" cy="146.2" rx="58.2" ry="58.2"/>
	<g class="st1">
		<path class="st2" d="M456.8,166.5v1.5h-14.9v-1.5h6.4v-1.7h-4.5v-1.5h4.5v-1.5h-3.8c-0.6,1-1.3,1.9-2,2.6
			c-0.1-0.3-0.6-1.3-0.9-1.7c-0.2,2.1-0.7,4.4-2.1,6.1c-0.3-0.3-1.1-1-1.4-1.2c1.6-2,1.8-4.7,1.8-6.8v-3.9h2.6
			c-0.3-0.3-0.6-0.6-0.8-0.8c1.5-0.3,3.3-0.7,5-1.1c-1.5-0.4-2.9-0.8-4.3-1.1l1-0.8H440v-1.3h7.3c-0.3-0.5-0.6-0.9-0.9-1.3l1.3-0.6
			c0.5,0.6,1.1,1.3,1.4,2h6.9v1.5h-3l0.9,0.6c-0.8,0.4-1.8,0.8-2.9,1.2c1.4,0.4,2.6,0.8,3.6,1.1l-0.9,0.8h3v1.5h-14.9v2.4
			c0,0.6,0,1.2-0.1,1.9c1.1-1,2-2.5,2.6-4l1.6,0.5c-0.1,0.4-0.3,0.8-0.5,1.1h3V159h1.9v1.5h5.3v1.5h-5.3v1.5h4.7v1.5h-4.7v1.7h6.5
			V166.5z M452.7,157c-1.1-0.4-2.5-0.8-3.9-1.3c-1.7,0.5-3.4,0.9-5,1.3H452.7z M444.2,153.3c1.5,0.3,3.1,0.8,4.6,1.2
			c1.2-0.4,2.3-0.8,3.1-1.2H444.2z"/>
		<path class="st2" d="M459.4,159.8h7.4v8.8h-1.9v-0.9h-3.7v1.1h-1.8V159.8z M461.2,161.6v4.2h3.7v-4.2H461.2z M473.6,157.8h-11.4
			v-6.9h11.4V157.8z M471.7,152.7h-7.6v3.3h7.6V152.7z M476.5,159.8v8.8h-1.9v-1h-4v1.1h-1.8v-8.9L476.5,159.8L476.5,159.8z
			 M474.6,165.8v-4.2h-4v4.2H474.6z"/>
		<path class="st2" d="M489.2,166.3c0.9,0.2,1.9,0.2,2.9,0.2c0.9,0,4.3,0,5.5,0c-0.3,0.4-0.6,1.3-0.7,1.9H492c-4,0-6.9-0.7-8.8-3.9
			c-0.7,1.7-1.6,3.2-2.9,4.3c-0.3-0.3-1.1-1-1.5-1.3c2.2-1.7,3.3-4.5,3.7-8.1l1.9,0.2c-0.1,0.9-0.3,1.8-0.5,2.6
			c0.7,1.9,1.9,3,3.3,3.6v-7.7h-4.7v-1.8H494v1.8h-4.8v2.9h5.8v1.8h-5.8V166.3z M481.6,156.9h-1.9v-4.7h7.7
			c-0.2-0.6-0.5-1.3-0.8-1.9l1.9-0.5c0.4,0.8,0.9,1.7,1.1,2.4h7.1v4.7h-1.9V154h-13.2L481.6,156.9L481.6,156.9z"/>
		<path class="st2" d="M505.8,150.6c-0.5,1.4-1.2,2.8-2,4.2v13.8h-1.9v-10.8c-0.5,0.8-1.1,1.4-1.7,2c-0.2-0.4-0.7-1.5-1.1-1.9
			c1.9-1.9,3.7-4.9,4.8-7.8L505.8,150.6z M517.8,166v1.8h-12.7V166h7.1c0.7-2.7,1.5-6.8,1.8-9.8l2,0.3c-0.6,3.1-1.3,6.9-2.1,9.5
			H517.8z M517,155.4h-11.1v-1.8H517V155.4z M508.5,165.3c-0.2-2.1-0.7-5.7-1.3-8.5l1.7-0.4c0.6,2.7,1.3,6.3,1.5,8.3L508.5,165.3z
			 M510.8,153.5c-0.1-0.9-0.6-2.2-0.9-3.2l1.8-0.4c0.4,1,0.8,2.3,1,3.1L510.8,153.5z"/>
	</g>
	<g>
		<path class="st2" d="M496.1,122h-3.6c-0.7,0-1.3,0.6-1.3,1.3v0.6h-1.9c-0.6,0-1.2-0.2-1.7-0.5l-1.9-1.3c-2.2-1.5-5.2-1.5-7.4,0.1
			c-2-1.4-4.7-1.6-6.8-0.5c-0.3,0.1-0.4,0.5-0.2,0.8c0.1,0.3,0.5,0.4,0.8,0.2c1.7-0.9,3.7-0.8,5.3,0.2l-5,3.7
			c-0.4,0.3-0.6,0.8-0.6,1.2c0,0.5,0.2,1,0.6,1.3c1.2,0.9,2.8,1,4.1,0.4l3.7-1.9c0.2,0.5,0.5,1.2,1.1,1.9c0.4,0.5,0.8,0.9,1.5,1.4
			l5.3,3.6c0.4,0.3,0.5,0.8,0.2,1.2s-0.8,0.5-1.2,0.2l-6.9-4.8c-0.3-0.2-0.6-0.1-0.8,0.1c-0.2,0.3-0.1,0.6,0.1,0.8l6.8,4.7
			c0.4,0.3,0.5,0.8,0.2,1.2s-0.8,0.5-1.2,0.2l-6.8-4.7c-0.3-0.2-0.6-0.1-0.8,0.1c-0.2,0.3-0.1,0.6,0.1,0.8l6.1,4.2
			c0.4,0.3,0.5,0.8,0.2,1.2s-0.8,0.5-1.2,0.2l-6.2-4.2c0-0.6-0.3-1.2-0.9-1.5c-0.7-0.5-1.7-0.4-2.4,0.1c-0.1-0.3-0.4-0.5-0.6-0.7
			c-0.9-0.6-2.2-0.4-2.8,0.5l-0.8,1.2c-0.1,0.2-0.2,0.4-0.3,0.6c-0.7-0.3-1.4-0.5-2.2-0.5h-1.2v-10.5h1.9c0.8,0,1.6-0.2,2.3-0.7
			l0.5-0.4c0.3-0.2,0.3-0.5,0.2-0.8c-0.2-0.3-0.5-0.3-0.8-0.2l-0.5,0.4c-0.5,0.3-1.1,0.5-1.7,0.5h-1.9v-0.6c0-0.7-0.6-1.3-1.3-1.3
			h-3.6c-0.7,0-1.3,0.6-1.3,1.3v7.1c0,0.3,0.2,0.6,0.6,0.6c0.3,0,0.6-0.2,0.6-0.6v-7.1c0-0.1,0.1-0.2,0.2-0.2h3.6
			c0.1,0,0.2,0.1,0.2,0.2v14c0,0.1-0.1,0.2-0.2,0.2h-3.6c-0.1,0-0.2-0.1-0.2-0.2v-4.7c0-0.3-0.3-0.6-0.6-0.6c-0.3,0-0.6,0.2-0.6,0.6
			v4.7c0,0.7,0.6,1.3,1.3,1.3h3.6c0.7,0,1.3-0.6,1.3-1.3v-0.6h1.3c0.7,0,1.5,0.2,2.1,0.6l0.2,0.1c0.1,0.3,0.4,0.6,0.7,0.8
			c0.5,0.3,1,0.4,1.5,0.3c0.1,0.5,0.4,1,0.8,1.3c0.5,0.3,1,0.4,1.5,0.3c0.1,0.5,0.4,1,0.8,1.3c0.5,0.3,1,0.4,1.5,0.3
			c0.1,0.5,0.4,1,0.8,1.3c0.9,0.6,2.1,0.4,2.7-0.5l0.2,0.2c0.9,0.6,2.2,0.4,2.8-0.5c0.2-0.3,0.3-0.6,0.3-0.9
			c0.8,0.2,1.7-0.1,2.2-0.8c0.2-0.3,0.3-0.7,0.3-1c0.8,0.1,1.6-0.2,2-0.8c0.3-0.4,0.4-0.8,0.3-1.3c0.6-0.4,1.4-0.6,2.2-0.6h1.3v0.6
			c0,0.7,0.6,1.3,1.3,1.3h3.6c0.7,0,1.3-0.6,1.3-1.3v-14C497.3,122.5,496.8,122,496.1,122z M471.6,136.9c-0.3,0.4-0.8,0.5-1.2,0.2
			c-0.4-0.3-0.5-0.8-0.2-1.2l0.8-1.2c0.3-0.4,0.8-0.5,1.2-0.2c0.4,0.3,0.5,0.8,0.2,1.2L471.6,136.9z M474,138.5
			c-0.3,0.4-0.8,0.5-1.2,0.2c-0.4-0.3-0.5-0.8-0.2-1.2l1.5-2.2c0.3-0.4,0.8-0.5,1.2-0.2c0.4,0.3,0.5,0.8,0.2,1.2L474,138.5z
			 M476.3,140.1c-0.3,0.4-0.8,0.5-1.2,0.2c-0.4-0.3-0.5-0.8-0.2-1.2l1.1-1.6c0.2-0.4,0.8-0.5,1.1-0.3l0.1,0.1
			c0.3,0.3,0.4,0.8,0.2,1.2L476.3,140.1z M479.8,140.2l-1.1,1.6c-0.3,0.4-0.8,0.5-1.2,0.2c-0.4-0.3-0.5-0.8-0.2-1.2l1.1-1.6
			c0.3-0.4,0.8-0.5,1.2-0.2l0,0C479.9,139.2,480,139.8,479.8,140.2z M481.6,141.4c-0.3,0.4-0.8,0.5-1.2,0.2l-0.2-0.2l0.5-0.7
			c0.2-0.3,0.3-0.5,0.3-0.8l0.4,0.3C481.8,140.5,481.9,141.1,481.6,141.4z M496.2,137.2c0,0.1-0.1,0.2-0.2,0.2h-3.5
			c-0.1,0-0.2-0.1-0.2-0.2v-8c0-0.3-0.2-0.6-0.6-0.6c-0.3,0-0.6,0.2-0.6,0.6v6.2h-1.3c-0.2,0-0.3,0-0.5,0c0.2-0.8-0.2-1.6-0.8-2
			l-2.3-1.6c0.1,0,0.2,0,0.4,0c0.3,0,0.6-0.2,0.6-0.6c0-0.3-0.2-0.6-0.6-0.6c-1.3,0-2.4-0.3-3.3-0.9l0,0l0,0
			c-0.5-0.3-0.9-0.7-1.2-1.1c-0.9-1.1-1.1-2.1-1.1-2.1c0-0.2-0.2-0.3-0.3-0.4c-0.2-0.1-0.3-0.1-0.5,0l-4.3,2.2
			c-0.9,0.5-2,0.4-2.9-0.3c-0.1-0.1-0.2-0.2-0.2-0.4c0-0.1,0.1-0.3,0.2-0.4l5.9-4.4c1.8-1.3,4.3-1.4,6.2-0.1l1.9,1.3
			c0.7,0.5,1.5,0.7,2.3,0.7h1.9v2.1c0,0.3,0.2,0.6,0.6,0.6c0.3,0,0.6-0.2,0.6-0.6V123c0-0.1,0.1-0.2,0.2-0.2h3.6
			c0.1,0,0.2,0.1,0.2,0.2v14.2H496.2z"/>
		<path class="st2" d="M463,135.5v-0.9c0-0.3-0.2-0.6-0.6-0.6c-0.3,0-0.6,0.2-0.6,0.6v0.9c0,0.3,0.2,0.6,0.6,0.6
			C462.7,136.1,463,135.8,463,135.5z"/>
		<path class="st2" d="M494.3,134.1c-0.3,0-0.6,0.2-0.6,0.6v0.9c0,0.3,0.2,0.6,0.6,0.6c0.3,0,0.6-0.2,0.6-0.6v-0.9
			C494.8,134.3,494.6,134.1,494.3,134.1z"/>
	</g>
</g>
</svg>
