<?xml version="1.0" encoding="utf-8"?>
<!-- Generator: Adobe Illustrator 24.0.3, SVG Export Plug-In . SVG Version: 6.00 Build 0)  -->
<svg version="1.1" id="service.svg" xmlns="http://www.w3.org/2000/svg" xmlns:xlink="http://www.w3.org/1999/xlink" x="0px"
	 y="0px" viewBox="0 0 623.6 623.6" style="enable-background:new 0 0 623.6 623.6;" xml:space="preserve">
<style type="text/css">
	.st0{fill:#FFFFFF;}
	.st1{enable-background:new    ;}
	.st2{fill:#5E6165;}
</style>
<g>
	<circle id="橢圓_4_拷貝" class="st0" cx="147.1" cy="146.1" r="58.2"/>
	<g class="st1">
		<path class="st2" d="M112.9,158.2c-0.3,2.9-0.9,5.3-1.7,7.2c1.9,1.8,4.6,2.2,7.8,2.2c1,0,5.2,0,6.4,0c-0.3,0.4-0.6,1.2-0.7,1.7
			h-5.8c-3.6,0-6.5-0.5-8.6-2.4c-0.7,1.1-1.5,2-2.4,2.7c-0.3-0.4-1-1-1.4-1.3c1-0.7,1.9-1.6,2.5-2.9c-0.7-1-1.3-2.3-1.8-3.9l1.4-0.5
			c0.3,1.1,0.7,2,1.2,2.7c0.4-1.2,0.8-2.6,1-4.3h-3.3c0.9-1.5,1.9-3.7,2.8-5.7H107v-1.6h5.9c-0.8,1.8-1.8,3.9-2.7,5.7h1l0.7,0.1
			L112.9,158.2z M117.7,154.3H114v-1.5h3.7v-1.6h1.8v1.6h4.4v2.7h1.3v1.5h-1.3v2.7h-4.4v1.3h4.7v1.4h-4.7v1.4h5.4v1.5h-5.4v1.7h-1.8
			v-1.7h-4.8v-1.5h4.8v-1.4h-4V161h4v-1.3h-3.8v-1.5h3.8V157h-4.9v-1.5h4.9V154.3z M119.4,154.3v1.2h2.7v-1.2H119.4z M122.2,157
			h-2.7v1.2h2.7V157z"/>
		<path class="st2" d="M130.5,153.7c-0.6,0.8-1.4,1.6-2.1,2.2c-0.3-0.3-0.9-1-1.3-1.3c1.2-0.9,2.4-2.3,3-3.7l1.7,0.5
			c-0.1,0.3-0.3,0.5-0.4,0.8h4.8v1.5h-3.5c0.6,0.5,1.2,1.2,1.5,1.6l-1.3,1c-0.3-0.5-1.1-1.4-1.7-2l0.9-0.6
			C132.1,153.7,130.5,153.7,130.5,153.7z M134.4,166c-1.3,1.5-3.5,2.9-5.7,3.5c-0.3-0.5-0.8-1.2-1.3-1.5c2-0.4,4.3-1.4,5.4-2.6
			L134.4,166z M137.4,163.6h8.2v1.5h-8.2v4.7h-1.8v-4.7h-8.1v-1.5h8.1v-1.1c-0.3-0.3-0.7-0.7-1-0.8c1.2-0.4,2-0.9,2.4-1.5
			c-0.7-0.3-1.3-0.6-1.9-0.9l0.7-1.1c0.5,0.2,1.1,0.5,1.8,0.7c0-0.2,0.1-0.4,0.1-0.7v-0.6h-2.2v-1.3h7.4v4.1c0,0.3,0,0.5,0.1,0.6
			s0.2,0.1,0.3,0.1h0.4c0.1,0,0.2,0,0.3-0.1s0.1-0.2,0.2-0.4c0-0.2,0.1-0.8,0.1-1.5c0.3,0.3,0.9,0.5,1.3,0.7c0,0.8-0.1,1.6-0.2,1.9
			s-0.3,0.5-0.6,0.7c-0.2,0.1-0.7,0.2-1,0.2h-1c-0.4,0-0.9-0.1-1.2-0.4c-0.3-0.3-0.4-0.7-0.4-1.8v-2.7h-1.9v0.7c0,0.4,0,0.9-0.2,1.3
			c0.7,0.3,1.3,0.7,1.8,0.9l-0.7,1.3c-0.4-0.3-1-0.6-1.7-0.9c-0.4,0.5-0.9,1-1.7,1.4h0.6L137.4,163.6L137.4,163.6z M127.6,161.1
			c0.8-0.1,1.8-0.2,2.9-0.4v-2.8h-2.7v-1.4h7v1.4h-2.6v2.6c0.8-0.1,1.7-0.2,2.6-0.4l0.1,1.4c-2.5,0.4-5.1,0.8-7.1,1L127.6,161.1z
			 M145.8,152.3v1.5h-4c0.5,0.5,1.1,1.1,1.4,1.5l-1.3,1c-0.3-0.5-1.1-1.3-1.7-1.9l0.8-0.5h-2.1c-0.5,0.8-1.2,1.6-1.9,2.2
			c-0.3-0.3-1-0.9-1.4-1.1c1.2-0.9,2.2-2.3,2.8-3.8l1.7,0.4c-0.1,0.3-0.2,0.6-0.4,0.9h6.1L145.8,152.3L145.8,152.3z M139.9,165.2
			c1.8,0.8,4.1,1.9,5.4,2.8l-1.3,1.3c-1.1-0.9-3.5-2.1-5.3-2.9L139.9,165.2z"/>
		<path class="st2" d="M154.5,166.9c-0.5-0.8-1.5-2.3-2.4-3.4c-0.5,2.2-1.4,4.3-3.2,5.9c-0.3-0.4-0.9-1-1.4-1.3
			c2.3-1.9,3-4.8,3.3-7.4h-3.1V159h3.1c0-0.4,0-0.9,0-1.3V156H148v-1.7h2.8v-3h1.8v3h2.7v1.7h-2.7v1.7c0,0.4,0,0.8,0,1.3h3.1v1.7
			h-3.2c0,0.3,0,0.5-0.1,0.8c0.8,0.8,2.9,3.3,3.4,4L154.5,166.9z M164.3,167.7c0.3,0,0.4-0.2,0.5-1.5c0.3,0.3,1.1,0.6,1.5,0.7
			c-0.2,2-0.7,2.5-1.8,2.5h-1.6c-1.5,0-1.9-0.5-1.9-2.2v-4h-1.1c-0.3,3-1.3,5.2-4.8,6.5c-0.2-0.4-0.7-1.1-1.1-1.4
			c3-1,3.8-2.7,4.1-5.1h-1.8v-11.3h8.8v11.4h-2.3v4c0,0.5,0.1,0.5,0.4,0.5L164.3,167.7L164.3,167.7L164.3,167.7z M158.1,155.2h5.2
			v-1.6h-5.2V155.2z M158.1,158.4h5.2v-1.6h-5.2V158.4z M158.1,161.6h5.2v-1.7h-5.2V161.6z"/>
		<path class="st2" d="M178.4,154.3h1.2v1.2h-1.2v2.1h-3.9v0.8h4.1v1.1h-4.1v0.8h4.9v1.3H168v-1.3h4.7v-0.8h-3.8v-1.1h3.8v-0.8H169
			v-1.1h3.7v-0.9h-4.8v-1.2h4.8v-0.8h-3.6v-1.1h3.6v-1.2h1.7v1.2h3.9v1.8H178.4z M167.9,167.8c2.8-0.1,7.3-0.3,11.6-0.5l-0.1,1.4
			c-4.1,0.2-8.5,0.4-11.4,0.5L167.9,167.8z M178.4,162.2v4.5h-9.2v-4.5H178.4z M170.7,164h2.3v-0.8h-2.3V164z M170.7,165.8h2.3v-0.9
			h-2.3V165.8z M174.5,154.3h2.2v-0.8h-2.2V154.3z M176.7,155.5h-2.2v0.9h2.2V155.5z M176.8,163.2h-2.2v0.8h2.2V163.2z M176.8,164.9
			h-2.2v0.9h2.2V164.9z M181.9,164.8h-1.7v-11.3h1.7V164.8z M185.8,151.5v16c0,1.1-0.2,1.6-0.9,1.9c-0.6,0.3-1.7,0.3-3.3,0.3
			c-0.1-0.5-0.3-1.3-0.6-1.9c1.1,0,2.2,0,2.5,0s0.4-0.1,0.4-0.4v-16L185.8,151.5L185.8,151.5L185.8,151.5z"/>
	</g>
	<g>
		<path class="st2" d="M155.5,120.2c0.2,0,0.4-0.1,0.5-0.2s0.2-0.3,0.2-0.5s-0.1-0.4-0.2-0.5c-0.1-0.1-0.3-0.2-0.5-0.2
			s-0.4,0.1-0.5,0.2s-0.2,0.3-0.2,0.5s0.1,0.4,0.2,0.5C155.2,120.1,155.4,120.2,155.5,120.2z"/>
		<path class="st2" d="M139.8,129.1H134c-0.4,0-0.7,0.3-0.7,0.7v5.8c0,0.4,0.3,0.7,0.7,0.7h5.8c0.4,0,0.7-0.3,0.7-0.7v-5.8
			C140.5,129.4,140.2,129.1,139.8,129.1z M139.1,134.8h-4.3v-4.3h4.3V134.8z"/>
		<path class="st2" d="M165.5,123.8c-0.3-0.1-0.6,0-0.8,0.2l-7.4,7.4l0,0l0,0l-8.6,8.6l0,0l0,0l-4.5,4.5c-0.2,0.2-0.3,0.5-0.2,0.8
			s0.4,0.4,0.7,0.4h20.5c0.4,0,0.7-0.3,0.7-0.7v-20.5C166,124.2,165.8,124,165.5,123.8z M164.5,144.2h-18l2.8-2.8l0.7,0.7
			c0.1,0.1,0.3,0.2,0.5,0.2s0.4-0.1,0.5-0.2c0.3-0.3,0.3-0.7,0-1l-0.7-0.7l1.8-1.8l0.7,0.7c0.1,0.1,0.3,0.2,0.5,0.2s0.4-0.1,0.5-0.2
			c0.3-0.3,0.3-0.7,0-1l-0.7-0.7l1.8-1.8l0.7,0.7c0.1,0.1,0.3,0.2,0.5,0.2s0.4-0.1,0.5-0.2c0.3-0.3,0.3-0.7,0-1l-0.7-0.7l2-1.9
			l0.7,0.7c0.1,0.1,0.3,0.2,0.5,0.2s0.4-0.1,0.5-0.2c0.3-0.3,0.3-0.7,0-1l-0.7-0.7l1.8-1.8l0.7,0.7c0.1,0.1,0.3,0.2,0.5,0.2
			s0.4-0.1,0.5-0.2c0.3-0.3,0.3-0.7,0-1l-0.7-0.7l2.8-2.8L164.5,144.2L164.5,144.2z"/>
		<path class="st2" d="M161.9,132.6c-0.3-0.1-0.6,0-0.8,0.2l-8.1,8.1c-0.2,0.2-0.3,0.5-0.2,0.8s0.4,0.4,0.7,0.4h8.1
			c0.4,0,0.7-0.3,0.7-0.7v-8.1C162.3,132.9,162.2,132.7,161.9,132.6z M160.9,140.6h-5.6l5.6-5.6V140.6z"/>
		<path class="st2" d="M143.4,141.5c0.8,0,1.5-0.3,2.1-0.9l6.1-6.1c0.3-0.3,0.3-0.7,0-1s-0.7-0.3-1,0l-4.6,4.6l-2.1-2.1l13.2-13.2
			l2.1,2.1l-5,5c-0.3,0.3-0.3,0.7,0,1s0.7,0.3,1,0l5.5-5.5c0.1-0.1,0.1-0.2,0.2-0.3l1.8-4.9c0.1-0.3,0-0.6-0.2-0.8s-0.5-0.3-0.8-0.2
			l-4.9,1.8c-0.1,0-0.2,0.1-0.3,0.2l-1.4,1.4l-9.1-9.1c-0.1-0.1-0.3-0.2-0.5-0.2s-0.4,0.1-0.5,0.2l-10.9,10.9h-2.7l14.1-14.1
			l7.7,7.7c0.3,0.3,0.7,0.3,1,0s0.3-0.7,0-1l-8.2-8.2c-0.3-0.3-0.7-0.3-1,0l-15.8,15.8c-0.2,0.2-0.3,0.5-0.2,0.8s0.4,0.4,0.7,0.4
			h0.7v19c0,0.4,0.3,0.7,0.7,0.7h11.5c0.4,0,0.7-0.3,0.7-0.7s-0.3-0.7-0.7-0.7h-10.8V126h2.5c0.2,0,0.4-0.1,0.5-0.2l10.6-10.6
			l8.5,8.5l-10.7,10.7v-6.5h5.1c0.4,0,0.7-0.3,0.7-0.7s-0.3-0.7-0.7-0.7h-5.8c-0.4,0-0.7,0.3-0.7,0.7v8.4c0,0.1,0,0.2,0,0.2
			l-0.6,0.6c-1.1,1.1-1.1,3,0,4.1C141.9,141.2,142.6,141.5,143.4,141.5z M160.7,121.2l-0.9,2.4l-1.5-1.5L160.7,121.2z M142.3,137.5
			l0.5-0.5l2.1,2.1l-0.5,0.5c-0.3,0.3-0.7,0.4-1.1,0.4s-0.8-0.2-1.1-0.4c-0.3-0.3-0.4-0.7-0.4-1.1S142,137.8,142.3,137.5z"/>
		<path class="st2" d="M152.3,131.7c-0.1,0.1-0.2,0.3-0.2,0.5s0.1,0.4,0.2,0.5c0.1,0.1,0.3,0.2,0.5,0.2s0.4-0.1,0.5-0.2
			c0.1-0.1,0.2-0.3,0.2-0.5s-0.1-0.4-0.2-0.5c-0.1-0.1-0.3-0.2-0.5-0.2S152.4,131.6,152.3,131.7z"/>
		<path class="st2" d="M148.2,122.3c0-1.5-1.2-2.7-2.7-2.7s-2.7,1.2-2.7,2.7s1.2,2.7,2.7,2.7S148.2,123.9,148.2,122.3z M144.2,122.3
			c0-0.7,0.6-1.3,1.3-1.3s1.3,0.6,1.3,1.3c0,0.7-0.6,1.3-1.3,1.3S144.2,123.1,144.2,122.3z"/>
	</g>
</g>
</svg>
