<?xml version="1.0" encoding="utf-8"?>
<!-- Generator: Adobe Illustrator 24.0.3, SVG Export Plug-In . SVG Version: 6.00 Build 0)  -->
<svg version="1.1" id="title_bg.svg" xmlns="http://www.w3.org/2000/svg" xmlns:xlink="http://www.w3.org/1999/xlink" x="0px"
	 y="0px" viewBox="0 0 1751.6 282" style="enable-background:new 0 0 1751.6 282;" xml:space="preserve">
<style type="text/css">
	.st0{enable-background:new    ;}
	.st1{fill:none;stroke:#FFFFFF;stroke-width:2;stroke-miterlimit:10;}
</style>
<g class="st0">
	<g>
		<path class="st1" d="M91.3,273H2.9c-0.3,0-0.5-0.2-0.5-0.5v-11.2c0-0.3,0.2-0.5,0.5-0.5c34.3-2.4,36.3-4.5,36.3-37.9V61.7
			c0-33.4-1.5-35.1-33.1-37.5c-0.3,0-0.5-0.2-0.5-0.5V12.5c0-0.3,0.2-0.5,0.5-0.5h102.8c28.4,0,46.9,4.2,60.3,13.7
			c14.2,9.4,22.6,26.6,22.6,46c0,39.4-33.7,54.5-54,60v0.4c47,7.2,70.8,28.8,70.8,64c0,25.7-13.4,46.7-38.7,60.8
			C150.3,267.7,124.5,273,91.3,273z M3.4,272h87.9c33.1,0,58.6-5.2,78.2-15.9c24.9-14,38.1-34.7,38.1-60c0-34.8-23.7-56-70.4-63.1
			c-0.2,0-0.4-0.2-0.4-0.5v-1.2c0-0.2,0.2-0.4,0.4-0.5c20-5.4,53.6-20.2,53.6-59.1c0-19-8.3-35.9-22.2-45.2
			C155.5,17.2,137,13,108.9,13H6.6v10.2c31.4,2.4,33.6,5,33.6,38.5v161.2c0,33.8-2.4,36.4-36.8,38.9C3.4,261.8,3.4,272,3.4,272z
			 M106.5,259.4c-26.1,0-33.7-8.3-33.7-36.9v-81.6c0-0.3,0.2-0.5,0.5-0.5h18.4c51.3,0,77.3,20.1,77.3,59.7
			C169,236.7,145.7,258.9,106.5,259.4z M73.8,141.4v81.1c0,28.2,7,35.9,32.7,35.9c38.5-0.5,61.5-22.3,61.5-58.3
			c0-19.9-6.7-34.9-19.9-44.6c-12.7-9.3-31.6-14.1-56.4-14.1H73.8z M92.1,128.2H73.3c-0.3,0-0.5-0.2-0.5-0.5V49.3
			c0-12.6,1.4-17.7,5.4-20.4c4.1-2.5,13.2-4.1,23.1-4.1c33.6,0,53.7,19.3,53.7,51.7C155,111.8,135,128.2,92.1,128.2z M73.8,127.2
			h18.3c42.2,0,61.9-16.1,61.9-50.7c0-31.7-19.7-50.7-52.7-50.7c-9.7,0-18.6,1.5-22.5,3.9c-3.2,2.1-5,5.9-5,19.6V127.2z"/>
	</g>
	<g>
		<path class="st1" d="M426.5,273H233.7c-0.3,0-0.5-0.2-0.5-0.5v-11.2c0-0.3,0.2-0.5,0.5-0.5c36.2-2.8,39.1-5.6,39.1-37.9V63.7
			c0-35.4-2.9-36.7-33.9-39.5c-0.3,0-0.5-0.2-0.5-0.5V12.5c0-0.3,0.2-0.5,0.5-0.5h178.4c0.3,0,0.5,0.2,0.5,0.5c0,7.1,1,23.2,2,38.8
			c0.4,6.5,0.8,12.9,1.2,18.8c0,0.3-0.2,0.5-0.4,0.5l-11.6,2c-0.3,0-0.5-0.1-0.6-0.4c-3.6-16.6-7.5-25.4-12.7-34.2
			c-5.5-8.3-16.4-11-44.8-11h-30.4c-12.1,0-12.7,0.6-12.7,12.3v90.3h37.1c35.8,0,37.5-2.9,42.7-29.6c0-0.2,0.3-0.4,0.5-0.4h11.6
			c0.3,0,0.5,0.2,0.5,0.5v76.8c0,0.3-0.2,0.5-0.5,0.5h-11.6c-0.2,0-0.4-0.2-0.5-0.4c-5.2-28.8-8-30.8-42.3-30.8h-37.5v75.1
			c0,18.8,2.4,26.9,9.4,32c7.5,4.7,21.9,5.1,41.3,5.1c30,0,41.2-3,50-13.4c7.4-8.8,14.7-22.7,19.5-37.4c0.1-0.2,0.3-0.4,0.5-0.3
			l12,1.6c0.1,0,0.3,0.1,0.3,0.2c0.1,0.1,0.1,0.2,0.1,0.4c-2.4,13.2-10.4,50.8-14,63.2C426.9,272.8,426.7,273,426.5,273z M234.2,272
			h191.9c3.6-12.6,11.3-48.8,13.8-62.3l-11.1-1.5c-4.8,14.7-12.1,28.6-19.6,37.4c-9,10.7-20.4,13.8-50.8,13.8
			c-19.6,0-34.1-0.4-41.9-5.3c-7.4-5.3-9.8-13.6-9.8-32.8v-75.6c0-0.3,0.2-0.5,0.5-0.5h38c34.6,0,38,2.3,43.2,31.2h10.7v-75.8h-10.7
			c-5.2,26.6-7.4,30-43.6,30h-37.6c-0.3,0-0.5-0.2-0.5-0.5V39.3c0-12.3,1-13.3,13.7-13.3h30.4c28.8,0,39.8,2.8,45.6,11.4
			c5.2,8.9,9.2,17.7,12.8,34.1l10.7-1.8c-0.3-5.8-0.7-12.1-1.1-18.4c-1-15.2-2-31-2-38.3H239.4v10.2c31,2.8,34.4,4.5,34.4,40.5
			v159.2c0,32.7-3.3,36-39.6,38.9L234.2,272L234.2,272z"/>
	</g>
	<g>
		<path class="st1" d="M700.9,276.6h-12.4c-0.2,0-0.3-0.1-0.4-0.2L517.9,67h-0.1v99.9c0,29.9,0.8,52,2.4,67.5
			c2,20.6,11.7,24.8,37.9,26.4c0.3,0,0.5,0.2,0.5,0.5v11.2c0,0.3-0.2,0.5-0.5,0.5h-94.8c-0.3,0-0.5-0.2-0.5-0.5v-11.2
			c0-0.3,0.2-0.5,0.5-0.5c24.4-1.3,32.9-7.5,34.7-25.6c1-10.6,2.4-29.3,2.4-68.3v-88c0-29.6-0.9-30.8-7.9-40.1
			c-7.6-9.5-15.9-13-35.2-14.6c-0.3,0-0.5-0.2-0.5-0.5V12.5c0-0.3,0.2-0.5,0.5-0.5h59.2c0.1,0,0.3,0.1,0.4,0.2l166.6,200.6h0.5
			v-97.9c0-35.7-1.5-54.2-2.8-66.3c-1.9-17.3-10.6-22.7-38.7-24.4c-0.3,0-0.5-0.2-0.5-0.5V12.5c0-0.3,0.2-0.5,0.5-0.5h94.4
			c0.3,0,0.5,0.2,0.5,0.5v11.2c0,0.3-0.2,0.5-0.5,0.5c-23.3,1.2-31.6,7.2-33.1,23.5c-1.7,12.8-2.4,32.2-2.4,67.2v161.2
			C701.4,276.4,701.2,276.6,700.9,276.6z M688.7,275.6h11.7V114.9c0-35,0.7-54.5,2.4-67.3c1.7-18.9,13.1-23.3,33.6-24.4V13H643v10.2
			c28.4,1.7,37.2,7.4,39.2,25.2c1.3,12.2,2.8,30.7,2.8,66.5v98.4c0,0.3-0.2,0.5-0.5,0.5h-1.2c-0.1,0-0.3-0.1-0.4-0.2L516.3,13h-58.5
			v10.2c19.4,1.7,27.7,5.2,35.5,14.9c7.4,9.9,8.1,11.6,8.1,40.7v88c0,39.1-1.4,57.8-2.4,68.4c-2.1,20.8-13.5,25.2-35.2,26.4V272
			h93.8v-10.2c-14.7-0.9-22.9-2.8-28.4-6.4c-5.9-3.9-8.9-10.2-10-20.8c-1.6-15.6-2.4-37.8-2.4-67.6V66.5c0-0.3,0.2-0.5,0.5-0.5h0.8
			c0.2,0,0.3,0.1,0.4,0.2L688.7,275.6z"/>
	</g>
	<g>
		<path class="st1" d="M950.9,273H758.1c-0.3,0-0.5-0.2-0.5-0.5v-11.2c0-0.3,0.2-0.5,0.5-0.5c36.2-2.8,39.1-5.6,39.1-37.9V63.7
			c0-35.4-2.9-36.7-33.9-39.5c-0.3,0-0.5-0.2-0.5-0.5V12.5c0-0.3,0.2-0.5,0.5-0.5h178.4c0.3,0,0.5,0.2,0.5,0.5c0,7.1,1,23.2,2,38.8
			c0.4,6.4,0.8,12.9,1.2,18.8c0,0.3-0.2,0.5-0.4,0.5l-11.6,2c-0.3,0-0.5-0.1-0.6-0.4c-3.6-16.6-7.5-25.4-12.7-34.2
			c-5.5-8.3-16.4-11-44.8-11h-30.4c-12.1,0-12.7,0.6-12.7,12.3v90.3h37.1c35.8,0,37.5-2.9,42.7-29.6c0-0.2,0.3-0.4,0.5-0.4h11.6
			c0.3,0,0.5,0.2,0.5,0.5v76.8c0,0.3-0.2,0.5-0.5,0.5h-11.6c-0.2,0-0.4-0.2-0.5-0.4c-5.2-28.8-8-30.8-42.3-30.8h-37.5v75.1
			c0,18.8,2.4,26.9,9.4,32c7.5,4.7,21.9,5.1,41.3,5.1c30,0,41.2-3,50-13.4c7.4-8.8,14.7-22.7,19.5-37.4c0.1-0.2,0.3-0.4,0.5-0.3
			l12,1.6c0.1,0,0.3,0.1,0.3,0.2c0.1,0.1,0.1,0.2,0.1,0.4c-2.4,13.2-10.4,50.8-14,63.2C951.3,272.8,951.1,273,950.9,273z M758.6,272
			h191.9c3.6-12.6,11.3-48.8,13.8-62.3l-11.1-1.5c-4.8,14.7-12.1,28.6-19.6,37.4c-9,10.7-20.4,13.8-50.8,13.8
			c-19.6,0-34.1-0.4-41.9-5.3c-7.4-5.3-9.8-13.6-9.8-32.8v-75.6c0-0.3,0.2-0.5,0.5-0.5h38c34.6,0,38,2.3,43.2,31.2h10.7v-75.8h-10.7
			c-5.2,26.6-7.4,30-43.6,30h-37.6c-0.3,0-0.5-0.2-0.5-0.5V39.3c0-12.3,1-13.3,13.7-13.3h30.4c28.8,0,39.8,2.8,45.6,11.4
			c5.2,8.9,9.2,17.7,12.8,34.1l10.7-1.8c-0.3-5.8-0.7-12-1.1-18.3c-1-15.2-2-31-2-38.4H763.8v10.2c31,2.8,34.4,4.5,34.4,40.5v159.2
			c0,32.7-3.3,36-39.6,38.9L758.6,272L758.6,272z"/>
	</g>
	<g>
		<path class="st1" d="M1098.5,273H989.7c-0.3,0-0.5-0.2-0.5-0.5v-11.2c0-0.3,0.2-0.5,0.5-0.5c17-1.3,24.8-2.6,29.3-7.4
			c4.6-5,5.5-14.1,5.5-31.3V62.9c0-34.9-3.3-36.3-33.5-38.7c-0.3,0-0.5-0.2-0.5-0.5V12.5c0-0.3,0.2-0.5,0.5-0.5h176
			c0.3,0,0.5,0.2,0.5,0.5c0,14.5,2.1,40.6,4,58.7c0,0.3-0.2,0.5-0.4,0.5l-12,1.6c-0.3,0-0.5-0.1-0.6-0.4
			c-3.4-16.8-5.8-23.9-11.1-31.8c-6-10.5-13.7-14.2-45.2-14.2h-30.4c-11.5,0-12.3,0.8-12.3,11.9v94.7h40.7
			c35.7,0,37.4-2.8,42.7-28.8c0-0.2,0.3-0.4,0.5-0.4h11.2c0.3,0,0.5,0.2,0.5,0.5v76.8c0,0.3-0.2,0.5-0.5,0.5h-11.2
			c-0.2,0-0.4-0.2-0.5-0.4c-5.1-26.8-6-31.6-42.7-31.6h-40.7V222c0,33.8,2.6,36.3,39.1,38.7c0.3,0,0.5,0.2,0.5,0.5v11.2
			C1099,272.8,1098.7,273,1098.5,273z M990.2,272H1098v-10.2c-36.6-2.4-39.6-5.5-39.6-39.7v-72.4c0-0.3,0.2-0.5,0.5-0.5h41.2
			c36.3,0,38.4,4.6,43.6,32h10.3v-75.8h-10.3c-5.3,25.9-7.5,29.2-43.6,29.2h-41.2c-0.3,0-0.5-0.2-0.5-0.5V38.9
			c0-11.7,1.2-12.9,13.3-12.9h30.4c29.9,0,39.4,3,46,14.7c5.8,8.8,8.2,16.9,11.2,31.7l11.1-1.5c-1.9-17.9-3.9-43.3-4-57.9h-175v10.2
			c15.8,1.2,23.8,2.4,28.4,7.6c4.7,5.3,5.6,14.5,5.6,32.1v159.2c0,17.4-0.9,26.7-5.7,31.9c-5,5.5-14.5,6.6-29.5,7.7V272z"/>
	</g>
	<g>
		<path class="st1" d="M1306.4,273h-106c-0.3,0-0.5-0.2-0.5-0.5v-11.2c0-0.3,0.2-0.5,0.5-0.5c17.4-1.3,25.4-2.6,30-7.4
			c4.7-5,5.6-13.9,5.6-30.9v-160c0-17-0.8-25.9-5.6-30.9c-4.6-4.8-12.6-6.1-30-7.4c-0.3,0-0.5-0.2-0.5-0.5V12.5
			c0-0.3,0.2-0.5,0.5-0.5h106c0.3,0,0.5,0.2,0.5,0.5v11.2c0,0.3-0.2,0.5-0.5,0.5c-17.4,1.3-25.4,2.6-30,7.4
			c-4.7,5-5.6,13.9-5.6,30.9v160c0,34.5,3.5,36,35.5,38.3c0.3,0,0.5,0.2,0.5,0.5v11.2C1306.9,272.8,1306.7,273,1306.4,273z
			 M1201,272h105v-10.2c-31.9-2.3-36-4.2-36-39.3v-160c0-33.7,2.7-36.8,36-39.3V13h-105v10.2c33.3,2.5,36,5.5,36,39.3v160
			c0,33.7-2.7,36.8-36,39.3V272z"/>
	</g>
	<g>
		<path class="st1" d="M1503.6,273h-114.8c-0.3,0-0.5-0.2-0.5-0.5v-11.2c0-0.3,0.2-0.5,0.5-0.5c35.5-2.3,39.1-5.8,39.1-37.5V27
			h-24.3c-33.2,0-40.9,3.2-46,12.1c-4.8,6.8-8,17.9-12.8,35.5c-0.1,0.2-0.3,0.4-0.5,0.4h-11.6c-0.1,0-0.3-0.1-0.4-0.2
			s-0.1-0.2-0.1-0.4c1.9-23,4-49.5,4.8-72c0-0.3,0.2-0.5,0.5-0.5h8c0.2,0,0.3,0.1,0.4,0.2c5.4,8.9,10.2,9.8,21.6,9.8h158
			c10.8,0,13.9-2.5,20-9.8c0.1-0.1,0.2-0.2,0.4-0.2h8.4c0.3,0,0.5,0.2,0.5,0.5c0,22,2.8,56.8,4,70.8c0,0.3-0.2,0.5-0.4,0.5
			l-11.6,1.2c-0.3,0-0.5-0.1-0.5-0.4c-4.4-19.1-7.9-29.1-12.7-35.4c-7.1-10.6-15.9-12.2-42.8-12.2h-27.9v196.3
			c0,16.1,0.9,24.6,6.2,29.6c5.5,5.2,15.9,6.7,34.5,7.9c0.3,0,0.5,0.2,0.5,0.5v11.2C1504.1,272.8,1503.9,273,1503.6,273z
			 M1389.3,272h113.8v-10.2c-37.3-2.4-41.2-6.1-41.2-38.5V26.5c0-0.3,0.2-0.5,0.5-0.5h28.4c30.3,0,37.2,3,43.6,12.6
			c4.8,6.4,8.4,16.3,12.8,35.3l10.7-1.1c-1.2-14.2-3.9-48-4-69.8h-7.7c-6.2,7.4-9.5,10-20.6,10h-158c-11.4,0-16.7-0.9-22.3-10h-7.2
			c-0.8,22.2-2.9,48.3-4.7,71h10.7c4.8-17.5,8-28.6,12.8-35.4c5.3-9.3,13.1-12.6,46.8-12.6h24.8c0.3,0,0.5,0.2,0.5,0.5v196.8
			c0,32.4-3.7,36.1-39.6,38.5V272H1389.3z"/>
	</g>
	<g>
		<path class="st1" d="M1658.4,279c-15.7,0-28.2-2.9-39.3-6c-8.5-3.1-15.1-5.9-19.7-8.4c-0.1-0.1-0.2-0.1-0.2-0.3
			c-3.1-8.3-8.2-41.3-10.8-62.1c0-0.3,0.1-0.5,0.4-0.5l11.6-2.8c0.3-0.1,0.5,0.1,0.6,0.4c15.3,58.1,50.6,64.4,65.1,64.4
			c29.3,0,47.5-18.2,47.5-47.5s-21.4-43-51.7-59.2l-2.3-1.2c-25.5-13.5-63.9-33.9-63.9-78c0-19.4,7.8-37.3,22-50.4
			c15.2-14,36.2-21.3,60.9-21.3c18.8,0,36.1,4.7,50.5,9.2c0.2,0.1,0.3,0.2,0.3,0.4c1.5,13.3,3.3,27.8,6.1,49.7l0.7,5.5
			c0,0.3-0.1,0.5-0.4,0.6l-11.6,2.4c-0.3,0.1-0.5-0.1-0.6-0.4c-7.2-25.6-17.7-52.8-51.9-52.8c-30.3,0-43.9,21.8-43.9,43.5
			c0,30.2,20.9,43.4,50.5,58.8l1.4,0.7c30.3,15.5,68.1,34.9,68.1,79.3c0,20.8-8.7,40-24.6,53.9C1706.8,271.1,1683.8,279,1658.4,279z
			 M1600,263.7c4.5,2.5,11,5.3,19.4,8.3c11.1,3.1,23.5,6,39,6c25.2,0,47.9-7.8,64-21.9c15.7-13.7,24.3-32.6,24.3-53.2
			c0-43.8-35.9-62.2-67.5-78.4l-1.4-0.7c-28.9-15-51.1-28.9-51.1-59.6c0-22.1,13.9-44.5,44.9-44.5c34.7,0,45.5,27.3,52.8,53.1
			l10.7-2.2l-0.6-5c-2.8-21.7-4.6-36.2-6.1-49.4c-14.4-4.6-31.5-9.2-50-9.2c-24.4,0-45.2,7.3-60.2,21.1
			c-14,12.8-21.7,30.5-21.7,49.6c0,43.5,38.1,63.7,63.4,77.1l2.3,1.2c30.6,16.3,52.3,30.2,52.3,60c0,29.9-18.6,48.5-48.5,48.5
			c-18.3,0-33.9-7.9-46.2-23.4c-11.4-14.3-17.2-31.8-19.7-41.3l-10.7,2.6C1591.9,222.6,1597,255.4,1600,263.7z"/>
	</g>
</g>
</svg>
