<?xml version="1.0" encoding="utf-8"?>
<!-- Generator: Adobe Illustrator 24.0.3, SVG Export Plug-In . SVG Version: 6.00 Build 0)  -->
<svg version="1.1" id="title_bg.svg" xmlns="http://www.w3.org/2000/svg" xmlns:xlink="http://www.w3.org/1999/xlink" x="0px"
	 y="0px" viewBox="0 0 1835.8 282" style="enable-background:new 0 0 1835.8 282;" xml:space="preserve">
<style type="text/css">
	.st0{enable-background:new    ;}
	.st1{fill:none;stroke:#FFFFFF;stroke-miterlimit:10;}
</style>
<g class="st0">
	<g>
		<path class="st1" d="M144.7,278.5c-45.7,0-83.5-14.7-109.3-42.5C13.2,212.1,1,180,1,145.6c0-41,15.1-76.2,43.7-101.7
			C72.5,19.2,111.8,5.5,155.5,5.5c25.1,0,46.6,5.2,60.9,8.6c4,1,7.5,1.8,10,2.2c0.2,0,0.4,0.2,0.4,0.4c0.5,3.9,1.1,7.5,1.6,11.1
			c2.5,17.5,4.4,31.4,6.4,49.3c0,0.3-0.1,0.5-0.4,0.5l-12,2.8c-0.3,0.1-0.5-0.1-0.6-0.4c-10.2-41.5-33.2-59.2-77.1-59.2
			c-31.1,0-57.3,12.3-75.9,35.6c-16.8,21.1-26,49.9-26,81.1c0,35.9,10.5,68.1,29.5,90.7c18.8,22.4,45.4,34.8,74.8,34.8
			c42.4,0,63.4-24.7,81.9-61.7c0.1-0.2,0.4-0.3,0.6-0.2l11.6,4.4c0.2,0.1,0.4,0.4,0.3,0.6c-6.2,20.3-15.9,48.5-22.8,61.3
			c-0.1,0.1-0.2,0.2-0.3,0.2C202.3,271.7,171.2,278.5,144.7,278.5z M155.5,6.5C112.1,6.5,73,20.1,45.4,44.7C17,70,2,104.9,2,145.6
			c0,34.2,12.1,66,34.1,89.7c25.6,27.6,63.2,42.2,108.6,42.2c26.3,0,57.1-6.7,73.3-10.7c7.4-13.6,17.5-44.1,22.5-60.5l-10.7-4.1
			c-11,21.9-21.3,36-33.3,45.8c-13.4,10.8-29.6,16.1-49.3,16.1c-29.7,0-56.6-12.5-75.6-35.1c-19.2-22.8-29.7-55.3-29.7-91.4
			c0-31.4,9.3-60.4,26.3-81.7c18.7-23.5,45.2-36,76.6-36c44.3,0,67.6,17.8,78,59.5l11.1-2.6c-2-17.7-3.9-31.5-6.4-48.9
			c-0.5-3.4-1-7-1.5-10.7c-2.5-0.5-5.9-1.3-9.7-2.2C201.9,11.6,180.4,6.5,155.5,6.5z"/>
	</g>
	<g>
		<path class="st1" d="M400.3,278.5c-35.4,0-68.3-13.5-92.5-37.9c-24.5-24.8-38-58.8-38-95.7c0-36.7,12.7-71,35.8-96.7
			c25-27.8,59.3-42.6,99.1-42.6h0.4c34,0,66,13,90.1,36.5c25.3,24.7,39.2,59.1,39.2,96.8c0,41.4-13.7,76.8-39.5,102.3
			C470.5,265.2,436.9,278.5,400.3,278.5z M404.7,6.5c-39.5,0-73.5,14.6-98.3,42.2c-22.9,25.5-35.6,59.6-35.6,96.1
			c0,36.7,13.4,70.5,37.7,95c24,24.3,56.6,37.6,91.8,37.6c36.4,0,69.8-13.2,93.9-37.1c25.6-25.4,39.2-60.5,39.2-101.6
			c0-37.4-13.8-71.5-38.9-96c-23.9-23.4-55.7-36.3-89.4-36.3h-0.4L404.7,6.5L404.7,6.5z M408.7,264.1c-56.8,0-98.1-54.9-98.1-130.5
			c0-35.1,9-64.4,26.1-85c15.4-18.5,36.6-28.7,59.6-28.7h0.4c26.8,0,51,11.8,68.2,33.1c18.7,23.2,28.7,56.6,28.7,96.6
			c0,35.9-8.9,65.7-25.7,86.1C452.8,254,431.8,264.1,408.7,264.1z M396.3,20.9c-22.8,0-43.7,10.1-58.9,28.4
			c-16.9,20.3-25.8,49.5-25.8,84.3c0,75,40.8,129.5,97.1,129.5c22.8,0,43.6-10,58.5-28c16.6-20.2,25.4-49.8,25.4-85.5
			c0-39.7-9.8-72.9-28.4-95.9c-17-21.1-41-32.8-67.5-32.8C396.7,20.9,396.3,20.9,396.3,20.9z"/>
	</g>
	<g>
		<path class="st1" d="M799.5,276.1h-12.4c-0.2,0-0.3-0.1-0.4-0.2L616.4,66.5h-0.1v99.9c0,29.9,0.8,52,2.4,67.5
			c2,20.6,11.7,24.8,37.9,26.4c0.3,0,0.5,0.2,0.5,0.5V272c0,0.3-0.2,0.5-0.5,0.5h-94.8c-0.3,0-0.5-0.2-0.5-0.5v-11.2
			c0-0.3,0.2-0.5,0.5-0.5c24.4-1.3,32.9-7.5,34.7-25.6c1-10.6,2.4-29.3,2.4-68.3v-88c0-29.6-0.9-30.8-7.9-40.1
			c-7.6-9.5-15.9-13-35.2-14.6c-0.3,0-0.5-0.2-0.5-0.5V12c0-0.3,0.2-0.5,0.5-0.5H615c0.1,0,0.3,0.1,0.4,0.2L782,212.3h0.5v-97.9
			c0-35.7-1.5-54.2-2.8-66.3c-1.9-17.3-10.6-22.7-38.7-24.4c-0.3,0-0.5-0.2-0.5-0.5V12c0-0.3,0.2-0.5,0.5-0.5h94.4
			c0.3,0,0.5,0.2,0.5,0.5v11.2c0,0.3-0.2,0.5-0.5,0.5c-23.3,1.2-31.6,7.2-33.1,23.5c-1.7,12.8-2.4,32.2-2.4,67.2v161.2
			C800,275.9,799.7,276.1,799.5,276.1z M787.3,275.1H799V114.4c0-35,0.7-54.5,2.4-67.3c1.7-18.9,13.1-23.3,33.6-24.4V12.5h-93.4
			v10.2c28.4,1.7,37.2,7.4,39.2,25.2c1.3,12.2,2.8,30.7,2.8,66.5v98.4c0,0.3-0.2,0.5-0.5,0.5h-1.2c-0.1,0-0.3-0.1-0.4-0.2
			L614.8,12.5h-58.5v10.2c19.4,1.7,27.7,5.2,35.5,14.9c7.4,9.9,8.1,11.6,8.1,40.7v88c0,39.1-1.4,57.8-2.4,68.4
			c-2.1,20.8-13.5,25.2-35.2,26.4v10.2h93.8v-10.2c-14.7-0.9-22.9-2.8-28.4-6.4c-5.9-3.9-8.9-10.2-10-20.8
			c-1.6-15.6-2.4-37.8-2.4-67.6V66c0-0.3,0.2-0.5,0.5-0.5h0.8c0.2,0,0.3,0.1,0.4,0.2L787.3,275.1z"/>
	</g>
	<g>
		<path class="st1" d="M1027,272.5H912.2c-0.3,0-0.5-0.2-0.5-0.5v-11.2c0-0.3,0.2-0.5,0.5-0.5c35.5-2.3,39.1-5.8,39.1-37.5V26.5H927
			c-33.2,0-40.9,3.2-46,12.1c-4.8,6.8-8,17.9-12.8,35.5c-0.1,0.2-0.3,0.4-0.5,0.4h-11.6c-0.1,0-0.3-0.1-0.4-0.2
			c-0.1-0.1-0.1-0.2-0.1-0.4c1.9-23,4-49.5,4.8-72c0-0.3,0.2-0.5,0.5-0.5h8c0.2,0,0.3,0.1,0.4,0.2c5.4,8.9,10.2,9.8,21.6,9.8h158
			c10.8,0,13.9-2.5,20-9.8c0.1-0.1,0.2-0.2,0.4-0.2h8.4c0.3,0,0.5,0.2,0.5,0.5c0,22,2.8,56.8,4,70.8c0,0.3-0.2,0.5-0.4,0.5
			l-11.6,1.2c-0.3,0-0.5-0.1-0.5-0.4c-4.4-19.1-7.9-29.1-12.7-35.4c-7.1-10.6-15.9-12.2-42.8-12.2h-27.9v196.3
			c0,16.1,0.9,24.6,6.2,29.6c5.5,5.2,15.9,6.7,34.5,7.9c0.3,0,0.5,0.2,0.5,0.5V272C1027.5,272.3,1027.3,272.5,1027,272.5z
			 M912.8,271.5h113.8v-10.2c-37.3-2.4-41.2-6.1-41.2-38.5V26c0-0.3,0.2-0.5,0.5-0.5h28.4c30.3,0,37.2,3,43.6,12.6
			c4.8,6.4,8.4,16.3,12.8,35.3l10.7-1.1c-1.2-14.2-3.9-48-4-69.8h-7.7c-6.2,7.4-9.5,10-20.6,10h-158c-11.4,0-16.7-0.9-22.3-10h-7.2
			c-0.8,22.2-2.9,48.3-4.7,71h10.7c4.8-17.5,8-28.6,12.8-35.4c5.3-9.3,13.1-12.6,46.8-12.6H952c0.3,0,0.5,0.2,0.5,0.5v196.8
			c0,32.4-3.7,36.1-39.6,38.5v10.2H912.8z"/>
	</g>
	<g>
		<path class="st1" d="M1331.8,272.5h-98c-0.3,0-0.5-0.2-0.5-0.5v-11.2c0-0.3,0.2-0.5,0.4-0.5c13.6-1.7,21.5-3.5,24.1-7.6
			c1.7-2.7,1.4-6.6-0.9-13.7c-3.9-11.6-9.2-26.3-15.4-43.3c-2.1-5.8-4.3-11.8-6.5-18h-84.5l-0.5,1.3c-6.2,17.3-12,33.7-17,49.9
			c-3.8,11-5.6,18.7-2.7,23.3c3.2,5,12,6.7,27.1,8.1c0.3,0,0.5,0.2,0.5,0.5V272c0,0.3-0.2,0.5-0.5,0.5h-86.8c-0.3,0-0.5-0.2-0.5-0.5
			v-11.2c0-0.2,0.2-0.5,0.4-0.5c24.6-3.5,30.3-5.5,44.4-40.9l82.8-210c0.1-0.1,0.2-0.3,0.3-0.3l12.4-3.6c0.3-0.1,0.5,0.1,0.6,0.3
			c8.6,23.8,17.2,47.9,26.3,73.4c16.8,46.9,34.1,95.5,50.9,141c12,32.2,15.9,37.5,43.6,40.1c0.3,0,0.5,0.2,0.5,0.5V272
			C1332.3,272.3,1332.1,272.5,1331.8,272.5z M1234.3,271.5h97v-10.2c-25.3-2.4-31-5.8-44-40.7c-16.7-45.5-34.1-94.1-50.9-141
			c-9.1-25.3-17.6-49.3-26.2-72.9l-11.7,3.4l-82.7,209.8c-14.2,35.7-20,37.9-44.8,41.4v10.3h85.8v-10.2c-15.1-1.4-24-3.2-27.4-8.5
			c-3.2-4.9-1.4-12.6,2.6-24.1c5-16.3,10.9-32.6,17-50l0.6-1.6c0.1-0.2,0.3-0.3,0.5-0.3h85.2c0.2,0,0.4,0.1,0.5,0.3
			c2.3,6.3,4.5,12.4,6.6,18.3c6.2,17,11.5,31.7,15.4,43.3c2.1,6.2,3,11.1,0.8,14.5c-2.8,4.5-10.8,6.3-24.4,8.1L1234.3,271.5
			L1234.3,271.5z M1229.8,160.5h-73.6c-0.2,0-0.3-0.1-0.4-0.2c-0.1-0.1-0.1-0.3-0.1-0.5c14-38.2,26.3-71.6,37.6-102
			c0.1-0.2,0.3-0.3,0.5-0.3h0.8c0.2,0,0.4,0.1,0.5,0.3l35.2,102c0.1,0.2,0,0.3-0.1,0.5S1230,160.5,1229.8,160.5z M1157,159.5h72.2
			l-34.9-101h-0.1C1183,88.6,1170.8,121.7,1157,159.5z"/>
	</g>
	<g>
		<path class="st1" d="M1488.6,278.5c-45.7,0-83.5-14.7-109.3-42.5c-22.2-23.9-34.4-56-34.4-90.4c0-41,15.1-76.2,43.7-101.7
			c27.8-24.8,67.1-38.4,110.8-38.4c25.1,0,46.6,5.2,60.9,8.6c4,1,7.5,1.8,10,2.2c0.2,0,0.4,0.2,0.4,0.4c0.5,3.9,1.1,7.5,1.6,11.1
			c2.5,17.5,4.4,31.4,6.4,49.3c0,0.3-0.1,0.5-0.4,0.5l-12,2.8c-0.3,0.1-0.5-0.1-0.6-0.4c-10.2-41.5-33.2-59.2-77.1-59.2
			c-31.1,0-57.3,12.3-75.9,35.6c-16.8,21.1-26,49.9-26,81.1c0,35.9,10.5,68.1,29.5,90.7c18.8,22.4,45.4,34.8,74.8,34.8
			c42.4,0,63.4-24.7,81.9-61.7c0.1-0.2,0.4-0.3,0.6-0.2l11.6,4.4c0.2,0.1,0.4,0.4,0.3,0.6c-6.2,20.3-15.9,48.5-22.8,61.3
			c-0.1,0.1-0.2,0.2-0.3,0.2C1546.2,271.7,1515.1,278.5,1488.6,278.5z M1499.4,6.5c-43.4,0-82.5,13.6-110.1,38.2
			c-28.4,25.3-43.4,60.2-43.4,100.9c0,34.2,12.1,66,34.1,89.7c25.6,27.6,63.2,42.2,108.6,42.2c26.3,0,57.1-6.7,73.3-10.7
			c7.4-13.6,17.5-44.1,22.5-60.5l-10.7-4.1c-11,21.9-21.3,36-33.3,45.8c-13.4,10.8-29.6,16.1-49.3,16.1c-29.7,0-56.6-12.5-75.6-35.1
			c-19.2-22.8-29.7-55.3-29.7-91.4c0-31.4,9.3-60.4,26.3-81.7c18.7-23.5,45.2-36,76.6-36c44.3,0,67.6,17.8,78,59.5l11.1-2.6
			c-2-17.7-3.9-31.5-6.4-48.9c-0.5-3.4-1-7-1.5-10.7c-2.5-0.5-5.9-1.3-9.7-2.2C1545.8,11.6,1524.4,6.5,1499.4,6.5z"/>
	</g>
	<g>
		<path class="st1" d="M1775.8,272.5H1661c-0.3,0-0.5-0.2-0.5-0.5v-11.2c0-0.3,0.2-0.5,0.5-0.5c35.5-2.3,39.1-5.8,39.1-37.5V26.5
			h-24.3c-33.2,0-40.9,3.2-46,12.1c-4.8,6.8-8,17.9-12.8,35.5c-0.1,0.2-0.3,0.4-0.5,0.4H1605c-0.1,0-0.3-0.1-0.4-0.2
			s-0.1-0.2-0.1-0.4c1.9-23,4-49.5,4.8-72c0-0.3,0.2-0.5,0.5-0.5h8c0.2,0,0.3,0.1,0.4,0.2c5.4,8.9,10.2,9.8,21.6,9.8h158
			c10.8,0,13.9-2.5,20-9.8c0.1-0.1,0.2-0.2,0.4-0.2h8.4c0.3,0,0.5,0.2,0.5,0.5c0,22,2.8,56.8,4,70.8c0,0.3-0.2,0.5-0.4,0.5
			l-11.6,1.2c-0.3,0-0.5-0.1-0.5-0.4c-4.4-19.1-7.9-29.1-12.7-35.4c-7.1-10.6-15.9-12.2-42.8-12.2h-27.9v196.3
			c0,16.1,0.9,24.6,6.2,29.6c5.5,5.2,15.9,6.7,34.5,7.9c0.3,0,0.5,0.2,0.5,0.5V272C1776.3,272.3,1776.1,272.5,1775.8,272.5z
			 M1661.5,271.5h113.8v-10.2c-37.3-2.4-41.2-6.1-41.2-38.5V26c0-0.3,0.2-0.5,0.5-0.5h28.4c30.3,0,37.2,3,43.6,12.6
			c4.8,6.4,8.4,16.3,12.8,35.3l10.7-1.1c-1.2-14.2-3.9-48-4-69.8h-7.7c-6.2,7.4-9.5,10-20.6,10h-158c-11.4,0-16.7-0.9-22.3-10h-7.2
			c-0.8,22.2-2.9,48.3-4.7,71h10.7c4.8-17.5,8-28.6,12.8-35.4c5.3-9.3,13.1-12.6,46.8-12.6h24.8c0.3,0,0.5,0.2,0.5,0.5v196.8
			c0,32.4-3.7,36.1-39.6,38.5v10.2H1661.5z"/>
	</g>
</g>
</svg>
