<?xml version="1.0" encoding="utf-8"?>
<!-- Generator: Adobe Illustrator 24.0.3, SVG Export Plug-In . SVG Version: 6.00 Build 0)  -->
<svg version="1.1" id="title_bg.svg" xmlns="http://www.w3.org/2000/svg" xmlns:xlink="http://www.w3.org/1999/xlink" x="0px"
	 y="0px" viewBox="0 0 1082 279" style="enable-background:new 0 0 1082 279;" xml:space="preserve">
<style type="text/css">
	.st0{enable-background:new    ;}
	.st1{fill:#FFFFFF;}
</style>
<g class="st0">
	<g>
		<path class="st1" d="M252.6,272.6h-12.4c-0.2,0-0.3-0.1-0.4-0.2L69.6,63h-0.1v99.9c0,29.9,0.8,52,2.4,67.5
			c2,20.6,11.7,24.8,37.9,26.4c0.3,0,0.5,0.2,0.5,0.5v11.2c0,0.3-0.2,0.5-0.5,0.5H15c-0.3,0-0.5-0.2-0.5-0.5v-11.2
			c0-0.3,0.2-0.5,0.5-0.5c24.4-1.3,32.9-7.5,34.7-25.6c1-10.6,2.4-29.3,2.4-68.3v-88c0-29.6-0.9-30.8-7.9-40.1
			c-7.6-9.5-15.9-13-35.2-14.6c-0.3,0-0.5-0.2-0.5-0.5V8.5C8.5,8.2,8.7,8,9,8h59.2c0.1,0,0.3,0.1,0.4,0.2l166.6,200.6h0.5v-97.9
			c0-35.7-1.5-54.2-2.8-66.3c-1.9-17.3-10.6-22.7-38.7-24.4c-0.3,0-0.5-0.2-0.5-0.5V8.5c0-0.3,0.2-0.5,0.5-0.5h94.4
			c0.3,0,0.5,0.2,0.5,0.5v11.2c0,0.3-0.2,0.5-0.5,0.5c-23.3,1.2-31.6,7.2-33.1,23.5c-1.7,12.8-2.4,32.2-2.4,67.2v161.2
			C253.1,272.4,252.9,272.6,252.6,272.6z M240.4,271.6h11.7V110.9c0-35,0.7-54.5,2.4-67.3c1.7-18.9,13.1-23.3,33.6-24.4V9h-93.4
			v10.2c28.4,1.7,37.2,7.4,39.2,25.2c1.3,12.2,2.8,30.7,2.8,66.5v98.4c0,0.3-0.2,0.5-0.5,0.5H235c-0.1,0-0.3-0.1-0.4-0.2L68,9H9.5
			v10.2c19.4,1.7,27.7,5.2,35.5,14.9c7.4,9.9,8.1,11.6,8.1,40.7v88c0,39.1-1.4,57.8-2.4,68.4c-2.1,20.8-13.5,25.2-35.2,26.4V268
			h93.8v-10.2c-14.7-0.9-22.9-2.8-28.4-6.4c-5.9-3.9-8.9-10.2-10-20.8c-1.6-15.6-2.4-37.8-2.4-67.6V62.5c0-0.3,0.2-0.5,0.5-0.5h0.8
			c0.2,0,0.3,0.1,0.4,0.2L240.4,271.6z"/>
	</g>
	<g>
		<path class="st1" d="M502.6,269H309.8c-0.3,0-0.5-0.2-0.5-0.5v-11.2c0-0.3,0.2-0.5,0.5-0.5c36.2-2.8,39.1-5.6,39.1-37.9V59.7
			c0-35.4-2.9-36.7-33.9-39.5c-0.3,0-0.5-0.2-0.5-0.5V8.5c0-0.3,0.2-0.5,0.5-0.5h178.4c0.3,0,0.5,0.2,0.5,0.5c0,7.1,1,23.2,2,38.8
			c0.4,6.5,0.8,12.9,1.2,18.8c0,0.3-0.2,0.5-0.4,0.5l-11.6,2c-0.3,0-0.5-0.1-0.6-0.4c-3.6-16.6-7.5-25.4-12.7-34.2
			c-5.5-8.3-16.4-11-44.8-11h-30.4c-12.1,0-12.7,0.6-12.7,12.3v90.3H421c35.8,0,37.5-2.9,42.7-29.6c0-0.2,0.3-0.4,0.5-0.4h11.6
			c0.3,0,0.5,0.2,0.5,0.5v76.8c0,0.3-0.2,0.5-0.5,0.5h-11.6c-0.2,0-0.4-0.2-0.5-0.4c-5.2-28.8-8-30.8-42.3-30.8h-37.5v75.1
			c0,18.8,2.4,26.9,9.4,32c7.5,4.7,21.9,5.1,41.3,5.1c30,0,41.2-3,50-13.4c7.4-8.8,14.7-22.7,19.5-37.4c0.1-0.2,0.3-0.4,0.5-0.3
			l12,1.6c0.1,0,0.3,0.1,0.3,0.2c0.1,0.1,0.1,0.2,0.1,0.4c-2.4,13.2-10.4,50.8-14,63.2C503,268.8,502.8,269,502.6,269z M310.3,268
			h191.9c3.6-12.6,11.3-48.8,13.8-62.3l-11.1-1.5c-4.8,14.7-12.1,28.6-19.6,37.4c-9,10.7-20.4,13.8-50.8,13.8
			c-19.6,0-34.1-0.4-41.9-5.3c-7.4-5.3-9.8-13.6-9.8-32.8v-75.6c0-0.3,0.2-0.5,0.5-0.5h38c34.6,0,38,2.3,43.2,31.2h10.7V96.6h-10.7
			c-5.2,26.6-7.4,30-43.6,30h-37.6c-0.3,0-0.5-0.2-0.5-0.5V35.3c0-12.3,1-13.3,13.7-13.3H427c28.8,0,39.8,2.8,45.6,11.4
			c5.2,8.9,9.2,17.7,12.8,34.1l10.7-1.8c-0.3-5.8-0.7-12.1-1.1-18.4c-1-15.2-2-31-2-38.3H315.5v10.2c31,2.8,34.4,4.5,34.4,40.5
			v159.2c0,32.7-3.3,36-39.6,38.9V268z"/>
	</g>
	<g>
		<path class="st1" d="M793.8,273.4h-12.4c-0.2,0-0.4-0.1-0.5-0.3c-15.9-46.6-34.9-100.4-51.7-147.8c-6.4-18.2-12.6-35.5-18.2-51.5
			h-0.1c-10.8,33.9-21.6,66.5-32.1,98.1c-11.5,34.8-22.4,67.6-33,101.1c-0.1,0.2-0.3,0.3-0.5,0.3H633c-0.2,0-0.4-0.1-0.5-0.4
			c-15.6-53.4-32.2-106.5-48.2-158c-5.8-18.7-11.6-37.3-17.4-56c-9.8-32.2-15.5-35.6-40-38.8c-0.2,0-0.4-0.2-0.4-0.5V8.5
			c0-0.3,0.2-0.5,0.5-0.5h97.2c0.3,0,0.5,0.2,0.5,0.5v11.2c0,0.3-0.2,0.5-0.4,0.5c-14.6,1.8-22.5,3.5-25.3,7.7
			c-2.5,3.8-0.9,9.9,1.7,18.9l0,0.1c15.3,52.9,31.1,107.7,48.6,164.3h0.1c10.8-34.7,22.3-69.3,33.4-102.8
			c10.5-31.6,21.3-64.3,31.3-96.1c0.1-0.2,0.3-0.4,0.5-0.4h11.6c0.2,0,0.4,0.1,0.5,0.3c16.8,49.3,33.9,97.6,52,148.8
			c5.9,16.6,11.8,33.4,17.8,50.5h0.1c16.2-51.9,38.5-131,45.1-160c2.8-12,3.6-18.5,0.6-22.8c-3.5-5-12.8-6.9-27.8-8.6
			c-0.3,0-0.4-0.2-0.4-0.5V8.5c0-0.3,0.2-0.5,0.5-0.5H903c0.3,0,0.5,0.2,0.5,0.5v11.2c0,0.3-0.2,0.5-0.4,0.5
			c-27.3,3.6-30.9,6.9-42.8,39.7c-9.6,26.7-33.7,102.9-66,213.2C794.2,273.2,794,273.4,793.8,273.4z M781.7,272.4h11.7
			c32.2-110.1,56.3-186.2,65.9-212.9c12-33.1,15.7-36.6,43.2-40.3V9h-87.4v10.3c15.3,1.8,24.3,3.7,28,9c3.2,4.6,2.4,11.3-0.4,23.6
			c-6.6,29.1-28.9,108.5-45.2,160.4c-0.1,0.2-0.3,0.4-0.5,0.4h-0.8c-0.2,0-0.4-0.1-0.5-0.3c-6.1-17.2-12-34.1-18-50.8
			c-18.1-51-35.1-99.3-51.9-148.5h-10.9c-9.9,31.7-20.7,64.2-31.2,95.7c-11.1,33.6-22.7,68.3-33.5,103.1c-0.1,0.2-0.3,0.4-0.5,0.4
			H649c-0.2,0-0.4-0.1-0.5-0.4c-17.6-56.8-33.4-111.6-48.8-164.7l0-0.1c-2.7-9.2-4.3-15.6-1.6-19.7c3-4.5,10.9-6.3,25.6-8.1V9h-96.2
			v10.3c12.7,1.7,19.8,3.4,25.4,8.6c5.6,5.1,9.6,13.5,14.9,30.9c5.8,18.7,11.6,37.4,17.4,56c16,51.3,32.5,104.4,48.1,157.6H645
			c10.5-33.4,21.4-66.1,32.9-100.8c10.5-31.7,21.4-64.5,32.2-98.5c0.1-0.2,0.3-0.3,0.5-0.3h0.8c0.2,0,0.4,0.1,0.5,0.3
			c5.6,16,11.8,33.5,18.3,51.8C746.9,172.2,765.8,225.9,781.7,272.4z"/>
	</g>
	<g>
		<path class="st1" d="M982.1,275c-15.7,0-28.2-2.9-39.3-6c-8.5-3.1-15.1-5.9-19.7-8.4c-0.1-0.1-0.2-0.1-0.2-0.3
			c-3.1-8.3-8.2-41.3-10.8-62.1c0-0.3,0.1-0.5,0.4-0.5l11.6-2.8c0.3-0.1,0.5,0.1,0.6,0.4c15.3,58.1,50.6,64.4,65.1,64.4
			c29.3,0,47.5-18.2,47.5-47.5c0-29.3-21.4-43-51.7-59.2l-2.3-1.2c-25.5-13.5-63.9-33.9-63.9-78c0-19.4,7.8-37.3,22-50.4
			C956.5,9.4,977.5,2,1002.1,2c18.8,0,36.1,4.7,50.5,9.2c0.2,0.1,0.3,0.2,0.3,0.4c1.5,13.3,3.3,27.8,6.1,49.7l0.7,5.5
			c0,0.3-0.1,0.5-0.4,0.6l-11.6,2.4c-0.3,0.1-0.5-0.1-0.6-0.4c-7.2-25.6-17.7-52.8-51.9-52.8c-30.3,0-43.9,21.8-43.9,43.5
			c0,30.2,20.9,43.4,50.5,58.8l1.4,0.7c30.3,15.5,68.1,34.9,68.1,79.3c0,20.8-8.7,40-24.6,53.9C1030.5,267.1,1007.6,275,982.1,275z
			 M923.8,259.7c4.5,2.5,11,5.3,19.4,8.3c11.1,3.1,23.5,6,39,6c25.2,0,47.9-7.8,64-21.9c15.7-13.7,24.3-32.6,24.3-53.2
			c0-43.8-35.9-62.2-67.5-78.4l-1.4-0.7c-28.9-15-51.1-28.9-51.1-59.6c0-22.1,13.9-44.5,44.9-44.5c34.7,0,45.5,27.3,52.8,53.1
			l10.7-2.2l-0.6-5.1c-2.8-21.7-4.6-36.1-6.1-49.4c-14.3-4.5-31.4-9.1-49.9-9.1c-24.4,0-45.2,7.3-60.2,21.1
			c-14,12.8-21.7,30.5-21.7,49.6c0,43.5,38.1,63.7,63.4,77.1l2.3,1.2c30.6,16.3,52.3,30.2,52.3,60c0,29.9-18.6,48.5-48.5,48.5
			c-18.3,0-33.9-7.9-46.2-23.4c-11.4-14.3-17.2-31.8-19.7-41.3l-10.7,2.6C915.6,218.6,920.7,251.4,923.8,259.7z"/>
	</g>
</g>
</svg>
