<?xml version="1.0" encoding="utf-8"?>
<!-- Generator: Adobe Illustrator 24.0.3, SVG Export Plug-In . SVG Version: 6.00 Build 0)  -->
<svg version="1.1" id="logoicon.svg" xmlns="http://www.w3.org/2000/svg" xmlns:xlink="http://www.w3.org/1999/xlink" x="0px"
	 y="0px" viewBox="0 0 203 204" style="enable-background:new 0 0 203 204;" xml:space="preserve">
<style type="text/css">
	.st0{fill:none;stroke:#7DB9DE;stroke-width:0.25;}
</style>
<g>
	<path class="st0" d="M84.1,22.5c0,0,15.2,37,31.9,83.4c16.7,46.4,28.4,84.2,28.4,84.2s-15.1-36.6-31.8-83
		C96,60.7,84.1,22.5,84.1,22.5z"/>
	<path class="st0" d="M105.8,19.5c14-6.5,29.4-4.2,43.3,6.9c13.8,11.1,24.5,29.5,30.2,51.8c5.7,22.3,5.5,45.8-0.4,66.1
		c-5.9,20.4-17,34.9-30.9,41.4l0,0c12.6-5.9,22.5-23.8,27.8-42.1c5.3-18.3,4.8-43.5-0.3-63.6C165,38.6,131.8,7.4,105.8,19.5
		L105.8,19.5z"/>
	<path class="st0" d="M42.2,56.1"/>
	<path class="st0" d="M72.8,27.1c-8.9,1.5-21.6,17.5-25.1,36.2c-3.6,18.6-1.4,40.8,6.2,62.3c7.5,21.6,19.5,40,33.6,52
		c14.2,11.9,28.8,15.5,41.3,10.8l0,0c-11.3,4.3-26.9-2.9-39.7-13.6c-12.7-10.7-25.1-30.9-31.9-50.4C43.3,84.2,49.5,36,72.8,27.1
		L72.8,27.1z"/>
	<path class="st0" d="M139.3,186.9c-49,15-100.5-11.4-115-59.1C9.9,80.1,37.9,29.2,86.9,14.1c17-5.2,30-4.6,41.7-1.8
		c15.8,5.6,23.3,18.2,17.5,33.9c-8.4,22.6-41.2,42.9-73.4,45.2c-20,1.5-34.8-5.5-41.3-15.6C37.6,88.4,54.5,97,77.9,95.3
		c35.2-2.6,71.2-25,80.5-50c7-18.8-3.2-33.8-23.6-38.9c-16-5.6-38-5.3-60.7,1.7C20.3,24.6-10.2,80.8,5.8,133.5
		c16,52.8,72.4,82.2,126.1,65.7c35.6-10.9,61-39.4,69.4-72.7C192.2,154.3,169.8,177.6,139.3,186.9z"/>
	<path class="st0" d="M139.9,186.9C90.6,202.2,39,175.4,24.5,127.2C9.9,79,38.1,27.5,87.3,12.2c17.1-5.3,30.2-4.7,41.9-1.8
		c15.8,5.6,23.3,18.4,17.5,34.2c-8.4,22.9-41.4,43.3-73.7,45.7C53,91.9,37.9,86,31.5,75.9C37.6,88.5,54.8,96,78.2,94.3
		c35.3-2.6,71.5-25.3,80.8-50.5c7-19-3.3-34.1-23.8-39.3c-16-5.7-38.2-5.3-61,1.7C20.4,22.8-10.3,79.6,5.8,133
		c16.1,53.3,72.7,83.1,126.6,66.4c35.8-11.1,60.4-39.2,68.9-72.8C192.1,154.6,170.5,177.5,139.9,186.9z"/>
	<path class="st0" d="M185,47.7c-1.9,14-10,29.4-23.1,43.2c-17,21.3-51.2,38.8-84.5,41.6c-25.2,2.2-43.9-4.4-51.8-16.3
		c7.5,14.8,28.7,23.3,58.1,20.7c44.2-3.8,89.8-31.3,102-61.3C189.9,65,189.4,55.4,185,47.7z"/>
	<path class="st0" d="M194.7,79.2c-1.8,14.4-9.8,30.1-22.5,44.3c-16.7,21.8-50,39.7-82.5,42.6c-24.5,2.3-42.8-4.5-50.5-16.6
		c7.3,15.1,28.1,23.8,56.7,21.2c43.1-3.9,87.6-32.1,99.4-62.8C199.6,96.9,199,87.1,194.7,79.2z"/>
</g>
</svg>
