<?xml version="1.0" encoding="utf-8"?>
<!-- Generator: Adobe Illustrator 24.0.3, SVG Export Plug-In . SVG Version: 6.00 Build 0)  -->
<svg version="1.1" id="ourteam_bg.svg" xmlns="http://www.w3.org/2000/svg" xmlns:xlink="http://www.w3.org/1999/xlink" x="0px"
	 y="0px" viewBox="0 0 2005.5 282" style="enable-background:new 0 0 2005.5 282;" xml:space="preserve">
<style type="text/css">
	.st0{opacity:0.4;enable-background:new    ;}
	.st1{fill:none;stroke:#7DB9DE;stroke-linejoin:round;stroke-miterlimit:19.008;}
</style>
<g class="st0">
	<path class="st1" d="M134.8,6.4c67.6,0,128.8,52.8,128.8,132.8c0,86.4-60.4,139.2-133.6,139.2C57.6,278.4,0,222,0,145.2
		C0,73.2,50.4,6.4,134.4,6.4H134.8z M126,20.8c-44.4,0-85.2,38.4-85.2,113.2c0,75.2,41.2,130,97.6,130c44.4,0,84.4-37.2,84.4-114
		c0-84.4-44-129.2-96.4-129.2H126z"/>
	<path class="st1" d="M563.6,23.6c-24,1.6-33.2,7.2-35.2,23.6c-1.2,10.8-2,28-2,64.8v32.8c0,47.2-7.2,81.2-30.4,105.6
		c-18.4,19.2-45.2,27.6-71.6,27.6c-23.2,0-46.4-5.6-64-19.2c-24-18.4-35.2-48.4-35.2-95.2V64c0-36-3.2-37.6-34.8-40.4V12.4H394v11.2
		c-31.6,2-34.8,4.4-34.8,40.4v90.8c0,64.4,25.6,101.2,75.2,101.2c57.6,0,75.6-48,75.6-114v-30c0-36.8-1.2-53.6-2.8-66
		c-2.4-15.6-10.8-20.4-38.8-22.4V12.4h95.2V23.6z"/>
	<path class="st1" d="M822.4,275.6c-4.8,0-9.2,0-14-0.4c-30-1.6-46.8-10.4-64.8-36.4c-14-19.6-28.4-44.4-40.4-64
		c-6.8-11.2-13.6-16-34.4-16H656v63.6c0,34,3.6,36.4,35.6,38.8v11.2H586.4v-11.2c32.8-2.4,36.4-4.8,36.4-38.8V61.6
		c0-34-3.2-35.2-34.4-38V12.4h99.2c29.2,0,48.8,3.6,64,13.6c16,10.4,26.4,28.4,26.4,52.4c0,34.4-21.2,55.6-50.8,68.4
		c6.8,13.2,23.6,40,35.6,58c14.4,20.8,22.4,31.2,32.4,41.6c10.8,12,20,16.4,28.8,18.8L822.4,275.6z M675.2,145.6
		c20.4,0,33.6-3.2,43.6-11.2c15.6-12,22-28,22-49.6c0-43.2-28.4-59.2-58.8-59.2c-11.6,0-18.4,1.6-21.6,4c-2.8,2-4.4,6.8-4.4,17.6
		v98.4H675.2z"/>
	<path class="st1" d="M1135.9,74.4c-4.4-19.2-8-29.2-12.8-35.6c-6.4-9.6-13.2-12.4-43.2-12.4h-28.4v196.8c0,31.6,3.2,35.6,41.2,38
		v11.2H977.9v-11.2c36.4-2.4,39.6-6.4,39.6-38V26.4h-24.8c-33.2,0-41.2,3.2-46.4,12.4c-4.8,6.8-8,18-12.8,35.6h-11.6
		c2-24,4-50,4.8-72h8c5.6,9.2,10.8,10,22,10h158c10.8,0,14-2.4,20.4-10h8.4c0,18.4,2,47.6,4,70.8L1135.9,74.4z"/>
	<path class="st1" d="M1375.9,209.2c-2.4,13.2-10.4,50.8-14,63.2h-192.8v-11.2c36.4-2.8,39.6-6,39.6-38.4V63.6
		c0-36-3.2-37.2-34.4-40V12.4h178.4c0,10,2,37.2,3.2,57.6l-11.6,2c-3.6-16.8-7.6-25.6-12.8-34.4c-5.6-8.4-16.4-11.2-45.2-11.2h-30.4
		c-12.4,0-13.2,0.8-13.2,12.8V130h37.6c36,0,38-3.2,43.2-30h11.6v76.8h-11.6c-5.2-28.8-8-31.2-42.8-31.2h-38v75.6
		c0,18.8,2.4,27.2,9.6,32.4c7.6,4.8,21.6,5.2,41.6,5.2c30.4,0,41.6-3.2,50.4-13.6c6.8-8,14.4-21.6,19.6-37.6L1375.9,209.2z"/>
	<path class="st1" d="M1555.9,272.4v-11.2c25.2-3.2,28.8-6.4,23.6-22c-5.2-15.6-13.2-37.2-22-61.6h-85.2
		c-6.4,18-12.4,34.8-17.6,51.6c-8.8,25.2-5.2,29.2,24.8,32v11.2h-86.8v-11.2c25.2-3.6,30.8-6,44.8-41.2l82.8-210l12.4-3.6
		c24.8,68.8,51.6,144.8,77.2,214.4c12.8,34.4,18,38,44,40.4v11.2H1555.9z M1516.7,58.4h-0.8c-12.8,34.4-25.6,69.2-37.6,102h73.6
		L1516.7,58.4z"/>
	<path class="st1" d="M1900.3,272.4v-11.2c32.4-3.2,34-5.2,33.6-47.6l-1.2-163.2h-1.6l-97.6,219.2h-8L1735.9,56h-0.8l-6,114
		c-1.6,32.8-1.6,50.4-1.2,66.4c0.8,19.2,10.4,22,36.8,24.8v11.2h-93.2v-11.2c23.2-2.8,31.2-7.2,34-24c2-14,4.4-31.6,7.6-73.2
		l5.6-83.2c3.6-52,1.6-53.6-34.8-57.2V12.4h65.6l91.2,200l92.4-200h68v11.2c-35.2,3.2-38,4-36.8,45.2l4,144.8
		c1.2,42.4,2.4,44.4,37.2,47.6v11.2H1900.3z"/>
</g>
</svg>
