<?xml version="1.0" encoding="utf-8"?>
<!-- Generator: Adobe Illustrator 24.0.3, SVG Export Plug-In . SVG Version: 6.00 Build 0)  -->
<svg version="1.1" id="title_bg.svg" xmlns="http://www.w3.org/2000/svg" xmlns:xlink="http://www.w3.org/1999/xlink" x="0px"
	 y="0px" viewBox="0 0 1911 282" style="enable-background:new 0 0 1911 282;" xml:space="preserve">
<style type="text/css">
	.st0{enable-background:new    ;}
	.st1{fill:none;stroke:#FFFFFF;stroke-width:3;stroke-linejoin:round;stroke-miterlimit:19.008;}
</style>
<g class="st0">
	<path class="st1" d="M161.9,273v-11.2c25.2-3.2,28.8-6.4,23.6-22s-13.2-37.2-22-61.6H78.3c-6.4,18-12.4,34.8-17.6,51.6
		c-8.8,25.2-5.2,29.2,24.8,32V273H-1.3v-11.2c25.2-3.6,30.8-6,44.8-41.2l82.8-210L138.7,7c24.8,68.8,51.6,144.8,77.2,214.4
		c12.8,34.4,18,38,44,40.4V273H161.9z M122.7,59h-0.8c-12.8,34.4-25.6,69.2-37.6,102h73.6L122.7,59z"/>
	<path class="st1" d="M415.9,133c39.6,6,70.8,23.6,70.8,63.6c0,26.8-14.8,47.2-38.4,60.4c-20.4,11.2-46.8,16-78.4,16h-88.4v-11.2
		c34.4-2.4,36.8-4.8,36.8-38.4V62.2c0-33.2-1.6-35.6-33.6-38V13h102.8c30,0,47.6,4.8,60,13.6c14.4,9.6,22.4,27.2,22.4,45.6
		c0,38-31.6,53.6-54,59.6V133z M370.7,128.2c44,0,62.4-17.6,62.4-51.2c0-27.2-15.2-51.2-53.2-51.2c-10,0-18.8,1.6-22.8,4
		c-3.6,2.4-5.2,6.8-5.2,20v78.4H370.7z M351.9,223c0,28.8,7.6,36.4,33.2,36.4c32.8-0.4,62-17.2,62-58.8c0-41.2-28-59.2-76.8-59.2
		h-18.4V223z"/>
	<path class="st1" d="M662.7,7c67.6,0,128.8,52.8,128.8,132.8c0,86.4-60.4,139.2-133.6,139.2c-72.4,0-130-56.4-130-133.2
		C527.9,73.8,578.3,7,662.3,7H662.7z M653.9,21.4c-44.4,0-85.2,38.4-85.2,113.2c0,75.2,41.2,130,97.6,130c44.4,0,84.4-37.2,84.4-114
		c0-84.4-44-129.2-96.4-129.2L653.9,21.4L653.9,21.4z"/>
	<path class="st1" d="M1091.5,24.2c-24,1.6-33.2,7.2-35.2,23.6c-1.2,10.8-2,28-2,64.8v32.8c0,47.2-7.2,81.2-30.4,105.6
		c-18.4,19.2-45.2,27.6-71.6,27.6c-23.2,0-46.4-5.6-64-19.2c-24-18.4-35.2-48.4-35.2-95.2V64.6c0-36-3.2-37.6-34.8-40.4V13h103.6
		v11.2c-31.6,2-34.8,4.4-34.8,40.4v90.8c0,64.4,25.6,101.2,75.2,101.2c57.6,0,75.6-48,75.6-114v-30c0-36.8-1.2-53.6-2.8-66
		c-2.4-15.6-10.8-20.4-38.8-22.4V13h95.2V24.2z"/>
	<path class="st1" d="M1324.6,75c-4.4-19.2-8-29.2-12.8-35.6c-6.4-9.6-13.2-12.4-43.2-12.4h-28.4v196.8c0,31.6,3.2,35.6,41.2,38V273
		h-114.8v-11.2c36.4-2.4,39.6-6.4,39.6-38V27h-24.8c-33.2,0-41.2,3.2-46.4,12.4c-4.8,6.8-8,18-12.8,35.6h-11.6c2-24,4-50,4.8-72h8
		c5.6,9.2,10.8,10,22,10h158c10.8,0,14-2.4,20.4-10h8.4c0,18.4,2,47.6,4,70.8L1324.6,75z"/>
	<path class="st1" d="M1723.4,24.2c-24,1.6-33.2,7.2-35.2,23.6c-1.2,10.8-2,28-2,64.8v32.8c0,47.2-7.2,81.2-30.4,105.6
		c-18.4,19.2-45.2,27.6-71.6,27.6c-23.2,0-46.4-5.6-64-19.2c-24-18.4-35.2-48.4-35.2-95.2V64.6c0-36-3.2-37.6-34.8-40.4V13h103.6
		v11.2c-31.6,2-34.8,4.4-34.8,40.4v90.8c0,64.4,25.6,101.2,75.2,101.2c57.6,0,75.6-48,75.6-114v-30c0-36.8-1.2-53.6-2.8-66
		c-2.4-15.6-10.8-20.4-38.8-22.4V13h95.2L1723.4,24.2L1723.4,24.2z"/>
	<path class="st1" d="M1883.4,73.8c-7.2-25.6-17.6-53.2-52.4-53.2c-30.8,0-44.4,22.4-44.4,44c0,29.2,19.2,42.8,50.8,59.2
		c31.2,16,69.2,34.8,69.2,79.6c0,42-35.6,75.6-88.8,75.6c-16.4,0-29.2-3.2-39.2-6c-10-3.6-16-6.4-19.6-8.4
		c-3.2-8.4-8.4-42.8-10.8-62l11.6-2.8c6.4,24.4,24.4,64.8,65.6,64.8c30,0,48-18.8,48-48c0-29.6-22-43.6-52-59.6
		c-25.6-13.6-66-33.6-66-78.8c0-38.4,30.8-71.2,82.4-71.2c18.4,0,35.2,4.4,50.4,9.2c1.6,14.4,3.6,30,6.8,55.2L1883.4,73.8z"/>
</g>
</svg>
