<?xml version="1.0" encoding="utf-8"?>
<!-- Generator: Adobe Illustrator 24.0.3, SVG Export Plug-In . SVG Version: 6.00 Build 0)  -->
<svg version="1.1" id="current_bg.svg" xmlns="http://www.w3.org/2000/svg" xmlns:xlink="http://www.w3.org/1999/xlink" x="0px"
	 y="0px" viewBox="0 0 2028 160.3" style="enable-background:new 0 0 2028 160.3;" xml:space="preserve">
<style type="text/css">
	.st0{opacity:0.1;enable-background:new    ;}
	.st1{fill:#545454;}
</style>
<g class="st0">
	<g>
		<path class="st1" d="M83.3,162.6c-26.5,0-48.4-8.5-63.4-24.7C7.1,124,0,105.4,0,85.5C0,37.6,36.8,4.2,89.6,4.2
			c14.5,0,26.9,3,35.2,4.9c2.3,0.5,4.3,1,5.7,1.3c0.4,0.1,0.8,0.4,0.8,0.8l0.9,6.4c1.4,10.1,2.6,18,3.7,28.4c0.1,0.5-0.3,1-0.8,1.1
			l-6.9,1.6c-0.5,0.1-1.1-0.2-1.2-0.7c-5.8-23.5-18.8-33.5-43.7-33.5c-27.9,0-57.9,20.8-57.9,66.4c0,42.1,24.4,71.4,59.3,71.4
			c24,0,36-14,46.5-35.1c0.2-0.5,0.8-0.7,1.2-0.5l6.7,2.5c0.5,0.2,0.8,0.7,0.6,1.2c-3.6,11.7-9.1,28-13.2,35.4
			c-0.1,0.2-0.4,0.4-0.6,0.5C116.6,158.7,98.7,162.6,83.3,162.6z M89.6,6.2C38,6.2,2,38.8,2,85.5c0,19.5,6.9,37.6,19.4,51.1
			c14.6,15.7,36,24,61.9,24c14.9,0,32.3-3.8,41.7-6.1c4.1-7.7,9.7-24.3,12.6-33.7l-5-1.9c-10.8,21.3-23.1,35.4-47.9,35.4
			c-36.1,0-61.3-30.2-61.3-73.4c0-18.2,5.4-35.1,15.3-47.4c10.9-13.7,26.3-21,44.6-21c25.6,0,39.2,10.2,45.4,34.1l5.1-1.2
			c-1.1-9.9-2.2-17.6-3.6-27.4l-0.8-5.7c-1.4-0.3-3.1-0.7-5.1-1.2C116.1,9.1,103.8,6.2,89.6,6.2z"/>
	</g>
	<g>
		<path class="st1" d="M228.5,162.3c-10.4,0-25.4-2-37.4-11.2c-14.1-10.8-20.6-28.4-20.6-55.5V38.3c0-20.1-1.3-20.7-19.1-22.2
			c-0.5,0-0.9-0.5-0.9-1V8.6c0-0.6,0.4-1,1-1H211c0.6,0,1,0.4,1,1V15c0,0.5-0.4,1-0.9,1c-9.4,0.6-13.8,1.3-16.1,3.9
			c-2.5,2.8-2.9,8.1-2.9,18.3v52.2c0,18.4,3.6,32.6,10.7,42.4c7.2,9.8,17.8,14.8,31.5,14.8c28.6,0,42.5-21.1,42.5-64.5V65.9
			c0-22.3-0.8-31.4-1.6-37.8c-1.3-8.4-5.7-10.9-21.4-12c-0.5,0-0.9-0.5-0.9-1V8.6c0-0.6,0.4-1,1-1h54.7c0.6,0,1,0.4,1,1V15
			c0,0.5-0.4,1-0.9,1c-13.6,0.9-18.3,4-19.3,12.7c-0.8,7.1-1.1,18.6-1.1,37.1v18.9c0,30-5.3,48.3-17.8,61.4
			C260.4,156.6,245.5,162.3,228.5,162.3z M152.4,14.2C161,15,166,15.7,169,18.9c3,3.3,3.4,8.6,3.4,19.4v57.3
			c0,26.4,6.3,43.6,19.8,53.9c11.6,9,26.1,10.8,36.2,10.8c16.5,0,30.8-5.5,40.4-15.6c12.1-12.7,17.2-30.6,17.2-60V65.9
			c0-18.9,0.3-30.1,1.2-37.4c1.2-9.6,6.3-13.3,20.2-14.4V9.6h-52.7v4.5c15.8,1.2,20.9,4.4,22.3,13.7c0.8,6.5,1.6,15.6,1.6,38.1v17.2
			c0,44.8-14.5,66.5-44.5,66.5c-28.5,0-44.2-21-44.2-59.2V38.3c0-20.4,1.9-22.9,20-24.2V9.6h-57.6L152.4,14.2L152.4,14.2z"/>
	</g>
	<g>
		<path class="st1" d="M457.3,161c-2.7,0-5.3,0-8.1-0.2c-17.8-0.9-27.7-6.5-38-21.4c-6.4-8.9-12.9-19.7-18.7-29.3
			c-1.6-2.6-3.1-5.1-4.6-7.5c-3.7-6-7.3-8.7-18.9-8.7h-6.4v35.6c0,19.2,1.9,20,19.5,21.3c0.5,0,0.9,0.5,0.9,1v6.4c0,0.6-0.4,1-1,1
			h-60.5c-0.6,0-1-0.4-1-1v-6.4c0-0.5,0.4-1,0.9-1c18-1.3,20-2.1,20-21.3V36.9c0-19.2-1.4-19.3-18.9-20.9c-0.5,0-0.9-0.5-0.9-1V8.6
			c0-0.6,0.4-1,1-1h57c17.7,0,28.8,2.4,37.4,8c10.1,6.6,15.6,17.5,15.6,31c0,17.8-9.7,31.2-28.8,39.8c4.1,7.8,13.2,22.2,19.9,32.3
			c8.5,12.2,13,18,18.5,23.8c6.5,7.2,11.8,9.4,16.1,10.5c0.5,0.1,0.8,0.6,0.7,1.1l-0.9,6C458.3,160.6,457.8,161,457.3,161z
			 M361.7,91.8h7.4c12.5,0,16.7,3.1,20.6,9.7c1.5,2.4,3,4.9,4.6,7.5c5.8,9.5,12.3,20.3,18.6,29.2c10,14.4,19.2,19.6,36.5,20.5
			c2.5,0.2,4.8,0.2,7.1,0.2l0.7-4.3c-4.5-1.3-9.8-3.8-16.2-10.9c-5.6-5.8-10.2-11.7-18.7-24c-7-10.6-16.6-25.9-20.5-33.5
			c-0.1-0.2-0.1-0.5-0.1-0.8s0.3-0.5,0.5-0.6c19-8.2,28.6-21.1,28.6-38.4c0-12.7-5.2-23.1-14.7-29.3c-8.2-5.4-19-7.7-36.3-7.7h-56
			v4.5c17.5,1.6,19.8,2.9,19.8,22.8v92.5c0,20-2.7,21.9-20.9,23.2v4.5h58.5v-4.5c-17.9-1.4-20.5-3.2-20.5-23.2V92.8
			C360.7,92.3,361.1,91.8,361.7,91.8z M372.7,86.2h-11c-0.6,0-1-0.4-1-1V28.6c0-6.2,0.9-9.5,2.9-10.9c2.2-1.6,6.6-2.5,13-2.5
			c21.8,0,34.8,13.1,34.8,35c0,13.2-4.1,22.5-13,29.3C392.6,84.2,384.9,86.2,372.7,86.2z M362.7,84.2h10c11.7,0,19-1.9,24.4-6.2
			c8.4-6.4,12.3-15.3,12.3-27.7c0-20.7-12.3-33-32.8-33c-7.5,0-10.5,1.1-11.8,2.1c-1.5,1-2.1,4-2.1,9.3V84.2z"/>
	</g>
	<g>
		<path class="st1" d="M600.2,161c-2.7,0-5.3,0-8.1-0.2c-17.8-0.9-27.7-6.5-38-21.4c-6.4-8.9-12.9-19.7-18.7-29.3
			c-1.6-2.6-3.1-5.1-4.6-7.5c-3.7-6-7.3-8.7-18.9-8.7h-6.4v35.6c0,19.2,1.9,20,19.5,21.3c0.5,0,0.9,0.5,0.9,1v6.4c0,0.6-0.4,1-1,1
			h-60.5c-0.6,0-1-0.4-1-1v-6.4c0-0.5,0.4-1,0.9-1c18-1.3,20-2.1,20-21.3V36.9c0-19.2-1.4-19.3-18.9-20.9c-0.5,0-0.9-0.5-0.9-1V8.6
			c0-0.6,0.4-1,1-1h57c17.7,0,28.8,2.4,37.4,8c10.1,6.6,15.6,17.5,15.6,31c0,17.8-9.7,31.2-28.8,39.8c4.1,7.8,13.2,22.2,19.9,32.3
			c8.5,12.2,13,18,18.5,23.8c6.5,7.2,11.8,9.4,16.1,10.5c0.5,0.1,0.8,0.6,0.7,1.1l-0.9,6C601.1,160.6,600.7,161,600.2,161z
			 M504.5,91.8h7.4c12.5,0,16.7,3.1,20.6,9.7c1.5,2.4,3,4.9,4.6,7.5c5.8,9.5,12.3,20.3,18.6,29.2c10,14.4,19.2,19.6,36.5,20.5
			c2.5,0.2,4.8,0.2,7.1,0.2l0.7-4.3c-4.5-1.3-9.8-3.8-16.2-10.9c-5.6-5.8-10.2-11.7-18.7-24c-7-10.6-16.6-25.9-20.5-33.5
			c-0.1-0.2-0.1-0.5-0.1-0.8s0.3-0.5,0.5-0.6c19-8.2,28.6-21.1,28.6-38.4c0-12.7-5.2-23.1-14.7-29.3c-8.2-5.4-19-7.7-36.3-7.7h-56
			v4.5c17.5,1.6,19.8,2.9,19.8,22.8v92.5c0,20-2.7,21.9-20.9,23.2v4.5H524v-4.5c-17.9-1.4-20.5-3.2-20.5-23.2V92.8
			C503.5,92.3,503.9,91.8,504.5,91.8z M515.5,86.2h-11c-0.6,0-1-0.4-1-1V28.6c0-6.2,0.9-9.5,2.9-10.9c2.2-1.6,6.6-2.5,13-2.5
			c21.8,0,34.8,13.1,34.8,35c0,13.2-4.1,22.5-13,29.3C535.4,84.2,527.7,86.2,515.5,86.2z M505.5,84.2h10c11.7,0,19-1.9,24.4-6.2
			c8.4-6.4,12.3-15.3,12.3-27.7c0-20.7-12.3-33-32.8-33c-7.5,0-10.5,1.1-11.8,2.1c-1.5,1-2.1,4-2.1,9.3L505.5,84.2L505.5,84.2z"/>
	</g>
	<g>
		<path class="st1" d="M716.3,159.1H605.5c-0.6,0-1-0.4-1-1v-6.4c0-0.5,0.4-1,0.9-1c20.4-1.6,21.8-2.9,21.8-21.1V38.1
			c0-20.3-1.4-20.4-18.9-22c-0.5,0-0.9-0.5-0.9-1V8.6c0-0.6,0.4-1,1-1H711c0.6,0,1,0.4,1,1c0,4.1,0.6,13.3,1.2,22.2
			c0.2,3.7,0.5,7.4,0.7,10.8c0,0.5-0.3,1-0.8,1l-6.7,1.1c-0.5,0.1-1-0.3-1.1-0.8c-2-9.4-4.3-14.4-7.2-19.5c-3-4.5-9.1-5.9-25.1-5.9
			h-17.5c-6.6,0-6.6,0-6.6,6.4v51.2h20.6c20.1,0,20.9-1.4,23.9-16.4c0.1-0.5,0.5-0.8,1-0.8h6.7c0.6,0,1,0.4,1,1v44.2
			c0,0.6-0.4,1-1,1h-6.7c-0.5,0-0.9-0.3-1-0.8c-2.9-16.2-4.2-17.1-23.6-17.1h-20.9v42.5c0,10.6,1.3,15.1,5.1,17.8
			c4.1,2.6,12.3,2.8,23.3,2.8c17,0,23.3-1.7,28.2-7.5c4.2-5,8.4-12.9,11.1-21.3c0.1-0.5,0.6-0.7,1.1-0.7l6.9,0.9
			c0.3,0,0.5,0.2,0.7,0.4c0.2,0.2,0.2,0.5,0.2,0.8c-1.4,7.6-6,29.3-8.1,36.4C717.2,158.8,716.8,159.1,716.3,159.1z M606.5,157.1
			h109.1c2.1-7.4,6.1-26.4,7.6-34.5l-5-0.7c-2.8,8.3-7,16.2-11.2,21.2c-5.4,6.3-12,8.2-29.7,8.2c-11.8,0-19.8-0.2-24.5-3.1
			c-4.4-3.2-6-8.3-6-19.5V85.2c0-0.6,0.4-1,1-1h21.9c20,0,22.4,1.5,25.4,17.9h4.8V60h-4.8c-3,15.3-4.9,17.2-25.7,17.2h-21.6
			c-0.6,0-1-0.4-1-1V24c0-7.5,0.9-8.4,8.6-8.4h17.5c16.8,0,23.3,1.7,26.8,6.9c3,5.1,5.3,10.1,7.3,19.2l4.8-0.8
			c-0.2-3.1-0.4-6.5-0.6-9.9c-0.5-8.3-1.1-16.9-1.2-21.4H609.5v4.5c17.5,1.6,19.8,3,19.8,23.9v91.5c0,19-2.2,21.4-22.8,23V157.1z"/>
	</g>
	<g>
		<path class="st1" d="M874.1,161.2H867c-0.3,0-0.6-0.1-0.8-0.4L769.6,41.9v55.5c0,17.1,0.4,29.8,1.4,38.8
			c1.1,10.7,5.2,13.6,21.1,14.5c0.5,0,0.9,0.5,0.9,1v6.4c0,0.6-0.4,1-1,1h-54.5c-0.6,0-1-0.4-1-1v-6.4c0-0.5,0.4-1,0.9-1
			c13.8-0.7,18.3-4,19.3-14.1c0.6-6.1,1.4-16.8,1.4-39.2V46.8c0-16.8-0.5-17.4-4.4-22.6c-4.2-5.3-8.8-7.2-19.8-8.1
			c-0.5,0-0.9-0.5-0.9-1V8.6c0-0.6,0.4-1,1-1h34c0.3,0,0.6,0.1,0.8,0.4l94.8,114.2V67.5c0-20.5-0.9-31.1-1.6-38.1
			c-1.1-9.6-5.7-12.4-21.6-13.4c-0.5,0-0.9-0.5-0.9-1V8.6c0-0.6,0.4-1,1-1h54.3c0.6,0,1,0.4,1,1V15c0,0.5-0.4,1-0.9,1
			c-13.1,0.7-17.6,3.8-18.4,12.9c-1,7.3-1.4,18.5-1.4,38.5v92.7C875.1,160.7,874.7,161.2,874.1,161.2z M867.5,159.2h5.7V67.5
			c0-20.1,0.4-31.4,1.4-38.8c1-11.1,7.8-13.9,19.3-14.6V9.6h-52.3v4.5c14.2,0.9,21.3,3.5,22.5,15.1c0.8,7,1.6,17.7,1.6,38.3v56.6
			c0,0.6-0.4,1-1,1H864c-0.3,0-0.6-0.1-0.8-0.4L767.6,9.6H735v4.5c10.8,1,15.8,3.2,20.3,8.8c4.3,5.8,4.8,7,4.8,23.9v50.6
			c0,22.5-0.8,33.3-1.4,39.4c-1.2,12.2-8.1,15-20.2,15.8v4.5H791v-4.5c-14.5-0.9-20.8-3.6-22.1-16.3c-0.9-9-1.4-21.8-1.4-39V39.7
			c0-0.6,0.4-1,1-1h0.5c0.3,0,0.6,0.1,0.8,0.4L867.5,159.2z"/>
	</g>
	<g>
		<path class="st1" d="M1005,159.1h-66c-0.6,0-1-0.4-1-1v-6.4c0-0.5,0.4-1,0.9-1c20.2-1.3,21.8-2.9,21.8-20.8V17.7h-13.3
			c-18.7,0-23,1.7-25.8,6.6c0,0,0,0.1-0.1,0.1c-2.7,3.8-4.5,10.1-7.2,20.2c-0.1,0.4-0.5,0.7-1,0.7h-6.7c-0.3,0-0.5-0.1-0.7-0.3
			s-0.3-0.5-0.3-0.8c1.1-13.2,2.3-28.4,2.8-41.3c0-0.5,0.5-1,1-1h4.6c0.3,0,0.7,0.2,0.9,0.5c2.9,4.8,5.4,5.3,11.8,5.3h90.9
			c5.8,0,7.3-1.1,11-5.4c0.2-0.2,0.5-0.4,0.8-0.4h4.8c0.6,0,1,0.4,1,1c0,12.6,1.6,32.6,2.3,40.6c0,0.5-0.4,1-0.9,1.1l-6.7,0.7
			c-0.5,0-1-0.3-1.1-0.8c-2.5-10.9-4.5-16.5-7.2-20.1c-3.5-5.2-7.1-6.7-24-6.7h-15.3v112.2c0,18,1.7,19.5,22.8,20.8
			c0.5,0,0.9,0.5,0.9,1v6.4C1006,158.7,1005.6,159.1,1005,159.1z M940,157.1h64v-4.5c-21.2-1.4-23.7-4-23.7-22.8V16.7
			c0-0.6,0.4-1,1-1h16.3c16.8,0,21.6,1.4,25.7,7.6c2.8,3.7,4.8,9.3,7.3,19.9l4.8-0.5c-0.7-8.4-2.1-26.6-2.2-38.8h-3.4
			c-3.5,4.2-5.7,5.7-12.2,5.7h-90.9c-6.6,0-9.9-0.6-13.2-5.7h-3.1c-0.5,12.4-1.6,26.8-2.6,39.4h4.8c2.7-9.8,4.5-16.1,7.3-20
			c3.4-6,9.1-7.6,27.5-7.6h14.3c0.6,0,1,0.4,1,1v113.2c0,18.6-2.6,21.4-22.8,22.8L940,157.1L940,157.1z"/>
	</g>
	<g>
		<path class="st1" d="M1166,159.1h-62.3c-0.6,0-1-0.4-1-1v-6.4c0-0.5,0.4-1,0.9-1c18.1-1.4,19.3-2.7,19.3-21.3v-92
			c0-19.6-1.3-20.2-17.9-21.3c-0.5,0-0.9-0.5-0.9-1V8.6c0-0.6,0.4-1,1-1h56.8c17.6,0,30.4,3.2,39.2,9.9c10,7.5,15.4,19,15.4,33.2
			c0,13.8-5,25.7-14.4,34.3c-8,7.3-19.1,12.2-31.3,13.8c-3.6,0.2-8,0.2-10.6,0c-0.1,0-0.1,0-0.2,0l-15.8-4v34.8
			c0,19.1,1.8,19.7,21.8,21.1c0.5,0,0.9,0.5,0.9,1v6.4C1167,158.7,1166.6,159.1,1166,159.1z M1104.7,157.1h60.3v-4.5
			c-20.2-1.4-22.8-3-22.8-23V93.5c0-0.3,0.1-0.6,0.4-0.8c0.2-0.2,0.6-0.3,0.9-0.2l16.9,4.3c2.5,0.2,6.7,0.2,10.1,0
			c32.4-4.3,43.9-26.7,43.9-46.1c0-13.6-5-24.5-14.5-31.6c-8.5-6.4-20.9-9.5-38-9.5h-55.8v4.5c16.7,1.2,18.9,2.9,18.9,23.2v92
			c0,19.2-2.1,21.8-20.2,23.2v4.6H1104.7z M1160,89.7c-7.2,0-13.6-1.5-17.1-2.8c-0.4-0.1-0.6-0.5-0.6-0.9V29.6
			c0-6.7,0.8-9.7,2.9-11.6c1.8-1.8,7-3,13.5-3c22.4,0,35.7,13.6,35.7,36.4C1194.4,86.9,1168.1,89.7,1160,89.7z M1144.2,85.2
			c3.5,1.2,9.3,2.5,15.8,2.5c30,0,32.4-27.8,32.4-36.3c0-21.6-12.6-34.4-33.7-34.4c-6.7,0-10.9,1.2-12.2,2.5
			c-1.6,1.4-2.2,4.2-2.2,10.1v55.6H1144.2z"/>
	</g>
	<g>
		<path class="st1" d="M1367,161c-2.7,0-5.3,0-8.1-0.2c-17.8-0.9-27.7-6.5-38-21.4c-6.4-8.9-12.9-19.7-18.7-29.3
			c-1.6-2.6-3.1-5.1-4.6-7.5c-3.7-6-7.3-8.7-18.9-8.7h-6.4v35.6c0,19.2,1.9,20,19.5,21.3c0.5,0,0.9,0.5,0.9,1v6.4c0,0.6-0.4,1-1,1
			h-60.5c-0.6,0-1-0.4-1-1v-6.4c0-0.5,0.4-1,0.9-1c18-1.3,20-2.1,20-21.3V36.9c0-19.2-1.4-19.3-18.9-20.9c-0.5,0-0.9-0.5-0.9-1V8.6
			c0-0.6,0.4-1,1-1h57c17.7,0,28.8,2.4,37.4,8c10.1,6.6,15.6,17.5,15.6,31c0,17.8-9.7,31.2-28.8,39.8c4.1,7.8,13.2,22.2,19.9,32.3
			c8.5,12.2,13,18,18.5,23.8c6.5,7.2,11.8,9.4,16.1,10.5c0.5,0.1,0.8,0.6,0.7,1.1l-0.9,6C1368,160.6,1367.5,161,1367,161z
			 M1271.4,91.8h7.4c12.5,0,16.7,3.1,20.6,9.7c1.5,2.4,3,4.9,4.6,7.5c5.8,9.5,12.3,20.3,18.6,29.2c10,14.4,19.2,19.6,36.5,20.5
			c2.5,0.2,4.8,0.2,7.1,0.2l0.7-4.3c-4.5-1.3-9.8-3.8-16.2-10.9c-5.6-5.8-10.2-11.7-18.7-24c-7-10.6-16.6-25.9-20.5-33.5
			c-0.1-0.2-0.1-0.5-0.1-0.8c0.1-0.3,0.3-0.5,0.5-0.6c19-8.2,28.6-21.1,28.6-38.4c0-12.7-5.2-23.1-14.7-29.3
			c-8.2-5.4-19-7.7-36.3-7.7h-56v4.5c17.5,1.6,19.8,2.9,19.8,22.8v92.5c0,20-2.7,21.9-20.9,23.2v4.5h58.5v-4.5
			c-17.9-1.4-20.5-3.2-20.5-23.2V92.8C1270.4,92.3,1270.8,91.8,1271.4,91.8z M1282.4,86.2h-11c-0.6,0-1-0.4-1-1V28.6
			c0-6.2,0.9-9.5,2.9-10.9c2.2-1.6,6.6-2.5,13-2.5c21.8,0,34.8,13.1,34.8,35c0,13.2-4.1,22.5-13,29.3
			C1302.3,84.2,1294.6,86.2,1282.4,86.2z M1272.4,84.2h10c11.7,0,19-1.9,24.4-6.2c8.4-6.4,12.3-15.3,12.3-27.7
			c0-20.7-12.3-33-32.8-33c-7.5,0-10.5,1.1-11.8,2.1c-1.5,1-2.1,4-2.1,9.3V84.2z"/>
	</g>
	<g>
		<path class="st1" d="M1448.7,162.6c-20.6,0-39.6-7.8-53.7-22c-14.2-14.4-22.1-34.1-22.1-55.6c0-21.3,7.4-41.2,20.8-56.1
			c14.5-16.2,34.4-24.7,57.5-24.7h0.2c19.7,0,38.3,7.5,52.3,21.2c14.7,14.3,22.8,34.3,22.8,56.1c0,24-7.9,44.5-22.9,59.4
			C1489.5,154.9,1470,162.6,1448.7,162.6z M1451.2,6.2c-22.5,0-41.9,8.3-56,24c-13.1,14.5-20.3,34-20.3,54.8
			c0,20.9,7.6,40.2,21.5,54.1c13.7,13.8,32.2,21.4,52.3,21.4c20.7,0,39.7-7.5,53.5-21.1c14.6-14.5,22.3-34.5,22.3-57.9
			c0-21.3-7.9-40.8-22.2-54.7c-13.6-13.3-31.7-20.6-50.9-20.6C1451.4,6.2,1451.2,6.2,1451.2,6.2z M1453.5,154.3
			c-33.1,0-57.1-31.9-57.1-75.7c0-20.3,5.2-37.4,15.2-49.3c9-10.8,21.4-16.8,34.8-16.8h0.2c33.8,0,56.4,30.3,56.4,75.3
			c0,20.8-5.2,38.1-14.9,50C1479.3,148.4,1467.1,154.3,1453.5,154.3z M1446.4,14.5c-12.9,0-24.7,5.7-33.3,16.1
			c-9.6,11.6-14.7,28.2-14.7,48c0,42.7,23.2,73.7,55.1,73.7c12.9,0,24.7-5.6,33.1-15.8c9.5-11.5,14.5-28.3,14.5-48.7
			c0-22.7-5.6-41.6-16.2-54.7c-9.7-12-23.2-18.6-38.2-18.6L1446.4,14.5L1446.4,14.5z"/>
	</g>
	<g>
		<path class="st1" d="M1540.5,197.1c-0.4,0-0.7-0.2-0.9-0.6l-3-6.4c-0.2-0.5,0-1.1,0.5-1.3c11.9-6,19.2-15.9,21.5-29.4
			c2.1-11.2,2.5-24.9,2.5-43.5V37.4c0-18.6-1.3-20-19.5-21.3c-0.5,0-0.9-0.5-0.9-1V8.6c0-0.6,0.4-1,1-1h59.6c0.6,0,1,0.4,1,1V15
			c0,0.5-0.4,1-0.9,1c-17.4,1.4-18.6,2.8-18.6,21.3v86c0,30.6-5.3,46.4-20.1,60.1c-7.1,6.5-15,11.4-21.8,13.6
			C1540.7,197.1,1540.6,197.1,1540.5,197.1z M1538.8,190.1l2.2,4.8c6.3-2.2,13.6-6.8,20.2-12.8c14.5-13.4,19.5-28.2,19.5-58.6v-86
			c0-19.3,1.9-21.8,19.6-23.2V9.6h-57.6v4.5c18.5,1.4,20.5,3.9,20.5,23.2v78.4c0,18.7-0.4,32.6-2.5,43.9
			C1558.1,173.6,1550.8,183.8,1538.8,190.1z"/>
	</g>
	<g>
		<path class="st1" d="M1724.7,159.1h-110.9c-0.6,0-1-0.4-1-1v-6.4c0-0.5,0.4-1,0.9-1c20.4-1.6,21.8-2.9,21.8-21.1V38.1
			c0-20.3-1.4-20.4-18.9-22c-0.5,0-0.9-0.5-0.9-1V8.6c0-0.6,0.4-1,1-1h102.6c0.6,0,1,0.4,1,1c0,4.1,0.6,13.3,1.2,22.2
			c0.2,3.7,0.5,7.4,0.7,10.8c0,0.5-0.3,1-0.8,1l-6.7,1.1c-0.5,0.1-1-0.3-1.1-0.8c-2-9.4-4.3-14.4-7.2-19.5c-3-4.5-9.1-5.9-25.1-5.9
			h-17.5c-6.6,0-6.6,0-6.6,6.4v51.2h20.6c20.1,0,20.9-1.4,23.9-16.4c0.1-0.5,0.5-0.8,1-0.8h6.7c0.6,0,1,0.4,1,1v44.2
			c0,0.6-0.4,1-1,1h-6.7c-0.5,0-0.9-0.3-1-0.8c-2.9-16.2-4.2-17.1-23.6-17.1h-20.9v42.5c0,10.6,1.3,15.1,5.1,17.8
			c4.1,2.6,12.3,2.8,23.3,2.8c17,0,23.3-1.7,28.2-7.5c4.2-5,8.4-12.9,11.1-21.3c0.1-0.5,0.6-0.7,1.1-0.7l6.9,0.9
			c0.3,0,0.5,0.2,0.7,0.4c0.2,0.2,0.2,0.5,0.2,0.8c-1.4,7.6-6,29.3-8.1,36.4C1725.6,158.8,1725.2,159.1,1724.7,159.1z M1614.9,157.1
			H1724c2.1-7.4,6.1-26.4,7.6-34.5l-5-0.7c-2.8,8.3-7,16.2-11.2,21.2c-5.4,6.3-12,8.2-29.7,8.2c-11.8,0-19.8-0.2-24.5-3.1
			c-4.4-3.2-6-8.3-6-19.5V85.2c0-0.6,0.4-1,1-1h21.9c20,0,22.4,1.5,25.4,17.9h4.8V60h-4.8c-3,15.3-4.9,17.2-25.7,17.2h-21.6
			c-0.6,0-1-0.4-1-1V24c0-7.5,0.9-8.4,8.6-8.4h17.5c16.8,0,23.3,1.7,26.8,6.9c3,5.1,5.3,10.1,7.3,19.2l4.8-0.8
			c-0.2-3.1-0.4-6.5-0.6-9.9c-0.5-8.3-1.1-16.9-1.2-21.4h-100.6v4.5c17.5,1.6,19.8,3,19.8,23.9v91.5c0,19-2.2,21.4-22.8,23
			L1614.9,157.1L1614.9,157.1z"/>
	</g>
	<g>
		<path class="st1" d="M1830.3,162.6c-26.5,0-48.4-8.5-63.4-24.7c-12.9-13.9-20-32.5-20-52.5c0-47.8,36.8-81.3,89.6-81.3
			c14.5,0,26.9,3,35.2,4.9c2.3,0.5,4.3,1,5.7,1.3c0.4,0.1,0.8,0.4,0.8,0.8l0.9,6.4c1.4,10.1,2.6,18,3.7,28.4c0.1,0.5-0.3,1-0.8,1.1
			l-6.9,1.6c-0.5,0.1-1.1-0.2-1.2-0.7c-5.8-23.5-18.8-33.5-43.7-33.5c-27.9,0-57.9,20.8-57.9,66.4c0,42.1,24.4,71.4,59.3,71.4
			c24,0,36-14,46.5-35.1c0.2-0.5,0.8-0.7,1.2-0.5l6.7,2.5c0.5,0.2,0.8,0.7,0.6,1.2c-3.6,11.7-9.1,28-13.2,35.4
			c-0.1,0.2-0.4,0.4-0.6,0.5C1863.5,158.7,1845.6,162.6,1830.3,162.6z M1836.5,6.2c-51.6,0-87.6,32.6-87.6,79.3
			c0,19.5,6.9,37.6,19.4,51.1c14.6,15.7,36,24,61.9,24c14.9,0,32.3-3.8,41.7-6.1c4.1-7.7,9.7-24.3,12.6-33.7l-5-1.9
			c-10.8,21.3-23.1,35.4-47.9,35.4c-36.1,0-61.3-30.2-61.3-73.4c0-18.2,5.4-35.1,15.3-47.4c10.9-13.7,26.3-21,44.6-21
			c25.6,0,39.2,10.2,45.4,34.1l5.1-1.2c-1.1-9.9-2.2-17.6-3.6-27.4l-0.8-5.7c-1.4-0.3-3.1-0.7-5.1-1.2
			C1863.1,9.1,1850.8,6.2,1836.5,6.2z"/>
	</g>
	<g>
		<path class="st1" d="M1995.4,159.1h-66c-0.6,0-1-0.4-1-1v-6.4c0-0.5,0.4-1,0.9-1c20.2-1.3,21.8-2.9,21.8-20.8V17.7h-13.3
			c-18.7,0-23,1.7-25.8,6.6c0,0,0,0.1-0.1,0.1c-2.7,3.8-4.5,10.1-7.2,20.2c-0.1,0.4-0.5,0.7-1,0.7h-6.7c-0.3,0-0.5-0.1-0.7-0.3
			s-0.3-0.5-0.3-0.8c1.1-13.2,2.3-28.4,2.8-41.3c0-0.5,0.5-1,1-1h4.6c0.3,0,0.7,0.2,0.9,0.5c2.9,4.8,5.4,5.3,11.8,5.3h90.9
			c5.8,0,7.3-1.1,11-5.4c0.2-0.2,0.5-0.4,0.8-0.4h4.8c0.6,0,1,0.4,1,1c0,12.6,1.6,32.6,2.3,40.6c0,0.5-0.4,1-0.9,1.1l-6.7,0.7
			c-0.5,0-1-0.3-1.1-0.8c-2.5-10.9-4.5-16.5-7.2-20.1c-3.5-5.2-7.1-6.7-24-6.7h-15.3v112.2c0,18,1.7,19.5,22.8,20.8
			c0.5,0,0.9,0.5,0.9,1v6.4C1996.4,158.7,1996,159.1,1995.4,159.1z M1930.4,157.1h64v-4.5c-21.2-1.4-23.7-4-23.7-22.8V16.7
			c0-0.6,0.4-1,1-1h16.3c16.8,0,21.6,1.4,25.7,7.6c2.8,3.7,4.8,9.3,7.3,19.9l4.8-0.5c-0.7-8.4-2.1-26.6-2.2-38.8h-3.4
			c-3.5,4.2-5.7,5.7-12.2,5.7h-90.9c-6.6,0-9.9-0.6-13.2-5.7h-3.1c-0.5,12.4-1.6,26.8-2.6,39.4h4.8c2.7-9.8,4.5-16.1,7.3-20
			c3.4-6,9.1-7.6,27.5-7.6h14.3c0.6,0,1,0.4,1,1v113.2c0,18.6-2.6,21.4-22.8,22.8L1930.4,157.1L1930.4,157.1z"/>
	</g>
</g>
</svg>
