<?xml version="1.0" encoding="utf-8"?>
<!-- Generator: Adobe Illustrator 24.0.3, SVG Export Plug-In . SVG Version: 6.00 Build 0)  -->
<svg version="1.1" id="nav_line.svg" xmlns="http://www.w3.org/2000/svg" xmlns:xlink="http://www.w3.org/1999/xlink" x="0px"
	 y="0px" viewBox="0 0 60 60" style="enable-background:new 0 0 60 60;" xml:space="preserve">
<style type="text/css">
	.st0{fill:#00BE17;}
	.st1{fill:#FFFFFF;}
</style>
<g>
	<circle class="st0" cx="30" cy="30" r="30"/>
	<path class="st1" d="M49.7,28.4c-0.4-8.4-9.2-15.2-20-15.2c-11,0-20,7-20,15.8c0,8,7.6,14.8,17.4,15.8c0.6,0,1,0.6,1,1.2l-0.4,3.8
		c0,0.8,0.8,1.4,1.6,1c8.2-4,13.2-8.2,16.2-11.6c0.6-0.6,2.2-3.2,2.6-3.8c0.8-1.4,1.2-2.8,1.6-4.4c0-0.4,0-0.8,0-1.2
		C49.7,29.4,49.7,28.6,49.7,28.4z M21.7,34.4h-4c-0.6,0-1-0.4-1-1v-7.8c0-0.6,0.4-1,1-1s1,0.4,1,1v6.6h3c0.6,0,1,0.4,1,1
		C22.7,33.8,22.3,34.4,21.7,34.4z M25.9,33.6c0,0.4-0.4,0.8-0.8,0.8h-0.6c-0.4,0-0.8-0.4-0.8-0.8v-8.2c0-0.4,0.4-0.8,0.8-0.8h0.4
		c0.4,0,0.8,0.4,0.8,0.8v8.2C25.7,33.6,25.9,33.6,25.9,33.6z M35.3,33.2c0,0.6-0.4,1-1,1c-0.2,0-0.6-0.2-0.6-0.2l-4.2-5.4v4.6
		c0,0.6-0.4,1-1,1s-1-0.4-1-1v-7.6c-0.2-0.6,0.2-1,0.8-1c0.4,0,0.6,0.2,0.8,0.4l4.2,5.4v-4.8c0-0.6,0.4-1,1-1c0.6,0,1,0.4,1,1
		C35.3,25.7,35.3,33.2,35.3,33.2z M41.9,28.4c0.6,0,1,0.4,1,1s-0.4,1-1,1h-3v1.8h3c0.6,0,1,0.4,1,1c0,0.6-0.4,1-1,1h-4
		c-0.6,0-1-0.4-1-1v-7.6c0-0.6,0.4-1,1-1h4c0.6,0,1,0.4,1,1s-0.4,1-1,1h-3v1.8C38.9,28.4,41.9,28.4,41.9,28.4z"/>
</g>
</svg>
