<?xml version="1.0" encoding="utf-8"?>
<!-- Generator: Adobe Illustrator 27.0.0, SVG Export Plug-In . SVG Version: 6.00 Build 0)  -->
<svg version="1.1" id="圖層_1" xmlns="http://www.w3.org/2000/svg" xmlns:xlink="http://www.w3.org/1999/xlink" x="0px" y="0px"
	 viewBox="0 0 492 138" style="enable-background:new 0 0 492 138;" xml:space="preserve" >
<style type="text/css">
	.st0{
		fill:#FFFFFF;
		fill-rule:evenodd;
		clip-rule:evenodd;
	}
</style>
<path id="ico" class="st0" d="M125.9,81.8c-3.7,11-11.3,20.7-21.9,26.8c4.5-4.1,8-10.1,10.2-17.6c0.8-2.7,1.4-5.5,1.8-8.4
	c3-3.4,5.3-7,6.7-10.7c2.3-5.6,2-10.7-0.3-14.9c-0.7,4.9-2.7,10.2-5.8,15.3c-0.1-4.1-0.5-8.3-1.4-12.3c1-1.6,1.9-3.2,2.5-4.8
	c2.2-5.5,2-10.5-0.3-14.5c-0.5,3.8-1.9,7.9-4.2,11.8c-2.1-6.5-5-12.3-8.6-16.9C106.2,27,101,20.4,91.4,18c-8.4-3-19.9-2.8-31.8,0.9
	c-22.9,7.1-37.7,28-37.9,50.6c-0.1,5.2,0.6,10.6,2.2,15.9c6,19.8,22.9,33.3,42.3,36.1c7.7,1.2,15.8,0.6,23.8-1.8
	c18.7-5.8,32-20.8,36.4-38.3c-0.5,1.4-1,2.7-1.6,4C125.2,84.2,125.6,83,125.9,81.8z M113.4,62.4c0.7,4.2,1.1,8.6,1.1,12.9
	c-1.2,1.6-2.5,3.2-3.9,4.8c-4.8,6.2-12.1,11.8-20.6,15.9c-1.4-4.2-3-8.8-4.7-13.9C97,77.5,107.3,70.4,113.4,62.4z M64.5,87.1
	c6.5-0.6,13-2.1,19.2-4.4c1.9,5,3.6,9.7,5.2,13.8c-6.7,3.1-14.1,5.1-21.3,5.8c-1.5,0.1-3,0.2-4.4,0.2c-3.7-4.3-7.1-9.7-9.7-15.5
	C56.8,87.4,60.5,87.4,64.5,87.1z M52.4,84.8c-0.6-1.4-1.2-2.9-1.7-4.3c-1.9-5.4-3.1-11-3.6-16.5c3.9,1.4,8.8,1.9,14.3,1.5
	c5-0.4,10.1-1.5,14.8-3.2c1,3,2.1,6.1,3.3,9.2c1,2.7,1.9,5.3,2.9,7.9c-6.7,2.9-14,4.8-21.3,5.4C58.1,85,55.1,85,52.4,84.8z
	 M103.5,39.4c0.1-0.2,0.1-0.5,0.2-0.7c0,0,0-0.1,0.1-0.1c3.3,4.7,6.1,10.3,7.9,16.4c-1.8,2.8-3.9,5.5-6.4,8.1
	c-4.9,6.1-12.5,11.6-21.2,15.5c-0.9-2.5-1.8-5.1-2.7-7.7c-1.1-3.2-2.3-6.3-3.4-9.2C90,56.9,100.1,48.5,103.5,39.4z M93.5,113.2
	c-8.8,2.7-17.7,2.8-26,0.8c-15.7-3.9-28.9-15.6-33.9-32c-1.9-6.2-2.4-12.4-1.7-18.5C34,45.3,47,28.9,66.2,23.1
	c8.9-2.7,15.7-2.4,21.8-0.9c3.3,1.2,5.9,2.9,7.7,5.2c-6.4-3.9-13.3-4.4-19.6-1.5c6.9-3.3,14.9-0.6,21.7,5.7c0.6,2.2,0.5,4.7-0.4,7.4
	c-2.8,7.6-10.8,14.7-20.6,19.1C70,40.3,64.8,27.4,64.8,27.4s4.1,13.4,10.3,31.5C70,61,64.5,62.5,59,62.9c-4.5,0.3-8.6,0-12-1
	c-1-15.1,3.2-28.7,11.8-32.1c-6.5,2.5-11.3,9.1-13.1,18.9c-0.8,3.9-1,8.1-0.8,12.4c-3.4-1.3-6-3.3-7.6-5.8c0.7,1.5,1.8,2.9,3.2,4.2
	c-1.4-1-2.5-2.2-3.3-3.5c1.5,3,4.2,5.4,7.8,7.1c0.5,5.9,1.8,12.1,3.9,18.1c0.4,1.2,0.8,2.3,1.3,3.4c-7.5-1-13.1-4-16-8.3
	c2.6,5.2,8.6,8.9,16.9,10.4c2.6,6,5.9,11.3,9.6,15.8c-9.3-0.4-16.2-3.8-19.5-8.9c3.1,6.4,10.8,10.6,21.6,11.2
	c1.2,1.2,2.4,2.4,3.7,3.5c7.4,6.2,15.1,8.1,21.6,5.6c-5.9,2.2-14-1.5-20.7-7.1c-0.7-0.6-1.3-1.2-2-1.9c1.7,0,3.5-0.1,5.4-0.2
	c6.6-0.6,13.2-2.3,19.5-4.7c2.3,5.8,4,10.2,5,12.6C94.7,112.8,94.1,113,93.5,113.2z M95.5,112.5c-0.8-2.5-2.3-7.1-4.2-13
	c8.7-3.6,16.7-8.8,22.6-14.7c-0.3,2-0.7,3.9-1.3,5.7c-2.1,7.3-5.6,14.5-10.1,18.9C100.2,110.6,97.9,111.6,95.5,112.5z"/>
<g id="entxt">
	<path class="st0" d="M167.5,102.3c0,1.3,0,2.3,0.1,2.9h-0.1c0-0.1-0.3-0.5-0.8-1.3l-9.9-15.6H154v19.4h2.1V93.4
		c0-1.3,0-2.2-0.1-2.6h0.1c0.2,0.4,0.4,0.8,0.6,1.2l10.2,15.7h2.7V88.3h-2.1V102.3z"/>
	<path class="st0" d="M179.7,93.6c-1.8,0-3.3,0.7-4.5,2.1c-1.2,1.3-1.8,3.1-1.8,5.2c0,2.3,0.6,4,1.7,5.3c1.1,1.3,2.7,1.9,4.6,1.9
		c2,0,3.6-0.5,4.8-1.4v-2c-1.3,1.1-2.7,1.6-4.3,1.6c-1.4,0-2.5-0.4-3.3-1.3s-1.3-2.1-1.3-3.7h9.8v-1c0-2.1-0.5-3.7-1.5-4.9
		C182.9,94.2,181.5,93.6,179.7,93.6z M175.6,99.5c0.2-1.3,0.7-2.3,1.5-3c0.8-0.7,1.7-1.1,2.7-1.1c1.1,0,2,0.4,2.6,1.1
		c0.6,0.7,0.9,1.7,0.9,3H175.6z"/>
	<path class="st0" d="M195,93.5c-2.1,0-3.8,0.6-5.1,2s-1.9,3.2-1.9,5.5c0,2.1,0.6,3.8,1.7,5.1c1.3,1.3,2.9,1.9,4.9,1.9
		c2.1,0,3.7-0.7,5-2c1.3-1.3,1.9-3.1,1.9-5.3s-0.5-4-1.7-5.3C198.6,94.1,197,93.5,195,93.5z M198.2,104.9c-0.8,0.9-1.9,1.4-3.4,1.4
		c-1.4,0-2.5-0.6-3.4-1.5c-0.9-0.9-1.3-2.3-1.3-3.9c0-1.7,0.4-3.1,1.3-4c0.8-1,2-1.5,3.4-1.5c1.5,0,2.6,0.4,3.4,1.4s1.2,2.3,1.2,4.1
		C199.4,102.6,199,103.9,198.2,104.9z"/>
	<polygon class="st0" points="226.3,88.4 226.3,88.3 226.2,88.4 	"/>
	<path class="st0" d="M218.4,103.9c-0.2,0.6-0.3,1.2-0.4,1.7h-0.1c-0.1-0.7-0.2-1.2-0.4-1.7L212,88.3h-2.4l7.1,19.5h2.4l7.2-19.4
		H224L218.4,103.9z"/>
	<path class="st0" d="M229.9,87.4c-0.4,0-0.7,0.1-1,0.4s-0.4,0.6-0.4,1c0,0.4,0.1,0.8,0.4,1c0.3,0.3,0.6,0.4,1,0.4
		c0.4,0,0.7-0.1,1-0.4c0.3-0.3,0.4-0.6,0.4-1c0-0.4-0.1-0.7-0.4-1C230.6,87.5,230.3,87.4,229.9,87.4z"/>
	<rect x="228.8" y="93.8" class="st0" width="2.1" height="13.9"/>
	<path class="st0" d="M234.6,104.9c0.1,0,0.1,0.1,0.2,0.1v-0.1H234.6z"/>
	<path class="st0" d="M239.9,100c-1.2-0.5-2-0.9-2.4-1.2c-0.3-0.3-0.5-0.8-0.5-1.4c0-0.6,0.3-1.1,0.8-1.5c0.5-0.4,1.2-0.6,2-0.6
		c1.3,0,2.5,0.3,3.5,1v-2.2c-0.9-0.4-2-0.6-3.2-0.6c-1.5,0-2.8,0.4-3.8,1.1s-1.5,1.7-1.5,2.9c0,0.8,0.2,1.6,0.7,2.2
		c0.5,0.6,1.5,1.2,3,1.8c1.2,0.5,2.1,0.9,2.5,1.3c0.4,0.3,0.6,0.8,0.6,1.4c0,1.3-1,2-3,2c-1.4,0-2.7-0.4-3.8-1.2v2.3
		c1,0.5,2.3,0.8,3.7,0.8c1.6,0,2.9-0.4,3.9-1.1s1.5-1.7,1.5-2.9c0-0.9-0.3-1.7-0.8-2.3C242.5,101.2,241.5,100.6,239.9,100z"/>
	<path class="st0" d="M248.3,87.4c-0.4,0-0.7,0.1-1,0.4s-0.4,0.6-0.4,1c0,0.4,0.1,0.8,0.4,1c0.3,0.3,0.6,0.4,1,0.4
		c0.4,0,0.7-0.1,1-0.4s0.4-0.6,0.4-1c0-0.4-0.1-0.7-0.4-1S248.7,87.4,248.3,87.4z"/>
	<rect x="247.2" y="93.8" class="st0" width="2.1" height="13.9"/>
	<path class="st0" d="M259.9,93.5c-2.1,0-3.8,0.7-5.1,2c-1.3,1.4-1.9,3.2-1.9,5.5c0,2.1,0.6,3.8,1.7,5.1c1.3,1.3,2.9,1.9,4.9,1.9
		c2.1,0,3.7-0.7,5-2s1.9-3.1,1.9-5.3s-0.5-4-1.7-5.3C263.5,94.1,261.9,93.5,259.9,93.5z M263.2,104.9c-0.8,0.9-1.9,1.4-3.4,1.4
		c-1.4,0-2.5-0.5-3.4-1.5c-0.9-0.9-1.3-2.3-1.3-3.9c0-1.7,0.5-3,1.3-4c0.8-1,2-1.5,3.4-1.5c1.5,0,2.6,0.4,3.4,1.4
		c0.8,1,1.2,2.3,1.2,4.1C264.4,102.6,264,103.9,263.2,104.9z"/>
	<path class="st0" d="M276.9,93.4c-2,0-3.6,0.9-4.6,2.7h-0.1v-2.3h-2.1v13.9h2.1v-7.9c0-1.3,0.4-2.3,1.1-3.2
		c0.7-0.9,1.7-1.3,2.8-1.3c2.2,0,3.3,1.5,3.3,4.5v7.9h2.1h0.1v-8.5c0-1.9-0.4-3.3-1.2-4.3S278.4,93.4,276.9,93.4z"/>
	<path class="st0" d="M297.7,88.2l-7.5,19.5h2.4l2-5.5h8.3l2.1,5.5h2.4l-7.5-19.5H297.7z M295.3,100.3l3.1-8.4
		c0.1-0.3,0.2-0.7,0.3-1.3h0.1c0.1,0.6,0.2,1.1,0.3,1.3l3.1,8.4H295.3z"/>
	<path class="st0" d="M319.6,95.7h-0.1c-0.9-1.5-2.3-2.3-4.2-2.3c-1.9,0-3.4,0.7-4.6,2.1c-1.1,1.4-1.7,3.2-1.7,5.5
		c0,2.2,0.6,3.8,1.6,5.1s2.4,1.9,4.2,1.9c2.2,0,3.8-0.9,4.8-2.7h0.1v2.4h2V87.1h-2.1V95.7z M319.7,99.4v1.9c0,1.4-0.4,2.6-1.2,3.5
		c-0.8,0.9-1.9,1.4-3.1,1.4c-1.3,0-2.3-0.4-3.1-1.4c-0.7-0.9-1.1-2.2-1.1-3.8c0-1.8,0.4-3.2,1.2-4.2s1.9-1.5,3.3-1.5
		c1.1,0,2,0.4,2.8,1.2C319.3,97.3,319.7,98.3,319.7,99.4L319.7,99.4z"/>
	<path class="st0" d="M331.1,104.1c-0.1,0.4-0.3,1-0.4,1.8h-0.1c-0.1-0.5-0.2-1.1-0.5-1.9l-3.6-10.2h-2.3l5.3,13.9h2l5.6-13.9h-2.2
		L331.1,104.1z"/>
	<path class="st0" d="M344.7,93.6c-1.8,0-3.3,0.7-4.5,2.1c-1.2,1.3-1.8,3.1-1.8,5.2c0,2.3,0.6,4,1.7,5.3c1.1,1.3,2.7,1.9,4.6,1.9
		c2,0,3.6-0.5,4.8-1.4v-2c-1.3,1.1-2.7,1.6-4.3,1.6c-1.4,0-2.5-0.4-3.3-1.3c-0.8-0.9-1.3-2.1-1.3-3.7h9.8v-1c0-2.1-0.5-3.7-1.5-4.9
		S346.5,93.6,344.7,93.6z M340.6,99.5c0.3-1.3,0.7-2.3,1.5-3c0.8-0.7,1.7-1.1,2.7-1.1c1.1,0,2,0.4,2.6,1.1c0.6,0.7,0.9,1.7,0.9,3
		H340.6z"/>
	<path class="st0" d="M357.6,94.4c-0.7,0.5-1.2,1.3-1.5,2.3H356v-2.9h-2.1v14h2.1v-7.1c0-1.5,0.3-2.8,0.9-3.7
		c0.6-0.9,1.4-1.4,2.4-1.4c0.8,0,1.3,0.1,1.7,0.4h0.2v-2.2c-0.4-0.1-0.8-0.2-1.4-0.2C359,93.6,358.3,93.9,357.6,94.4z"/>
	<path class="st0" d="M367.1,89.7l-2.1,0.7v3.4h-2.4v1.8h2.4v8.4c0,2.7,1.2,4,3.6,4c0.8,0,1.5-0.1,2-0.4v-1.9
		c-0.3,0.3-0.8,0.5-1.4,0.5c-0.7,0-1.3-0.2-1.6-0.6c-0.3-0.4-0.5-1.1-0.5-2v-8h3.5v-1.8h-3.5V89.7z"/>
	<rect x="373.6" y="93.8" class="st0" width="2.1" height="13.9"/>
	<path class="st0" d="M374.7,87.4c-0.4,0-0.7,0.1-1,0.4s-0.4,0.6-0.4,1c0,0.4,0.1,0.7,0.4,1s0.6,0.4,1,0.4c0.4,0,0.7-0.1,1-0.4
		s0.4-0.6,0.4-1c0-0.4-0.1-0.7-0.4-1S375.1,87.4,374.7,87.4z"/>
	<path class="st0" d="M379.4,104.9c0.1,0,0.1,0.1,0.2,0.1v-0.1H379.4z"/>
	<path class="st0" d="M384.7,100c-1.2-0.5-2.1-0.9-2.4-1.2s-0.5-0.8-0.5-1.4c0-0.6,0.3-1.1,0.8-1.5c0.5-0.4,1.2-0.6,2-0.6
		c1.3,0,2.5,0.3,3.5,1v-2.2c-0.9-0.4-2-0.6-3.2-0.6c-1.5,0-2.8,0.4-3.8,1.1c-1,0.7-1.5,1.7-1.5,2.9c0,0.8,0.2,1.6,0.7,2.2
		c0.5,0.6,1.5,1.2,3,1.8c1.2,0.5,2.1,0.9,2.5,1.3c0.4,0.3,0.6,0.8,0.6,1.4c0,1.3-1,2-3,2c-1.4,0-2.7-0.4-3.8-1.2v2.3
		c1,0.5,2.3,0.8,3.7,0.8c1.6,0,2.9-0.4,3.9-1.1s1.5-1.7,1.5-2.9c0-0.9-0.3-1.7-0.8-2.3C387.3,101.2,386.3,100.6,384.7,100z"/>
	<path class="st0" d="M397.3,93.6c-1.8,0-3.3,0.7-4.5,2.1c-1.2,1.3-1.8,3.1-1.8,5.2c0,2.3,0.6,4,1.7,5.3c1.1,1.3,2.7,1.9,4.6,1.9
		c2,0,3.6-0.5,4.8-1.4v-2c-1.3,1.1-2.7,1.6-4.3,1.6c-1.4,0-2.5-0.4-3.3-1.3c-0.8-0.9-1.3-2.1-1.3-3.7h9.8v-1c0-2.1-0.5-3.7-1.5-4.9
		S399.1,93.6,397.3,93.6z M393.3,99.5c0.3-1.3,0.7-2.3,1.5-3c0.8-0.7,1.7-1.1,2.7-1.1c1.1,0,2,0.4,2.6,1.1c0.6,0.7,0.9,1.7,0.9,3
		H393.3z"/>
	<path class="st0" d="M421.5,93.5c-2,0-3.6,1-4.6,2.9c-0.3-0.9-0.8-1.6-1.5-2.1c-0.7-0.5-1.5-0.8-2.4-0.8c-1.9,0-3.3,0.8-4.3,2.5
		h-0.1v-2.2h-2.1v13.9h2.1v-7.9c0-1.3,0.4-2.4,1-3.2c0.7-0.9,1.5-1.3,2.5-1.3c2.1,0,3.2,1.4,3.2,4.2v8.2h2.1v-7.9
		c0-1.3,0.3-2.3,1-3.2c0.7-0.9,1.6-1.3,2.5-1.3c1.1,0,1.9,0.4,2.4,1s0.7,1.8,0.7,3.4v8h2.1v-8.5C426.1,95.4,424.6,93.5,421.5,93.5z"
		/>
	<path class="st0" d="M435.7,93.6c-1.8,0-3.3,0.7-4.5,2.1c-1.2,1.3-1.8,3.1-1.8,5.2c0,2.3,0.6,4,1.7,5.3c1.1,1.3,2.7,1.9,4.6,1.9
		c2,0,3.6-0.5,4.8-1.4v-2c-1.3,1.1-2.7,1.6-4.3,1.6c-1.4,0-2.5-0.4-3.3-1.3c-0.8-0.9-1.3-2.1-1.3-3.7h9.8v-1c0-2.1-0.5-3.7-1.5-4.9
		S437.5,93.6,435.7,93.6z M431.6,99.5c0.3-1.3,0.7-2.3,1.5-3c0.8-0.7,1.7-1.1,2.7-1.1c1.1,0,2,0.4,2.6,1.1c0.6,0.7,0.9,1.7,0.9,3
		H431.6z"/>
	<path class="st0" d="M451.7,93.4c-2,0-3.6,0.9-4.6,2.7H447v-2.3h-2.1v13.9h2.1v-7.9c0-1.3,0.4-2.3,1.1-3.2c0.7-0.9,1.7-1.3,2.8-1.3
		c2.2,0,3.3,1.5,3.3,4.5v7.9h2.1h0.1v-8.5c0-1.9-0.4-3.3-1.2-4.3S453.2,93.4,451.7,93.4z"/>
	<path class="st0" d="M463.4,89.7l-2.1,0.7v3.4h-2.4v1.8h2.4v8.4c0,2.7,1.2,4,3.6,4c0.8,0,1.5-0.1,2-0.4v-1.9
		c-0.3,0.3-0.8,0.5-1.4,0.5c-0.7,0-1.3-0.2-1.6-0.6c-0.3-0.4-0.5-1.1-0.5-2v-8h3.5v-1.8h-3.5V89.7z"/>
</g>
<g id="chtxt">
	<path class="st0" d="M184.7,45.2h-6.8v-9.3c4.2-0.5,8.5-1.5,11.3-2.4c1.4,0.5,2.3,0.4,2.8-0.1l-5.7-4.5c-1.8,1.6-5.1,3.8-8.2,5.5
		l-5.4-1.7v13.6c-1.7-1.6-4.3-3.8-4.3-3.8l-2.5,3.4h-3.2c2.1-2,4.1-4.4,5.4-6.2c1,0.1,1.5-0.2,1.7-0.8l-5.6-1.7h5.9
		c0.6,0,1.1-0.2,1.2-0.7c-1.6-1.6-4.4-3.9-4.4-3.9l-2.4,3.3h-3c2.6-1.1,3-5.9-5.4-7.1l-0.4,0.2c1.2,1.6,2.4,4,2.5,6.2
		c0.4,0.2,0.7,0.5,1.1,0.6h-9.7l0.4,1.3h3.1l-0.3,0.1c0.9,2.1,1.9,5.1,1.9,7.6c3.4,3.5,8.2-3.5-1.2-7.7h9.7
		c-0.4,2.6-1.3,6.1-2.1,8.7h-12.4l0.4,1.3h8.4v5.5h-7.9l0.4,1.3h7.5v3.4l-4.4-1.9c-0.5,3.8-1.9,9.4-4.1,13.1l0.5,0.5
		c3.6-2.7,6.3-6.9,8-10.2h0.4v13.3h0.9c2.7,0,4.3-0.9,4.3-1.2V56.5c1.3,2.3,2.4,5.5,2.4,8.3c3.7,3.7,8.3-4.3-2-8.7l-0.4,0.2v-2.4
		h7.6c0.6,0,1.1-0.2,1.2-0.7c-1.6-1.5-4.3-3.8-4.3-3.8l-2.4,3.3H163v-5.5h8.8c0.4,0,0.8-0.1,1-0.3v1.3c0,8.5-0.7,16.9-6.4,23.6
		l0.5,0.5c10.3-6.1,11.1-15.7,11.1-24v-1.7h4.4v25.6h0.9c2.8,0,4.4-1.1,4.4-1.4V46.6h4c0.6,0,1.1-0.2,1.2-0.7
		c-2-1.9-5.3-4.6-5.3-4.6L184.7,45.2z"/>
	<path class="st0" d="M231.6,69.3h-4.9v-8.2h9.8c0.7,0,1.2-0.2,1.3-0.7c-1.8-1.8-4.9-4.4-4.9-4.4l-2.8,3.8h-3.4v-7.3h4.6v2h0.9
		c1.9,0,4.4-1.2,4.4-1.6V34.8c1-0.2,1.6-0.6,1.9-1l-5.1-4l-2.5,2.8h-13.5l-5.6-2.2v3.1c-1.8-1.6-4-3.5-4-3.5l-2.8,3.8h-9.9l0.4,1.3
		h4.6v11.5h-5l0.4,1.3h4.6v13c-2.4,0.6-4.4,1.2-5.6,1.4l2.5,6.1c0.5-0.2,1-0.7,1.1-1.3c6.4-3.8,11-6.9,13.9-9.1l-0.2-0.5
		c-2.1,0.7-4.3,1.3-6.3,1.9V48h5.2c0.5,0,0.9-0.2,1.1-0.5v8.1h0.8c2.2,0,4.4-1.2,4.4-1.8v-1.3h4.4v7.4h-9.9l0.4,1.3h9.5v8.2h-14
		l0.4,1.3h30.6c0.6,0,1.1-0.2,1.2-0.7c-1.9-1.9-5.2-4.8-5.2-4.8L231.6,69.3z M226.7,33.9h4.6v8h-4.6V33.9z M226.7,43.1h4.6v8h-4.6
		V43.1z M211.7,47c-1.3-1.7-3.8-4.1-3.8-4.1l-2.3,3.6h-0.1V35.1h6h0.2V47z M221.4,51.1H217v-8h4.4V51.1z M221.4,41.9H217v-8h4.4
		V41.9z"/>
	<path class="st0" d="M261.2,55.9l-0.4,0.3c1.6,2,3.3,5.1,3.5,7.8C268.7,67.7,273.5,58.7,261.2,55.9z"/>
	<path class="st0" d="M268.6,54.6v-1.5h8.1v3h0.9c1.8,0,4.5-1,4.5-1.4V34.8c1-0.2,1.6-0.6,1.9-1l-5.2-4l-2.5,2.8h-7.5l-5.3-2.2v26
		h0.7C266.4,56.4,268.6,55.2,268.6,54.6z M268.6,33.9h8.1v5h-8.1V33.9z M268.6,40.3h8.1v5h-8.1V40.3z M268.6,46.6h8.1v5.2h-8.1V46.6
		z"/>
	<path class="st0" d="M247.6,58.2c0.1,2.8-1.7,5.3-3.4,6.3c-1.4,0.7-2.4,2-1.9,3.7c0.6,1.8,2.8,2.2,4.4,1.2c2.3-1.3,4-5.4,1.5-11.3
		L247.6,58.2z"/>
	<path class="st0" d="M274.6,65.6l-0.1-4.9H274c-1,2.5-1.6,4.2-2.2,4.9c-0.4,0.4-0.7,0.6-1.4,0.6c-0.8,0-2.6,0-4.6,0H260
		c-1.7,0-1.9-0.2-1.9-0.8v-6.3c0.9-0.2,1.4-0.6,1.4-1.2l-6.9-0.6v9.1c0,3.6,1.2,4.4,6.5,4.4h6.1c9.3,0,11.5-0.7,11.5-3.1
		C276.7,66.8,276.3,66.2,274.6,65.6z"/>
	<path class="st0" d="M255.1,55.3L255.1,55.3l0-12.4c1.3,1.7,2.3,4,2.5,6.2c4.3,3.4,8.7-5-2.5-7.6v-3.6h6.8c0.6,0,1.1-0.2,1.2-0.7
		c-1.7-1.8-4.6-4.3-4.6-4.3l-2.5,3.7h-0.9v-6.1c1.2-0.2,1.5-0.6,1.6-1.2l-6.8-0.7v8h-8.1l0.4,1.3h6.2c-1.3,6-3.7,12.2-7.3,16.6
		l0.5,0.6c3.3-2.3,6.1-5,8.3-8.1v9.9h1C252.8,56.9,255.1,55.8,255.1,55.3z"/>
	<path class="st0" d="M275,57.7l-0.4,0.3c2.2,2.5,4.2,6.5,4.4,10C284,72.1,288.8,61.6,275,57.7z"/>
	<path class="st0" d="M328.4,34.9c0.7,0,1.2-0.2,1.3-0.7c-1.9-1.8-5-4.3-5-4.3l-2.8,3.7h-15.2l0.4,1.3H328.4z"/>
	<path class="st0" d="M302.9,33.3c1.1,0.2,1.5,0,1.8-0.5l-6.2-3.9c-2,3.8-6.2,9.5-10.2,13.2l0.4,0.5
		C294.2,40.2,299.6,36.4,302.9,33.3z"/>
	<path class="st0" d="M323.3,44.3h-19.2l0.4,1.3h13.3v19.5c0,0.6-0.4,0.9-1.2,0.9c-1.4,0-8.2-0.4-8.2-0.4v0.6
		c3.2,0.5,4.5,1.1,5.5,1.9c1,0.8,1.4,2.1,1.5,3.9c6.9-0.5,8-3.1,8-6.8V45.5h6.7c0.7,0,1.2-0.2,1.3-0.7c-1.9-1.8-5.2-4.4-5.2-4.4
		L323.3,44.3z"/>
	<path class="st0" d="M303.8,42.8c1.1,0.1,1.6-0.2,1.8-0.6l-6.5-3.8c-2.2,4.8-7,12.4-11.8,17.4l0.4,0.5c2.4-1.4,4.8-3,7-4.8v20.9h1
		c2,0,4.3-1,4.4-1.4V48.8c0.8-0.2,1.2-0.5,1.4-0.9l-1.9-0.7C301.2,45.7,302.6,44.2,303.8,42.8z"/>
	<path class="st0" d="M346.8,61.6l0.7,0.3c1.7-1.9,3.1-4.8,4.3-7.3c1,0,1.5-0.4,1.7-1l-5.4-1.6C347.8,55.3,347.3,59.1,346.8,61.6z"
		/>
	<path class="st0" d="M335.8,52.2l-0.6,0.2c0.8,2.5,1.5,6.1,1.3,9.1C339.6,64.9,343.9,58.1,335.8,52.2z"/>
	<path class="st0" d="M352.8,62.5c-2.2,0.4-4.4,0.8-6.5,1.2V50.8h6.4c0.6,0,1.1-0.2,1.2-0.7c-1.7-1.6-4.4-4-4.4-4l-2.5,3.4h-0.8
		v-6.4h4.1c0.6,0,1.1-0.2,1.2-0.7c-1.6-1.6-4.4-3.8-4.4-3.8l-2.5,3.2h-6.4c2.7-2.9,5-6.4,6.4-9.4c1.9,2.3,3.3,5,3.8,6.8
		c3.8,3.2,9.8-4.5-3.4-7.8v-0.1c1.2-0.1,1.7-0.5,1.8-1.1l-7.2-1.6c-0.8,4.5-3.2,12.1-5.8,16.5l0.5,0.3c1-0.8,1.9-1.7,2.9-2.7
		l0.1,0.3h4v6.4h-6.9l0.4,1.3h6.5v13.7c-3,0.5-5.5,0.9-7,1.1l2.4,5.7c0.5-0.2,1-0.6,1.2-1.2c6.8-2.9,11.6-5.3,14.8-7L352.8,62.5z"/>
	<path class="st0" d="M369.4,43.6h-2.1V30.7c1.1-0.2,1.4-0.6,1.5-1.2l-6.5-0.6v14.6H360l-5.6-2v10.7c0,6.5-0.3,14-4,19.9l0.4,0.4
		c5.2-3.6,7.2-8.5,8-13.3l2.1,4.8c0.5-0.2,1-0.7,1.1-1.3c3.2-2,5.8-3.8,7.9-5.4v8.3c0,0.6-0.2,0.9-0.9,0.9c-1.1,0-4.9-0.3-4.9-0.3
		v0.6c2,0.3,2.9,0.9,3.5,1.7c0.6,0.7,0.8,2,0.9,3.6c5.7-0.6,6.4-2.6,6.4-6.1V45.8c0.9-0.2,1.6-0.6,1.9-1l-5.1-3.9L369.4,43.6z
		 M369.9,55.2c-4.2,1.2-8.4,2.2-11,2.7c0.3-2,0.3-4,0.3-5.8h0.1v-1.5c3.4,1.1,6.3,2.5,7.7,3.6c4.3,0.7,4.8-7.4-7.7-5v-4.3h10.6V55.2
		z"/>
	<path class="st0" d="M353.6,31.8l-0.5,0.3c1.4,2.2,3,5.5,3.1,8.3C360.3,44,364.8,35.6,353.6,31.8z"/>
	<path class="st0" d="M368.5,41.4l0.6,0.5c2.4-2.1,4.9-4.8,6.8-6.5c1.1,0.1,1.5-0.1,1.8-0.6l-5.9-3.6
		C371.3,33.7,369.7,38.3,368.5,41.4z"/>
	<path class="st0" d="M416,32h-27.8l-5.5-2.3v42.7h0.9c2.2,0,4.2-1.2,4.2-1.9v-1.1h28.6v2.5h0.8c1.8,0,4.2-1.3,4.3-1.7v-36
		c0.9-0.2,1.6-0.6,1.9-1l-4.9-4L416,32z M416.3,68h-28.6V33.3h28.6V68z"/>
	<path class="st0" d="M409.9,55.2l-6-0.5v3h-15.8l0.4,1.3h4c1,1.1,2.1,2.9,2.2,4.5c3.3,2.5,6.8-2.9,0.5-4.5h8.7v3.1
		c0,0.4-0.1,0.6-0.7,0.6c-0.7,0-4-0.2-4-0.2V63c1.8,0.2,2.5,0.7,3,1.2c0.5,0.6,0.7,1.5,0.7,2.7c4.9-0.5,5.5-1.9,5.5-4.9v-3.1h6.4
		c0.6,0,1.1-0.2,1.2-0.7c-1.1-0.9-2.6-2.2-3.4-2.8c2.2-0.3,3.7-3.6-3.1-4.6c1.3-0.2,2.9-0.8,2.9-1.1h-0.1v-6.5
		c0.7,0,1.2-0.4,1.4-0.6l-4.1-3.1l-1.9,2H404v-2.4h9.9c0.6,0,1.1-0.2,1.2-0.7c-1.5-1.4-4-3.3-4-3.3l-2.2,2.7h-5V36
		c1-0.2,1.3-0.5,1.4-1.1l-5.8-0.6v3.4h-10.8l0.4,1.3h10.5v2.4H396l-4.5-1.8v12.1h0.6c1.8,0,3.7-0.9,3.7-1.2v-0.2h3.8v2.3
		c-4.7,0-8.5,0-10.9,0l2.3,4c0.5-0.1,0.9-0.4,1.2-1c7.7-0.9,13.3-1.5,17.3-2.1c0.4,0.4,0.8,0.8,1,1.2c0.3,0.4,0.8,0.6,1.2,0.7
		l-1.8,2.3h-1.6v-1.3C409.3,56.2,409.8,55.9,409.9,55.2z M395.8,42.7h3.8v2.4h-3.8V42.7z M399.6,48.9h-3.8v-2.5h3.8V48.9z
		 M404.1,42.7h4v2.4h-4V42.7z M404,46.4h4v2.5h-4V46.4z M404.1,52.4L404.1,52.4l-0.1-2.1h4v0.4c-0.6-0.1-1.3-0.1-2-0.1l-0.2,0.6
		c1,0.4,1.8,0.7,2.4,1.2H404.1z"/>
	<path class="st0" d="M445.4,28.9l-0.4,0.2c1.6,1.9,3.5,4.9,3.9,7.4C453.5,39.8,457.6,30.8,445.4,28.9z"/>
	<path class="st0" d="M460.3,49.4c2.5-1.6,4.9-3.2,6.2-4.3c0.9,0.4,1.6,0.1,1.9-0.2l-5.1-4.7c-1.2,2.1-3.9,6.1-6.4,9.3
		c-1-2-2.4-3.8-4-5.4c2.2-1.6,4.2-3.4,5.7-5.4h9.9c0.6,0,1.1-0.2,1.2-0.7c-1.7-1.7-4.5-4.1-4.5-4.1l-2.5,3.5H458
		c2.1-1.6,4.1-3.7,5.9-5.8c1.1,0,1.7-0.3,1.9-0.9l-6.8-2.5c-0.7,3.3-1.7,6.8-2.5,9.2h-14.7l0.4,1.3h9.4c-2.3,3.7-5.9,7.5-10.2,10.1
		l0.4,0.6c3.6-1.1,6.9-2.6,9.8-4.5c-1.9,4.1-5.1,8.2-8.9,11.2c-0.2-3.6-2.4-7.7-6.9-10.6c2.3-2.9,5.1-7.8,6.7-10.6
		c1.1,0,1.7-0.2,2.1-0.6l-5.1-4.8l-2.7,2.7h-2.7l-5.6-2.1v42.3h0.9c2.6,0,4.1-1.3,4.1-1.6V59.1c1,0.3,1.7,0.6,2,1.1
		c0.4,0.7,0.6,2.7,0.6,4.1c5.1-0.1,6.9-2.6,6.9-7c4.3-1.5,8.3-3.9,11.3-6.5c0,0.5,0.1,0.9,0.2,1.3c-3.1,5.2-8.1,10.4-13.5,13.9
		l0.3,0.5c5.1-1.8,10.1-4.5,13.8-7.5c0,3.3-0.6,6.1-1.4,7.3c-0.2,0.5-0.8,0.6-1.4,0.6c-1.2,0-4.5-0.2-6.4-0.4v0.6
		c1.9,0.5,3.4,1.1,4,1.7c0.6,0.7,1,1.8,1,3.4c3.4,0,5.7-0.5,6.9-2c2.8-3.3,3.4-11.8-0.1-19.2c0.6-0.4,1.3-0.7,1.9-1.1
		c1.1,7.9,3.1,13.7,7.1,17.6c0.6-2.4,1.9-3.9,3.7-4.3v-0.5C465.9,60.4,462.2,55.4,460.3,49.4z M437,58.3c-0.3,0.1-0.5,0.2-1,0.2
		h-2.5v-25h3.7c-0.6,3.7-1.7,9.1-2.5,12.2c2.3,3.1,3.2,6.7,3.2,9.9C437.9,57.1,437.6,57.9,437,58.3z"/>
</g>
</svg>
