<?xml version="1.0" encoding="utf-8"?>
<!-- Generator: Adobe Illustrator 24.0.3, SVG Export Plug-In . SVG Version: 6.00 Build 0)  -->
<svg version="1.1" id="logo.svg" xmlns="http://www.w3.org/2000/svg" xmlns:xlink="http://www.w3.org/1999/xlink" x="0px" y="0px"
	 viewBox="0 0 156 47" style="enable-background:new 0 0 156 47;" xml:space="preserve">
<style type="text/css">
	.st0{fill:#FFFFFF;}
</style>
<g>
	<g>
		<path class="st0" d="M19.1,14.1c-0.1,2.3-0.3,4.4-0.5,6.3c-0.7,4.4-2.3,7.7-4.7,9.7c-0.1,0.1-0.3,0.1-0.3,0
			c-0.1-0.1,0.1-0.6,0.6-1.4c1.4-3.1,2.2-7.9,2.4-14.5l-0.4,0.1H4.3l-1.7,0.2c-0.2,0.1-0.3,0-0.3-0.1l-0.3-1c0-0.1,0.1-0.2,0.3-0.1
			l1.9,0.2h5.5c0.7-1.7,1.1-3.2,1.3-4.7c0-0.2,0.1-0.3,0.2-0.3l2.4,0.4C14,9,14.3,9.2,14.3,9.4s-0.2,0.3-0.5,0.4
			c-0.2,0-0.3,0.2-0.5,0.4c-0.7,1.2-1.6,2.3-2.7,3.2h1.6c0.2,0,0.3-0.1,0.4-0.2l1.3-1.6c0.1-0.1,0.3-0.1,0.4,0
			c0.8,0.5,1.5,1.2,2,1.9l0.1,0.1v-2.3v-6c0-0.2,0.1-0.2,0.2-0.2c0.7,0.2,1.5,0.6,2.4,1c3.3-0.9,5.6-1.8,7-2.7
			c0.1-0.1,0.3-0.1,0.4-0.1C27.2,4,28,4.5,28.7,5.1C28.9,5.3,29,5.5,29,5.7c-0.1,0.1-0.3,0.2-0.6,0.2h-0.7c-2,0.5-4.9,0.9-8.6,1.2
			v0.4v4.1v1.8h5c0.2,0,0.4-0.1,0.5-0.2l1.4-1.8c0.1-0.1,0.3-0.2,0.5-0.1c1,0.6,1.8,1.3,2.4,2.2c0.1,0.2,0.2,0.3,0.1,0.4
			c-0.1,0.1-0.2,0.2-0.5,0.2h-3.2v15c0,0.4-0.2,0.7-0.6,0.9c-0.5,0.2-1.1,0.2-1.6-0.1c-0.3-0.1-0.4-0.4-0.4-0.8v-15
			C22.7,14.1,19.1,14.1,19.1,14.1z M10.2,29.1c0,0.4-0.2,0.8-0.6,0.9C9,30.2,8.5,30.2,8,29.9c-0.3-0.2-0.4-0.4-0.4-0.8v-5.9
			c-1.5,2.6-3.1,4.4-5,5.3c-0.2,0.1-0.3,0.1-0.4-0.1c0-0.1,0-0.2,0.1-0.3c1.9-1.9,3.3-4.8,4.3-8.8H4.9l-1.7,0.2
			c-0.2,0.1-0.3,0-0.3-0.1l-0.3-1c0-0.1,0.1-0.2,0.3-0.1l1.9,0.2h2.7v-2.9v-0.3c0-0.1,0.1-0.1,0.2-0.1l2.7,0.4
			c0.5,0.1,0.7,0.3,0.7,0.6l-0.9,0.9v1.5h1.1c0.2,0,0.3-0.1,0.4-0.2L13,17c0.1-0.1,0.3-0.1,0.4,0c0.8,0.5,1.4,1.1,1.9,1.9
			c0.1,0.2,0.2,0.3,0.1,0.4s-0.2,0.2-0.5,0.2h-4.8v1.3h0.1c1.9,0.4,3.3,1.3,4.1,2.7c0.2,0.5,0.3,1,0.2,1.5c-0.1,0.5-0.4,0.8-0.8,0.9
			s-0.8,0-1.2-0.2c-0.3-0.2-0.5-0.6-0.6-1.1c-0.3-1.2-0.9-2.3-1.8-3.1v7.6H10.2z M7.4,3.1C7.4,3,7.4,3,7.4,3.1c1.1,0,2,0.1,2.8,0.3
			c0.4,0.1,0.5,0.2,0.5,0.4c0,0.2-0.1,0.4-0.4,0.5C10.1,4.4,10,4.5,10,4.6v2.5h1c0.2,0,0.3-0.1,0.4-0.2l1.3-1.6
			c0.1-0.1,0.3-0.1,0.4,0c0.8,0.5,1.5,1.2,2,1.9c0.1,0.2,0.2,0.3,0.1,0.4S15,7.8,14.7,7.8H4.8L3.1,8C2.9,8.1,2.8,8,2.8,7.9l-0.3-1
			c0-0.1,0.1-0.2,0.3-0.1L4.7,7h2.6V3.1H7.4z M4.5,8.4c0.1-0.1,0.1-0.1,0.3-0.1C6.4,8.7,7.5,9.6,8,11c0.1,0.5,0,1-0.2,1.4
			s-0.5,0.7-1,0.7c-1,0.1-1.5-0.5-1.4-1.7c0-1.2-0.2-2.1-0.8-2.8C4.5,8.6,4.5,8.5,4.5,8.4z"/>
		<path class="st0" d="M37.1,14.6h-1l-1.8,0.2c-0.1,0.1-0.2,0-0.2-0.1l-0.2-1c0-0.1,0.1-0.1,0.3-0.1l2,0.2h1v-7h-0.9L34.4,7
			c-0.1,0.1-0.2,0-0.2-0.1l-0.2-1c0-0.1,0.1-0.1,0.3-0.1l2,0.2h4.6c0.1,0,0.2,0,0.3-0.2l1.1-1.4c0.2-0.2,0.3-0.2,0.5-0.1
			c0.5,0.4,1,1,1.4,1.6c0.2,0.2,0.2,0.4,0.1,0.6s-0.2,0.2-0.4,0.2h-4.1v7h0.9c0.1,0,0.6-0.5,1.4-1.5c0.1-0.2,0.3-0.2,0.5-0.1
			c0.5,0.4,0.9,0.9,1.3,1.6c0.2,0.2,0.2,0.4,0.1,0.6c-0.1,0.2-0.2,0.2-0.4,0.2h-3.8v6.8c1.3-0.3,2.6-0.7,3.9-1.2
			c0.2-0.1,0.3-0.1,0.4,0s0,0.2-0.1,0.4c-1,0.8-2.4,1.6-4,2.4l-3.3,1.5C36.2,24.6,36,24.8,36,25c-0.1,0.3-0.2,0.5-0.4,0.6
			c-0.2,0-0.4-0.1-0.6-0.6c-0.4-0.7-0.7-1.5-1-2.5c-0.1-0.2,0-0.3,0.3-0.3l2.9-0.3v-7.3H37.1z M50.4,22.6h-5.2l-1.7,0.3
			c-0.2,0.1-0.3,0-0.3-0.1l-0.3-1c0-0.1,0.1-0.2,0.3-0.1l1.9,0.2h5.2V17h-2.8v0.6c0,0.5-0.1,0.9-0.4,1.1c-0.3,0.3-0.7,0.4-1.3,0.4
			c-0.3,0-0.6-0.1-0.8-0.3c-0.2-0.1-0.2-0.4-0.2-0.7V4.5V4.3H45c0.7,0.2,1.6,0.5,2.6,0.9h6.9c0.2,0,0.4,0,0.5-0.1l0.8-0.8
			C56,4.1,56.2,4,56.4,4.1c1,0.4,1.8,0.8,2.4,1.2c0.5,0.4,0.4,0.8-0.3,1.1c-0.1,0.1-0.2,0.2-0.2,0.3v10.6c0,0.4-0.2,0.6-0.5,0.8
			c-0.3,0.2-0.7,0.3-1.2,0.3c-0.4,0-0.6-0.1-0.8-0.3c-0.1-0.1-0.2-0.3-0.2-0.5v-0.8H53v4.9h2.1c0.2,0,0.4-0.1,0.4-0.2l1.4-1.7
			c0.1-0.1,0.3-0.2,0.5,0c0.9,0.6,1.7,1.3,2.3,2.1c0.1,0.2,0.2,0.3,0.1,0.4s-0.2,0.2-0.5,0.2H53v5.4h2.7c0.2,0,0.4-0.1,0.4-0.2
			l1.4-1.7c0.1-0.1,0.3-0.2,0.5,0c0.9,0.6,1.7,1.3,2.3,2.1c0.1,0.2,0.2,0.3,0.1,0.4s-0.2,0.2-0.5,0.2H42.2L40.5,29
			c-0.2,0.1-0.3,0-0.3-0.1l-0.3-1c0-0.1,0.1-0.2,0.3-0.1l1.9,0.2h8.2v-5.4H50.4z M50.4,6h-2.8v4.9h2.8V6z M50.4,11.7h-2.8v4.5h2.8
			V11.7z M53.1,10.9h2.6V6.1C55.6,6,55.6,6,55.4,6h-2.3V10.9z M53.1,16.1h2.6v-4.5h-2.6V16.1z"/>
		<path class="st0" d="M74,18.2c0,0.4-0.2,0.8-0.6,0.9c-0.6,0.2-1.1,0.2-1.6-0.1c-0.3-0.2-0.4-0.4-0.4-0.8v-5.1
			c-1.6,2.4-3.3,3.9-5,4.7c-0.2,0.1-0.3,0.1-0.4-0.1c0-0.1,0-0.2,0.1-0.3c2-1.8,3.5-4.6,4.7-8.5h-2l-1.7,0.3c-0.2,0.1-0.3,0-0.3-0.1
			l-0.3-1c0-0.1,0.1-0.2,0.3-0.1l1.9,0.2h2.6V3.9V3.7c0-0.1,0.1-0.1,0.2-0.1L74.2,4c0.5,0.1,0.7,0.3,0.7,0.6L74,5.4v2.8h0.9
			c0.2,0,0.3-0.1,0.4-0.2l1.3-1.5c0.1-0.1,0.3-0.1,0.4,0c0.8,0.5,1.4,1.1,1.9,1.9C79,8.6,79.1,8.7,79,8.8C79,8.9,78.8,9,78.6,9H74
			v1.5l0.4,0.1c1.7,0.3,2.9,1.1,3.6,2.2c0.2,0.4,0.3,0.9,0.3,1.4c-0.1,0.5-0.3,0.8-0.8,1c-0.9,0.3-1.5-0.1-1.8-1.2
			c-0.4-1.2-1-2.1-1.8-2.7v6.9H74z M70.1,21.4c0.1,0,0.1,0.1,0.2,0.2c0.2,1.3,0.2,2.5-0.1,3.8c-0.3,1.2-0.8,2.2-1.5,2.8
			c-0.4,0.4-0.8,0.5-1.3,0.5c-0.4,0-0.8-0.2-1.1-0.5c-0.1-0.2-0.2-0.4-0.2-0.6c-0.1-0.8,0.2-1.3,1-1.7C68.5,25,69.5,23.6,70.1,21.4
			C69.9,21.4,70,21.4,70.1,21.4z M72.7,20.2c0-0.1,0.1-0.2,0.3-0.2c0.8,0,1.6,0.1,2.4,0.3c0.5,0.1,0.7,0.3,0.7,0.5l-0.7,0.9v4.2
			c0,0.2,0,0.3,0.2,0.5c0.1,0.2,0.4,0.3,0.7,0.4l0.3,0.1c4.1,0.2,6.8,0.1,8.1-0.2c0.4-0.3,0.7-1.1,1-2.7c0.1-0.2,0.1-0.3,0.3-0.3
			c0.1,0,0.2,0.1,0.3,0.3l0.2,1.6c0.1,0.5,0.3,0.8,0.6,1c0.5,0.2,0.8,0.6,0.8,1.1s-0.3,0.9-1,1.2c-0.8,0.3-1.7,0.5-2.7,0.6l-4.3,0.1
			c-2.5,0-4.2-0.2-5.1-0.5c-0.7-0.3-1.3-0.7-1.5-1.2c-0.2-0.4-0.3-0.9-0.4-1.3v-5.5L72.7,20.2z M77.3,19.7c0-0.1,0.1-0.2,0.3-0.1
			c2.6,0.5,4.3,1.5,5.1,3c0.2,0.5,0.3,1,0.2,1.6c-0.1,0.5-0.4,0.9-0.9,1c-1,0.3-1.7-0.2-1.9-1.4c-0.4-1.8-1.3-3-2.6-3.8
			C77.3,19.9,77.3,19.8,77.3,19.7z M82.4,18.3c0,0.5-0.1,0.9-0.4,1.1c-0.3,0.3-0.7,0.4-1.3,0.4c-0.3,0-0.6-0.1-0.8-0.3
			c-0.1-0.1-0.2-0.4-0.2-0.7V4.7V4.5h0.2c0.8,0.2,1.6,0.5,2.4,0.9h4c0.2,0,0.4,0,0.5-0.1l0.8-0.8c0.2-0.2,0.4-0.3,0.6-0.2
			c1.1,0.4,1.8,0.8,2.4,1.2c0.5,0.4,0.4,0.8-0.3,1.1c-0.2,0.1-0.2,0.2-0.2,0.3v11.8c0,0.4-0.2,0.6-0.5,0.8c-0.3,0.2-0.7,0.3-1.2,0.3
			c-0.4,0-0.6-0.1-0.8-0.3c-0.1-0.1-0.2-0.3-0.2-0.5v-1.3h-5.1v0.6H82.4z M87.5,9.3v-3c-0.1-0.1-0.2-0.2-0.3-0.1h-4.8v3.1H87.5z
			 M87.5,13.2V10h-5.1v3.2H87.5z M87.5,16.9V14h-5.1v2.9H87.5z M86.1,21.1c0.1-0.1,0.1-0.1,0.3-0.1h0.1c2.9,1.2,4.6,2.9,5.2,4.9
			c0.2,0.5,0.2,1.1-0.1,1.6c-0.2,0.5-0.5,0.8-1,0.9c-1.1,0.1-1.6-0.4-1.7-1.7c-0.3-2.4-1.2-4.1-2.7-5.3
			C86.2,21.4,86.1,21.3,86.1,21.1z"/>
		<path class="st0" d="M110.1,6.1V3.2c0-0.1,0-0.1,0.2-0.1c1,0.1,2,0.2,2.8,0.4c0.4,0.1,0.5,0.3,0.5,0.4c0,0.3-0.2,0.4-0.5,0.5
			c-0.2,0.1-0.3,0.2-0.3,0.3v1.4h5.7c0.2,0,0.4-0.1,0.5-0.2l1.4-1.8c0.1-0.1,0.3-0.2,0.5-0.1c1,0.6,1.8,1.3,2.4,2.2
			c0.1,0.1,0.2,0.3,0.1,0.4c-0.1,0.1-0.2,0.2-0.5,0.2H102v4.3c0,3.2-0.2,6.2-0.5,8.9c-0.6,4.4-1.9,7.6-4,9.6c-0.2,0.1-0.3,0.1-0.4,0
			c-0.1-0.1,0.1-0.6,0.4-1.4c1.1-3.6,1.7-9.3,1.7-17.1v-6c0-0.2,0.1-0.2,0.2-0.2c0.8,0.3,1.7,0.6,2.7,1.2
			C102.1,6.1,110.1,6.1,110.1,6.1z M108.9,25.9l2,1.6c0.3,0.3,0.4,0.5,0.3,0.7c-0.1,0.2-0.3,0.2-0.6,0.1c-0.1-0.1-0.4,0-0.7,0.1
			c-2.6,1.2-5.5,1.9-8.7,1.9c-0.2,0-0.3-0.1-0.3-0.2c0-0.2,0.1-0.3,0.5-0.3c3.1-0.8,5.6-2.1,7.2-3.9
			C108.7,25.9,108.8,25.8,108.9,25.9z M117.2,18c0.1,0,0.2-0.1,0.3-0.2l0.7-0.7l0.3-0.1c0.9,0.3,1.7,0.7,2.4,1.3
			c0.5,0.4,0.4,0.7-0.2,1c-0.2,0.1-0.3,0.2-0.3,0.5v5.3c0,0.3-0.2,0.6-0.4,0.8c-0.3,0.2-0.8,0.3-1.4,0.3c-0.4,0-0.7-0.1-0.8-0.3
			c-0.1-0.2-0.2-0.4-0.2-0.8v-0.2h-10.8v0.2c0,0.5-0.2,0.8-0.5,1c-0.4,0.2-0.8,0.3-1.3,0.4c-0.4,0-0.6-0.1-0.9-0.3
			c-0.1-0.1-0.2-0.3-0.2-0.7v-8.4c0-0.2,0-0.2,0.1-0.2c1.1,0.3,2.1,0.6,2.8,1.1h3.8v-2.1h-6.1l-1.7,0.3c-0.2,0.1-0.3,0-0.3-0.1
			l-0.3-1c0-0.1,0.1-0.2,0.3-0.1l1.9,0.2H118c0.2,0,0.4-0.1,0.5-0.2l1.4-1.8c0.1-0.1,0.3-0.2,0.5-0.1c1,0.6,1.8,1.3,2.4,2.2
			c0.1,0.1,0.2,0.3,0.1,0.4c-0.1,0.1-0.2,0.2-0.5,0.2h-9.2V18H117.2z M109.3,13.3v0.2c0,0.4-0.2,0.7-0.5,0.9c-0.5,0.2-1.1,0.2-1.6,0
			c-0.3-0.2-0.5-0.4-0.5-0.8v-2.8h-1.2l-1.7,0.3c-0.2,0.1-0.3,0-0.3-0.1l-0.3-1c0-0.1,0.1-0.2,0.3-0.1l1.9,0.2h1.2V7.7
			c0-0.1,0.1-0.1,0.2-0.1l2.4,0.4c0.5,0.1,0.7,0.3,0.7,0.5l-0.7,0.9V10h5.5V7.7c0-0.1,0.1-0.1,0.2-0.1l2.5,0.4
			c0.5,0.1,0.7,0.3,0.7,0.5l-0.7,0.9V10h0.6c0.2,0,0.3-0.1,0.4-0.2l1.3-1.5c0.1-0.1,0.3-0.1,0.4,0c0.8,0.5,1.4,1.1,1.9,1.9
			c0.1,0.1,0.2,0.3,0.1,0.4c-0.1,0.1-0.2,0.2-0.5,0.2h-4.2v2.7c0,0.4-0.2,0.7-0.5,0.9c-0.5,0.2-1.1,0.2-1.7,0
			c-0.3-0.2-0.5-0.4-0.5-0.8v-0.3C114.7,13.3,109.3,13.3,109.3,13.3z M110.9,18.8h-4V21h4V18.8z M110.9,21.8h-4v2.4h4V21.8z
			 M114.8,10.8h-5.5v1.8h5.5V10.8z M113.6,21h4v-2.1c-0.1-0.1-0.2-0.2-0.3-0.1h-3.7V21z M113.6,24.1h4v-2.4h-4V24.1z M113.8,26.4
			c0-0.1,0.1-0.2,0.3-0.1c1.9,0,3.6,0.2,5.2,0.7c1.7,0.4,2.7,1.1,3,2c0.1,0.4,0,0.7-0.2,1c-0.3,0.3-0.6,0.5-1,0.4s-0.8-0.3-1.3-0.6
			c-1.5-1.2-3.4-2.3-5.7-3.2C113.9,26.6,113.8,26.5,113.8,26.4z"/>
		<path class="st0" d="M140.5,9.7h-5.4l-0.3,0.5c-1.4,2-2.9,3.4-4.5,4.2c-0.2,0.1-0.3,0.1-0.4,0c-0.1-0.1,0-0.2,0.1-0.3
			c2.1-2.1,3.5-5.3,4.2-9.5c0-0.2,0.2-0.2,0.4-0.2c1.1,0.2,2.1,0.6,3,1.2c0.3,0.2,0.4,0.4,0.3,0.6c-0.1,0.3-0.3,0.4-0.7,0.4
			c-0.2,0-0.4,0.1-0.5,0.4l-1.2,2.1h4.9V3.3c0-0.1,0-0.1,0.2-0.1c1,0.1,2,0.2,2.8,0.4c0.4,0.1,0.5,0.3,0.5,0.4
			c0,0.3-0.2,0.4-0.5,0.5c-0.2,0.1-0.3,0.2-0.3,0.3v4h3.5c0.2,0,0.4-0.1,0.5-0.3l1.5-1.8c0.2-0.2,0.3-0.2,0.5-0.1
			c1,0.6,1.9,1.4,2.5,2.3c0.1,0.2,0.2,0.3,0.1,0.4c-0.1,0.1-0.2,0.2-0.5,0.2H143V15h6.6c0.2,0,0.4-0.1,0.5-0.3l1.5-1.8
			c0.2-0.2,0.3-0.2,0.5-0.1c1,0.6,1.8,1.4,2.5,2.3c0.1,0.2,0.2,0.3,0.1,0.4c-0.1,0.1-0.2,0.2-0.5,0.2H131l-1.7,0.2
			c-0.2,0.1-0.3,0-0.3-0.1l-0.3-1c0-0.1,0.1-0.2,0.3-0.1l1.9,0.2h9.2V9.7H140.5z M135.6,29c0,0.5-0.2,0.8-0.5,1
			c-0.4,0.2-0.8,0.3-1.3,0.4c-0.4,0-0.6-0.1-0.9-0.2c-0.1-0.1-0.2-0.3-0.2-0.7V19c0-0.2,0-0.2,0.1-0.2c1.1,0.3,2.1,0.6,2.8,1.1h11.2
			c0.2,0,0.4,0,0.6-0.1l0.8-0.8c0.2-0.2,0.4-0.3,0.6-0.2c1.1,0.4,1.9,0.8,2.4,1.2c0.6,0.5,0.5,0.9-0.3,1.2c-0.1,0.1-0.2,0.2-0.2,0.3
			v7.9c0,0.4-0.2,0.7-0.5,0.9c-0.3,0.2-0.7,0.3-1.3,0.3c-0.4,0-0.7-0.1-0.8-0.3c-0.1-0.1-0.2-0.3-0.2-0.6v-1.3h-12.4L135.6,29
			L135.6,29z M147.9,27.5v-6.8c-0.1-0.1-0.2-0.2-0.3-0.1h-12.1v6.9H147.9z"/>
	</g>
	<g>
		<path class="st0" d="M10.8,44.4H9.5l-4.9-7.6c-0.1-0.2-0.2-0.4-0.3-0.6l0,0c0,0.2,0,0.6,0,1.3v6.9h-1V35h1.4l4.8,7.5
			c0.2,0.4,0.4,0.6,0.4,0.6l0,0c0-0.3-0.1-0.8-0.1-1.4V35h1V44.4z"/>
		<path class="st0" d="M18.5,41.3h-4.8c0,0.8,0.2,1.4,0.6,1.8c0.4,0.4,0.9,0.6,1.6,0.6c0.8,0,1.5-0.3,2.1-0.8v1
			c-0.6,0.4-1.4,0.7-2.3,0.7s-1.7-0.3-2.2-0.9c-0.5-0.6-0.8-1.5-0.8-2.6c0-1,0.3-1.9,0.9-2.5c0.6-0.7,1.3-1,2.2-1
			c0.9,0,1.5,0.3,2,0.9c0.5,0.6,0.7,1.4,0.7,2.4L18.5,41.3L18.5,41.3z M17.5,40.4c0-0.6-0.2-1.1-0.5-1.5s-0.7-0.5-1.3-0.5
			c-0.5,0-0.9,0.2-1.3,0.5s-0.6,0.8-0.7,1.5H17.5z"/>
		<path class="st0" d="M19.7,41.1c0-1.1,0.3-2,0.9-2.6s1.4-1,2.5-1c1,0,1.8,0.3,2.3,0.9c0.6,0.6,0.8,1.5,0.8,2.6s-0.3,1.9-0.9,2.6
			s-1.4,1-2.4,1s-1.8-0.3-2.3-0.9C20,43,19.7,42.2,19.7,41.1z M20.8,41.1c0,0.8,0.2,1.4,0.6,1.9s1,0.7,1.7,0.7s1.3-0.2,1.6-0.7
			c0.4-0.5,0.6-1.1,0.6-1.9c0-0.9-0.2-1.5-0.6-2s-0.9-0.7-1.6-0.7s-1.3,0.2-1.7,0.7C21,39.6,20.8,40.3,20.8,41.1z"/>
		<path class="st0" d="M38.2,35l-3.5,9.4h-1.1L30.2,35h1.2l2.7,7.5c0.1,0.2,0.1,0.5,0.2,0.8l0,0c0-0.3,0.1-0.5,0.2-0.8l2.7-7.5H38.2
			z"/>
		<path class="st0" d="M39.3,35.3c0-0.2,0.1-0.4,0.2-0.5s0.3-0.2,0.5-0.2s0.4,0.1,0.5,0.2c0.1,0.1,0.2,0.3,0.2,0.5s-0.1,0.3-0.2,0.5
			C40.4,35.9,40.2,36,40,36s-0.3-0.1-0.5-0.2S39.3,35.5,39.3,35.3z M39.5,44.4v-6.7h1v6.7H39.5z"/>
		<path class="st0" d="M42.3,43.1c0.6,0.4,1.2,0.7,1.9,0.7c1,0,1.4-0.3,1.4-1c0-0.3-0.1-0.5-0.3-0.7c-0.2-0.2-0.6-0.4-1.2-0.6
			c-0.7-0.3-1.2-0.6-1.5-0.9c-0.2-0.3-0.4-0.7-0.4-1.1c0-0.6,0.2-1,0.7-1.4s1.1-0.5,1.8-0.5c0.6,0,1.1,0.1,1.5,0.3V39
			c-0.5-0.3-1.1-0.5-1.7-0.5c-0.4,0-0.7,0.1-1,0.3c-0.2,0.2-0.4,0.4-0.4,0.7s0.1,0.5,0.3,0.7c0.2,0.2,0.6,0.4,1.2,0.6
			c0.8,0.3,1.3,0.6,1.5,0.9s0.4,0.7,0.4,1.1c0,0.6-0.2,1.1-0.7,1.4c-0.5,0.3-1.1,0.5-1.9,0.5c-0.7,0-1.3-0.1-1.8-0.4v-1.2H42.3z"/>
		<path class="st0" d="M48.2,35.3c0-0.2,0.1-0.4,0.2-0.5s0.3-0.2,0.5-0.2s0.4,0.1,0.5,0.2c0.1,0.1,0.2,0.3,0.2,0.5s-0.1,0.3-0.2,0.5
			c-0.1,0.1-0.3,0.2-0.5,0.2s-0.3-0.1-0.5-0.2S48.2,35.5,48.2,35.3z M48.4,44.4v-6.7h1v6.7H48.4z"/>
		<path class="st0" d="M51.1,41.1c0-1.1,0.3-2,0.9-2.6s1.4-1,2.5-1c1,0,1.8,0.3,2.3,0.9s0.8,1.5,0.8,2.6s-0.3,1.9-0.9,2.6
			c-0.6,0.6-1.4,1-2.4,1s-1.8-0.3-2.3-0.9S51.1,42.2,51.1,41.1z M52.2,41.1c0,0.8,0.2,1.4,0.6,1.9s1,0.7,1.7,0.7s1.3-0.2,1.6-0.7
			c0.4-0.5,0.6-1.1,0.6-1.9c0-0.9-0.2-1.5-0.6-2s-0.9-0.7-1.6-0.7s-1.3,0.2-1.7,0.7S52.2,40.3,52.2,41.1z"/>
		<path class="st0" d="M65,44.4h-1v-3.8c0-1.5-0.5-2.2-1.6-2.2c-0.6,0-1,0.2-1.4,0.6s-0.5,0.9-0.5,1.6v3.8h-1v-6.7h1v1.1l0,0
			c0.5-0.9,1.2-1.3,2.2-1.3c0.7,0,1.3,0.2,1.7,0.7c0.4,0.5,0.6,1.2,0.6,2.1C65,40.3,65,44.4,65,44.4z"/>
		<path class="st0" d="M77.5,44.4h-1.1l-1-2.7h-4l-1,2.7h-1.2l3.6-9.4h1.1L77.5,44.4z M75,40.8l-1.5-4.1c0-0.1-0.1-0.3-0.1-0.6l0,0
			c0,0.3-0.1,0.5-0.2,0.6l-1.5,4.1H75z"/>
		<path class="st0" d="M84.4,44.4h-1v-1.2l0,0c-0.5,0.9-1.3,1.3-2.3,1.3c-0.9,0-1.5-0.3-2-0.9c-0.5-0.6-0.8-1.4-0.8-2.5
			s0.3-2,0.8-2.7s1.3-1,2.2-1s1.6,0.4,2,1.1l0,0v-4.2h1v10.1H84.4z M83.4,40.4c0-0.6-0.2-1-0.6-1.4c-0.4-0.4-0.8-0.6-1.4-0.6
			c-0.7,0-1.2,0.2-1.6,0.7c-0.4,0.5-0.6,1.2-0.6,2s0.2,1.4,0.5,1.9c0.4,0.5,0.9,0.7,1.5,0.7s1.1-0.2,1.5-0.7c0.4-0.4,0.6-1,0.6-1.7
			v-0.9H83.4z"/>
		<path class="st0" d="M91.9,37.7l-2.7,6.7h-1l-2.6-6.7h1.1l1.7,4.9c0.1,0.4,0.2,0.7,0.2,0.9l0,0c0.1-0.4,0.1-0.7,0.2-0.9l1.8-5
			L91.9,37.7L91.9,37.7z"/>
		<path class="st0" d="M98.3,41.3h-4.8c0,0.8,0.2,1.4,0.6,1.8c0.4,0.4,0.9,0.6,1.6,0.6c0.8,0,1.5-0.3,2.1-0.8v1
			c-0.6,0.4-1.4,0.7-2.3,0.7c-0.9,0-1.7-0.3-2.2-0.9s-0.8-1.5-0.8-2.6c0-1,0.3-1.9,0.9-2.5c0.6-0.7,1.3-1,2.2-1s1.5,0.3,2,0.9
			c0.5,0.6,0.7,1.4,0.7,2.4V41.3z M97.3,40.4c0-0.6-0.2-1.1-0.5-1.5s-0.7-0.5-1.3-0.5c-0.5,0-0.9,0.2-1.3,0.5s-0.6,0.8-0.7,1.5H97.3
			z"/>
		<path class="st0" d="M103.4,38.7c-0.2-0.1-0.5-0.2-0.8-0.2c-0.5,0-0.9,0.2-1.2,0.7s-0.5,1-0.5,1.8v3.4h-1v-6.7h1v1.4l0,0
			c0.2-0.5,0.4-0.8,0.7-1.1s0.7-0.4,1-0.4s0.5,0,0.7,0.1v1H103.4z"/>
		<path class="st0" d="M108,44.4c-0.2,0.1-0.6,0.2-1,0.2c-1.2,0-1.7-0.7-1.7-2v-4h-1.2v-0.9h1.2V36l1-0.3v2h1.7v0.9h-1.7v3.9
			c0,0.5,0.1,0.8,0.2,1s0.4,0.3,0.8,0.3c0.3,0,0.5-0.1,0.7-0.2V44.4z"/>
		<path class="st0" d="M109.4,35.3c0-0.2,0.1-0.4,0.2-0.5c0.1-0.1,0.3-0.2,0.5-0.2s0.4,0.1,0.5,0.2s0.2,0.3,0.2,0.5
			s-0.1,0.3-0.2,0.5s-0.3,0.2-0.5,0.2s-0.3-0.1-0.5-0.2C109.4,35.6,109.4,35.5,109.4,35.3z M109.5,44.4v-6.7h1v6.7H109.5z"/>
		<path class="st0" d="M112.3,43.1c0.6,0.4,1.2,0.7,1.9,0.7c1,0,1.4-0.3,1.4-1c0-0.3-0.1-0.5-0.3-0.7s-0.6-0.4-1.2-0.6
			c-0.7-0.3-1.2-0.6-1.5-0.9c-0.2-0.3-0.4-0.7-0.4-1.1c0-0.6,0.2-1,0.7-1.4s1.1-0.5,1.8-0.5c0.6,0,1.1,0.1,1.5,0.3V39
			c-0.5-0.3-1.1-0.5-1.7-0.5c-0.4,0-0.7,0.1-1,0.3c-0.2,0.2-0.4,0.4-0.4,0.7s0.1,0.5,0.3,0.7s0.6,0.4,1.2,0.6
			c0.8,0.3,1.3,0.6,1.5,0.9c0.3,0.3,0.4,0.7,0.4,1.1c0,0.6-0.2,1.1-0.7,1.4c-0.5,0.3-1.1,0.5-1.9,0.5c-0.7,0-1.3-0.1-1.8-0.4v-1.2
			H112.3z"/>
		<path class="st0" d="M123.8,41.3H119c0,0.8,0.2,1.4,0.6,1.8c0.4,0.4,0.9,0.6,1.6,0.6c0.8,0,1.5-0.3,2.1-0.8v1
			c-0.6,0.4-1.4,0.7-2.3,0.7c-0.9,0-1.7-0.3-2.2-0.9s-0.8-1.5-0.8-2.6c0-1,0.3-1.9,0.9-2.5c0.6-0.7,1.3-1,2.2-1s1.5,0.3,2,0.9
			c0.5,0.6,0.7,1.4,0.7,2.4V41.3z M122.7,40.4c0-0.6-0.2-1.1-0.5-1.5s-0.7-0.5-1.3-0.5c-0.5,0-0.9,0.2-1.3,0.5s-0.6,0.8-0.7,1.5
			H122.7z"/>
		<path class="st0" d="M134.9,44.4h-1v-3.9c0-0.8-0.1-1.3-0.4-1.7s-0.6-0.5-1.2-0.5c-0.5,0-0.9,0.2-1.2,0.6
			c-0.3,0.4-0.5,0.9-0.5,1.5v3.8h-1v-4c0-1.3-0.5-2-1.6-2c-0.5,0-0.9,0.2-1.2,0.6c-0.3,0.4-0.5,0.9-0.5,1.6v3.8h-1v-6.7h1v1.1l0,0
			c0.5-0.8,1.2-1.2,2.1-1.2c0.4,0,0.8,0.1,1.2,0.4c0.3,0.3,0.6,0.6,0.7,1c0.5-0.9,1.2-1.4,2.2-1.4c1.5,0,2.2,0.9,2.2,2.7v4.3H134.9z
			"/>
		<path class="st0" d="M142.3,41.3h-4.8c0,0.8,0.2,1.4,0.6,1.8c0.4,0.4,0.9,0.6,1.6,0.6c0.8,0,1.5-0.3,2.1-0.8v1
			c-0.6,0.4-1.4,0.7-2.3,0.7c-0.9,0-1.7-0.3-2.2-0.9s-0.8-1.5-0.8-2.6c0-1,0.3-1.9,0.9-2.5c0.6-0.7,1.3-1,2.2-1s1.5,0.3,2,0.9
			c0.5,0.6,0.7,1.4,0.7,2.4V41.3z M141.3,40.4c0-0.6-0.2-1.1-0.5-1.5s-0.7-0.5-1.3-0.5c-0.5,0-0.9,0.2-1.3,0.5s-0.6,0.8-0.7,1.5
			H141.3z"/>
		<path class="st0" d="M149.5,44.4h-1v-3.8c0-1.5-0.5-2.2-1.6-2.2c-0.6,0-1,0.2-1.4,0.6s-0.5,1-0.5,1.6v3.8h-1v-6.7h1v1.1l0,0
			c0.5-0.9,1.2-1.3,2.2-1.3c0.7,0,1.3,0.2,1.7,0.7s0.6,1.2,0.6,2.1V44.4z"/>
		<path class="st0" d="M154.6,44.4c-0.2,0.1-0.6,0.2-1,0.2c-1.2,0-1.7-0.7-1.7-2v-4h-1.2v-0.9h1.2V36l1-0.3v2h1.7v0.9h-1.7v3.9
			c0,0.5,0.1,0.8,0.2,1s0.4,0.3,0.8,0.3c0.3,0,0.5-0.1,0.7-0.2V44.4z"/>
	</g>
</g>
</svg>
