<?xml version="1.0" encoding="utf-8"?>
<!-- Generator: Adobe Illustrator 24.0.3, SVG Export Plug-In . SVG Version: 6.00 Build 0)  -->
<svg version="1.1" id="logo.svg" xmlns="http://www.w3.org/2000/svg" xmlns:xlink="http://www.w3.org/1999/xlink" x="0px" y="0px"
	 viewBox="0 0 212 47" style="enable-background:new 0 0 212 47;" xml:space="preserve">
<style type="text/css">
	.st0{fill:#FFFFFF;}
</style>
<g>
	<path class="st0" d="M20,5.1c0,0,3.5,8.5,7.3,19.2c3.8,10.7,6.5,19.4,6.5,19.4s-3.5-8.4-7.3-19.1C22.8,13.9,20,5.1,20,5.1z"/>
	<path class="st0" d="M25,4.4c3.2-1.5,6.8-1,10,1.6c3.2,2.6,5.6,6.8,7,11.9c1.3,5.1,1.3,10.5-0.1,15.2c-1.4,4.7-3.9,8-7.1,9.5l0,0
		c2.9-1.3,5.2-5.5,6.4-9.7c1.2-4.2,1.1-10-0.1-14.6C38.7,8.8,31,1.6,25,4.4L25,4.4z"/>
	<path class="st0" d="M10.4,12.9"/>
	<path class="st0" d="M17.4,6.2c-2,0.4-5,4-5.8,8.3c-0.8,4.3-0.3,9.4,1.4,14.4c1.7,5,4.5,9.2,7.7,12c3.3,2.7,6.6,3.6,9.5,2.5l0,0
		c-2.6,1-6.2-0.7-9.1-3.1c-2.9-2.5-5.8-7.1-7.3-11.6C10.6,19.3,12.1,8.2,17.4,6.2L17.4,6.2z"/>
	<path class="st0" d="M32.7,43C21.4,46.5,9.6,40.4,6.3,29.4C2.9,18.4,9.4,6.7,20.7,3.2c3.9-1.2,6.9-1.1,9.6-0.4
		c3.6,1.3,5.4,4.2,4,7.8c-1.9,5.2-9.5,9.9-16.9,10.4c-4.6,0.3-8-1.3-9.5-3.6c1.4,2.9,5.3,4.9,10.7,4.5c8.1-0.6,16.4-5.8,18.5-11.5
		c1.6-4.3-0.7-7.8-5.4-9c-3.7-1.3-8.8-1.2-14,0.4C5.3,5.6-1.7,18.5,2,30.7c3.7,12.2,16.7,18.9,29,15.1c8.2-2.5,14.1-9.1,16-16.7
		C44.9,35.5,39.8,40.8,32.7,43z"/>
	<path class="st0" d="M32.9,43C21.5,46.5,9.6,40.4,6.3,29.2C2.9,18.1,9.4,6.3,20.8,2.8c3.9-1.2,7-1.1,9.7-0.4c3.7,1.3,5.4,4.2,4,7.9
		c-1.9,5.3-9.5,10-17,10.5c-4.6,0.3-8.1-1-9.6-3.3c1.4,2.9,5.4,4.6,10.8,4.2c8.1-0.6,16.5-5.8,18.6-11.6c1.6-4.4-0.8-7.9-5.5-9
		C28.1-0.3,23-0.2,17.7,1.4C5.4,5.2-1.7,18.3,2,30.6c3.7,12.3,16.8,19.1,29.2,15.3c8.2-2.6,13.9-9,15.9-16.8
		C44.9,35.6,39.9,40.8,32.9,43z"/>
	<path class="st0" d="M43.3,10.9c-0.4,3.2-2.3,6.8-5.3,9.9c-3.9,4.9-11.8,8.9-19.5,9.6c-5.8,0.5-10.1-1-11.9-3.7
		c1.7,3.4,6.6,5.4,13.4,4.8c10.2-0.9,20.7-7.2,23.5-14.1C44.4,14.9,44.3,12.7,43.3,10.9z"/>
	<path class="st0" d="M45.5,18.2c-0.4,3.3-2.3,6.9-5.2,10.2c-3.8,5-11.5,9.1-19,9.8c-5.6,0.5-9.8-1-11.6-3.8
		c1.7,3.5,6.5,5.5,13.1,4.9c9.9-0.9,20.2-7.4,22.9-14.5C46.6,22.3,46.5,20,45.5,18.2z"/>
</g>
<g>
	<g>
		<path class="st0" d="M75.1,14.1c-0.1,2.3-0.3,4.4-0.5,6.3c-0.7,4.4-2.3,7.7-4.7,9.7c-0.1,0.1-0.3,0.1-0.3,0
			c-0.1-0.1,0.1-0.6,0.6-1.4c1.4-3.1,2.2-7.9,2.4-14.5l-0.4,0.1H60.3l-1.7,0.2c-0.2,0.1-0.3,0-0.3-0.1l-0.3-1c0-0.1,0.1-0.2,0.3-0.1
			l1.9,0.2h5.5c0.7-1.7,1.1-3.2,1.3-4.7c0-0.2,0.1-0.3,0.2-0.3l2.4,0.4c0.4,0.1,0.7,0.3,0.7,0.5c0,0.2-0.2,0.3-0.5,0.4
			c-0.2,0-0.3,0.2-0.5,0.4c-0.7,1.2-1.6,2.3-2.7,3.2h1.6c0.2,0,0.3-0.1,0.4-0.2l1.3-1.6c0.1-0.1,0.3-0.1,0.4,0
			c0.8,0.5,1.5,1.2,2,1.9l0.1,0.1v-2.3v-6c0-0.2,0.1-0.2,0.2-0.2c0.7,0.2,1.5,0.6,2.4,1c3.3-0.9,5.6-1.8,7-2.7
			c0.1-0.1,0.3-0.1,0.4-0.1C83.2,4,84,4.5,84.7,5.1C84.9,5.3,85,5.5,85,5.7c-0.1,0.1-0.3,0.2-0.6,0.2h-0.7c-2,0.5-4.9,0.9-8.6,1.2
			v0.4v4.1v1.8h5c0.2,0,0.4-0.1,0.5-0.2l1.4-1.8c0.1-0.1,0.3-0.2,0.5-0.1c1,0.6,1.8,1.3,2.4,2.2c0.1,0.2,0.2,0.3,0.1,0.4
			c-0.1,0.1-0.2,0.2-0.5,0.2h-3.2v15c0,0.4-0.2,0.7-0.6,0.9c-0.5,0.2-1.1,0.2-1.6-0.1c-0.3-0.1-0.4-0.4-0.4-0.8v-15H75.1z
			 M66.2,29.1c0,0.4-0.2,0.8-0.6,0.9c-0.6,0.2-1.1,0.2-1.6-0.1c-0.3-0.2-0.4-0.4-0.4-0.8v-5.9c-1.5,2.6-3.1,4.4-5,5.3
			c-0.2,0.1-0.3,0.1-0.4-0.1c0-0.1,0-0.2,0.1-0.3c1.9-1.9,3.3-4.8,4.3-8.8h-1.7l-1.7,0.2c-0.2,0.1-0.3,0-0.3-0.1l-0.3-1
			c0-0.1,0.1-0.2,0.3-0.1l1.9,0.2h2.7v-2.9v-0.3c0-0.1,0.1-0.1,0.2-0.1l2.7,0.4c0.5,0.1,0.7,0.3,0.7,0.6l-0.9,0.9v1.5h1.1
			c0.2,0,0.3-0.1,0.4-0.2L69,17c0.1-0.1,0.3-0.1,0.4,0c0.8,0.5,1.4,1.1,1.9,1.9c0.1,0.2,0.2,0.3,0.1,0.4c-0.1,0.1-0.2,0.2-0.5,0.2
			h-4.8v1.3h0.1c1.9,0.4,3.3,1.3,4.1,2.7c0.2,0.5,0.3,1,0.2,1.5c-0.1,0.5-0.4,0.8-0.8,0.9c-0.4,0.1-0.8,0-1.2-0.2
			c-0.3-0.2-0.5-0.6-0.6-1.1c-0.3-1.2-0.9-2.3-1.8-3.1V29.1z M63.4,3.1c0-0.1,0-0.1,0.1-0.1c1,0.1,1.9,0.2,2.7,0.4
			c0.4,0.1,0.5,0.2,0.5,0.4c0,0.2-0.1,0.4-0.4,0.5c-0.2,0.1-0.3,0.2-0.3,0.3v2.5h1c0.2,0,0.3-0.1,0.4-0.2l1.3-1.6
			c0.1-0.1,0.3-0.1,0.4,0c0.8,0.5,1.5,1.2,2,1.9c0.1,0.2,0.2,0.3,0.1,0.4c-0.1,0.1-0.2,0.2-0.5,0.2H60.8l-1.7,0.2
			c-0.2,0.1-0.3,0-0.3-0.1l-0.3-1c0-0.1,0.1-0.2,0.3-0.1l1.9,0.2h2.6V3.1z M60.5,8.4c0.1-0.1,0.1-0.1,0.3-0.1
			c1.6,0.4,2.7,1.3,3.2,2.7c0.1,0.5,0,1-0.2,1.4c-0.2,0.4-0.5,0.7-1,0.7c-1,0.1-1.5-0.5-1.4-1.7c0-1.2-0.2-2.1-0.8-2.8
			C60.5,8.6,60.5,8.5,60.5,8.4z"/>
		<path class="st0" d="M93.1,14.6h-1l-1.8,0.2c-0.1,0.1-0.2,0-0.2-0.1l-0.2-1c0-0.1,0.1-0.1,0.3-0.1l2,0.2h1v-7h-0.9L90.4,7
			c-0.1,0.1-0.2,0-0.2-0.1l-0.2-1c0-0.1,0.1-0.1,0.3-0.1l2,0.2h4.6C97,6,97.1,6,97.2,5.8l1.1-1.4c0.2-0.2,0.3-0.2,0.5-0.1
			c0.5,0.4,1,1,1.4,1.6c0.2,0.2,0.2,0.4,0.1,0.6c-0.1,0.2-0.2,0.2-0.4,0.2h-4.1v7h0.9c0.1,0,0.6-0.5,1.4-1.5
			c0.1-0.2,0.3-0.2,0.5-0.1c0.5,0.4,0.9,0.9,1.3,1.6c0.2,0.2,0.2,0.4,0.1,0.6c-0.1,0.2-0.2,0.2-0.4,0.2h-3.8v6.8
			c1.3-0.3,2.6-0.7,3.9-1.2c0.2-0.1,0.3-0.1,0.4,0c0.1,0.1,0,0.2-0.1,0.4c-1,0.8-2.4,1.6-4,2.4l-3.3,1.5c-0.5,0.2-0.7,0.4-0.7,0.6
			c-0.1,0.3-0.2,0.5-0.4,0.6c-0.2,0-0.4-0.1-0.6-0.6c-0.4-0.7-0.7-1.5-1-2.5c-0.1-0.2,0-0.3,0.3-0.3l2.9-0.3V14.6z M106.4,22.6h-5.2
			l-1.7,0.3c-0.2,0.1-0.3,0-0.3-0.1l-0.3-1c0-0.1,0.1-0.2,0.3-0.1l1.9,0.2h5.2v-4.9h-2.8v0.6c0,0.5-0.1,0.9-0.4,1.1
			c-0.3,0.3-0.7,0.4-1.3,0.4c-0.3,0-0.6-0.1-0.8-0.3c-0.2-0.1-0.2-0.4-0.2-0.7V4.5V4.3h0.2c0.7,0.2,1.6,0.5,2.6,0.9h6.9
			c0.2,0,0.4,0,0.5-0.1l0.8-0.8c0.2-0.2,0.4-0.3,0.6-0.2c1,0.4,1.8,0.8,2.4,1.2c0.5,0.4,0.4,0.8-0.3,1.1c-0.1,0.1-0.2,0.2-0.2,0.3
			v10.6c0,0.4-0.2,0.6-0.5,0.8c-0.3,0.2-0.7,0.3-1.2,0.3c-0.4,0-0.6-0.1-0.8-0.3c-0.1-0.1-0.2-0.3-0.2-0.5v-0.8h-2.6v4.9h2.1
			c0.2,0,0.4-0.1,0.4-0.2l1.4-1.7c0.1-0.1,0.3-0.2,0.5,0c0.9,0.6,1.7,1.3,2.3,2.1c0.1,0.2,0.2,0.3,0.1,0.4c-0.1,0.1-0.2,0.2-0.5,0.2
			h-6.3v5.4h2.7c0.2,0,0.4-0.1,0.4-0.2l1.4-1.7c0.1-0.1,0.3-0.2,0.5,0c0.9,0.6,1.7,1.3,2.3,2.1c0.1,0.2,0.2,0.3,0.1,0.4
			c-0.1,0.1-0.2,0.2-0.5,0.2H98.2l-1.7,0.3c-0.2,0.1-0.3,0-0.3-0.1l-0.3-1c0-0.1,0.1-0.2,0.3-0.1l1.9,0.2h8.2V22.6z M106.4,6h-2.8
			v4.9h2.8V6z M106.4,11.7h-2.8v4.5h2.8V11.7z M109.1,10.9h2.6V6.1C111.6,6,111.6,6,111.4,6h-2.3V10.9z M109.1,16.1h2.6v-4.5h-2.6
			V16.1z"/>
		<path class="st0" d="M130,18.2c0,0.4-0.2,0.8-0.6,0.9c-0.6,0.2-1.1,0.2-1.6-0.1c-0.3-0.2-0.4-0.4-0.4-0.8v-5.1
			c-1.6,2.4-3.3,3.9-5,4.7c-0.2,0.1-0.3,0.1-0.4-0.1c0-0.1,0-0.2,0.1-0.3c2-1.8,3.5-4.6,4.7-8.5h-2l-1.7,0.3c-0.2,0.1-0.3,0-0.3-0.1
			l-0.3-1c0-0.1,0.1-0.2,0.3-0.1l1.9,0.2h2.6V3.9V3.7c0-0.1,0.1-0.1,0.2-0.1l2.7,0.4c0.5,0.1,0.7,0.3,0.7,0.6L130,5.4v2.8h0.9
			c0.2,0,0.3-0.1,0.4-0.2l1.3-1.5c0.1-0.1,0.3-0.1,0.4,0c0.8,0.5,1.4,1.1,1.9,1.9c0.1,0.2,0.2,0.3,0.1,0.4C135,8.9,134.8,9,134.6,9
			H130v1.5l0.4,0.1c1.7,0.3,2.9,1.1,3.6,2.2c0.2,0.4,0.3,0.9,0.3,1.4c-0.1,0.5-0.3,0.8-0.8,1c-0.9,0.3-1.5-0.1-1.8-1.2
			c-0.4-1.2-1-2.1-1.8-2.7V18.2z M126.1,21.4c0.1,0,0.1,0.1,0.2,0.2c0.2,1.3,0.2,2.5-0.1,3.8c-0.3,1.2-0.8,2.2-1.5,2.8
			c-0.4,0.4-0.8,0.5-1.3,0.5c-0.4,0-0.8-0.2-1.1-0.5c-0.1-0.2-0.2-0.4-0.2-0.6c-0.1-0.8,0.2-1.3,1-1.7c1.4-0.9,2.4-2.3,2.9-4.4
			C125.9,21.4,126,21.4,126.1,21.4z M128.7,20.2c0-0.1,0.1-0.2,0.3-0.2c0.8,0,1.6,0.1,2.4,0.3c0.5,0.1,0.7,0.3,0.7,0.5l-0.7,0.9v4.2
			c0,0.2,0,0.3,0.2,0.5c0.1,0.2,0.4,0.3,0.7,0.4l0.3,0.1c4.1,0.2,6.8,0.1,8.1-0.2c0.4-0.3,0.7-1.1,1-2.7c0.1-0.2,0.1-0.3,0.3-0.3
			c0.1,0,0.2,0.1,0.3,0.3l0.2,1.6c0.1,0.5,0.3,0.8,0.6,1c0.5,0.2,0.8,0.6,0.8,1.1c0,0.5-0.3,0.9-1,1.2c-0.8,0.3-1.7,0.5-2.7,0.6
			l-4.3,0.1c-2.5,0-4.2-0.2-5.1-0.5c-0.7-0.3-1.3-0.7-1.5-1.2c-0.2-0.4-0.3-0.9-0.4-1.3v-5.5L128.7,20.2z M133.3,19.7
			c0-0.1,0.1-0.2,0.3-0.1c2.6,0.5,4.3,1.5,5.1,3c0.2,0.5,0.3,1,0.2,1.6c-0.1,0.5-0.4,0.9-0.9,1c-1,0.3-1.7-0.2-1.9-1.4
			c-0.4-1.8-1.3-3-2.6-3.8C133.3,19.9,133.3,19.8,133.3,19.7z M138.4,18.3c0,0.5-0.1,0.9-0.4,1.1c-0.3,0.3-0.7,0.4-1.3,0.4
			c-0.3,0-0.6-0.1-0.8-0.3c-0.1-0.1-0.2-0.4-0.2-0.7V4.7V4.5h0.2c0.8,0.2,1.6,0.5,2.4,0.9h4c0.2,0,0.4,0,0.5-0.1l0.8-0.8
			c0.2-0.2,0.4-0.3,0.6-0.2c1.1,0.4,1.8,0.8,2.4,1.2c0.5,0.4,0.4,0.8-0.3,1.1c-0.2,0.1-0.2,0.2-0.2,0.3v11.8c0,0.4-0.2,0.6-0.5,0.8
			c-0.3,0.2-0.7,0.3-1.2,0.3c-0.4,0-0.6-0.1-0.8-0.3c-0.1-0.1-0.2-0.3-0.2-0.5v-1.3h-5.1V18.3z M143.5,9.3v-3
			c-0.1-0.1-0.2-0.2-0.3-0.1h-4.8v3.1H143.5z M143.5,13.2v-3.2h-5.1v3.2H143.5z M143.5,16.9V14h-5.1v2.9H143.5z M142.1,21.1
			c0.1-0.1,0.1-0.1,0.3-0.1h0.1c2.9,1.2,4.6,2.9,5.2,4.9c0.2,0.5,0.2,1.1-0.1,1.6c-0.2,0.5-0.5,0.8-1,0.9c-1.1,0.1-1.6-0.4-1.7-1.7
			c-0.3-2.4-1.2-4.1-2.7-5.3C142.2,21.4,142.1,21.3,142.1,21.1z"/>
		<path class="st0" d="M166.1,6.1V3.2c0-0.1,0-0.1,0.2-0.1c1,0.1,2,0.2,2.8,0.4c0.4,0.1,0.5,0.3,0.5,0.4c0,0.3-0.2,0.4-0.5,0.5
			c-0.2,0.1-0.3,0.2-0.3,0.3v1.4h5.7c0.2,0,0.4-0.1,0.5-0.2l1.4-1.8c0.1-0.1,0.3-0.2,0.5-0.1c1,0.6,1.8,1.3,2.4,2.2
			c0.1,0.1,0.2,0.3,0.1,0.4c-0.1,0.1-0.2,0.2-0.5,0.2H158v4.3c0,3.2-0.2,6.2-0.5,8.9c-0.6,4.4-1.9,7.6-4,9.6c-0.2,0.1-0.3,0.1-0.4,0
			c-0.1-0.1,0.1-0.6,0.4-1.4c1.1-3.6,1.7-9.3,1.7-17.1v-6c0-0.2,0.1-0.2,0.2-0.2c0.8,0.3,1.7,0.6,2.7,1.2H166.1z M164.9,25.9l2,1.6
			c0.3,0.3,0.4,0.5,0.3,0.7c-0.1,0.2-0.3,0.2-0.6,0.1c-0.1-0.1-0.4,0-0.7,0.1c-2.6,1.2-5.5,1.9-8.7,1.9c-0.2,0-0.3-0.1-0.3-0.2
			c0-0.2,0.1-0.3,0.5-0.3c3.1-0.8,5.6-2.1,7.2-3.9C164.7,25.9,164.8,25.8,164.9,25.9z M173.2,18c0.1,0,0.2-0.1,0.3-0.2l0.7-0.7
			l0.3-0.1c0.9,0.3,1.7,0.7,2.4,1.3c0.5,0.4,0.4,0.7-0.2,1c-0.2,0.1-0.3,0.2-0.3,0.5v5.3c0,0.3-0.2,0.6-0.4,0.8
			c-0.3,0.2-0.8,0.3-1.4,0.3c-0.4,0-0.7-0.1-0.8-0.3c-0.1-0.2-0.2-0.4-0.2-0.8v-0.2h-10.8v0.2c0,0.5-0.2,0.8-0.5,1
			c-0.4,0.2-0.8,0.3-1.3,0.4c-0.4,0-0.6-0.1-0.9-0.3c-0.1-0.1-0.2-0.3-0.2-0.7v-8.4c0-0.2,0-0.2,0.1-0.2c1.1,0.3,2.1,0.6,2.8,1.1
			h3.8v-2.1h-6.1l-1.7,0.3c-0.2,0.1-0.3,0-0.3-0.1l-0.3-1c0-0.1,0.1-0.2,0.3-0.1l1.9,0.2h13.6c0.2,0,0.4-0.1,0.5-0.2l1.4-1.8
			c0.1-0.1,0.3-0.2,0.5-0.1c1,0.6,1.8,1.3,2.4,2.2c0.1,0.1,0.2,0.3,0.1,0.4c-0.1,0.1-0.2,0.2-0.5,0.2h-9.2V18H173.2z M165.3,13.3
			v0.2c0,0.4-0.2,0.7-0.5,0.9c-0.5,0.2-1.1,0.2-1.6,0c-0.3-0.2-0.5-0.4-0.5-0.8v-2.8h-1.2l-1.7,0.3c-0.2,0.1-0.3,0-0.3-0.1l-0.3-1
			c0-0.1,0.1-0.2,0.3-0.1l1.9,0.2h1.2V7.7c0-0.1,0.1-0.1,0.2-0.1l2.4,0.4c0.5,0.1,0.7,0.3,0.7,0.5l-0.7,0.9V10h5.5V7.7
			c0-0.1,0.1-0.1,0.2-0.1l2.5,0.4c0.5,0.1,0.7,0.3,0.7,0.5l-0.7,0.9V10h0.6c0.2,0,0.3-0.1,0.4-0.2l1.3-1.5c0.1-0.1,0.3-0.1,0.4,0
			c0.8,0.5,1.4,1.1,1.9,1.9c0.1,0.1,0.2,0.3,0.1,0.4c-0.1,0.1-0.2,0.2-0.5,0.2h-4.2v2.7c0,0.4-0.2,0.7-0.5,0.9
			c-0.5,0.2-1.1,0.2-1.7,0c-0.3-0.2-0.5-0.4-0.5-0.8v-0.3H165.3z M166.9,18.8h-4V21h4V18.8z M166.9,21.8h-4v2.4h4V21.8z M170.8,10.8
			h-5.5v1.8h5.5V10.8z M169.6,21h4v-2.1c-0.1-0.1-0.2-0.2-0.3-0.1h-3.7V21z M169.6,24.1h4v-2.4h-4V24.1z M169.8,26.4
			c0-0.1,0.1-0.2,0.3-0.1c1.9,0,3.6,0.2,5.2,0.7c1.7,0.4,2.7,1.1,3,2c0.1,0.4,0,0.7-0.2,1c-0.3,0.3-0.6,0.5-1,0.4
			c-0.4-0.1-0.8-0.3-1.3-0.6c-1.5-1.2-3.4-2.3-5.7-3.2C169.9,26.6,169.8,26.5,169.8,26.4z"/>
		<path class="st0" d="M196.5,9.7h-5.4l-0.3,0.5c-1.4,2-2.9,3.4-4.5,4.2c-0.2,0.1-0.3,0.1-0.4,0c-0.1-0.1,0-0.2,0.1-0.3
			c2.1-2.1,3.5-5.3,4.2-9.5c0-0.2,0.2-0.2,0.4-0.2c1.1,0.2,2.1,0.6,3,1.2c0.3,0.2,0.4,0.4,0.3,0.6c-0.1,0.3-0.3,0.4-0.7,0.4
			c-0.2,0-0.4,0.1-0.5,0.4l-1.2,2.1h4.9V3.3c0-0.1,0-0.1,0.2-0.1c1,0.1,2,0.2,2.8,0.4c0.4,0.1,0.5,0.3,0.5,0.4
			c0,0.3-0.2,0.4-0.5,0.5c-0.2,0.1-0.3,0.2-0.3,0.3v4h3.5c0.2,0,0.4-0.1,0.5-0.3l1.5-1.8c0.2-0.2,0.3-0.2,0.5-0.1
			c1,0.6,1.9,1.4,2.5,2.3c0.1,0.2,0.2,0.3,0.1,0.4c-0.1,0.1-0.2,0.2-0.5,0.2h-8.2v5.5h6.6c0.2,0,0.4-0.1,0.5-0.3l1.5-1.8
			c0.2-0.2,0.3-0.2,0.5-0.1c1,0.6,1.8,1.4,2.5,2.3c0.1,0.2,0.2,0.3,0.1,0.4c-0.1,0.1-0.2,0.2-0.5,0.2h-23.2l-1.7,0.2
			c-0.2,0.1-0.3,0-0.3-0.1l-0.3-1c0-0.1,0.1-0.2,0.3-0.1l1.9,0.2h9.2V9.7z M191.6,29c0,0.5-0.2,0.8-0.5,1c-0.4,0.2-0.8,0.3-1.3,0.4
			c-0.4,0-0.6-0.1-0.9-0.2c-0.1-0.1-0.2-0.3-0.2-0.7V19c0-0.2,0-0.2,0.1-0.2c1.1,0.3,2.1,0.6,2.8,1.1h11.2c0.2,0,0.4,0,0.6-0.1
			l0.8-0.8c0.2-0.2,0.4-0.3,0.6-0.2c1.1,0.4,1.9,0.8,2.4,1.2c0.6,0.5,0.5,0.9-0.3,1.2c-0.1,0.1-0.2,0.2-0.2,0.3v7.9
			c0,0.4-0.2,0.7-0.5,0.9c-0.3,0.2-0.7,0.3-1.3,0.3c-0.4,0-0.7-0.1-0.8-0.3c-0.1-0.1-0.2-0.3-0.2-0.6v-1.3h-12.4V29z M203.9,27.5
			v-6.8c-0.1-0.1-0.2-0.2-0.3-0.1h-12.1v6.9H203.9z"/>
	</g>
	<g>
		<path class="st0" d="M66.8,44.4h-1.3l-4.9-7.6c-0.1-0.2-0.2-0.4-0.3-0.6h0c0,0.2,0,0.6,0,1.3v6.9h-1V35h1.4l4.8,7.5
			c0.2,0.4,0.4,0.6,0.4,0.6h0c0-0.3-0.1-0.8-0.1-1.4V35h1V44.4z"/>
		<path class="st0" d="M74.5,41.3h-4.8c0,0.8,0.2,1.4,0.6,1.8c0.4,0.4,0.9,0.6,1.6,0.6c0.8,0,1.5-0.3,2.1-0.8v1
			c-0.6,0.4-1.4,0.7-2.3,0.7c-0.9,0-1.7-0.3-2.2-0.9c-0.5-0.6-0.8-1.5-0.8-2.6c0-1,0.3-1.9,0.9-2.5c0.6-0.7,1.3-1,2.2-1
			c0.9,0,1.5,0.3,2,0.9c0.5,0.6,0.7,1.4,0.7,2.4V41.3z M73.5,40.4c0-0.6-0.2-1.1-0.5-1.5s-0.7-0.5-1.3-0.5c-0.5,0-0.9,0.2-1.3,0.5
			s-0.6,0.8-0.7,1.5H73.5z"/>
		<path class="st0" d="M75.7,41.1c0-1.1,0.3-2,0.9-2.6c0.6-0.6,1.4-1,2.5-1c1,0,1.8,0.3,2.3,0.9c0.6,0.6,0.8,1.5,0.8,2.6
			c0,1.1-0.3,1.9-0.9,2.6s-1.4,1-2.4,1c-1,0-1.8-0.3-2.3-0.9C76,43,75.7,42.2,75.7,41.1z M76.8,41.1c0,0.8,0.2,1.4,0.6,1.9
			c0.4,0.5,1,0.7,1.7,0.7c0.7,0,1.3-0.2,1.6-0.7c0.4-0.5,0.6-1.1,0.6-1.9c0-0.9-0.2-1.5-0.6-2c-0.4-0.5-0.9-0.7-1.6-0.7
			c-0.7,0-1.3,0.2-1.7,0.7C77,39.6,76.8,40.3,76.8,41.1z"/>
		<path class="st0" d="M94.2,35l-3.5,9.4h-1.1L86.2,35h1.2l2.7,7.5c0.1,0.2,0.1,0.5,0.2,0.8h0c0-0.3,0.1-0.5,0.2-0.8l2.7-7.5H94.2z"
			/>
		<path class="st0" d="M95.3,35.3c0-0.2,0.1-0.4,0.2-0.5c0.1-0.1,0.3-0.2,0.5-0.2c0.2,0,0.4,0.1,0.5,0.2c0.1,0.1,0.2,0.3,0.2,0.5
			c0,0.2-0.1,0.3-0.2,0.5c-0.1,0.1-0.3,0.2-0.5,0.2s-0.3-0.1-0.5-0.2S95.3,35.5,95.3,35.3z M95.5,44.4v-6.7h1v6.7H95.5z"/>
		<path class="st0" d="M98.3,43.1c0.6,0.4,1.2,0.7,1.9,0.7c1,0,1.4-0.3,1.4-1c0-0.3-0.1-0.5-0.3-0.7c-0.2-0.2-0.6-0.4-1.2-0.6
			c-0.7-0.3-1.2-0.6-1.5-0.9c-0.2-0.3-0.4-0.7-0.4-1.1c0-0.6,0.2-1,0.7-1.4c0.5-0.4,1.1-0.5,1.8-0.5c0.6,0,1.1,0.1,1.5,0.3v1.1
			c-0.5-0.3-1.1-0.5-1.7-0.5c-0.4,0-0.7,0.1-1,0.3c-0.2,0.2-0.4,0.4-0.4,0.7s0.1,0.5,0.3,0.7c0.2,0.2,0.6,0.4,1.2,0.6
			c0.8,0.3,1.3,0.6,1.5,0.9s0.4,0.7,0.4,1.1c0,0.6-0.2,1.1-0.7,1.4c-0.5,0.3-1.1,0.5-1.9,0.5c-0.7,0-1.3-0.1-1.8-0.4V43.1z"/>
		<path class="st0" d="M104.2,35.3c0-0.2,0.1-0.4,0.2-0.5c0.1-0.1,0.3-0.2,0.5-0.2c0.2,0,0.4,0.1,0.5,0.2c0.1,0.1,0.2,0.3,0.2,0.5
			c0,0.2-0.1,0.3-0.2,0.5c-0.1,0.1-0.3,0.2-0.5,0.2s-0.3-0.1-0.5-0.2S104.2,35.5,104.2,35.3z M104.4,44.4v-6.7h1v6.7H104.4z"/>
		<path class="st0" d="M107.1,41.1c0-1.1,0.3-2,0.9-2.6c0.6-0.6,1.4-1,2.5-1c1,0,1.8,0.3,2.3,0.9s0.8,1.5,0.8,2.6
			c0,1.1-0.3,1.9-0.9,2.6c-0.6,0.6-1.4,1-2.4,1c-1,0-1.8-0.3-2.3-0.9S107.1,42.2,107.1,41.1z M108.2,41.1c0,0.8,0.2,1.4,0.6,1.9
			c0.4,0.5,1,0.7,1.7,0.7c0.7,0,1.3-0.2,1.6-0.7c0.4-0.5,0.6-1.1,0.6-1.9c0-0.9-0.2-1.5-0.6-2c-0.4-0.5-0.9-0.7-1.6-0.7
			c-0.7,0-1.3,0.2-1.7,0.7C108.4,39.6,108.2,40.3,108.2,41.1z"/>
		<path class="st0" d="M121,44.4h-1v-3.8c0-1.5-0.5-2.2-1.6-2.2c-0.6,0-1,0.2-1.4,0.6s-0.5,0.9-0.5,1.6v3.8h-1v-6.7h1v1.1h0
			c0.5-0.9,1.2-1.3,2.2-1.3c0.7,0,1.3,0.2,1.7,0.7c0.4,0.5,0.6,1.2,0.6,2.1V44.4z"/>
		<path class="st0" d="M133.5,44.4h-1.1l-1-2.7h-4l-1,2.7h-1.2l3.6-9.4h1.1L133.5,44.4z M131,40.8l-1.5-4.1c0-0.1-0.1-0.3-0.1-0.6h0
			c0,0.3-0.1,0.5-0.2,0.6l-1.5,4.1H131z"/>
		<path class="st0" d="M140.4,44.4h-1v-1.2h0c-0.5,0.9-1.3,1.3-2.3,1.3c-0.9,0-1.5-0.3-2-0.9c-0.5-0.6-0.8-1.4-0.8-2.5
			c0-1.1,0.3-2,0.8-2.7s1.3-1,2.2-1s1.6,0.4,2,1.1h0v-4.2h1V44.4z M139.4,40.4c0-0.6-0.2-1-0.6-1.4c-0.4-0.4-0.8-0.6-1.4-0.6
			c-0.7,0-1.2,0.2-1.6,0.7c-0.4,0.5-0.6,1.2-0.6,2c0,0.8,0.2,1.4,0.5,1.9c0.4,0.5,0.9,0.7,1.5,0.7c0.6,0,1.1-0.2,1.5-0.7
			c0.4-0.4,0.6-1,0.6-1.7V40.4z"/>
		<path class="st0" d="M147.9,37.7l-2.7,6.7h-1l-2.6-6.7h1.1l1.7,4.9c0.1,0.4,0.2,0.7,0.2,0.9h0c0.1-0.4,0.1-0.7,0.2-0.9l1.8-5
			H147.9z"/>
		<path class="st0" d="M154.3,41.3h-4.8c0,0.8,0.2,1.4,0.6,1.8c0.4,0.4,0.9,0.6,1.6,0.6c0.8,0,1.5-0.3,2.1-0.8v1
			c-0.6,0.4-1.4,0.7-2.3,0.7c-0.9,0-1.7-0.3-2.2-0.9s-0.8-1.5-0.8-2.6c0-1,0.3-1.9,0.9-2.5c0.6-0.7,1.3-1,2.2-1c0.9,0,1.5,0.3,2,0.9
			c0.5,0.6,0.7,1.4,0.7,2.4V41.3z M153.3,40.4c0-0.6-0.2-1.1-0.5-1.5s-0.7-0.5-1.3-0.5c-0.5,0-0.9,0.2-1.3,0.5s-0.6,0.8-0.7,1.5
			H153.3z"/>
		<path class="st0" d="M159.4,38.7c-0.2-0.1-0.5-0.2-0.8-0.2c-0.5,0-0.9,0.2-1.2,0.7c-0.3,0.5-0.5,1-0.5,1.8v3.4h-1v-6.7h1v1.4h0
			c0.2-0.5,0.4-0.8,0.7-1.1c0.3-0.3,0.7-0.4,1-0.4c0.3,0,0.5,0,0.7,0.1V38.7z"/>
		<path class="st0" d="M164,44.4c-0.2,0.1-0.6,0.2-1,0.2c-1.2,0-1.7-0.7-1.7-2v-4h-1.2v-0.9h1.2V36l1-0.3v2h1.7v0.9h-1.7v3.9
			c0,0.5,0.1,0.8,0.2,1s0.4,0.3,0.8,0.3c0.3,0,0.5-0.1,0.7-0.2V44.4z"/>
		<path class="st0" d="M165.4,35.3c0-0.2,0.1-0.4,0.2-0.5c0.1-0.1,0.3-0.2,0.5-0.2c0.2,0,0.4,0.1,0.5,0.2s0.2,0.3,0.2,0.5
			c0,0.2-0.1,0.3-0.2,0.5s-0.3,0.2-0.5,0.2s-0.3-0.1-0.5-0.2C165.4,35.6,165.4,35.5,165.4,35.3z M165.5,44.4v-6.7h1v6.7H165.5z"/>
		<path class="st0" d="M168.3,43.1c0.6,0.4,1.2,0.7,1.9,0.7c1,0,1.4-0.3,1.4-1c0-0.3-0.1-0.5-0.3-0.7c-0.2-0.2-0.6-0.4-1.2-0.6
			c-0.7-0.3-1.2-0.6-1.5-0.9c-0.2-0.3-0.4-0.7-0.4-1.1c0-0.6,0.2-1,0.7-1.4s1.1-0.5,1.8-0.5c0.6,0,1.1,0.1,1.5,0.3v1.1
			c-0.5-0.3-1.1-0.5-1.7-0.5c-0.4,0-0.7,0.1-1,0.3c-0.2,0.2-0.4,0.4-0.4,0.7s0.1,0.5,0.3,0.7c0.2,0.2,0.6,0.4,1.2,0.6
			c0.8,0.3,1.3,0.6,1.5,0.9c0.3,0.3,0.4,0.7,0.4,1.1c0,0.6-0.2,1.1-0.7,1.4c-0.5,0.3-1.1,0.5-1.9,0.5c-0.7,0-1.3-0.1-1.8-0.4V43.1z"
			/>
		<path class="st0" d="M179.8,41.3H175c0,0.8,0.2,1.4,0.6,1.8c0.4,0.4,0.9,0.6,1.6,0.6c0.8,0,1.5-0.3,2.1-0.8v1
			c-0.6,0.4-1.4,0.7-2.3,0.7c-0.9,0-1.7-0.3-2.2-0.9s-0.8-1.5-0.8-2.6c0-1,0.3-1.9,0.9-2.5c0.6-0.7,1.3-1,2.2-1c0.9,0,1.5,0.3,2,0.9
			c0.5,0.6,0.7,1.4,0.7,2.4V41.3z M178.7,40.4c0-0.6-0.2-1.1-0.5-1.5s-0.7-0.5-1.3-0.5c-0.5,0-0.9,0.2-1.3,0.5s-0.6,0.8-0.7,1.5
			H178.7z"/>
		<path class="st0" d="M190.9,44.4h-1v-3.9c0-0.8-0.1-1.3-0.4-1.7s-0.6-0.5-1.2-0.5c-0.5,0-0.9,0.2-1.2,0.6
			c-0.3,0.4-0.5,0.9-0.5,1.5v3.8h-1v-4c0-1.3-0.5-2-1.6-2c-0.5,0-0.9,0.2-1.2,0.6c-0.3,0.4-0.5,0.9-0.5,1.6v3.8h-1v-6.7h1v1.1h0
			c0.5-0.8,1.2-1.2,2.1-1.2c0.4,0,0.8,0.1,1.2,0.4c0.3,0.3,0.6,0.6,0.7,1c0.5-0.9,1.2-1.4,2.2-1.4c1.5,0,2.2,0.9,2.2,2.7V44.4z"/>
		<path class="st0" d="M198.3,41.3h-4.8c0,0.8,0.2,1.4,0.6,1.8c0.4,0.4,0.9,0.6,1.6,0.6c0.8,0,1.5-0.3,2.1-0.8v1
			c-0.6,0.4-1.4,0.7-2.3,0.7c-0.9,0-1.7-0.3-2.2-0.9s-0.8-1.5-0.8-2.6c0-1,0.3-1.9,0.9-2.5c0.6-0.7,1.3-1,2.2-1c0.9,0,1.5,0.3,2,0.9
			c0.5,0.6,0.7,1.4,0.7,2.4V41.3z M197.3,40.4c0-0.6-0.2-1.1-0.5-1.5s-0.7-0.5-1.3-0.5c-0.5,0-0.9,0.2-1.3,0.5s-0.6,0.8-0.7,1.5
			H197.3z"/>
		<path class="st0" d="M205.5,44.4h-1v-3.8c0-1.5-0.5-2.2-1.6-2.2c-0.6,0-1,0.2-1.4,0.6S201,40,201,40.6v3.8h-1v-6.7h1v1.1h0
			c0.5-0.9,1.2-1.3,2.2-1.3c0.7,0,1.3,0.2,1.7,0.7c0.4,0.5,0.6,1.2,0.6,2.1V44.4z"/>
		<path class="st0" d="M210.6,44.4c-0.2,0.1-0.6,0.2-1,0.2c-1.2,0-1.7-0.7-1.7-2v-4h-1.2v-0.9h1.2V36l1-0.3v2h1.7v0.9h-1.7v3.9
			c0,0.5,0.1,0.8,0.2,1s0.4,0.3,0.8,0.3c0.3,0,0.5-0.1,0.7-0.2V44.4z"/>
	</g>
</g>
</svg>
