<?xml version="1.0" encoding="utf-8"?>
<!-- Generator: Adobe Illustrator 24.0.3, SVG Export Plug-In . SVG Version: 6.00 Build 0)  -->
<svg version="1.1" id="nav_search.svg" xmlns="http://www.w3.org/2000/svg" xmlns:xlink="http://www.w3.org/1999/xlink" x="0px"
	 y="0px" viewBox="0 0 21 18" style="enable-background:new 0 0 21 18;" xml:space="preserve">
<style type="text/css">
	.st0{fill-rule:evenodd;clip-rule:evenodd;}
</style>
<path id="形狀_4_拷貝_2" class="st0" d="M20.6,17c-0.7,1-2.1,1.3-3.1,0.6c0,0,0,0,0,0l-2.8-2.2c-0.6-0.4-1-1.1-0.9-1.9
	c-3,3.2-8.1,3.4-11.3,0.3S-0.9,5.7,2.2,2.5c2.7-2.9,7.1-3.4,10.4-1.1c3.2,2.3,4.4,6.6,2.6,10.1c0.7-0.3,1.5-0.2,2.1,0.2L20,14
	C21,14.7,21.3,16,20.6,17z M13.5,7c-0.3-1.5-1.1-2.8-2.3-3.6c-2.5-1.8-6-1.1-7.8,1.4c-1.8,2.5-1.1,6,1.4,7.8c2.5,1.8,6,1.1,7.8-1.4
	C13.4,10,13.7,8.5,13.5,7z"/>
</svg>
