<svg id="nav_search.svg" xmlns="http://www.w3.org/2000/svg" width="21" height="18" viewBox="0 0 21 18">
  <defs>
    <style>
      .cls-1 {
        fill: #fff;
        fill-rule: evenodd;
      }
    </style>
  </defs>
  <path id="形狀_4_拷貝_2" data-name="形狀 4 拷貝 2" class="cls-1" d="M1692.61,62.047a2.195,2.195,0,0,1-3.06.558l-2.78-2.222a2.181,2.181,0,0,1-.94-1.889,8.005,8.005,0,1,1-1.29-12.077,8.049,8.049,0,0,1,2.63,10.121,2.181,2.181,0,0,1,2.1.219l2.78,2.222A2.209,2.209,0,0,1,1692.61,62.047Zm-7.14-10.035a5.5,5.5,0,0,0-2.31-3.6A5.6,5.6,0,1,0,1685.47,52.012Z" transform="translate(-1672 -45)"/>
</svg>
