<?xml version="1.0" encoding="utf-8"?>
<!-- Generator: Adobe Illustrator 24.0.3, SVG Export Plug-In . SVG Version: 6.00 Build 0)  -->
<svg version="1.1" id="nav_line.svg" xmlns="http://www.w3.org/2000/svg" xmlns:xlink="http://www.w3.org/1999/xlink" x="0px"
	 y="0px" viewBox="0 0 20 19" style="enable-background:new 0 0 20 19;" xml:space="preserve">
<path d="M20,7.7c-0.2-4.2-4.6-7.6-10-7.6C4.5,0.1,0,3.6,0,8c0,4,3.8,7.4,8.7,7.9c0.3,0,0.5,0.3,0.5,0.6L9,18.4
	c0,0.4,0.4,0.7,0.8,0.5c4.1-2,6.6-4.1,8.1-5.8c0.3-0.3,1.1-1.6,1.3-1.9c0.4-0.7,0.6-1.4,0.8-2.2c0-0.2,0-0.4,0-0.6
	C20,8.2,20,7.8,20,7.7z M6,10.7H4c-0.3,0-0.5-0.2-0.5-0.5V6.3C3.5,6,3.7,5.8,4,5.8S4.5,6,4.5,6.3v3.3H6c0.3,0,0.5,0.2,0.5,0.5
	C6.5,10.4,6.3,10.7,6,10.7z M8.1,10.3c0,0.2-0.2,0.4-0.4,0.4H7.4c-0.2,0-0.4-0.2-0.4-0.4V6.2C7,6,7.2,5.8,7.4,5.8h0.2
	C7.8,5.8,8,6,8,6.2v4.1H8.1z M12.8,10.1c0,0.3-0.2,0.5-0.5,0.5c-0.1,0-0.3-0.1-0.3-0.1L9.9,7.8v2.3c0,0.3-0.2,0.5-0.5,0.5
	s-0.5-0.2-0.5-0.5V6.3C8.8,6,9,5.8,9.3,5.8c0.2,0,0.3,0.1,0.4,0.2l2.1,2.7V6.3c0-0.3,0.2-0.5,0.5-0.5s0.5,0.2,0.5,0.5
	C12.8,6.3,12.8,10.1,12.8,10.1z M16.1,7.7c0.3,0,0.5,0.2,0.5,0.5s-0.2,0.5-0.5,0.5h-1.5v0.9h1.5c0.3,0,0.5,0.2,0.5,0.5
	s-0.2,0.5-0.5,0.5h-2c-0.3,0-0.5-0.2-0.5-0.5V6.3c0-0.3,0.2-0.5,0.5-0.5h2c0.3,0,0.5,0.2,0.5,0.5s-0.2,0.5-0.5,0.5h-1.5v0.9
	C14.6,7.7,16.1,7.7,16.1,7.7z"/>
</svg>
