<?xml version="1.0" encoding="utf-8"?>
<!-- Generator: Adobe Illustrator 24.0.3, SVG Export Plug-In . SVG Version: 6.00 Build 0)  -->
<svg version="1.1" id="service.svg" xmlns="http://www.w3.org/2000/svg" xmlns:xlink="http://www.w3.org/1999/xlink" x="0px"
	 y="0px" viewBox="0 0 615.3 584.8" style="enable-background:new 0 0 615.3 584.8;" xml:space="preserve">
<style type="text/css">
	.st0{fill:#FFFFFF;}
	.st1{fill-rule:evenodd;clip-rule:evenodd;fill:#FFFFFF;}
	.st2{enable-background:new    ;}
	.st3{fill:#5E6165;}
</style>
<circle id="橢圓_4" class="st0" cx="130.6" cy="128.4" r="58.3"/>
<circle id="橢圓_4_拷貝" class="st0" cx="308.2" cy="58.2" r="58.2"/>
<path id="橢圓_4_拷貝_6" class="st1" d="M308.2,468.3c32.2,0,58.2,26.1,58.2,58.2c0,32.2-26.1,58.2-58.2,58.3
	c-32.2,0-58.2-26.1-58.2-58.2c0,0,0,0,0,0C250,494.4,276.1,468.3,308.2,468.3C308.2,468.3,308.2,468.3,308.2,468.3z"/>
<ellipse id="橢圓_4_拷貝_2" transform="matrix(0.7071 -0.7071 0.7071 0.7071 49.7706 376.8968)" class="st0" cx="479.8" cy="128.4" rx="58.2" ry="58.2"/>
<circle id="橢圓_4_拷貝_5" class="st0" cx="130.6" cy="436" r="58.3"/>
<circle id="橢圓_4_拷貝_5-2" class="st0" cx="479.8" cy="435.8" r="58.2"/>
<ellipse id="橢圓_4_拷貝_3" class="st0" cx="557.1" cy="282.2" rx="58.2" ry="58.2"/>
<circle id="橢圓_4_拷貝_4" class="st0" cx="58.2" cy="282.2" r="58.2"/>
<g class="st2">
	<path class="st3" d="M107.9,141.9v1.4h-13v0.7H93v-6.1c-0.5,0.6-1.1,1.1-1.6,1.6c-0.3-0.4-0.9-1.1-1.3-1.4c1.8-1.4,3.4-3.7,4.4-6
		l1.8,0.6c-0.2,0.5-0.5,1.1-0.8,1.6h4.2c-0.2-0.5-0.5-1.2-0.8-1.7l1.7-0.5c0.4,0.7,0.8,1.5,1.1,2.2h5.7v1.4h-5.9v1.2h4.9v1.3h-4.9
		v1.2h5v1.3h-5v1.3H107.9z M93,144.6h13.8v6.3h-2V150h-9.9v0.9H93V144.6z M94.8,146.2v2.3h9.9v-2.3H94.8z M99.6,135.7h-4.8v1.2h4.8
		V135.7z M99.6,138.2h-4.8v1.2h4.8V138.2z M94.9,141.9h4.8v-1.3h-4.8V141.9z"/>
	<path class="st3" d="M116.8,137c-0.5,0.9-1.1,1.9-1.7,2.8v11.2h-1.8V142c-0.5,0.6-1.1,1.1-1.6,1.6c-0.2-0.4-0.7-1.3-1-1.7
		c1.7-1.3,3.4-3.4,4.5-5.4L116.8,137z M116.4,132.8c-1.1,1.7-2.9,3.7-4.6,4.9c-0.2-0.4-0.7-1-1-1.4c1.4-1.1,3.1-2.8,3.9-4.1
		L116.4,132.8z M127.6,143.1c-0.8,1.9-2.1,3.5-3.6,4.6c1.5,0.7,3.2,1.2,5.1,1.6c-0.4,0.4-0.9,1.2-1.1,1.6c-2.1-0.4-4-1.1-5.6-2.1
		c-1.7,1-3.7,1.7-5.8,2.1c-0.2-0.4-0.6-1.2-0.9-1.6c1.8-0.3,3.5-0.8,5-1.6c-0.7-0.5-1.3-1.1-1.9-1.7c-0.5,0.5-1,0.9-1.4,1.2
		c-0.3-0.4-0.9-1.1-1.3-1.4c0.6-0.3,1.1-0.8,1.6-1.2c-0.4-0.5-0.7-1-1-1.6l1.5-0.5c0.2,0.4,0.4,0.7,0.6,1c0.6-0.7,1.2-1.5,1.7-2.3
		c-2.6,0.2-3.1,0.2-3.6,0.4c-0.1-0.3-0.3-1.3-0.5-1.7c0.6-0.1,1.3-0.4,2.3-1c0.4-0.2,1.2-0.7,2.2-1.4c-2.6,0.1-3.2,0.2-3.5,0.3
		c-0.1-0.4-0.4-1.3-0.6-1.8c0.4-0.1,0.8-0.3,1.4-0.7c0.5-0.4,2.3-1.7,3.4-3.1l1.9,0.8c-1.1,1.1-2.4,2.2-3.6,3l3.2-0.1
		c0.9-0.6,1.7-1.3,2.5-2.1l1.7,1c-2.2,1.9-4.6,3.4-6.9,4.7l5.4-0.3c-0.4-0.5-0.8-1-1.1-1.4l1.5-0.8c1.1,1.3,2.5,3.2,3.2,4.4
		l-1.6,0.9c-0.2-0.4-0.6-1-1-1.6l-4.2,0.3c-0.2,0.5-0.5,1-0.9,1.5h4.5l0.3-0.1L127.6,143.1z M120.6,144.1c-0.2,0.3-0.4,0.5-0.6,0.8
		c0.7,0.7,1.5,1.4,2.4,1.9c1.1-0.7,2.1-1.6,2.8-2.7H120.6z"/>
	<path class="st3" d="M138.4,148.7c0,0.9-0.2,1.5-0.7,1.8c-0.6,0.3-1.4,0.4-2.8,0.3c0-0.5-0.3-1.3-0.5-1.8c0.8,0,1.6,0,1.9,0
		c0.2,0,0.3-0.1,0.3-0.4v-4.6h-2.8c-0.2,2.4-0.6,4.9-1.5,6.8c-0.3-0.3-1.1-0.7-1.5-0.9c1.3-2.8,1.4-6.9,1.4-9.8v-7.3h6.1V148.7z
		 M136.7,142.3v-3h-2.6v0.9c0,0.7,0,1.4,0,2.1H136.7z M134.1,134.7v2.9h2.6v-2.9H134.1z M149.4,140.2c-0.5,2.7-1.4,5-2.6,6.8
		c0.9,1,2,1.9,3.2,2.4c-0.4,0.3-0.9,1-1.2,1.5c-1.2-0.6-2.2-1.5-3.1-2.5c-0.9,1-1.8,1.8-2.9,2.4c-0.2-0.4-0.7-1-1.1-1.4v1.4h-1.8
		V133h8.9v3.9c0,0.9-0.2,1.4-0.9,1.6c-0.7,0.3-1.8,0.3-3.3,0.3c-0.1-0.5-0.4-1.2-0.6-1.6c1.1,0,2.3,0,2.5,0c0.3,0,0.4-0.1,0.4-0.3
		v-2.1h-5.3v5.1h6.3l0.3-0.1L149.4,140.2z M141.7,149.4c1.1-0.5,2-1.4,2.9-2.4c-1.1-1.5-1.9-3.4-2.5-5.4h-0.4V149.4z M143.7,141.6
		c0.5,1.4,1.1,2.7,1.9,3.9c0.7-1.2,1.3-2.5,1.7-3.9H143.7z"/>
	<path class="st3" d="M168.5,135.9c-0.5,1.3-1.3,2.4-2.3,3.3c1.2,0.7,2.6,1.2,4.1,1.5c-0.4,0.4-0.9,1.1-1.2,1.6
		c-1.6-0.4-3.1-1.1-4.4-2c-1.2,0.8-2.7,1.4-4.3,1.9c-0.1-0.2-0.3-0.5-0.5-0.8c-0.3,1.2-0.7,2.4-1.1,3.3l-1.3-0.7
		c0.3-0.8,0.6-1.9,0.9-3.1h-1.6v7.8c0,0.9-0.1,1.4-0.8,1.7c-0.6,0.3-1.4,0.3-2.7,0.3c-0.1-0.5-0.3-1.3-0.6-1.8c0.8,0,1.6,0,1.9,0
		c0.2,0,0.3-0.1,0.3-0.3v-5.5c-0.8,1.7-1.7,3.4-2.8,4.4c-0.2-0.5-0.6-1.3-1-1.8c1.2-1.1,2.4-3,3.1-4.9h-2.8v-1.6h5.2
		c-1.1-0.8-2.9-1.8-4.4-2.4l1.2-1.2c0.6,0.2,1.2,0.5,1.8,0.8c0.6-0.5,1.2-1.1,1.8-1.7h-5.4v-1.6h6.7l0.3-0.1l1.2,0.8
		c-0.8,1.2-2,2.5-3.2,3.4c0.7,0.4,1.2,0.8,1.6,1.1l-0.9,1h1.3l0.3-0.1l1.1,0.4c-0.1,0.3-0.1,0.5-0.2,0.8c1.2-0.3,2.2-0.8,3.1-1.3
		c-0.7-0.7-1.3-1.4-1.8-2.1c-0.4,0.4-0.8,0.8-1.2,1.2c-0.4-0.3-1.1-0.8-1.6-1.1c1.6-1.2,3.1-3,3.9-4.9l1.8,0.5
		c-0.2,0.5-0.5,1.1-0.8,1.6h6.4v1.6H168.5z M169.5,143.5c0,0,0,0.5-0.1,0.8c-0.3,3.6-0.7,5.2-1.3,5.8c-0.4,0.4-0.8,0.5-1.4,0.6
		c-0.5,0-1.3,0-2.3,0c0-0.5-0.2-1.3-0.5-1.7c0.8,0.1,1.5,0.1,1.9,0.1c0.3,0,0.5,0,0.7-0.2c0.3-0.3,0.6-1.3,0.9-3.7h-3
		c-0.7,2.5-2.1,4.5-5.3,5.8c-0.2-0.4-0.7-1.1-1.1-1.5c2.6-1,3.9-2.5,4.5-4.3h-2.9v-1.6h3.3c0.1-0.6,0.2-1.3,0.2-1.9h1.9
		c-0.1,0.7-0.1,1.3-0.2,1.9H169.5z M162.6,135.9c0.5,0.8,1.2,1.6,2.1,2.2c0.7-0.6,1.3-1.4,1.7-2.2H162.6z"/>
</g>
<g class="st2">
	<path class="st3" d="M458.3,148.7v1.5h-14.9v-1.5h6.4v-1.7h-4.5v-1.5h4.5v-1.5h-3.8c-0.6,1-1.3,1.9-2,2.6c-0.1-0.3-0.6-1.3-0.9-1.7
		c-0.2,2.1-0.7,4.4-2.1,6.1c-0.3-0.3-1.1-1-1.4-1.2c1.6-2,1.8-4.7,1.8-6.8v-3.9h2.6c-0.3-0.3-0.6-0.6-0.8-0.8c1.5-0.3,3.3-0.7,5-1.1
		c-1.5-0.4-2.9-0.8-4.3-1.1l1-0.8h-3.4V134h7.3c-0.3-0.5-0.6-0.9-0.9-1.3l1.3-0.6c0.5,0.6,1.1,1.3,1.4,2h6.9v1.5h-3l0.9,0.6
		c-0.8,0.4-1.8,0.8-2.9,1.2c1.4,0.4,2.6,0.8,3.6,1.1l-0.9,0.8h3v1.5h-14.9v2.4c0,0.6,0,1.2-0.1,1.9c1.1-1,2-2.5,2.6-4l1.6,0.5
		c-0.1,0.4-0.3,0.8-0.5,1.1h3v-1.5h1.9v1.5h5.3v1.5h-5.3v1.5h4.7v1.5h-4.7v1.7H458.3z M454.2,139.2c-1.1-0.4-2.5-0.8-3.9-1.3
		c-1.7,0.5-3.4,0.9-5,1.3H454.2z M445.7,135.5c1.5,0.3,3.1,0.8,4.6,1.2c1.2-0.4,2.3-0.8,3.1-1.2H445.7z"/>
	<path class="st3" d="M460.9,142h7.4v8.8h-1.9v-0.9h-3.7v1.1h-1.8V142z M462.7,143.8v4.2h3.7v-4.2H462.7z M475.1,140h-11.4v-6.9
		h11.4V140z M473.2,134.9h-7.6v3.3h7.6V134.9z M478,142v8.8h-1.9v-1h-4v1.1h-1.8V142H478z M476.1,148v-4.2h-4v4.2H476.1z"/>
	<path class="st3" d="M490.7,148.5c0.9,0.2,1.9,0.2,2.9,0.2c0.9,0,4.3,0,5.5,0c-0.3,0.4-0.6,1.3-0.7,1.9h-4.9c-4,0-6.9-0.7-8.8-3.9
		c-0.7,1.7-1.6,3.2-2.9,4.3c-0.3-0.3-1.1-1-1.5-1.3c2.2-1.7,3.3-4.5,3.7-8.1l1.9,0.2c-0.1,0.9-0.3,1.8-0.5,2.6
		c0.7,1.9,1.9,3,3.3,3.6v-7.7H484v-1.8h11.5v1.8h-4.8v2.9h5.8v1.8h-5.8V148.5z M483.1,139.1h-1.9v-4.7h7.7c-0.2-0.6-0.5-1.3-0.8-1.9
		l1.9-0.5c0.4,0.8,0.9,1.7,1.1,2.4h7.1v4.7h-1.9v-2.9h-13.2V139.1z"/>
	<path class="st3" d="M507.3,132.8c-0.5,1.4-1.2,2.8-2,4.2v13.8h-1.9V140c-0.5,0.8-1.1,1.4-1.7,2c-0.2-0.4-0.7-1.5-1.1-1.9
		c1.9-1.9,3.7-4.9,4.8-7.8L507.3,132.8z M519.3,148.2v1.8h-12.7v-1.8h7.1c0.7-2.7,1.5-6.8,1.8-9.8l2,0.3c-0.6,3.1-1.3,6.9-2.1,9.5
		H519.3z M518.5,137.6h-11.1v-1.8h11.1V137.6z M510,147.5c-0.2-2.1-0.7-5.7-1.3-8.5l1.7-0.4c0.6,2.7,1.3,6.3,1.5,8.3L510,147.5z
		 M512.3,135.7c-0.1-0.9-0.6-2.2-0.9-3.2l1.8-0.4c0.4,1,0.8,2.3,1,3.1L512.3,135.7z"/>
</g>
<g class="st2">
	<path class="st3" d="M274,70.3c-0.3,2.9-0.9,5.3-1.7,7.2c1.9,1.8,4.6,2.2,7.8,2.2c1,0,5.2,0,6.4,0c-0.3,0.4-0.6,1.2-0.7,1.7h-5.8
		c-3.6,0-6.5-0.5-8.6-2.4c-0.7,1.1-1.5,2-2.4,2.7c-0.3-0.4-1-1-1.4-1.3c1-0.7,1.9-1.6,2.5-2.9c-0.7-1-1.3-2.3-1.8-3.9l1.4-0.5
		c0.3,1.1,0.7,2,1.2,2.7c0.4-1.2,0.8-2.6,1-4.3h-3.3c0.9-1.5,1.9-3.7,2.8-5.7h-3.3v-1.6h5.9c-0.8,1.8-1.8,3.9-2.7,5.7h1L273,70
		L274,70.3z M278.8,66.4h-3.7v-1.5h3.7v-1.6h1.8v1.6h4.4v2.7h1.3v1.5H285v2.7h-4.4v1.3h4.7v1.4h-4.7v1.4h5.4v1.5h-5.4v1.7h-1.8v-1.7
		H274v-1.5h4.8v-1.4h-4v-1.4h4v-1.3H275v-1.5h3.8v-1.2h-4.9v-1.5h4.9V66.4z M280.5,66.4v1.2h2.7v-1.2H280.5z M283.3,69.1h-2.7v1.2
		h2.7V69.1z"/>
	<path class="st3" d="M291.6,65.8c-0.6,0.8-1.4,1.6-2.1,2.2c-0.3-0.3-0.9-1-1.3-1.3c1.2-0.9,2.4-2.3,3-3.7l1.7,0.5
		c-0.1,0.3-0.3,0.5-0.4,0.8h4.8v1.5h-3.5c0.6,0.5,1.2,1.2,1.5,1.6l-1.3,1c-0.3-0.5-1.1-1.4-1.7-2l0.9-0.6H291.6z M295.5,78.1
		c-1.3,1.5-3.5,2.9-5.7,3.5c-0.3-0.5-0.8-1.2-1.3-1.5c2-0.4,4.3-1.4,5.4-2.6L295.5,78.1z M298.5,75.7h8.2v1.5h-8.2v4.7h-1.8v-4.7
		h-8.1v-1.5h8.1v-1.1c-0.3-0.3-0.7-0.7-1-0.8c1.2-0.4,2-0.9,2.4-1.5c-0.7-0.3-1.3-0.6-1.9-0.9l0.7-1.1c0.5,0.2,1.1,0.5,1.8,0.7
		c0-0.2,0.1-0.4,0.1-0.7v-0.6h-2.2v-1.3h7.4v4.1c0,0.3,0,0.5,0.1,0.6c0.1,0.1,0.2,0.1,0.3,0.1h0.4c0.1,0,0.2,0,0.3-0.1
		c0.1-0.1,0.1-0.2,0.2-0.4c0-0.2,0.1-0.8,0.1-1.5c0.3,0.3,0.9,0.5,1.3,0.7c0,0.8-0.1,1.6-0.2,1.9c-0.1,0.3-0.3,0.5-0.6,0.7
		c-0.2,0.1-0.7,0.2-1,0.2h-1c-0.4,0-0.9-0.1-1.2-0.4c-0.3-0.3-0.4-0.7-0.4-1.8v-2.7h-1.9v0.7c0,0.4,0,0.9-0.2,1.3
		c0.7,0.3,1.3,0.7,1.8,0.9l-0.7,1.3c-0.4-0.3-1-0.6-1.7-0.9c-0.4,0.5-0.9,1-1.7,1.4h0.6V75.7z M288.7,73.2c0.8-0.1,1.8-0.2,2.9-0.4
		v-2.8h-2.7v-1.4h7v1.4h-2.6v2.6c0.8-0.1,1.7-0.2,2.6-0.4l0.1,1.4c-2.5,0.4-5.1,0.8-7.1,1L288.7,73.2z M306.9,64.4v1.5h-4
		c0.5,0.5,1.1,1.1,1.4,1.5l-1.3,1c-0.3-0.5-1.1-1.3-1.7-1.9l0.8-0.5H300c-0.5,0.8-1.2,1.6-1.9,2.2c-0.3-0.3-1-0.9-1.4-1.1
		c1.2-0.9,2.2-2.3,2.8-3.8l1.7,0.4c-0.1,0.3-0.2,0.6-0.4,0.9H306.9z M301,77.3c1.8,0.8,4.1,1.9,5.4,2.8l-1.3,1.3
		c-1.1-0.9-3.5-2.1-5.3-2.9L301,77.3z"/>
	<path class="st3" d="M315.6,79c-0.5-0.8-1.5-2.3-2.4-3.4c-0.5,2.2-1.4,4.3-3.2,5.9c-0.3-0.4-0.9-1-1.4-1.3c2.3-1.9,3-4.8,3.3-7.4
		h-3.1v-1.7h3.1c0-0.4,0-0.9,0-1.3v-1.7h-2.8v-1.7h2.8v-3h1.8v3h2.7v1.7h-2.7v1.7c0,0.4,0,0.8,0,1.3h3.1v1.7h-3.2
		c0,0.3,0,0.5-0.1,0.8c0.8,0.8,2.9,3.3,3.4,4L315.6,79z M325.4,79.8c0.3,0,0.4-0.2,0.5-1.5c0.3,0.3,1.1,0.6,1.5,0.7
		c-0.2,2-0.7,2.5-1.8,2.5h-1.6c-1.5,0-1.9-0.5-1.9-2.2v-4H321c-0.3,3-1.3,5.2-4.8,6.5c-0.2-0.4-0.7-1.1-1.1-1.4c3-1,3.8-2.7,4.1-5.1
		h-1.8V64h8.8v11.4h-2.3v4c0,0.5,0.1,0.5,0.4,0.5H325.4z M319.2,67.3h5.2v-1.6h-5.2V67.3z M319.2,70.5h5.2v-1.6h-5.2V70.5z
		 M319.2,73.7h5.2V72h-5.2V73.7z"/>
	<path class="st3" d="M339.5,66.4h1.2v1.2h-1.2v2.1h-3.9v0.8h4.1v1.1h-4.1v0.8h4.9v1.3h-11.4v-1.3h4.7v-0.8h-3.8v-1.1h3.8v-0.8h-3.7
		v-1.1h3.7v-0.9H329v-1.2h4.8v-0.8h-3.6v-1.1h3.6v-1.2h1.7v1.2h3.9V66.4z M329,79.9c2.8-0.1,7.3-0.3,11.6-0.5l-0.1,1.4
		c-4.1,0.2-8.5,0.4-11.4,0.5L329,79.9z M339.5,74.3v4.5h-9.2v-4.5H339.5z M331.8,76.1h2.3v-0.8h-2.3V76.1z M331.8,77.9h2.3V77h-2.3
		V77.9z M335.6,66.4h2.2v-0.8h-2.2V66.4z M337.8,67.6h-2.2v0.9h2.2V67.6z M337.9,75.3h-2.2v0.8h2.2V75.3z M337.9,77h-2.2v0.9h2.2V77
		z M343,76.9h-1.7V65.6h1.7V76.9z M346.9,63.6v16c0,1.1-0.2,1.6-0.9,1.9c-0.6,0.3-1.7,0.3-3.3,0.3c-0.1-0.5-0.3-1.3-0.6-1.9
		c1.1,0,2.2,0,2.5,0c0.3,0,0.4-0.1,0.4-0.4v-16H346.9z"/>
</g>
<g class="st2">
	<path class="st3" d="M278.2,538.5v2.5h6.5v7c0,1-0.2,1.6-1,1.9c-0.8,0.3-1.9,0.3-3.5,0.3c-0.1-0.5-0.4-1.3-0.7-1.9
		c1.2,0,2.4,0,2.8,0c0.3,0,0.4-0.1,0.4-0.4v-5.1h-4.6v9.5h-2v-9.5h-4.3v7.3H270V541h6.2v-2.5h-8.1v-1.9h8.4
		c-0.3-0.8-0.8-1.7-1.2-2.5l1.9-0.5c0.5,0.9,1.3,2.2,1.5,3h7.6v1.9H278.2z"/>
	<path class="st3" d="M294.8,545.9c-2,1-4.2,2.1-5.9,2.9l-0.7-1.9c0.7-0.3,1.7-0.7,2.6-1.1v-6.1h-2.2V538h2.2v-4.1h1.8v4.1h2.1v1.8
		h-2.1v5.3c0.6-0.3,1.2-0.6,1.9-0.9L294.8,545.9z M298.8,543.5c-0.2,0.4-0.5,0.8-0.8,1.2h8.5c0,0,0,0.5,0,0.7
		c-0.3,4.1-0.6,5.7-1.2,6.3c-0.3,0.4-0.7,0.5-1.2,0.6c-0.5,0-1.2,0.1-2,0c0-0.4-0.2-1.1-0.4-1.5c0.7,0.1,1.3,0.1,1.6,0.1
		c0.3,0,0.5,0,0.6-0.2c0.3-0.3,0.6-1.5,0.8-4.4h-1.2c-0.8,2.4-2.4,4.9-4.1,6.2c-0.3-0.3-0.9-0.8-1.4-1.1c1.6-1.1,3-3.1,3.9-5.1h-1.6
		c-1.1,2-3,4.2-4.8,5.3c-0.3-0.4-0.8-0.9-1.3-1.1c1.6-0.9,3.3-2.5,4.4-4.2h-1.7c-0.8,0.9-1.6,1.6-2.5,2.2c-0.3-0.3-0.9-0.9-1.3-1.2
		c1.5-0.9,2.9-2.2,3.9-3.7h-2.6v-1.6H307v1.6H298.8z M305.6,541h-9.4v-6.7h9.4V541z M303.8,535.6h-5.9v1.3h5.9V535.6z M303.8,538.2
		h-5.9v1.3h5.9V538.2z"/>
	<path class="st3" d="M321.8,534.1c1,3.1,3.1,6,5.8,7.4c-0.4,0.4-1.1,1.2-1.4,1.7c-0.7-0.4-1.3-0.9-1.9-1.5c0,0.1,0,0.3,0,0.3
		c-0.3,6.2-0.5,8.5-1.2,9.3c-0.4,0.6-0.9,0.7-1.7,0.8c-0.7,0.1-1.9,0.1-3.2,0c0-0.6-0.3-1.4-0.6-1.9c1.2,0.1,2.4,0.1,2.9,0.1
		c0.4,0,0.6-0.1,0.9-0.3c0.5-0.5,0.7-2.4,0.9-7.1h-4.7c-0.5,3.9-1.9,7.5-7.1,9.4c-0.2-0.5-0.8-1.3-1.2-1.7c4.7-1.6,5.8-4.5,6.2-7.8
		h-3.8v-1.4c-0.5,0.6-1.1,1.1-1.7,1.6c-0.3-0.4-1.1-1.1-1.6-1.4c2.3-1.6,4.2-4.4,5.2-7.4l2,0.5c-0.8,2.4-2,4.6-3.5,6.4h11.7
		c-1.5-1.6-2.7-3.5-3.5-5.4H317v-1.8H321.8z"/>
	<path class="st3" d="M335.7,545.9c-0.3-0.7-1-1.8-1.6-2.8v9.3h-1.8v-8.8c-0.7,2.1-1.6,4-2.5,5.2c-0.2-0.5-0.7-1.3-1-1.7
		c1.3-1.6,2.6-4.6,3.2-7.3h-2.7V538h2.9v-4.3h1.8v4.3h2.9v1.8h-2.9v0.9c0.7,0.9,2.4,3.1,2.8,3.7L335.7,545.9z M347.6,542.4h-2.8v10
		H343v-10h-3.2c0,3.1-0.4,7.3-2.2,10c-0.3-0.3-1.1-0.8-1.6-1c1.9-2.7,2-6.5,2-9.4v-6.1c2.5-0.5,5.3-1.2,7-2l1.6,1.5
		c-1.9,0.8-4.4,1.4-6.8,1.9v3.3h7.9V542.4z"/>
</g>
<g id="群組_52">
	<g class="st2">
		<path class="st3" d="M306.2,115.7c1,0,1.8,0.8,1.8,1.8c0,1-0.8,1.8-1.8,1.8s-1.8-0.8-1.8-1.8C304.4,116.5,305.1,115.7,306.2,115.7
			z"/>
		<path class="st3" d="M306.2,125.9c1,0,1.8,0.8,1.8,1.8c0,1-0.8,1.8-1.8,1.8s-1.8-0.8-1.8-1.8C304.4,126.7,305.1,125.9,306.2,125.9
			z"/>
		<path class="st3" d="M306.2,136.1c1,0,1.8,0.8,1.8,1.8c0,1-0.8,1.8-1.8,1.8s-1.8-0.8-1.8-1.8C304.4,136.9,305.1,136.1,306.2,136.1
			z"/>
	</g>
	<g class="st2">
		<path class="st3" d="M306.2,408.4c1,0,1.8,0.8,1.8,1.8s-0.8,1.8-1.8,1.8s-1.8-0.8-1.8-1.8S305.1,408.4,306.2,408.4z"/>
		<path class="st3" d="M306.2,418.6c1,0,1.8,0.8,1.8,1.8c0,1-0.8,1.8-1.8,1.8s-1.8-0.8-1.8-1.8C304.4,419.4,305.1,418.6,306.2,418.6
			z"/>
		<path class="st3" d="M306.2,428.8c1,0,1.8,0.8,1.8,1.8s-0.8,1.8-1.8,1.8s-1.8-0.8-1.8-1.8S305.1,428.8,306.2,428.8z"/>
	</g>
	<g class="st2">
		<path class="st3" d="M480,289.6c0,1-0.8,1.8-1.8,1.8s-1.8-0.8-1.8-1.8s0.8-1.8,1.8-1.8S480,288.6,480,289.6z"/>
		<path class="st3" d="M469.8,289.6c0,1-0.8,1.8-1.8,1.8c-1,0-1.8-0.8-1.8-1.8s0.8-1.8,1.8-1.8C469,287.8,469.8,288.6,469.8,289.6z"
			/>
		<path class="st3" d="M459.6,289.6c0,1-0.8,1.8-1.8,1.8s-1.8-0.8-1.8-1.8s0.8-1.8,1.8-1.8S459.6,288.6,459.6,289.6z"/>
	</g>
	<g class="st2">
		<path class="st3" d="M187.1,289.6c0,1-0.8,1.8-1.8,1.8c-1,0-1.8-0.8-1.8-1.8s0.8-1.8,1.8-1.8C186.3,287.8,187.1,288.6,187.1,289.6
			z"/>
		<path class="st3" d="M176.9,289.6c0,1-0.8,1.8-1.8,1.8c-1,0-1.8-0.8-1.8-1.8s0.8-1.8,1.8-1.8C176.1,287.8,176.9,288.6,176.9,289.6
			z"/>
		<path class="st3" d="M166.8,289.6c0,1-0.8,1.8-1.8,1.8c-1,0-1.8-0.8-1.8-1.8s0.8-1.8,1.8-1.8C165.9,287.8,166.8,288.6,166.8,289.6
			z"/>
	</g>
	<g class="st2">
		<path class="st3" d="M429.1,166.7c0.7,0.7,0.7,1.8,0,2.5c-0.7,0.7-1.8,0.8-2.5,0c-0.7-0.7-0.7-1.9,0-2.6
			C427.3,166,428.4,166,429.1,166.7z"/>
		<path class="st3" d="M421.9,173.9c0.7,0.7,0.7,1.8,0,2.5c-0.7,0.7-1.8,0.8-2.5,0c-0.7-0.7-0.7-1.9,0-2.6
			C420.1,173.2,421.2,173.2,421.9,173.9z"/>
		<path class="st3" d="M414.7,181.1c0.7,0.7,0.7,1.8,0,2.5c-0.7,0.7-1.8,0.8-2.5,0c-0.7-0.7-0.7-1.9,0-2.6
			C412.8,180.4,414,180.4,414.7,181.1z"/>
	</g>
	<g class="st2">
		<path class="st3" d="M222,373.7c0.7,0.7,0.7,1.8,0,2.5c-0.7,0.7-1.8,0.8-2.5,0c-0.7-0.7-0.7-1.9,0-2.6
			C220.2,373,221.3,373,222,373.7z"/>
		<path class="st3" d="M214.8,380.9c0.7,0.7,0.7,1.8,0,2.5c-0.7,0.7-1.8,0.8-2.5,0c-0.7-0.7-0.7-1.9,0-2.6
			C213,380.2,214.1,380.1,214.8,380.9z"/>
		<path class="st3" d="M207.6,388.1c0.7,0.7,0.7,1.8,0,2.5s-1.8,0.8-2.5,0c-0.7-0.7-0.7-1.9,0-2.6S206.9,387.3,207.6,388.1z"/>
	</g>
	<g class="st2">
		<path class="st3" d="M429,412.5c-0.7,0.7-1.8,0.7-2.6,0c-0.7-0.7-0.8-1.8,0-2.5c0.7-0.7,1.9-0.7,2.6,0S429.7,411.7,429,412.5z"/>
		<path class="st3" d="M421.8,405.3c-0.7,0.7-1.8,0.7-2.5,0s-0.8-1.8,0-2.5c0.7-0.7,1.9-0.7,2.6,0
			C422.5,403.4,422.5,404.5,421.8,405.3z"/>
		<path class="st3" d="M414.6,398.1c-0.7,0.7-1.8,0.7-2.6,0c-0.7-0.7-0.8-1.8,0-2.5c0.7-0.7,1.9-0.7,2.6,0S415.3,397.4,414.6,398.1z
			"/>
	</g>
	<g class="st2">
		<path class="st3" d="M221.9,205.5c-0.7,0.7-1.8,0.7-2.5,0c-0.7-0.7-0.8-1.8,0-2.5s1.9-0.7,2.6,0
			C222.6,203.6,222.7,204.8,221.9,205.5z"/>
		<path class="st3" d="M214.7,198.3c-0.7,0.7-1.8,0.7-2.5,0c-0.7-0.7-0.8-1.8,0-2.5s1.9-0.7,2.6,0
			C215.4,196.4,215.5,197.6,214.7,198.3z"/>
		<path class="st3" d="M207.5,191.1c-0.7,0.7-1.8,0.7-2.5,0c-0.7-0.7-0.8-1.8,0-2.5s1.9-0.7,2.6,0
			C208.2,189.2,208.2,190.4,207.5,191.1z"/>
	</g>
</g>
<g class="st2">
	<path class="st3" d="M27.3,304.6c-0.7-0.4-1.5-0.9-2.5-1.4c-1.3,0.7-3.1,1.2-5.7,1.6c-0.1-0.3-0.4-0.9-0.7-1.2
		c2-0.3,3.5-0.7,4.7-1.2c-1-0.4-2-0.8-3-1c0.3-0.4,0.7-0.8,1-1.3l-2.1,0.1l-0.1-1.3c0.9,0,2-0.1,3.2-0.1c0.3-0.5,0.6-1,0.8-1.5h-3.2
		v-3.4h3.7v-0.7h-3.2V291h-1.4v-1.4h1.4v-2h3.2v-1.3h1.5v1.3h3.4v2h1.4v1.4h-1.4v2.2h-3.4v0.7h3.8v3.4h-4.2
		c-0.2,0.5-0.5,0.9-0.8,1.4l2.8-0.1v0v-0.8h1.5v0.8l0.9,0l0,1.2l-1,0.1c-0.2,0.8-0.6,1.7-1.6,2.5c0.9,0.4,1.7,0.9,2.3,1.2
		L27.3,304.6z M21.1,296.2h2.2v-1h-2.2V296.2z M21.7,288.8v0.9h1.6v-0.9H21.7z M23.3,291.9v-1h-1.6v1H23.3z M22.8,300.1
		c-0.2,0.3-0.3,0.5-0.5,0.7c0.8,0.2,1.6,0.5,2.3,0.9c0.9-0.6,1.3-1.2,1.6-1.8L22.8,300.1z M24.8,288.8v0.9h1.7v-0.9H24.8z
		 M26.5,291.9v-1h-1.7v1H26.5z M24.8,295.1v1h2.2v-1H24.8z M35.8,291.7c-0.3,3-0.9,5.6-1.8,7.7c0.8,1.7,1.9,3.1,3.3,4
		c-0.4,0.3-0.9,0.9-1.1,1.3c-1.3-0.9-2.3-2.1-3.1-3.6c-0.9,1.6-2.1,2.9-3.6,3.9c-0.1-0.3-0.7-1.1-1-1.4c1.7-1.1,2.9-2.5,3.8-4.3
		c-0.6-1.4-1-3.1-1.4-4.8c-0.3,0.7-0.6,1.3-1,1.9c-0.2-0.3-0.9-0.9-1.2-1.2c1.4-2.1,2.1-5.5,2.5-8.9l1.6,0.2
		c-0.2,1.2-0.3,2.4-0.6,3.5h4.9v1.7H35.8z M31.9,291.7c0.3,2,0.7,3.9,1.2,5.5c0.5-1.6,0.8-3.5,1-5.5H31.9z"/>
	<path class="st3" d="M45.5,286.9c-0.5,1.4-1.2,2.9-2,4.2v13.8h-1.9v-10.8c-0.5,0.8-1.1,1.4-1.7,2c-0.2-0.4-0.7-1.5-1.1-1.9
		c1.9-1.9,3.7-4.9,4.8-7.8L45.5,286.9z M57.4,302.3v1.8H44.8v-1.8h7.1c0.7-2.7,1.5-6.8,1.8-9.8l2,0.3c-0.6,3.1-1.3,6.9-2.1,9.5H57.4
		z M56.7,291.6H45.6v-1.8h11.1V291.6z M48.1,301.5c-0.2-2.1-0.7-5.7-1.3-8.5l1.7-0.4c0.6,2.7,1.3,6.3,1.5,8.4L48.1,301.5z
		 M50.5,289.7c-0.1-0.9-0.5-2.2-0.9-3.2l1.8-0.4c0.4,1,0.8,2.3,1,3.1L50.5,289.7z"/>
	<path class="st3" d="M72,289.3c0,0.1,0,0.3,0,0.5c1.1,1.1,3.3,1.8,6,2c-0.4,0.4-0.8,1.1-1,1.5c-2.3-0.3-4.2-1.1-5.5-2.2
		c-0.7,0.9-2.3,1.8-5.8,2.3c-0.2-0.4-0.6-1.1-1-1.4h-5.2v-1.5h5.9v1.3c4.4-0.6,4.9-1.7,4.9-2.6V289h-1.7c-0.4,0.7-1,1.4-1.5,1.9
		c-0.3-0.3-1-0.8-1.4-1c1.1-0.9,1.9-2.3,2.3-3.7l1.7,0.4c-0.1,0.3-0.2,0.7-0.4,1h6.4l0.3-0.1l1.3,0.4c-0.5,1.1-1.2,2.3-1.8,3
		l-1.5-0.5c0.3-0.4,0.6-0.9,0.9-1.4H72V289.3z M71.9,301.6c2.1,0.7,4.4,1.5,5.7,2.2l-1.7,1c-1.2-0.7-3.4-1.6-5.5-2.3l1.2-1h-6.1
		l1.7,0.8c-1.6,1-4.2,2-6.2,2.5c-0.3-0.4-1-1.1-1.4-1.4c2.1-0.4,4.5-1.1,5.9-1.9h-3.3v-8.2h13.3v8.2H71.9z M64.9,288.8h-5v-1.4h5
		V288.8z M64,295.8h9.6v-1.2H64V295.8z M64,298.1h9.6v-1.1H64V298.1z M64,300.4h9.6v-1.2H64V300.4z"/>
	<path class="st3" d="M87.1,291.1h-7.3v-1.5h3.5c-0.3-0.8-0.9-1.9-1.4-2.8l1.4-0.8c0.5,0.9,1.1,1.9,1.4,2.7l-1.3,0.8h3.8V291.1z
		 M80.6,293.8v-1.5h5.8v1.5H80.6z M80.6,295h5.8v1.5h-5.8V295z M86.4,303.7h-4.3v0.9h-1.5v-6.9h5.8V303.7z M82.1,299.3v2.9h2.8v-2.9
		H82.1z M96.3,287.3c-0.1,7.5-0.2,15.1,0.8,15.4c0.1,0,0.3-1.3,0.3-2.6c0.3,0.5,0.8,1.2,1,1.4c-0.2,2.9-1.1,3.5-2.1,3.1
		c-2-0.7-1.9-7.5-1.9-15.5h-3v5.7h2.4v1.8h-2.4v8.3h-1.8v-8.3h-2.5v-1.8h2.5v-5.7h-2.3v-1.8H96.3z"/>
</g>
<g class="st2">
	<path class="st3" d="M524.5,291.2c-0.6,1-1.4,2.1-2.2,3.1V305h-1.9v-8.5c-0.7,0.7-1.4,1.3-2,1.8c-0.2-0.4-0.9-1.2-1.3-1.6
		c2.1-1.5,4.3-3.8,5.6-6.1L524.5,291.2z M523.7,287c-1.4,1.8-3.5,3.8-5.4,5.2c-0.2-0.4-0.7-1.2-1.1-1.5c1.7-1.1,3.6-2.9,4.6-4.4
		L523.7,287z M535.9,294.8H533v7.8c0,1.1-0.2,1.6-1,1.9c-0.8,0.3-2,0.3-3.9,0.3c-0.1-0.6-0.3-1.3-0.6-1.9c1.3,0,2.7,0,3,0
		c0.4,0,0.5-0.1,0.5-0.4v-7.8h-6.4V293h11.3V294.8z M535.4,289.2h-9.9v-1.8h9.9V289.2z"/>
	<path class="st3" d="M545.2,302.6c-2.5,0.6-5.1,1.2-7.1,1.6l-0.4-1.7c0.9-0.1,2-0.3,3.2-0.6v-5.6h-3v-1.6h3v-1.9h-1.7v-0.7
		c-0.3,0.3-0.5,0.5-0.8,0.8c-0.1-0.4-0.6-1.4-0.9-1.9c1.5-1.2,3-3,3.9-4.9l1.6,0.6c-0.1,0.2-0.2,0.5-0.4,0.7c1.2,1,2.5,2.1,3.2,2.9
		l-1.1,1.4c-0.7-0.8-1.9-1.9-3-2.9c-0.5,0.9-1.1,1.7-1.7,2.4h4.2v1.6h-1.7v1.9h2.4v1.6h-2.4v5.3l2.6-0.4L545.2,302.6z M539.4,297.4
		c0.3,1.2,0.7,2.6,0.8,3.6l-1.4,0.4c-0.1-1-0.5-2.5-0.8-3.7L539.4,297.4z M543,300.7c0.3-1,0.7-2.5,0.9-3.6l1.5,0.4
		c-0.4,1.2-0.8,2.6-1.2,3.5L543,300.7z M555.6,302.8c0,0.9-0.2,1.5-0.9,1.8c-0.6,0.3-1.7,0.3-3.2,0.3c-0.1-0.5-0.3-1.3-0.5-1.8
		c1,0.1,2.1,0.1,2.4,0s0.4-0.1,0.4-0.4v-3.1c-1.9,0.5-3.8,1-5.4,1.4l-0.5-1.4c-0.1,1.9-0.4,4-1.3,5.5c-0.3-0.3-1.1-0.9-1.5-1.1
		c1-1.8,1.1-4.2,1.1-6.2v-5.9h3.8v-5.7h1.8v5.7h3.8V302.8z M547.5,291.4c-0.3-1-1.1-2.6-1.9-3.8l1.5-0.7c0.8,1.1,1.7,2.7,2,3.7
		L547.5,291.4z M547.9,297.8c0,0.5,0,1,0,1.5c1.5-0.3,3.7-0.8,5.9-1.3v-4.5h-5.9V297.8z M548.9,294.7c1.5,0.3,3.4,0.9,4.5,1.5
		l-0.8,1.3c-1-0.6-2.9-1.3-4.4-1.6L548.9,294.7z M556.2,287.4c-0.7,1.3-1.4,2.8-2.1,3.8l-1.6-0.6c0.7-1,1.5-2.7,1.9-3.8L556.2,287.4
		z"/>
	<path class="st3" d="M568.6,298.5c1.7,1.7,4.8,3.4,8.3,4.1c-0.4,0.4-0.9,1.2-1.2,1.7c-2.9-0.7-5.4-2.2-7.1-3.7v4.4h-2v-4.5
		c-1.9,1.8-4.5,3.2-7.2,3.9c-0.2-0.5-0.8-1.2-1.2-1.6c3.3-0.7,6.6-2.4,8.4-4.5v-1.6h-4.5v3.7h-2V295h6.5v-1.3h-7.9V292h7.9v-1.2h1.6
		c-0.3-0.3-0.9-0.8-1.3-1c1.1-0.9,2-2.3,2.5-3.8l1.7,0.4c-0.1,0.4-0.3,0.7-0.4,1.1h5.8v1.5h-4c0.7,0.5,1.4,1.1,1.8,1.6l-1.3,1.1
		c-0.4-0.6-1.3-1.4-2.1-2l0.9-0.7h-2c-0.4,0.7-0.9,1.3-1.4,1.8h0.1v1.2h7.6v1.6h-7.6v1.3h6.5v3.6c0,0.9-0.2,1.2-0.8,1.5
		c-0.6,0.2-1.5,0.3-2.6,0.3c-0.1-0.5-0.4-1.1-0.7-1.5c0.8,0,1.6,0,1.8,0c0.2,0,0.3-0.1,0.3-0.3v-2h-4.5V298.5z M561.6,289.1
		c-0.7,1-1.4,1.9-2.1,2.6c-0.3-0.3-0.9-1-1.3-1.2c1.2-1.1,2.3-2.7,3-4.4l1.7,0.5c-0.1,0.3-0.3,0.7-0.5,1h4.9v1.5h-3.4
		c0.6,0.5,1.3,1.2,1.6,1.6l-1.2,1.1c-0.4-0.6-1.3-1.4-2-2.1l0.8-0.6H561.6z"/>
	<path class="st3" d="M588.9,289.4h1.2v1.2h-1.2v2.1h-3.9v0.8h4.1v1.1h-4.1v0.8h4.9v1.3h-11.4v-1.3h4.7v-0.8h-3.8v-1.1h3.8v-0.8
		h-3.7v-1.1h3.7v-0.9h-4.8v-1.2h4.8v-0.8h-3.6v-1.1h3.6v-1.2h1.7v1.2h3.9V289.4z M578.5,302.9c2.8-0.1,7.3-0.3,11.6-0.5l-0.1,1.4
		c-4.1,0.2-8.5,0.4-11.4,0.5L578.5,302.9z M589,297.3v4.5h-9.2v-4.5H589z M581.3,299.1h2.3v-0.8h-2.3V299.1z M581.3,300.9h2.3v-0.9
		h-2.3V300.9z M585.1,289.4h2.2v-0.8h-2.2V289.4z M587.3,290.6h-2.2v0.9h2.2V290.6z M587.4,298.3h-2.2v0.8h2.2V298.3z M587.4,300.1
		h-2.2v0.9h2.2V300.1z M592.5,299.9h-1.7v-11.2h1.7V299.9z M596.4,286.6v16c0,1.1-0.2,1.6-0.9,1.9c-0.6,0.3-1.7,0.3-3.3,0.3
		c-0.1-0.5-0.3-1.3-0.6-1.9c1.1,0,2.2,0,2.5,0c0.3,0,0.4-0.1,0.4-0.4v-16H596.4z"/>
</g>
<g class="st2">
	<path class="st3" d="M93.6,447.3c0,3.3-0.3,7.9-2.1,11c-0.3-0.3-1.1-0.8-1.6-1c1.7-2.9,1.9-7,1.9-10.1v-5.9h7.6
		c-0.1-0.4-0.3-0.9-0.4-1.3l1.9-0.4c0.2,0.5,0.5,1.2,0.6,1.7h7v1.6H93.6V447.3z M103.3,455.2c1.9,0.7,3.9,1.5,5.2,2l-0.9,1.3
		c-1.3-0.6-3.4-1.5-5.3-2.2l0.7-1.1h-4.4l1.3,1.1c-1.7,0.8-4,1.6-5.6,2.2c-0.2-0.4-0.7-1-1-1.3c1.5-0.5,3.8-1.4,5.1-2H95v-5.8h12.3
		v5.8H103.3z M108.6,447.6v1.1H94.1v-1.1H108.6z M96.9,447.1v-1.7h-2.5v-1.1h2.5v-1h1.8v1h4.6v-1h1.9v1h2.5v1.1h-2.5v1.7H96.9z
		 M96.7,451.7h3.5v-1.2h-3.5V451.7z M96.7,454h3.5v-1.2h-3.5V454z M98.7,445.3v0.8h4.6v-0.8H98.7z M105.5,450.5H102v1.2h3.5V450.5z
		 M105.5,452.8H102v1.2h3.5V452.8z"/>
	<path class="st3" d="M128.7,447.1v1.8h-17.8v-1.8h8.4v-2.8h-4.7c-0.6,1-1.2,1.8-1.8,2.5c-0.4-0.3-1.3-0.8-1.7-1
		c1.5-1.4,2.8-3.7,3.5-5.9l1.9,0.4c-0.3,0.7-0.6,1.5-0.9,2.2h3.8v-2.8h2v2.8h6v1.7h-6v2.8H128.7z M113.3,450.6h13.2v7.9h-2v-1h-9.3
		v1.1h-1.9V450.6z M115.3,452.4v3.4h9.3v-3.4H115.3z"/>
	<path class="st3" d="M141.7,440.4c-0.1,0.2-0.3,0.4-0.5,0.7c2.6,2.9,5.5,4.4,8.6,5.6c-0.5,0.4-1,1.1-1.2,1.6c-3-1.4-5.7-3-8.4-6
		c-2.2,2.5-5.2,4.6-8.2,6c-0.3-0.5-0.8-1.2-1.3-1.6c3.7-1.4,7.4-4.1,9.4-7.1L141.7,440.4z M141.3,456.1h7.5v1.7h-17.2v-1.7h2.4v-7.3
		h1.9v7.3h3.4v-10.8h2v4.5h5.7v1.7h-5.7V456.1z"/>
	<path class="st3" d="M161.7,442.9h1.2v1.2h-1.2v2.1h-3.9v0.8h4.1v1.1h-4.1v0.8h4.9v1.3h-11.4v-1.3h4.7v-0.8h-3.8v-1.1h3.8v-0.8
		h-3.7v-1.1h3.7v-0.9h-4.8v-1.2h4.8v-0.8h-3.6V441h3.6v-1.2h1.7v1.2h3.9V442.9z M151.2,456.4c2.8-0.1,7.3-0.3,11.6-0.5l-0.1,1.4
		c-4.1,0.2-8.5,0.4-11.4,0.5L151.2,456.4z M161.7,450.8v4.5h-9.2v-4.5H161.7z M154,452.6h2.3v-0.8H154V452.6z M154,454.4h2.3v-0.9
		H154V454.4z M157.8,442.9h2.2v-0.8h-2.2V442.9z M160,444.1h-2.2v0.9h2.2V444.1z M160.1,451.8h-2.2v0.8h2.2V451.8z M160.1,453.6
		h-2.2v0.9h2.2V453.6z M165.2,453.4h-1.7v-11.2h1.7V453.4z M169.1,440.2v16c0,1.1-0.2,1.6-0.9,1.9c-0.6,0.3-1.7,0.3-3.3,0.3
		c-0.1-0.5-0.3-1.3-0.6-1.9c1.1,0,2.2,0,2.5,0c0.3,0,0.4-0.1,0.4-0.4v-16H169.1z"/>
</g>
<g class="st2">
	<path class="st3" d="M457.9,455.7v1.9h-18.2v-1.9h8V448H441v-1.9h6.7v-6.3h2v6.3h6.8v1.9h-6.8v7.7H457.9z"/>
	<path class="st3" d="M466.1,450.6l0.4,1.7c-2.1,1-4.4,2.1-6.2,2.9l-0.8-1.9c0.7-0.3,1.7-0.6,2.7-1.1v-5.9H460v-1.8h2.3V440h1.8v4.5
		h2.1v1.8h-2.1v5.1L466.1,450.6z M475.4,456.3c1.1,0,1.3-0.5,1.5-2.7c0.4,0.3,1.2,0.6,1.7,0.7c-0.3,2.8-0.8,3.7-3,3.7h-4.7
		c-2.5,0-3.2-0.6-3.2-3.1v-5.9l-1.4,0.6l-0.7-1.7l2.1-0.9v-5.4h1.8v4.6l2.3-1v-5.6h1.8v4.8l2.7-1.2l1.4,0.5l-0.1,0.3
		c-0.2,2.8-0.5,6.5-1,8.9l-1.5-0.4c0.3-1.7,0.5-4.6,0.6-7.1l-2.2,0.9v7.3h-1.8v-6.5l-2.3,1v6.7c0,1.1,0.2,1.4,1.5,1.4H475.4z"/>
	<path class="st3" d="M487.7,444.7h-7.4v-1.5h3.4c-0.3-0.8-0.9-1.9-1.4-2.7l1.4-0.8c0.5,0.9,1.1,1.9,1.4,2.7l-1.4,0.8h3.9V444.7z
		 M481.1,447.3v-1.5h5.8v1.5H481.1z M481.1,448.5h5.8v1.5h-5.8V448.5z M486.9,457.2h-4.3v0.9h-1.5v-6.9h5.8V457.2z M482.6,452.8v2.9
		h2.7v-2.9H482.6z M498.9,451.3h-4.6v7.1h-1.9v-7.1h-4.7v-1.8h4.7v-7h-4v-1.8h10.1v1.8h-4.2v7h4.6V451.3z M490.3,443.6
		c0.5,1.6,0.9,3.5,1,4.9l-1.6,0.4c-0.1-1.3-0.5-3.3-0.9-4.9L490.3,443.6z M495.2,448.4c0.5-1.3,1-3.5,1.2-5l1.8,0.4
		c-0.5,1.7-1.1,3.7-1.6,5L495.2,448.4z"/>
	<path class="st3" d="M506.7,440.4c-0.5,1.5-1.3,3-2.1,4.4v13.6h-1.8v-10.8c-0.6,0.8-1.1,1.4-1.7,2c-0.2-0.4-0.7-1.5-1-1.9
		c1.9-1.9,3.7-4.9,4.8-7.8L506.7,440.4z M513.6,445.9v3.8h4.4v8.6h-1.9v-0.8h-6.8v0.9h-1.9v-8.7h4.3v-3.8h-5.3V444h5.3v-4.3h2v4.3
		h5.6v1.8H513.6z M516.1,451.5h-6.8v4.2h6.8V451.5z"/>
</g>
<g>
	<path class="st3" d="M289.6,208.1c0,0,15.8,37.6,33.1,84.8c17.3,47.2,29.4,85.7,29.4,85.7s-15.7-37.2-33-84.4
		C301.9,247,289.6,208.1,289.6,208.1z"/>
	<path class="st3" d="M312.1,205.1c14.5-6.6,30.5-4.3,44.8,7c14.3,11.3,25.4,30,31.3,52.7c5.9,22.7,5.7,46.6-0.4,67.3
		c-6.1,20.7-17.6,35.5-32,42.1l0,0c13-6,23.3-24.2,28.8-42.9c5.5-18.6,5-44.2-0.3-64.7C373.4,224.5,339,192.7,312.1,205.1
		L312.1,205.1z"/>
	<path class="st3" d="M246.2,242.4"/>
	<path class="st3" d="M277.9,212.8c-9.2,1.6-22.4,17.8-26,36.8c-3.7,18.9-1.4,41.5,6.4,63.4c7.8,22,20.2,40.7,34.8,52.9
		c14.7,12.1,29.9,15.8,42.9,10.9l0,0c-11.7,4.4-27.8-2.9-41.1-13.8c-13.2-10.9-26-31.5-33-51.2C247.3,270.9,253.7,221.8,277.9,212.8
		L277.9,212.8z"/>
	<path class="st3" d="M346.8,375.4c-50.8,15.3-104.1-11.6-119.2-60.2c-14.9-48.5,14.1-100.3,64.9-115.6c17.6-5.3,31.1-4.7,43.2-1.8
		c16.4,5.7,24.1,18.5,18.1,34.5c-8.7,23-42.7,43.6-76,46c-20.7,1.5-36.1-5.6-42.8-15.8c6.4,12.7,23.9,21.5,48.1,19.7
		c36.5-2.6,73.8-25.4,83.4-50.8c7.2-19.1-3.3-34.3-24.5-39.6c-16.5-5.7-39.4-5.4-62.9,1.7c-55.6,16.8-87.2,73.9-70.7,127.6
		c16.6,53.7,75.1,83.6,130.7,66.8c36.9-11.1,63.2-40.1,71.9-73.9C401.6,342.2,378.4,365.9,346.8,375.4z"/>
	<path class="st3" d="M347.4,375.4c-51.1,15.5-104.6-11.7-119.6-60.8c-15.1-49.1,14.1-101.4,65.1-116.9c17.7-5.4,31.3-4.7,43.4-1.8
		c16.4,5.7,24.2,18.7,18.2,34.8c-8.7,23.3-42.9,44.1-76.3,46.5c-20.8,1.5-36.4-4.5-43.1-14.8c6.4,12.8,24.2,20.5,48.5,18.7
		c36.6-2.7,74.1-25.7,83.8-51.4c7.2-19.3-3.4-34.7-24.6-40c-16.6-5.8-39.6-5.4-63.2,1.7c-55.8,17-87.6,74.7-71,129
		c16.6,54.3,75.4,84.5,131.2,67.6c37.1-11.3,62.6-39.9,71.4-74C401.5,342.5,379.2,365.8,347.4,375.4z"/>
	<path class="st3" d="M394.1,233.8c-2,14.2-10.4,29.9-23.9,43.9c-17.7,21.7-53.1,39.4-87.6,42.4c-26.1,2.2-45.5-4.5-53.7-16.5
		c7.7,15,29.8,23.7,60.2,21.1c45.8-3.9,93.1-31.8,105.7-62.3C399.3,251.4,398.7,241.6,394.1,233.8z"/>
	<path class="st3" d="M404.2,265.8c-1.9,14.7-10.1,30.6-23.3,45.1c-17.3,22.2-51.8,40.4-85.5,43.4c-25.4,2.3-44.3-4.6-52.4-16.9
		c7.6,15.4,29.1,24.3,58.8,21.6c44.7-4,90.8-32.6,103.1-63.9C409.3,283.9,408.7,273.9,404.2,265.8z"/>
</g>
<g>
	<path class="st3" d="M139.4,120.6c-0.3,0-0.6,0.3-0.6,0.6s0.3,0.6,0.6,0.6c0.3,0,0.6-0.3,0.6-0.6S139.8,120.6,139.4,120.6z"/>
	<path class="st3" d="M141,118.6l-3-1l-1.1-2.2c1-1,1.6-2.3,1.9-3.7l0.1-0.8h1.1c1,0,1.9-0.8,1.9-1.9v-4c0-5.2-4.2-9.5-9.5-9.5
		c-5.2,0-9.5,4.2-9.5,9.5v4c0,0.8,0.5,1.5,1.3,1.8v0.7c0,1,0.8,1.9,1.9,1.9h0.6c0.3,0.6,0.6,1.1,1.1,1.6c0.1,0.1,0.2,0.2,0.3,0.3
		l-1.1,2.2l-3,1c-3.5,1.2-6,4.8-6,8.7c0,0.3,0.3,0.6,0.6,0.6h27.7c0.3,0,0.6-0.3,0.6-0.6C147,123.4,144.5,119.7,141,118.6z
		 M140.7,109.1c0,0.3-0.3,0.6-0.6,0.6h-1c0.2-1.2,0.3-2.6,0.3-3.9c0,0,0-0.1,0-0.1h1.3V109.1z M124.9,109.7c-0.3,0-0.6-0.3-0.6-0.6
		v-3.3h1.3c0,0.1,0,0.1,0,0.2c0,0,0,0,0,0c0,0,0,0,0,0c0,1.3,0.1,2.6,0.3,3.8L124.9,109.7L124.9,109.7z M126.2,112.2
		c-0.3,0-0.6-0.3-0.6-0.6V111h0.5l0.1,0.8c0,0.2,0.1,0.3,0.1,0.5H126.2z M125.6,104.5h-1.2c0.3-4.2,3.8-7.6,8.2-7.6
		c4.3,0,7.8,3.3,8.2,7.6h-1.2c0-3.5-2.9-6.3-6.4-6.3h-1.1C128.4,98.2,125.6,101,125.6,104.5z M131.9,99.4h1.1c2.8,0,5.1,2.3,5.1,5.1
		c0,0.2,0,0.4,0,0.5c0,0,0,0,0,0l-0.8-0.1c-2.1-0.3-4.2-1.3-5.7-2.8c-0.1-0.1-0.3-0.2-0.4-0.2c-1.7,0-3.3,0.8-4.4,2.1
		C127.1,101.5,129.3,99.4,131.9,99.4z M127.6,112.2c-0.3-1-0.7-4.1-0.8-6.1l0.8-1.1c0.8-1,2-1.7,3.3-1.8c1.7,1.6,3.9,2.7,6.2,3
		l0.9,0.1c-0.1,1.3-0.2,2.6-0.4,3.9c0,0,0,0,0,0c-0.1,0.4-0.1,0.6-0.2,1.3c-0.3,2-1.8,3.8-3.8,4.3c-0.8,0.2-1.7,0.2-2.5,0
		c-1.2-0.3-2.4-1.2-3.1-2.4h1.3c0.3,0.7,1,1.3,1.8,1.3h1.3c1,0,1.9-0.8,1.9-1.9c0-1-0.8-1.9-1.9-1.9h-1.3c-0.8,0-1.5,0.5-1.8,1.3
		H127.6z M131.2,117.1c0.4,0.1,0.9,0.1,1.3,0.1c0.3,0,0.7,0,1-0.1l-1.1,1.2L131.2,117.1z M131.6,119.3l-2,2.1
		c-0.6-1.1-1-2.2-1.4-3.3l0.8-1.5L131.6,119.3z M136,116.4l0.9,1.7c-0.4,1.1-0.9,2.2-1.4,3.3l-2.1-2.1L136,116.4z M130.6,112.9
		c0-0.3,0.3-0.6,0.6-0.6h1.3c0.3,0,0.6,0.3,0.6,0.6c0,0.3-0.3,0.6-0.6,0.6h-1.3C130.9,113.5,130.6,113.2,130.6,112.9z M119.3,126.7
		c0.2-3.1,2.3-6,5.1-6.9l2.7-0.9c0.5,1.3,1.1,2.7,1.8,3.9c0,0,0,0,0,0c0,0,0,0,0,0c0.5,0.9,1.1,1.8,1.7,2.6l0.8,1.2H119.3z
		 M132.5,126.1l-0.9-1.4c0,0,0,0,0,0c-0.5-0.7-1-1.4-1.4-2.1l2.2-2.4l2.4,2.4c-0.4,0.7-0.9,1.4-1.4,2.1
		C133.4,124.7,133.4,124.7,132.5,126.1z M133.6,126.7l0.8-1.2c0.6-0.8,1.2-1.7,1.7-2.7c0,0,0,0,0,0c0,0,0,0,0,0
		c0.7-1.2,1.3-2.5,1.8-3.9l2.7,0.9c2.8,0.9,4.9,3.8,5.1,6.9H133.6z"/>
	<path class="st3" d="M142,121.9c-0.3-0.2-0.7-0.2-0.9,0.1c-0.2,0.3-0.2,0.7,0.1,0.9c0.6,0.5,1.1,1.1,1.4,1.7
		c0.2,0.3,0.5,0.4,0.8,0.3c0.3-0.2,0.4-0.5,0.3-0.8C143.4,123.3,142.8,122.5,142,121.9z"/>
</g>
<g>
	<path class="st3" d="M316.6,32.3c0.2,0,0.4-0.1,0.5-0.2c0.1-0.1,0.2-0.3,0.2-0.5s-0.1-0.4-0.2-0.5c-0.1-0.1-0.3-0.2-0.5-0.2
		s-0.4,0.1-0.5,0.2c-0.1,0.1-0.2,0.3-0.2,0.5c0,0.2,0.1,0.4,0.2,0.5C316.3,32.2,316.5,32.3,316.6,32.3z"/>
	<path class="st3" d="M300.9,41.2h-5.8c-0.4,0-0.7,0.3-0.7,0.7v5.8c0,0.4,0.3,0.7,0.7,0.7h5.8c0.4,0,0.7-0.3,0.7-0.7v-5.8
		C301.6,41.5,301.3,41.2,300.9,41.2z M300.2,46.9h-4.3v-4.3h4.3V46.9z"/>
	<path class="st3" d="M326.6,35.9c-0.3-0.1-0.6,0-0.8,0.2l-7.4,7.4c0,0,0,0,0,0c0,0,0,0,0,0l-8.6,8.6c0,0,0,0,0,0c0,0,0,0,0,0
		l-4.5,4.5c-0.2,0.2-0.3,0.5-0.2,0.8c0.1,0.3,0.4,0.4,0.7,0.4h20.5c0.4,0,0.7-0.3,0.7-0.7V36.6C327.1,36.3,326.9,36.1,326.6,35.9z
		 M325.6,56.3h-18l2.8-2.8l0.7,0.7c0.1,0.1,0.3,0.2,0.5,0.2c0.2,0,0.4-0.1,0.5-0.2c0.3-0.3,0.3-0.7,0-1l-0.7-0.7l1.8-1.8l0.7,0.7
		c0.1,0.1,0.3,0.2,0.5,0.2s0.4-0.1,0.5-0.2c0.3-0.3,0.3-0.7,0-1l-0.7-0.7l1.8-1.8l0.7,0.7c0.1,0.1,0.3,0.2,0.5,0.2s0.4-0.1,0.5-0.2
		c0.3-0.3,0.3-0.7,0-1l-0.7-0.7L319,45l0.7,0.7c0.1,0.1,0.3,0.2,0.5,0.2c0.2,0,0.4-0.1,0.5-0.2c0.3-0.3,0.3-0.7,0-1L320,44l1.8-1.8
		l0.7,0.7c0.1,0.1,0.3,0.2,0.5,0.2c0.2,0,0.4-0.1,0.5-0.2c0.3-0.3,0.3-0.7,0-1l-0.7-0.7l2.8-2.8V56.3z"/>
	<path class="st3" d="M323,44.7c-0.3-0.1-0.6,0-0.8,0.2l-8.1,8.1c-0.2,0.2-0.3,0.5-0.2,0.8c0.1,0.3,0.4,0.4,0.7,0.4h8.1
		c0.4,0,0.7-0.3,0.7-0.7v-8.1C323.4,45,323.3,44.8,323,44.7z M322,52.7h-5.6l5.6-5.6V52.7z"/>
	<path class="st3" d="M304.5,53.6c0.8,0,1.5-0.3,2.1-0.9l6.1-6.1c0.3-0.3,0.3-0.7,0-1c-0.3-0.3-0.7-0.3-1,0l-4.6,4.6l-2.1-2.1
		l13.2-13.2l2.1,2.1l-5,5c-0.3,0.3-0.3,0.7,0,1c0.3,0.3,0.7,0.3,1,0l5.5-5.5c0.1-0.1,0.1-0.2,0.2-0.3l1.8-4.9c0.1-0.3,0-0.6-0.2-0.8
		c-0.2-0.2-0.5-0.3-0.8-0.2l-4.9,1.8c-0.1,0-0.2,0.1-0.3,0.2l-1.4,1.4l-9.1-9.1c-0.1-0.1-0.3-0.2-0.5-0.2s-0.4,0.1-0.5,0.2
		l-10.9,10.9h-2.7l14.1-14.1l7.7,7.7c0.3,0.3,0.7,0.3,1,0c0.3-0.3,0.3-0.7,0-1l-8.2-8.2c-0.3-0.3-0.7-0.3-1,0l-15.8,15.8
		c-0.2,0.2-0.3,0.5-0.2,0.8c0.1,0.3,0.4,0.4,0.7,0.4h0.7v19c0,0.4,0.3,0.7,0.7,0.7h11.5c0.4,0,0.7-0.3,0.7-0.7
		c0-0.4-0.3-0.7-0.7-0.7h-10.8V38.1h2.5c0.2,0,0.4-0.1,0.5-0.2l10.6-10.6l8.5,8.5l-10.7,10.7V40h5.1c0.4,0,0.7-0.3,0.7-0.7
		c0-0.4-0.3-0.7-0.7-0.7h-5.8c-0.4,0-0.7,0.3-0.7,0.7v8.4c0,0.1,0,0.2,0,0.2l-0.6,0.6c-1.1,1.1-1.1,3,0,4.1
		C303,53.3,303.7,53.6,304.5,53.6z M321.8,33.3l-0.9,2.4l-1.5-1.5L321.8,33.3z M303.4,49.6l0.5-0.5l2.1,2.1l-0.5,0.5
		c-0.3,0.3-0.7,0.4-1.1,0.4c-0.4,0-0.8-0.2-1.1-0.4c-0.3-0.3-0.4-0.7-0.4-1.1S303.1,49.9,303.4,49.6z"/>
	<path class="st3" d="M313.4,43.8c-0.1,0.1-0.2,0.3-0.2,0.5c0,0.2,0.1,0.4,0.2,0.5c0.1,0.1,0.3,0.2,0.5,0.2c0.2,0,0.4-0.1,0.5-0.2
		c0.1-0.1,0.2-0.3,0.2-0.5c0-0.2-0.1-0.4-0.2-0.5c-0.1-0.1-0.3-0.2-0.5-0.2S313.5,43.7,313.4,43.8z"/>
	<path class="st3" d="M309.3,34.4c0-1.5-1.2-2.7-2.7-2.7s-2.7,1.2-2.7,2.7s1.2,2.7,2.7,2.7S309.3,36,309.3,34.4z M305.3,34.4
		c0-0.7,0.6-1.3,1.3-1.3s1.3,0.6,1.3,1.3c0,0.7-0.6,1.3-1.3,1.3S305.3,35.2,305.3,34.4z"/>
</g>
<g>
	<path class="st3" d="M497.6,104.2H494c-0.7,0-1.3,0.6-1.3,1.3v0.6h-1.9c-0.6,0-1.2-0.2-1.7-0.5l-1.9-1.3c-2.2-1.5-5.2-1.5-7.4,0.1
		c-2-1.4-4.7-1.6-6.8-0.5c-0.3,0.1-0.4,0.5-0.2,0.8c0.1,0.3,0.5,0.4,0.8,0.2c1.7-0.9,3.7-0.8,5.3,0.2l-5,3.7
		c-0.4,0.3-0.6,0.8-0.6,1.2c0,0.5,0.2,1,0.6,1.3c1.2,0.9,2.8,1,4.1,0.4l3.7-1.9c0.2,0.5,0.5,1.2,1.1,1.9c0.4,0.5,0.8,0.9,1.5,1.4
		c0,0,5.3,3.6,5.3,3.6c0.4,0.3,0.5,0.8,0.2,1.2c-0.3,0.4-0.8,0.5-1.2,0.2l-6.9-4.8c-0.3-0.2-0.6-0.1-0.8,0.1
		c-0.2,0.3-0.1,0.6,0.1,0.8l6.8,4.7c0.4,0.3,0.5,0.8,0.2,1.2c-0.3,0.4-0.8,0.5-1.2,0.2l-6.8-4.7c-0.3-0.2-0.6-0.1-0.8,0.1
		c-0.2,0.3-0.1,0.6,0.1,0.8l6.1,4.2c0.4,0.3,0.5,0.8,0.2,1.2c-0.3,0.4-0.8,0.5-1.2,0.2c0,0-6.2-4.2-6.2-4.2c0-0.6-0.3-1.2-0.9-1.5
		c-0.7-0.5-1.7-0.4-2.4,0.1c-0.1-0.3-0.4-0.5-0.6-0.7c-0.9-0.6-2.2-0.4-2.8,0.5l-0.8,1.2c-0.1,0.2-0.2,0.4-0.3,0.6
		c-0.7-0.3-1.4-0.5-2.2-0.5H467v-10.5h1.9c0.8,0,1.6-0.2,2.3-0.7l0.5-0.4c0.3-0.2,0.3-0.5,0.2-0.8c-0.2-0.3-0.5-0.3-0.8-0.2
		l-0.5,0.4c-0.5,0.3-1.1,0.5-1.7,0.5H467v-0.6c0-0.7-0.6-1.3-1.3-1.3h-3.6c-0.7,0-1.3,0.6-1.3,1.3v7.1c0,0.3,0.2,0.6,0.6,0.6
		c0.3,0,0.6-0.2,0.6-0.6v-7.1c0-0.1,0.1-0.2,0.2-0.2h3.6c0.1,0,0.2,0.1,0.2,0.2v14c0,0.1-0.1,0.2-0.2,0.2h-3.6
		c-0.1,0-0.2-0.1-0.2-0.2v-4.7c0-0.3-0.3-0.6-0.6-0.6c-0.3,0-0.6,0.2-0.6,0.6v4.7c0,0.7,0.6,1.3,1.3,1.3h3.6c0.7,0,1.3-0.6,1.3-1.3
		v-0.6h1.3c0.7,0,1.5,0.2,2.1,0.6l0.2,0.1c0.1,0.3,0.4,0.6,0.7,0.8c0.5,0.3,1,0.4,1.5,0.3c0.1,0.5,0.4,1,0.8,1.3
		c0.5,0.3,1,0.4,1.5,0.3c0.1,0.5,0.4,1,0.8,1.3c0.5,0.3,1,0.4,1.5,0.3c0.1,0.5,0.4,1,0.8,1.3c0.9,0.6,2.1,0.4,2.7-0.5l0.2,0.2
		c0.9,0.6,2.2,0.4,2.8-0.5c0.2-0.3,0.3-0.6,0.3-0.9c0.8,0.2,1.7-0.1,2.2-0.8c0.2-0.3,0.3-0.7,0.3-1c0.8,0.1,1.6-0.2,2-0.8
		c0.3-0.4,0.4-0.8,0.3-1.3c0.6-0.4,1.4-0.6,2.2-0.6h1.3v0.6c0,0.7,0.6,1.3,1.3,1.3h3.6c0.7,0,1.3-0.6,1.3-1.3v-14
		C498.8,104.7,498.3,104.2,497.6,104.2z M473.1,119.1c-0.3,0.4-0.8,0.5-1.2,0.2c-0.4-0.3-0.5-0.8-0.2-1.2l0.8-1.2
		c0.3-0.4,0.8-0.5,1.2-0.2c0.4,0.3,0.5,0.8,0.2,1.2L473.1,119.1z M475.5,120.7c-0.3,0.4-0.8,0.5-1.2,0.2c-0.4-0.3-0.5-0.8-0.2-1.2
		l1.5-2.2c0.3-0.4,0.8-0.5,1.2-0.2c0.4,0.3,0.5,0.8,0.2,1.2L475.5,120.7z M477.8,122.3c-0.3,0.4-0.8,0.5-1.2,0.2
		c-0.4-0.3-0.5-0.8-0.2-1.2l1.1-1.6c0.2-0.4,0.8-0.5,1.1-0.3l0.1,0.1c0.3,0.3,0.4,0.8,0.2,1.2L477.8,122.3z M481.3,122.4l-1.1,1.6
		c-0.3,0.4-0.8,0.5-1.2,0.2c-0.4-0.3-0.5-0.8-0.2-1.2l1.1-1.6c0.3-0.4,0.8-0.5,1.2-0.2v0C481.4,121.4,481.5,122,481.3,122.4z
		 M483.1,123.6c-0.3,0.4-0.8,0.5-1.2,0.2l-0.2-0.2l0.5-0.7c0.2-0.3,0.3-0.5,0.3-0.8l0.4,0.3C483.3,122.7,483.4,123.3,483.1,123.6z
		 M497.7,119.4c0,0.1-0.1,0.2-0.2,0.2H494c-0.1,0-0.2-0.1-0.2-0.2v-8c0-0.3-0.2-0.6-0.6-0.6c-0.3,0-0.6,0.2-0.6,0.6v6.2h-1.3
		c-0.2,0-0.3,0-0.5,0c0.2-0.8-0.2-1.6-0.8-2l-2.3-1.6c0.1,0,0.2,0,0.4,0c0.3,0,0.6-0.2,0.6-0.6c0-0.3-0.2-0.6-0.6-0.6
		c-1.3,0-2.4-0.3-3.3-0.9l0,0c0,0,0,0,0,0c-0.5-0.3-0.9-0.7-1.2-1.1c-0.9-1.1-1.1-2.1-1.1-2.1c0-0.2-0.2-0.3-0.3-0.4
		c-0.2-0.1-0.3-0.1-0.5,0l-4.3,2.2c-0.9,0.5-2,0.4-2.9-0.3c-0.1-0.1-0.2-0.2-0.2-0.4c0-0.1,0.1-0.3,0.2-0.4l5.9-4.4
		c1.8-1.3,4.3-1.4,6.2-0.1l1.9,1.3c0.7,0.5,1.5,0.7,2.3,0.7h1.9v2.1c0,0.3,0.2,0.6,0.6,0.6c0.3,0,0.6-0.2,0.6-0.6v-3.8
		c0-0.1,0.1-0.2,0.2-0.2h3.6c0.1,0,0.2,0.1,0.2,0.2V119.4z"/>
	<path class="st3" d="M464.5,117.7v-0.9c0-0.3-0.2-0.6-0.6-0.6c-0.3,0-0.6,0.2-0.6,0.6v0.9c0,0.3,0.2,0.6,0.6,0.6
		C464.2,118.3,464.5,118,464.5,117.7z"/>
	<path class="st3" d="M495.8,116.3c-0.3,0-0.6,0.2-0.6,0.6v0.9c0,0.3,0.2,0.6,0.6,0.6c0.3,0,0.6-0.2,0.6-0.6v-0.9
		C496.3,116.5,496.1,116.3,495.8,116.3z"/>
</g>
<g>
	<path class="st3" d="M554.3,278.8c-5.7-1-10.2-5.5-11.2-11.2c-0.1-0.3-0.4-0.6-0.7-0.5c-0.3,0.1-0.6,0.4-0.5,0.7
		c1.1,6.2,6,11.2,12.3,12.3c0,0,0.1,0,0.1,0c0.3,0,0.6-0.2,0.6-0.5C554.9,279.2,554.6,278.9,554.3,278.8z"/>
	<path class="st3" d="M571.2,267.1c-0.4-0.1-0.7,0.2-0.7,0.5c-1,5.7-5.5,10.2-11.2,11.2c-0.4,0.1-0.6,0.4-0.5,0.7
		c0.1,0.3,0.3,0.5,0.6,0.5c0,0,0.1,0,0.1,0c6.2-1.1,11.2-6,12.3-12.3C571.8,267.5,571.5,267.2,571.2,267.1z"/>
	<path class="st3" d="M542.3,263.2c0,0,0.1,0,0.1,0c0.3,0,0.6-0.2,0.6-0.5c1-5.7,5.5-10.2,11.2-11.2c0.4-0.1,0.6-0.4,0.5-0.7
		c-0.1-0.4-0.4-0.6-0.7-0.5c-6.2,1.1-11.2,6-12.3,12.3C541.8,262.8,542,263.2,542.3,263.2z"/>
	<path class="st3" d="M576.6,249.7l-2.6-0.9l2-2c0.2-0.2,0.2-0.7,0-0.9c-0.2-0.2-0.7-0.2-0.9,0l-2,2l-0.9-2.6
		c-0.1-0.2-0.2-0.4-0.5-0.4c-0.2,0-0.4,0-0.6,0.2l-3,3c-0.8,0.8-1.2,1.8-1.2,2.9c0,0.9,0.3,1.7,0.8,2.4L567,254
		c-2.1-1.9-4.7-3.3-7.6-3.8c-0.3-0.1-0.7,0.2-0.7,0.5c-0.1,0.3,0.2,0.7,0.5,0.7c2.6,0.5,5,1.7,6.9,3.4l-7,7
		c-0.7-0.5-1.5-0.8-2.4-0.8c-2.2,0-4.1,1.8-4.1,4.1s1.8,4.1,4.1,4.1c2.2,0,4.1-1.8,4.1-4.1c0-0.9-0.3-1.7-0.8-2.4l7-7
		c1.7,1.9,2.9,4.3,3.4,6.9c0.1,0.3,0.4,0.6,0.7,0.5c0.3-0.1,0.6-0.4,0.5-0.7c-0.5-2.9-1.9-5.5-3.8-7.6l0.7-0.7
		c0.7,0.5,1.5,0.8,2.4,0.8c1.1,0,2.1-0.4,2.9-1.2l3-3c0.2-0.2,0.2-0.4,0.2-0.6C577,250,576.8,249.8,576.6,249.7z M556.8,267.9
		c-1.5,0-2.8-1.2-2.8-2.8c0-1.5,1.2-2.8,2.8-2.8c0.5,0,1,0.1,1.5,0.4l-1.9,1.9c-0.2,0.2-0.2,0.7,0,0.9c0.2,0.2,0.7,0.2,0.9,0
		l1.9-1.9c0.3,0.4,0.4,0.9,0.4,1.5C559.5,266.7,558.3,267.9,556.8,267.9z M569,249l2.3-2.3l0.8,2.3l-3.4,3.4
		C568,251.3,568.1,249.9,569,249z M573,252.9c-0.9,0.9-2.4,1.1-3.4,0.4l3.4-3.4l2.3,0.8L573,252.9z"/>
	<path class="st3" d="M575.8,264.5h-10.7c-0.1-1.1-0.4-2.1-0.8-3c-0.2-0.3-0.5-0.4-0.9-0.3c-0.3,0.2-0.4,0.5-0.3,0.9
		c0.4,0.8,0.6,1.6,0.7,2.5h-1.7c-0.4,0-0.7,0.3-0.7,0.7s0.3,0.7,0.7,0.7h1.7c-0.3,3.4-3,6.1-6.4,6.4v-1.7c0-0.4-0.3-0.7-0.7-0.7
		s-0.7,0.3-0.7,0.7v1.7c-3.4-0.3-6.1-3-6.4-6.4h1.6c0.4,0,0.7-0.3,0.7-0.7s-0.3-0.7-0.7-0.7h-1.6c0.3-3.4,3-6,6.4-6.3v1.6
		c0,0.4,0.3,0.7,0.7,0.7s0.7-0.3,0.7-0.7v-1.6c0.9,0.1,1.8,0.3,2.6,0.7c0.3,0.2,0.7,0,0.9-0.3c0.2-0.3,0-0.7-0.3-0.9
		c-1-0.5-2.1-0.8-3.2-0.9v-10.7c0-0.4-0.3-0.7-0.7-0.7s-0.7,0.3-0.7,0.7v10.7c-4.1,0.3-7.3,3.6-7.6,7.6h-3c0.2-3.1,1.6-6,4-8
		c0.3-0.2,0.3-0.6,0.1-0.9c-0.2-0.3-0.6-0.3-0.9-0.1c-2.7,2.3-4.3,5.5-4.5,9h-6.4c-0.4,0-0.7,0.3-0.7,0.7s0.3,0.7,0.7,0.7h6.4
		c0.2,3.5,1.8,6.8,4.5,9c0.1,0.1,0.3,0.1,0.4,0.1c0.2,0,0.4-0.1,0.5-0.2c0.2-0.3,0.2-0.7-0.1-0.9c-2.4-2-3.9-4.9-4-8h3
		c0.3,4.1,3.6,7.3,7.6,7.7v10.7c0,0.4,0.3,0.7,0.7,0.7s0.7-0.3,0.7-0.7v-10.7c4.1-0.3,7.4-3.6,7.7-7.7h10.7c0.4,0,0.7-0.3,0.7-0.7
		S576.1,264.5,575.8,264.5z"/>
</g>
<g>
	<path class="st3" d="M476.4,429.6c-0.2,0-0.3,0.1-0.4,0.2s-0.2,0.3-0.2,0.4s0.1,0.3,0.2,0.4s0.3,0.2,0.4,0.2c0.2,0,0.3-0.1,0.4-0.2
		s0.2-0.3,0.2-0.4s-0.1-0.3-0.2-0.4S476.6,429.6,476.4,429.6z"/>
	<path class="st3" d="M495.1,409.9c-0.9-0.9-2.3-0.9-3.2,0l-2.9,2.9v-9.3c0-1.2-1-2.1-2.1-2.1h-21c-1.2,0-2.1,1-2.1,2.1v27.8
		c0,1.2,1,2.1,2.1,2.1h21c1.2,0,2.1-1,2.1-2.1v-12.1l6.1-6.1C496,412.2,496,410.8,495.1,409.9z M481.7,402.6h5.2
		c0.5,0,0.9,0.4,0.9,0.9V414l-1.3,1.3v-10.8c0-0.3-0.3-0.6-0.6-0.6h-4.2V402.6z M472.3,402.6h8.1v2.5c0,0.4-0.3,0.7-0.7,0.7H473
		c-0.4,0-0.7-0.3-0.7-0.7V402.6z M487.8,431.2c0,0.5-0.4,0.9-0.9,0.9h-21c-0.5,0-0.9-0.4-0.9-0.9v-27.8c0-0.5,0.4-0.9,0.9-0.9h5.2
		v1.3h-4.2c-0.3,0-0.6,0.3-0.6,0.6v25.8c0,0.3,0.3,0.6,0.6,0.6h7c0.3,0,0.6-0.3,0.6-0.6c0-0.3-0.3-0.6-0.6-0.6h-6.4v-24.5h3.6v0
		c0,1.1,0.9,2,2,2h6.7c1.1,0,2-0.9,2-2v0h3.6v11.4l-0.7,0.7c-0.1,0.1-0.1,0.1-0.1,0.2l-1.9,4.2c-0.1,0.2-0.1,0.5,0.1,0.7
		c0.1,0.1,0.3,0.2,0.4,0.2c0.1,0,0.2,0,0.3-0.1l1.9-0.8v8h-6.4c-0.3,0-0.6,0.3-0.6,0.6c0,0.3,0.3,0.6,0.6,0.6h7
		c0.3,0,0.6-0.3,0.6-0.6V421l1.1-0.5c0.1,0,0.1-0.1,0.2-0.1V431.2z M486.3,419.8l-1.9,0.8l0.8-1.9L486.3,419.8z M491.9,414.6
		l-4.6,4.6l-1.5-1.5l5.6-5.6l1.5,1.5L491.9,414.6z M494.2,412.2l-0.4,0.4l-1.5-1.5l0.4-0.4c0.4-0.4,1.1-0.4,1.5,0
		C494.6,411.2,494.6,411.8,494.2,412.2z"/>
	<path class="st3" d="M473.9,408.9h-4c-0.3,0-0.6,0.3-0.6,0.6v4c0,0.3,0.3,0.6,0.6,0.6h4c0.3,0,0.6-0.3,0.6-0.6v-4
		C474.5,409.1,474.3,408.9,473.9,408.9z M473.3,412.9h-2.8v-2.8h2.8V412.9z"/>
	<path class="st3" d="M473.9,415.7h-4c-0.3,0-0.6,0.3-0.6,0.6v4c0,0.3,0.3,0.6,0.6,0.6h4c0.3,0,0.6-0.3,0.6-0.6v-4
		C474.5,416,474.3,415.7,473.9,415.7z M473.3,419.7h-2.8V417h2.8V419.7z"/>
	<path class="st3" d="M473.9,422.6h-4c-0.3,0-0.6,0.3-0.6,0.6v4c0,0.3,0.3,0.6,0.6,0.6h4c0.3,0,0.6-0.3,0.6-0.6v-4
		C474.5,422.9,474.3,422.6,473.9,422.6z M473.3,426.6h-2.8v-2.8h2.8V426.6z"/>
	<path class="st3" d="M478.4,413.3c0.1,0.1,0.3,0.2,0.4,0.2s0.3-0.1,0.4-0.2l2.8-2.8c0.2-0.2,0.2-0.6,0-0.9c-0.2-0.2-0.6-0.2-0.9,0
		l-2.4,2.4l-0.9-0.9c-0.2-0.2-0.6-0.2-0.9,0c-0.2,0.2-0.2,0.6,0,0.9L478.4,413.3z"/>
	<path class="st3" d="M478.4,420.2c0.1,0.1,0.3,0.2,0.4,0.2s0.3-0.1,0.4-0.2l2.8-2.8c0.2-0.2,0.2-0.6,0-0.9c-0.2-0.2-0.6-0.2-0.9,0
		l-2.4,2.4l-0.9-0.9c-0.2-0.2-0.6-0.2-0.9,0c-0.2,0.2-0.2,0.6,0,0.9L478.4,420.2z"/>
	<path class="st3" d="M479.5,426.1l1,1c0.1,0.1,0.3,0.2,0.4,0.2c0.2,0,0.3-0.1,0.4-0.2c0.2-0.2,0.2-0.6,0-0.9l-1-1l1-1
		c0.2-0.2,0.2-0.6,0-0.9s-0.6-0.2-0.9,0l-1,1l-1-1c-0.2-0.2-0.6-0.2-0.9,0c-0.2,0.2-0.2,0.6,0,0.9l1,1l-1,1c-0.2,0.2-0.2,0.6,0,0.9
		c0.1,0.1,0.3,0.2,0.4,0.2s0.3-0.1,0.4-0.2L479.5,426.1z"/>
</g>
<g>
	<path class="st3" d="M62.2,279.4h-7.4c-0.3,0-0.6,0.3-0.6,0.6c0,0.3,0.3,0.6,0.6,0.6h7.4c0.3,0,0.6-0.3,0.6-0.6
		C62.8,279.6,62.5,279.4,62.2,279.4L62.2,279.4z M62.2,279.4"/>
	<path class="st3" d="M73.1,250.9h-2.7v-1c0-0.3-0.3-0.6-0.6-0.6c-0.3,0-0.6,0.3-0.6,0.6v1H52.9c-0.3,0-0.6,0.3-0.6,0.6
		c0,0.3,0.3,0.6,0.6,0.6h19.9v11.8H60.2c-0.3,0-0.7,0.2-0.8,0.5L58,267l-1.4-2.6c-0.2-0.3-0.5-0.5-0.8-0.5H43.2v-11.8h7.1
		c0.3,0,0.6-0.3,0.6-0.6c0-0.3-0.3-0.6-0.6-0.6h-2.6v-5.6c0-1,0.8-1.8,1.8-1.8h2.3v1.8c0,0.8,0.6,1.4,1.4,1.4h10.5
		c0.8,0,1.4-0.6,1.4-1.4v-1.8h2.3c1,0,1.8,0.8,1.8,1.8v2.1c0,0.3,0.3,0.6,0.6,0.6c0.3,0,0.6-0.3,0.6-0.6v-2.1c0-1.7-1.3-3-3-3H49.6
		c-1.7,0-3,1.3-3,3v5.6h-3.6c-0.5,0-0.9,0.4-0.9,0.9v12.3c0,0.5,0.4,0.9,0.9,0.9h3.6v7.9c0,0.3,0.3,0.6,0.6,0.6
		c0.3,0,0.6-0.3,0.6-0.6v-7.9h7.9l1.7,3.2c0.1,0.3,0.4,0.4,0.7,0.4s0.5-0.2,0.7-0.4l1.7-3.2h8.9v11.8H47.8v-1.3
		c0-0.3-0.3-0.6-0.6-0.6c-0.3,0-0.6,0.3-0.6,0.6v4.6c0,1.7,1.3,3,3,3h17.9c1.7,0,3-1.3,3-3v-2.7c0,0,0,0,0,0s0,0,0,0v-12.4h2.7
		c0.5,0,0.9-0.4,0.9-0.9v-12.3C74,251.3,73.6,250.9,73.1,250.9L73.1,250.9z M64,243.6v1.8c0,0.1-0.1,0.2-0.2,0.2H53.2
		c-0.1,0-0.2-0.1-0.2-0.2v-1.8H64z M67.4,282H49.6c-1,0-1.8-0.8-1.8-1.8v-2.2h21.5v2.2C69.2,281.2,68.4,282,67.4,282L67.4,282z
		 M67.4,282"/>
	<path class="st3" d="M46.1,255v5.4c0,0.6,0.5,1.1,1.1,1.1h5.4c0.6,0,1.1-0.5,1.1-1.1V255c0-0.6-0.5-1.1-1.1-1.1h-5.4
		C46.6,254,46.1,254.4,46.1,255L46.1,255z M47.3,255.2h5.2v5.2h-5.2V255.2z M47.3,255.2"/>
	<path class="st3" d="M55.7,256.6h12.8c0.3,0,0.6-0.3,0.6-0.6c0-0.3-0.3-0.6-0.6-0.6H55.7c-0.3,0-0.6,0.3-0.6,0.6
		C55.1,256.3,55.4,256.6,55.7,256.6L55.7,256.6z M55.7,256.6"/>
	<path class="st3" d="M55.7,260.3h12.8c0.3,0,0.6-0.3,0.6-0.6c0-0.3-0.3-0.6-0.6-0.6H55.7c-0.3,0-0.6,0.3-0.6,0.6
		C55.1,260,55.4,260.3,55.7,260.3L55.7,260.3z M55.7,260.3"/>
</g>
<g>
	<path class="st3" d="M-57,281.3h7.4c0.3,0,0.6-0.3,0.6-0.6s-0.3-0.6-0.6-0.6H-57c-0.3,0-0.6,0.3-0.6,0.6S-57.4,281.3-57,281.3z"/>
	<path class="st3" d="M-38.7,251.7h-2.7v-1c0-0.3-0.3-0.6-0.6-0.6c-0.3,0-0.6,0.3-0.6,0.6v1h-16.3c-0.3,0-0.6,0.3-0.6,0.6
		c0,0.3,0.3,0.6,0.6,0.6H-39v11.8h-12.6c-0.3,0-0.7,0.2-0.8,0.5l-1.4,2.6l-1.4-2.6c-0.2-0.3-0.5-0.5-0.8-0.5h-12.6v-11.8h7.1
		c0.3,0,0.6-0.3,0.6-0.6c0-0.3-0.3-0.6-0.6-0.6h-2.6v-5.6c0-1,0.8-1.8,1.8-1.8h2.3v1.8c0,0.8,0.6,1.4,1.4,1.4h10.5
		c0.8,0,1.4-0.6,1.4-1.4v-1.8h2.3c1,0,1.8,0.8,1.8,1.8v2.1c0,0.3,0.3,0.6,0.6,0.6c0.3,0,0.6-0.3,0.6-0.6v-2.1c0-1.7-1.3-3-3-3h-17.9
		c-1.7,0-3,1.3-3,3v5.6h-3.6c-0.5,0-0.9,0.4-0.9,0.9v12.3c0,0.5,0.4,0.9,0.9,0.9h3.6v7.9c0,0.3,0.3,0.6,0.6,0.6
		c0.3,0,0.6-0.3,0.6-0.6v-7.9h7.9l1.7,3.2c0.1,0.3,0.4,0.4,0.7,0.4c0.3,0,0.5-0.2,0.7-0.4l1.7-3.2h8.9v11.8h-21.5v-1.3
		c0-0.3-0.3-0.6-0.6-0.6c-0.3,0-0.6,0.3-0.6,0.6v4.6c0,1.7,1.3,3,3,3h17.9c1.7,0,3-1.3,3-3v-2.7c0,0,0,0,0,0c0,0,0,0,0,0v-12.4h2.7
		c0.5,0,0.9-0.4,0.9-0.9v-12.3C-37.8,252.1-38.2,251.7-38.7,251.7z M-58.8,244.3h10.9v1.8c0,0.1-0.1,0.2-0.2,0.2h-10.5
		c-0.1,0-0.2-0.1-0.2-0.2V244.3z M-42.6,280.9c0,1-0.8,1.8-1.8,1.8h-17.9c-1,0-1.8-0.8-1.8-1.8v-2.2h21.5V280.9z"/>
	<path class="st3" d="M-65.8,255.8v5.4c0,0.6,0.5,1.1,1.1,1.1h5.4c0.6,0,1.1-0.5,1.1-1.1v-5.4c0-0.6-0.5-1.1-1.1-1.1h-5.4
		C-65.3,254.7-65.8,255.2-65.8,255.8z M-64.6,255.9h5.2v5.2h-5.2V255.9z"/>
	<path class="st3" d="M-56.1,257.3h12.8c0.3,0,0.6-0.3,0.6-0.6c0-0.3-0.3-0.6-0.6-0.6h-12.8c-0.3,0-0.6,0.3-0.6,0.6
		C-56.7,257-56.5,257.3-56.1,257.3z"/>
	<path class="st3" d="M-56.1,261h12.8c0.3,0,0.6-0.3,0.6-0.6c0-0.3-0.3-0.6-0.6-0.6h-12.8c-0.3,0-0.6,0.3-0.6,0.6
		C-56.7,260.7-56.5,261-56.1,261z"/>
</g>
<g>
	<path class="st3" d="M145.1,413.3h-4.5l2.7-3c0.2-0.2,0.2-0.4,0.2-0.6c0-0.2-0.1-0.4-0.3-0.6l-1.2-1c-0.3-0.3-0.9-0.3-1.2,0.1
		l-4.7,5.2h-8.1c-0.2,0-0.4,0.2-0.4,0.4s0.2,0.4,0.4,0.4h7.4l-1.9,2.1c-0.2,0.2-0.2,0.4-0.2,0.6c0,0,0,0.1,0,0.1l-0.7,1.8
		c-0.1,0.3,0,0.6,0.2,0.7c0.1,0.1,0.3,0.2,0.5,0.2c0.1,0,0.2,0,0.3-0.1l1.7-0.8c0,0,0,0,0,0c0,0,0,0,0,0c0.2,0,0.4-0.1,0.6-0.3
		l3.8-4.3h5.3c0.1,0,0.1,0.1,0.1,0.1v16.4c0,0.1-0.1,0.1-0.1,0.1H142c-0.2,0-0.4,0.2-0.4,0.4c0,0.2,0.2,0.4,0.4,0.4h3.1
		c0.5,0,1-0.4,1-1v-16.4C146.1,413.7,145.7,413.3,145.1,413.3z M141.5,408.6l1.2,1l-0.5,0.6l-1.2-1L141.5,408.6z M133.7,418.5
		l0.3-0.8l0.5,0.4L133.7,418.5z M134.2,416.8l6.2-6.9l0.3,0.2l-6.2,6.9L134.2,416.8z M135.4,417.8l-0.3-0.2l6.2-6.9l0.3,0.2
		L135.4,417.8z"/>
	<path class="st3" d="M140.2,430.8h-19.1c-1.7,0-3.1-1.4-3.1-3.1v-0.2c0-1.7,1.4-3.1,3.1-3.1h0.9c0.5,0,1-0.4,1-1v-9.2h3.3
		c0.2,0,0.4-0.2,0.4-0.4c0-0.2-0.2-0.4-0.4-0.4h-3.3v-1.5c0-0.2-0.2-0.4-0.4-0.4c-0.2,0-0.4,0.2-0.4,0.4v11.5c0,0.1-0.1,0.1-0.1,0.1
		h-0.9c-1.3,0-2.4,0.6-3.1,1.5v-15.1c0-1.7,1.4-3.1,3.1-3.1h0.9c0.1,0,0.1,0.1,0.1,0.1v3c0,0.2,0.2,0.4,0.4,0.4
		c0.2,0,0.4-0.2,0.4-0.4v-3c0-0.5-0.4-1-1-1h-0.9c-2.2,0-4,1.8-4,4v17.7c0,2.2,1.8,4,4,4h19.1c0.2,0,0.4-0.2,0.4-0.4
		C140.6,430.9,140.4,430.8,140.2,430.8z"/>
	<path class="st3" d="M139.8,417.7c-1.7,0-3.2,1.4-3.3,3.1h-2c-0.2,0-0.4,0.2-0.4,0.4v4.9c0,0.2,0.2,0.4,0.4,0.4h4.9
		c0.2,0,0.4-0.2,0.4-0.4v-1.8c1.8,0,3.2-1.5,3.2-3.3C143.1,419.2,141.6,417.7,139.8,417.7z M139,425.7h-4v-4h1.6
		c0.3,1.2,1.2,2.2,2.4,2.5V425.7z M139,423.3c-0.7-0.3-1.3-0.9-1.5-1.6h1.5V423.3z M139.9,423.4v-2.2c0-0.2-0.2-0.4-0.4-0.4h-2
		c0.1-1.2,1.1-2.2,2.4-2.2c1.3,0,2.4,1.1,2.4,2.4C142.2,422.3,141.2,423.4,139.9,423.4z"/>
	<path class="st3" d="M141.4,424.6c-0.2,0-0.4,0.2-0.4,0.4c0,0.2,0.2,0.4,0.4,0.4h0.9c0.2,0,0.4-0.2,0.4-0.4c0-0.2-0.2-0.4-0.4-0.4
		H141.4z"/>
	<path class="st3" d="M142.7,426.1c0-0.2-0.2-0.4-0.4-0.4h-0.9c-0.2,0-0.4,0.2-0.4,0.4c0,0.2,0.2,0.4,0.4,0.4h0.9
		C142.5,426.5,142.7,426.3,142.7,426.1z"/>
	<path class="st3" d="M124.9,417.6h0.7c0.2,0,0.4-0.2,0.4-0.4c0-0.2-0.2-0.4-0.4-0.4h-0.7c-0.2,0-0.4,0.2-0.4,0.4
		C124.5,417.4,124.6,417.6,124.9,417.6z"/>
	<path class="st3" d="M124.9,418.8h3.3c0.2,0,0.4-0.2,0.4-0.4c0-0.2-0.2-0.4-0.4-0.4h-3.3c-0.2,0-0.4,0.2-0.4,0.4
		C124.5,418.6,124.6,418.8,124.9,418.8z"/>
	<path class="st3" d="M127.5,417.6h0.7c0.2,0,0.4-0.2,0.4-0.4c0-0.2-0.2-0.4-0.4-0.4h-0.7c-0.2,0-0.4,0.2-0.4,0.4
		C127.1,417.4,127.2,417.6,127.5,417.6z"/>
	<path class="st3" d="M130.8,416.7h-0.7c-0.2,0-0.4,0.2-0.4,0.4c0,0.2,0.2,0.4,0.4,0.4h0.7c0.2,0,0.4-0.2,0.4-0.4
		C131.2,416.9,131,416.7,130.8,416.7z"/>
	<path class="st3" d="M124.9,420h3.3c0.2,0,0.4-0.2,0.4-0.4c0-0.2-0.2-0.4-0.4-0.4h-3.3c-0.2,0-0.4,0.2-0.4,0.4
		C124.5,419.8,124.6,420,124.9,420z"/>
	<path class="st3" d="M124.5,420.8c0,0.2,0.2,0.4,0.4,0.4h5.2c0.2,0,0.4-0.2,0.4-0.4c0-0.2-0.2-0.4-0.4-0.4h-5.2
		C124.6,420.4,124.5,420.6,124.5,420.8z"/>
	<path class="st3" d="M131.2,422.1c0-0.2-0.2-0.4-0.4-0.4h-5.9c-0.2,0-0.4,0.2-0.4,0.4c0,0.2,0.2,0.4,0.4,0.4h5.9
		C131,422.5,131.2,422.3,131.2,422.1z"/>
	<path class="st3" d="M126.5,424c0-0.2-0.2-0.4-0.4-0.4h-1.2c-0.2,0-0.4,0.2-0.4,0.4v1.2c0,0.2,0.2,0.4,0.4,0.4h1.2
		c0.2,0,0.4-0.2,0.4-0.4V424z M125.6,424.8h-0.3v-0.3h0.3V424.8z"/>
	<path class="st3" d="M129.3,424c0-0.2-0.2-0.4-0.4-0.4h-1.2c-0.2,0-0.4,0.2-0.4,0.4v1.2c0,0.2,0.2,0.4,0.4,0.4h1.2
		c0.2,0,0.4-0.2,0.4-0.4V424z M128.4,424.8h-0.3v-0.3h0.3V424.8z"/>
	<path class="st3" d="M132.1,424c0-0.2-0.2-0.4-0.4-0.4h-1.2c-0.2,0-0.4,0.2-0.4,0.4v1.2c0,0.2,0.2,0.4,0.4,0.4h1.2
		c0.2,0,0.4-0.2,0.4-0.4V424z M131.2,424.8h-0.3v-0.3h0.3V424.8z"/>
	<path class="st3" d="M126.1,426.6h-1.2c-0.2,0-0.4,0.2-0.4,0.4v1.2c0,0.2,0.2,0.4,0.4,0.4h1.2c0.2,0,0.4-0.2,0.4-0.4V427
		C126.5,426.8,126.3,426.6,126.1,426.6z M125.6,427.8h-0.3v-0.3h0.3V427.8z"/>
	<path class="st3" d="M128.9,426.6h-1.2c-0.2,0-0.4,0.2-0.4,0.4v1.2c0,0.2,0.2,0.4,0.4,0.4h1.2c0.2,0,0.4-0.2,0.4-0.4V427
		C129.3,426.8,129.1,426.6,128.9,426.6z M128.4,427.8h-0.3v-0.3h0.3V427.8z"/>
	<path class="st3" d="M130.5,428.6h1.2c0.2,0,0.4-0.2,0.4-0.4V427c0-0.2-0.2-0.4-0.4-0.4h-1.2c-0.2,0-0.4,0.2-0.4,0.4v1.2
		C130.1,428.4,130.3,428.6,130.5,428.6z M130.9,427.5h0.3v0.3h-0.3V427.5z"/>
</g>
<g>
	<path class="st3" d="M294.8,520.3c0.2,0,0.4-0.1,0.5-0.2c0.1-0.1,0.2-0.3,0.2-0.5c0-0.2-0.1-0.4-0.2-0.5c-0.1-0.1-0.3-0.2-0.5-0.2
		c-0.2,0-0.4,0.1-0.5,0.2c-0.1,0.1-0.2,0.3-0.2,0.5c0,0.2,0.1,0.4,0.2,0.5C294.5,520.2,294.7,520.3,294.8,520.3z"/>
	<path class="st3" d="M317.5,506.2c-0.2,0-0.4,0.1-0.5,0.2c-0.1,0.1-0.2,0.3-0.2,0.5c0,0.2,0.1,0.4,0.2,0.5c0.1,0.1,0.3,0.2,0.5,0.2
		s0.4-0.1,0.5-0.2c0.1-0.1,0.2-0.3,0.2-0.5c0-0.2-0.1-0.4-0.2-0.5C317.8,506.3,317.6,506.2,317.5,506.2z"/>
	<path class="st3" d="M310.9,494.6c-6.8,0-12.3,5.5-12.3,12.3s5.5,12.3,12.3,12.3c6.8,0,12.3-5.5,12.3-12.3S317.7,494.6,310.9,494.6
		z M310.9,496.1c3.3,0,6.3,1.5,8.3,3.9l-0.8,0.8c-0.3-0.1-0.6-0.2-0.9-0.2c-1.2,0-2.2,1-2.2,2.2c0,0.3,0.1,0.5,0.2,0.8l-4.2,3.8
		c-0.2-0.1-0.5-0.1-0.7-0.1c-0.5,0-1,0.2-1.4,0.5l-3.4-2.3c0-0.1,0-0.2,0-0.3c0-1.2-1-2.2-2.2-2.2s-2.2,1-2.2,2.2
		c0,0.2,0,0.4,0.1,0.6l-1.4,1C300.2,500.8,305,496.1,310.9,496.1z M318.2,502.7c0,0.4-0.3,0.7-0.7,0.7c-0.4,0-0.7-0.3-0.7-0.7
		c0-0.4,0.3-0.7,0.7-0.7C317.9,502,318.2,502.3,318.2,502.7z M302.9,514.2c-1.4-1.6-2.4-3.6-2.7-5.8l2.2-1.5
		c0.2,0.1,0.3,0.2,0.5,0.3V514.2z M303.6,505.8c-0.4,0-0.7-0.3-0.7-0.7c0-0.4,0.3-0.7,0.7-0.7c0.4,0,0.7,0.3,0.7,0.7
		C304.3,505.5,304,505.8,303.6,505.8z M309.8,517.7c-2.1-0.2-3.9-1-5.5-2.2v-8.4c0.3-0.1,0.6-0.3,0.8-0.5l3.3,2.2c0,0.1,0,0.3,0,0.5
		c0,0.9,0.6,1.7,1.4,2V517.7z M310.5,510c-0.4,0-0.7-0.3-0.7-0.7s0.3-0.7,0.7-0.7c0.4,0,0.7,0.3,0.7,0.7
		C311.2,509.7,310.9,510,310.5,510z M321.7,506.9c0,3.2-1.4,6-3.6,8v-5c0-0.4-0.3-0.7-0.7-0.7c-0.4,0-0.7,0.3-0.7,0.7v6.1
		c-1.6,1-3.5,1.6-5.5,1.7v-6.4c0.8-0.3,1.4-1.1,1.4-2c0-0.4-0.1-0.8-0.3-1.1l4-3.6c0.3,0.2,0.7,0.3,1.1,0.3c1.2,0,2.2-1,2.2-2.2
		c0-0.3-0.1-0.7-0.2-0.9l0.6-0.6C321.1,502.8,321.7,504.8,321.7,506.9z"/>
	<path class="st3" d="M326.8,494.4c0.3-0.3,0.3-0.7,0-1c-0.3-0.3-0.7-0.3-1,0l-2.8,2.8c-0.2-0.2-0.4-0.5-0.7-0.7
		c-3-3-7.1-4.7-11.4-4.7s-8.4,1.7-11.4,4.7c-3,3-4.7,7.1-4.7,11.4c0,1.1,0.1,2.1,0.3,3.2l-4.8,3.3c-0.3,0.2-0.4,0.7-0.2,1
		c0.1,0.2,0.4,0.3,0.6,0.3c0.1,0,0.3,0,0.4-0.1l4.3-3c0.5,1.5,1.1,3,2,4.3l-1.2,1.2c-0.3,0.3-0.3,0.7,0,1c0.1,0.1,0.3,0.2,0.5,0.2
		c0.2,0,0.4-0.1,0.5-0.2l1.1-1.1c0.4,0.4,0.7,0.8,1.1,1.2s0.8,0.8,1.2,1.1l-6.4,6.4c-0.6,0.6-1.7,0.6-2.4,0c-0.7-0.7-0.7-1.7,0-2.4
		l1.4-1.4c0.3-0.3,0.3-0.7,0-1c-0.3-0.3-0.7-0.3-1,0l-1.4,1.4c-1.2,1.2-1.2,3.2,0,4.4c0.6,0.6,1.4,0.9,2.2,0.9
		c0.8,0,1.6-0.3,2.2-0.9l6.6-6.6c2.6,1.8,5.7,2.7,9,2.7c4.3,0,8.4-1.7,11.4-4.7c3-3,4.7-7.1,4.7-11.4c0-3.5-1.1-6.8-3.1-9.6
		L326.8,494.4z M325.6,506.9c0,8.1-6.6,14.7-14.7,14.7c-8.1,0-14.7-6.6-14.7-14.7s6.6-14.7,14.7-14.7
		C319,492.2,325.6,498.8,325.6,506.9z"/>
</g>
</svg>
